<?xml version="1.0" encoding="iso-8859-1"?>
<!-- Generator: Adobe Illustrator 17.0.1, SVG Export Plug-In . SVG Version: 6.00 Build 0)  -->
<!DOCTYPE svg PUBLIC "-//W3C//DTD SVG 1.1//EN" "http://www.w3.org/Graphics/SVG/1.1/DTD/svg11.dtd">
<svg version="1.1" id="Layer_1" xmlns="http://www.w3.org/2000/svg" xmlns:xlink="http://www.w3.org/1999/xlink" x="0px" y="0px"
	 width="64px" height="64px" viewBox="0 0 64 64" style="enable-background:new 0 0 64 64;" xml:space="preserve">
<g id="icon-m-game-controller">
	<rect id="icon-m-game-controller_1_" style="opacity:0;fill:#FFFFFF;" width="64" height="64"/>
	<g>
		<path style="fill:#FFFFFF;" d="M52,49.625H12c-2.757,0-5-2.243-5-5v-24c0-2.757,2.243-5,5-5h40c2.757,0,5,2.243,5,5v24
			C57,47.382,54.757,49.625,52,49.625z M12,17.625c-1.654,0-3,1.346-3,3v24c0,1.654,1.346,3,3,3h40c1.654,0,3-1.346,3-3v-24
			c0-1.654-1.346-3-3-3H12z"/>
		<g style="opacity:0.6;">
			<path style="fill:#FFFFFF;" d="M27.618,31.97c0-0.575-0.471-1.046-1.046-1.046h-3.206c-0.575,0-1.046-0.471-1.046-1.046v-3.206
				c0-0.575-0.471-1.046-1.046-1.046h-1.31c-0.575,0-1.046,0.471-1.046,1.046v3.206c0,0.575-0.471,1.046-1.046,1.046h-3.206
				c-0.575,0-1.046,0.471-1.046,1.046v1.31c0,0.575,0.471,1.046,1.046,1.046h3.206c0.575,0,1.046,0.471,1.046,1.046v3.207
				c0,0.575,0.471,1.046,1.046,1.046h1.31c0.575,0,1.046-0.471,1.046-1.046v-3.207c0-0.575,0.471-1.046,1.046-1.046h3.206
				c0.575,0,1.046-0.471,1.046-1.046V31.97z"/>
		</g>
		<circle style="fill:#FFFFFF;" cx="38.637" cy="32.625" r="2"/>
		<circle style="fill:#FFFFFF;" cx="48.647" cy="32.625" r="2"/>
		<circle style="fill:#FFFFFF;" cx="43.642" cy="27.62" r="2"/>
		<circle style="fill:#FFFFFF;" cx="43.642" cy="37.631" r="2.001"/>
	</g>
</g>
</svg>
