<?xml version="1.0" encoding="iso-8859-1"?>
<!-- Generator: Adobe Illustrator 17.0.1, SVG Export Plug-In . SVG Version: 6.00 Build 0)  -->
<!DOCTYPE svg PUBLIC "-//W3C//DTD SVG 1.1//EN" "http://www.w3.org/Graphics/SVG/1.1/DTD/svg11.dtd">
<svg version="1.1" id="Layer_1" xmlns="http://www.w3.org/2000/svg" xmlns:xlink="http://www.w3.org/1999/xlink" x="0px" y="0px"
	 width="64px" height="64px" viewBox="0 0 64 64" style="enable-background:new 0 0 64 64;" xml:space="preserve">
<g id="icon-m-delete">
	<rect id="icon-m-delete_1_" style="opacity:0;fill:#FFFFFF;" width="64" height="64"/>
	<g style="opacity:0.6;">
		<path style="fill:#FFFFFF;" d="M42.856,53.668H21.144c-2.757,0-5-2.243-5-5V19.067c0-0.552,0.448-1,1-1s1,0.448,1,1v29.601
			c0,1.654,1.346,3,3,3h21.713c1.654,0,3-1.346,3-3V19.067c0-0.552,0.447-1,1-1s1,0.448,1,1v29.601
			C47.856,51.425,45.613,53.668,42.856,53.668z"/>
	</g>
	<path style="opacity:0.6;fill:#FFFFFF;" d="M24.426,46.702c-0.552,0-1-0.447-1-1V25.257c0-0.552,0.448-1,1-1s1,0.448,1,1v20.445
		C25.426,46.255,24.978,46.702,24.426,46.702z"/>
	<path style="opacity:0.6;fill:#FFFFFF;" d="M32,46.702c-0.552,0-1-0.447-1-1V25.257c0-0.552,0.448-1,1-1s1,0.448,1,1v20.445
		C33,46.255,32.552,46.702,32,46.702z"/>
	<path style="opacity:0.6;fill:#FFFFFF;" d="M39.574,46.702c-0.553,0-1-0.447-1-1V25.257c0-0.552,0.447-1,1-1s1,0.448,1,1v20.445
		C40.574,46.255,40.127,46.702,39.574,46.702z"/>
	<path style="fill:#FFFFFF;" d="M46.869,19.867h-29.74c-2.757,0-5-2.243-5-5s2.243-5,5-5h29.74c2.757,0,5,2.243,5,5
		S49.626,19.867,46.869,19.867z M17.129,11.867c-1.654,0-3,1.346-3,3s1.346,3,3,3h29.74c1.654,0,3-1.346,3-3s-1.346-3-3-3H17.129z"
		/>
</g>
</svg>
