<?xml version="1.0" encoding="iso-8859-1"?>
<!-- Generator: Adobe Illustrator 17.0.1, SVG Export Plug-In . SVG Version: 6.00 Build 0)  -->
<!DOCTYPE svg PUBLIC "-//W3C//DTD SVG 1.1//EN" "http://www.w3.org/Graphics/SVG/1.1/DTD/svg11.dtd">
<svg version="1.1" id="Layer_1" xmlns="http://www.w3.org/2000/svg" xmlns:xlink="http://www.w3.org/1999/xlink" x="0px" y="0px"
	 width="96px" height="96px" viewBox="0 0 96 96" style="enable-background:new 0 0 96 96;" xml:space="preserve">
<g id="icon-l-clipboard">
	<rect id="icon-l-clipboard_1_" style="opacity:0;fill:#FFFFFF;" width="96" height="96"/>
	<g style="opacity:0.6;">
		<path style="fill:#FFFFFF;" d="M77.585,87.039H18.414c-2.434,0-4.415-1.98-4.415-4.414V19.454c0-2.434,1.98-4.415,4.415-4.415H37
			v2H18.414c-1.332,0-2.415,1.083-2.415,2.415v63.171c0,1.331,1.083,2.414,2.415,2.414h59.171c1.331,0,2.414-1.083,2.414-2.414
			V19.454c0-1.332-1.083-2.415-2.414-2.415H61v-2h16.585c2.434,0,4.414,1.98,4.414,4.415v63.171
			C81.999,85.059,80.019,87.039,77.585,87.039z"/>
	</g>
	<path style="fill:#FFFFFF;" d="M56.586,25.533H39.415c-2.434,0-4.415-1.98-4.415-4.415V9.947c0-2.434,1.98-4.414,4.415-4.414
		h17.171C59.02,5.533,61,7.513,61,9.947v11.171C61,23.552,59.02,25.533,56.586,25.533z M39.415,7.533
		C38.083,7.533,37,8.616,37,9.947v11.171c0,1.332,1.083,2.415,2.415,2.415h17.171c1.331,0,2.414-1.083,2.414-2.415V9.947
		c0-1.331-1.083-2.414-2.414-2.414H39.415z"/>
	<circle style="fill:#FFFFFF;" cx="48" cy="11.824" r="2.135"/>
	<path style="fill:#FFFFFF;" d="M67.847,37.354H28.152c-0.552,0-1-0.448-1-1s0.448-1,1-1h39.694c0.553,0,1,0.448,1,1
		S68.399,37.354,67.847,37.354z"/>
	<path style="fill:#FFFFFF;" d="M67.847,49.047H28.152c-0.552,0-1-0.448-1-1s0.448-1,1-1h39.694c0.553,0,1,0.448,1,1
		S68.399,49.047,67.847,49.047z"/>
	<path style="fill:#FFFFFF;" d="M67.847,60.739H28.152c-0.552,0-1-0.447-1-1s0.448-1,1-1h39.694c0.553,0,1,0.447,1,1
		S68.399,60.739,67.847,60.739z"/>
	<path style="fill:#FFFFFF;" d="M67.847,72.432H28.152c-0.552,0-1-0.447-1-1s0.448-1,1-1h39.694c0.553,0,1,0.447,1,1
		S68.399,72.432,67.847,72.432z"/>
</g>
</svg>
