<?xml version="1.0" encoding="iso-8859-1"?>
<!-- Generator: Adobe Illustrator 17.0.1, SVG Export Plug-In . SVG Version: 6.00 Build 0)  -->
<!DOCTYPE svg PUBLIC "-//W3C//DTD SVG 1.1//EN" "http://www.w3.org/Graphics/SVG/1.1/DTD/svg11.dtd">
<svg version="1.1" id="Layer_1" xmlns="http://www.w3.org/2000/svg" xmlns:xlink="http://www.w3.org/1999/xlink" x="0px" y="0px"
	 width="96px" height="96px" viewBox="0 0 96 96" style="enable-background:new 0 0 96 96;" xml:space="preserve">
<g id="icon-l-mass-storage">
	<rect id="icon-l-mass-storage_1_" style="opacity:0;fill:#FFFFFF;" width="96" height="96"/>
	<path style="fill:#FFFFFF;" d="M58.069,89H40.245c-9.906,0-20.513-7.286-20.513-18.134V42c0-1.654,1.346-3,3-3h49.466
		c1.654,0,3,1.346,3,3v28.866C75.198,81.543,68.154,89,58.069,89z M22.732,41c-0.551,0-1,0.449-1,1v28.866
		C21.732,80.374,31.489,87,40.245,87h17.824c8.907,0,15.129-6.635,15.129-16.134V42c0-0.551-0.448-1-1-1H22.732z"/>
	<g style="opacity:0.4;">
		<path style="fill:#FFFFFF;" d="M67.742,41H27.188c-1.654,0-3-1.346-3-3V10c0-1.654,1.346-3,3-3h40.554c1.654,0,3,1.346,3,3v28
			C70.742,39.654,69.396,41,67.742,41z M27.188,9c-0.551,0-1,0.449-1,1v28c0,0.551,0.449,1,1,1h40.554c0.552,0,1-0.449,1-1V10
			c0-0.551-0.448-1-1-1H27.188z"/>
	</g>
	<rect x="32.544" y="16.089" style="opacity:0.4;fill:#FFFFFF;" width="8.912" height="8.91"/>
	<rect x="53.544" y="16.089" style="opacity:0.4;fill:#FFFFFF;" width="8.912" height="8.91"/>
</g>
</svg>
