<?xml version="1.0" encoding="iso-8859-1"?>
<!-- Generator: Adobe Illustrator 17.0.1, SVG Export Plug-In . SVG Version: 6.00 Build 0)  -->
<!DOCTYPE svg PUBLIC "-//W3C//DTD SVG 1.1//EN" "http://www.w3.org/Graphics/SVG/1.1/DTD/svg11.dtd">
<svg version="1.1" id="Layer_1" xmlns="http://www.w3.org/2000/svg" xmlns:xlink="http://www.w3.org/1999/xlink" x="0px" y="0px"
	 width="64px" height="64px" viewBox="0 0 64 64" style="enable-background:new 0 0 64 64;" xml:space="preserve">
<g id="icon-m-note">
	<rect id="icon-m-note_1_" style="opacity:0;fill:#FFFFFF;" width="64" height="64"/>
	<g>
		<path style="opacity:0.6;fill:#FFFFFF;" d="M38.096,53h-23.71C12.784,53,11,51.725,11,49.895V14.105
			C11,12.275,12.784,11,14.386,11h35.79C51.813,11,53,12.306,53,14.105v23.697L38.096,53z M14.386,13C13.712,13,13,13.568,13,14.105
			v35.789C13,50.432,13.712,51,14.386,51h22.87L51,36.986V14.105C51,13.846,50.94,13,50.176,13H14.386z"/>
		<path style="fill:#FFFFFF;" d="M37.087,39.277V52L52,37H39.587C38.438,37,37.087,38.099,37.087,39.277z"/>
		<g>
			<path style="fill:#FFFFFF;" d="M43,24H21c-0.552,0-1-0.448-1-1s0.448-1,1-1h22c0.553,0,1,0.448,1,1S43.553,24,43,24z"/>
			<path style="fill:#FFFFFF;" d="M43,33H21c-0.552,0-1-0.448-1-1s0.448-1,1-1h22c0.553,0,1,0.448,1,1S43.553,33,43,33z"/>
			<path style="fill:#FFFFFF;" d="M43,42H21c-0.552,0-1-0.447-1-1s0.448-1,1-1h22c0.553,0,1,0.447,1,1S43.553,42,43,42z"/>
		</g>
	</g>
</g>
</svg>
