<?xml version="1.0" encoding="iso-8859-1"?>
<!-- Generator: Adobe Illustrator 17.0.1, SVG Export Plug-In . SVG Version: 6.00 Build 0)  -->
<!DOCTYPE svg PUBLIC "-//W3C//DTD SVG 1.1//EN" "http://www.w3.org/Graphics/SVG/1.1/DTD/svg11.dtd">
<svg version="1.1" id="Layer_1" xmlns="http://www.w3.org/2000/svg" xmlns:xlink="http://www.w3.org/1999/xlink" x="0px" y="0px"
	 width="64px" height="64px" viewBox="0 0 64 64" style="enable-background:new 0 0 64 64;" xml:space="preserve">
<g id="icon-m-favorite_2_">
	<rect id="icon-m-favorite" style="opacity:0;fill:#FFFFFF;" width="64" height="64"/>
	<path style="fill:#FFFFFF;" d="M44.523,50.868c-0.53,0-1.108-0.232-1.766-0.71l-8.818-6.408c-0.99-0.719-2.889-0.72-3.879,0
		l-8.818,6.408c-1.288,0.937-2.416,0.904-3.002,0.099c-0.396-0.545-0.429-1.336-0.099-2.352l3.37-10.367
		c0.395-1.215-0.166-2.938-1.199-3.688l-8.82-6.409c-1.347-0.979-1.413-1.854-1.23-2.415c0.182-0.562,0.75-1.23,2.415-1.23h10.899
		c1.277,0,2.744-1.065,3.138-2.28l3.369-10.369C30.598,9.563,31.41,9.23,32,9.23s1.402,0.333,1.916,1.917l3.37,10.369
		c0.395,1.215,1.861,2.28,3.139,2.28h10.901c1.665,0,2.232,0.669,2.415,1.23c0.182,0.561,0.116,1.436-1.23,2.415l-8.82,6.408
		c-1.033,0.751-1.594,2.476-1.199,3.69l3.368,10.367c0.329,1.016,0.296,1.806-0.1,2.351C45.474,50.651,45.034,50.868,44.523,50.868z
		 M32,41.184c1.167,0,2.273,0.337,3.115,0.949l8.818,6.408c0.013,0.009,0.025,0.018,0.037,0.026
		c-0.004-0.015-0.009-0.029-0.014-0.044l-3.368-10.367c-0.666-2.054,0.18-4.656,1.926-5.925l8.82-6.408
		c0.013-0.009,0.024-0.018,0.036-0.027c-0.015,0-0.029,0-0.045,0H40.425c-2.159,0-4.373-1.608-5.041-3.662l-3.37-10.369
		c-0.005-0.015-0.009-0.029-0.014-0.043c-0.005,0.014-0.009,0.029-0.014,0.043l-3.369,10.369c-0.667,2.053-2.881,3.662-5.041,3.662
		H12.677c-0.016,0-0.03,0-0.045,0c0.012,0.009,0.024,0.018,0.037,0.027l8.82,6.408c1.747,1.269,2.592,3.872,1.925,5.924
		l-3.37,10.368c-0.005,0.015-0.009,0.029-0.014,0.043c0.012-0.008,0.024-0.017,0.036-0.025l8.818-6.408
		C29.727,41.521,30.833,41.184,32,41.184z"/>
</g>
</svg>
