<?xml version="1.0" encoding="iso-8859-1"?>
<!-- Generator: Adobe Illustrator 17.0.1, SVG Export Plug-In . SVG Version: 6.00 Build 0)  -->
<!DOCTYPE svg PUBLIC "-//W3C//DTD SVG 1.1//EN" "http://www.w3.org/Graphics/SVG/1.1/DTD/svg11.dtd">
<svg version="1.1" id="Layer_1" xmlns="http://www.w3.org/2000/svg" xmlns:xlink="http://www.w3.org/1999/xlink" x="0px" y="0px"
	 width="96px" height="96px" viewBox="0 0 96 96" style="enable-background:new 0 0 96 96;" xml:space="preserve">
<g id="icon-l-backup_2_">
	<rect id="icon-l-backup" style="opacity:0;fill:#FFFFFF;" width="96" height="96"/>
	<path style="fill:#FFFFFF;" d="M72.002,49.961h-24c-0.552,0-1-0.448-1-1v-26c0-0.552,0.448-1,1-1s1,0.448,1,1v25h23
		c0.553,0,1,0.448,1,1S72.555,49.961,72.002,49.961z"/>
	<g style="opacity:0.6;">
		<path style="fill:#FFFFFF;" d="M48.602,84.224c-7.624,0-14.917-2.341-21.092-6.771c-0.449-0.322-0.551-0.946-0.229-1.396
			c0.321-0.449,0.945-0.553,1.396-0.229c5.833,4.184,12.723,6.396,19.926,6.396c18.871,0,34.223-15.353,34.223-34.224
			S67.473,13.776,48.602,13.776c-18.871,0-34.224,15.353-34.224,34.224c0,0.168,0,0.336,0.001,0.502
			c0.021-0.001,0.042-0.002,0.063-0.002h12.031c0.325,0,0.63,0.158,0.817,0.424c0.188,0.266,0.234,0.606,0.124,0.913l-6.975,19.5
			c-0.122,0.341-0.418,0.589-0.775,0.649c-0.358,0.057-0.718-0.077-0.945-0.359C13.132,62.673,12.378,54.792,12.378,48
			c0-19.974,16.25-36.224,36.224-36.224c19.973,0,36.223,16.25,36.223,36.224S68.575,84.224,48.602,84.224z M14.423,50.5
			c0.265,7.052,1.713,12.043,4.761,16.413L25.055,50.5H14.443C14.437,50.5,14.43,50.5,14.423,50.5z"/>
	</g>
</g>
</svg>
