<?xml version="1.0" encoding="iso-8859-1"?>
<!-- Generator: Adobe Illustrator 17.0.1, SVG Export Plug-In . SVG Version: 6.00 Build 0)  -->
<!DOCTYPE svg PUBLIC "-//W3C//DTD SVG 1.1//EN" "http://www.w3.org/Graphics/SVG/1.1/DTD/svg11.dtd">
<svg version="1.1" id="Layer_1" xmlns="http://www.w3.org/2000/svg" xmlns:xlink="http://www.w3.org/1999/xlink" x="0px" y="0px"
	 width="64px" height="64px" viewBox="0 0 64 64" style="enable-background:new 0 0 64 64;" xml:space="preserve">
<g id="icon-m-repeat">
	<rect id="icon-m-repeat_1_" style="opacity:0;fill:#FFFFFF;" width="64" height="64"/>
	<path style="opacity:0.6;fill:#FFFFFF;" d="M40.735,55.163H23.138C11.846,55.163,3,46.536,3,35.522
		c0-10.119,7.65-18.613,17.794-19.758l0.112-0.006h4.123c0.552,0,1,0.448,1,1s-0.448,1-1,1h-4.066C11.859,18.813,5,26.441,5,35.522
		c0,9.892,7.967,17.641,18.138,17.641h17.598C50.978,53.163,59,45.36,59,35.398c0-8.32-5.673-15.431-13.795-17.292l-3.146-0.484
		c-0.545-0.084-0.919-0.595-0.835-1.141s0.586-0.915,1.142-0.835l3.216,0.498C54.688,18.228,61,26.141,61,35.398
		C61,46.297,51.909,55.163,40.735,55.163z"/>
	<g id="XMLID_13_">
		<path style="fill:#FFFFFF;" d="M26.201,28.135c-1.081,0-2.172-0.833-2.172-2.696v-18c0-1.862,1.091-2.696,2.172-2.696
			c0.598,0,1.212,0.234,1.828,0.696l11.199,8.4c0.884,0.663,1.391,1.61,1.391,2.6c0,0.989-0.507,1.937-1.391,2.6l-11.199,8.4
			C27.414,27.901,26.799,28.135,26.201,28.135z M26.201,6.743c-0.048,0.023-0.172,0.216-0.172,0.696v18
			c0,0.48,0.124,0.673,0.156,0.698l0.016-0.002c0.113,0,0.337-0.078,0.628-0.295l11.2-8.4c0.38-0.286,0.59-0.641,0.59-1
			c0-0.36-0.21-0.715-0.59-1l-11.2-8.4C26.539,6.821,26.314,6.743,26.201,6.743z"/>
	</g>
</g>
</svg>
