<?xml version="1.0" encoding="iso-8859-1"?>
<!-- Generator: Adobe Illustrator 17.0.1, SVG Export Plug-In . SVG Version: 6.00 Build 0)  -->
<!DOCTYPE svg PUBLIC "-//W3C//DTD SVG 1.1//EN" "http://www.w3.org/Graphics/SVG/1.1/DTD/svg11.dtd">
<svg version="1.1" id="Layer_1" xmlns="http://www.w3.org/2000/svg" xmlns:xlink="http://www.w3.org/1999/xlink" x="0px" y="0px"
	 width="96px" height="96px" viewBox="0 0 96 96" style="enable-background:new 0 0 96 96;" xml:space="preserve">
<g id="icon-l-music">
	<rect id="icon-l-music_1_" style="opacity:0;fill:#FFFFFF;" width="96" height="96"/>
	<g>
		<path style="opacity:0.5;fill:#FFFFFF;" d="M74.65,15.756H35.424c-3.3,0-6,2.677-6,5.949c0,1.907,0,42.746,0,42.746
			c0,3.3,5.795,3.3,5.795,0V34.107h39.636V64.45c0,3.3,5.795,3.3,5.795,0c0,0,0-40.839,0-42.746
			C80.65,18.433,77.95,15.756,74.65,15.756z"/>
		<path style="fill:#FFFFFF;" d="M19.988,82.073c-5.823,0-10.05-3.902-10.05-9.281c0-6.187,5.405-12.183,12.304-13.651
			c0.986-0.209,1.971-0.315,2.927-0.315c5.823,0,10.049,3.902,10.049,9.28c0,6.189-5.404,12.184-12.303,13.651
			C21.93,81.967,20.945,82.073,19.988,82.073z"/>
		<path style="fill:#FFFFFF;" d="M65.419,82.073c-5.823,0-10.049-3.902-10.049-9.281c0-6.187,5.404-12.183,12.303-13.651
			c0.986-0.209,1.971-0.315,2.927-0.315c5.823,0,10.049,3.902,10.049,9.28c0,6.189-5.405,12.184-12.303,13.651
			C67.361,81.967,66.376,82.073,65.419,82.073z"/>
	</g>
</g>
</svg>
