<?xml version="1.0" encoding="iso-8859-1"?>
<!-- Generator: Adobe Illustrator 17.0.1, SVG Export Plug-In . SVG Version: 6.00 Build 0)  -->
<!DOCTYPE svg PUBLIC "-//W3C//DTD SVG 1.1//EN" "http://www.w3.org/Graphics/SVG/1.1/DTD/svg11.dtd">
<svg version="1.1" id="Layer_1" xmlns="http://www.w3.org/2000/svg" xmlns:xlink="http://www.w3.org/1999/xlink" x="0px" y="0px"
	 width="96px" height="96px" viewBox="0 0 96 96" style="enable-background:new 0 0 96 96;" xml:space="preserve">
<g id="icon-l-image">
	<rect id="icon-l-image_1_" style="opacity:0;fill:#FFFFFF;" width="96" height="96"/>
	<path style="opacity:0.5;fill:#FFFFFF;" d="M77.25,18.75h-60c-3.314,0-6,2.687-6,6v45c0,3.313,2.686,6,6,6h60c3.313,0,6-2.687,6-6
		v-45C83.25,21.437,80.563,18.75,77.25,18.75z"/>
	<path style="fill:#FFFFFF;" d="M83.25,69.75V44.343l-6.144-6.273c-2.979-2.98-7.726-2.98-10.704,0L45.308,59.232
		c-2.979,2.98-7.823,2.98-10.804-0.002l-1.56-1.571c-2.98-2.982-7.846-2.982-10.825-0.001L11.25,68.533v1.217c0,3.313,2.686,6,6,6
		h60C80.563,75.75,83.25,73.063,83.25,69.75z"/>
	<circle style="fill:#FFFFFF;" cx="32.281" cy="36.891" r="8.438"/>
</g>
</svg>
