<?xml version="1.0" encoding="iso-8859-1"?>
<!-- Generator: Adobe Illustrator 17.0.1, SVG Export Plug-In . SVG Version: 6.00 Build 0)  -->
<!DOCTYPE svg PUBLIC "-//W3C//DTD SVG 1.1//EN" "http://www.w3.org/Graphics/SVG/1.1/DTD/svg11.dtd">
<svg version="1.1" id="Layer_1" xmlns="http://www.w3.org/2000/svg" xmlns:xlink="http://www.w3.org/1999/xlink" x="0px" y="0px"
	 width="32px" height="32px" viewBox="0 0 32 32" style="enable-background:new 0 0 32 32;" xml:space="preserve">
<g id="icon-lock-missed-call_2_">
	<rect id="icon-lock-missed-call_3_" style="opacity:0;fill:#FFFFFF;" width="32" height="32"/>
	<g>
		<g>
			<path style="fill:#E69E45;" d="M5.207,16.339c0,0,4.262-2.35,4.258-2.356c2.312-1.244,3.24-4.141,2.636-6.526
				c-0.437-1.727-1.091-5.118-1.091-5.118s-2.645,0-4.504,0c-2.491,0-4.938,3.577-3.765,7.733
				C3.331,12.164,4.172,14.467,5.207,16.339z"/>
			<path style="fill:#E69E45;" d="M25.228,20.464c-2.264-0.57-5.074,0.347-6.379,2.305l-2.456,4.527
				c1.793,0.984,4.167,2.11,6.148,2.708c4.14,1.25,7.899-1.223,7.899-3.716c0-1.843-0.009-4.32-0.009-4.32
				S26.953,20.899,25.228,20.464z"/>
		</g>
		<path style="fill:#E69E45;" d="M19.118,23.344c-0.009,0.016,0.002,0.032-0.006,0.048c-3.598-1.959-6.116-4.31-8.337-7.602
			c-0.332-0.481-0.64-0.975-0.937-1.481c-0.127-0.21-0.25-0.422-0.376-0.64c0.003-0.001,0.006-0.003,0.009-0.005
			C7.627,10.295,6.566,6.339,6.515,2.339H6.507c-2.491,0-4.938,3.577-3.765,7.733c2.686,9.525,10.286,17.074,19.752,19.932
			c4.14,1.25,7.852-1.223,7.852-3.716c0-0.003,0-0.005,0-0.008C26.346,26.229,22.475,25.175,19.118,23.344z"/>
	</g>
</g>
</svg>
