<?xml version="1.0" encoding="iso-8859-1"?>
<!-- Generator: Adobe Illustrator 17.0.1, SVG Export Plug-In . SVG Version: 6.00 Build 0)  -->
<!DOCTYPE svg PUBLIC "-//W3C//DTD SVG 1.1//EN" "http://www.w3.org/Graphics/SVG/1.1/DTD/svg11.dtd">
<svg version="1.1" id="Layer_1" xmlns="http://www.w3.org/2000/svg" xmlns:xlink="http://www.w3.org/1999/xlink" x="0px" y="0px"
	 width="64px" height="64px" viewBox="0 0 64 64" style="enable-background:new 0 0 64 64;" xml:space="preserve">
<g id="icon-m-attach">
	<rect id="icon-m-attach_1_" style="opacity:0;fill:#FFFFFF;" width="64" height="64"/>
	<path style="fill:#FFFFFF;" d="M30.42,52.992c-0.256,0-0.512-0.098-0.707-0.293c-0.391-0.391-0.391-1.023,0-1.414L49.788,31.21
		c4.639-4.64,4.639-12.189,0-16.829c-2.247-2.248-5.235-3.485-8.414-3.485s-6.166,1.238-8.414,3.485L12.913,34.659
		c-3.519,3.52-3.519,9.24-0.003,12.758c0.39,0.391,0.39,1.023,0,1.414s-1.024,0.391-1.415,0c-4.294-4.297-4.294-11.287,0-15.582
		l20.048-20.278c2.628-2.629,6.119-4.075,9.832-4.075s7.203,1.446,9.828,4.071c5.418,5.42,5.418,14.238,0,19.657L31.127,52.699
		C30.932,52.895,30.676,52.992,30.42,52.992z"/>
	<path style="opacity:0.6;fill:#FFFFFF;" d="M19.449,51.431c-2.718,0-5.436-1.031-7.505-3.093c-0.391-0.39-0.392-1.022-0.002-1.414
		s1.023-0.394,1.415-0.002c3.359,3.346,8.827,3.348,12.188,0l19.35-19.284c1.133-1.128,1.757-2.629,1.757-4.228
		c0-1.599-0.624-3.101-1.757-4.229c-2.343-2.335-6.155-2.335-8.496,0L16.972,38.538c-0.391,0.39-1.024,0.39-1.415-0.002
		c-0.39-0.392-0.389-1.024,0.002-1.414l19.426-19.357c3.121-3.11,8.199-3.11,11.32,0c1.512,1.506,2.345,3.511,2.345,5.646
		c0,2.134-0.833,4.139-2.345,5.645L26.955,48.338C24.885,50.399,22.167,51.431,19.449,51.431z"/>
</g>
</svg>
