<?xml version="1.0" encoding="iso-8859-1"?>
<!-- Generator: Adobe Illustrator 17.0.1, SVG Export Plug-In . SVG Version: 6.00 Build 0)  -->
<!DOCTYPE svg PUBLIC "-//W3C//DTD SVG 1.1//EN" "http://www.w3.org/Graphics/SVG/1.1/DTD/svg11.dtd">
<svg version="1.1" id="Layer_1" xmlns="http://www.w3.org/2000/svg" xmlns:xlink="http://www.w3.org/1999/xlink" x="0px" y="0px"
	 width="64px" height="64px" viewBox="0 0 64 64" style="enable-background:new 0 0 64 64;" xml:space="preserve">
<g id="icon-m-whereami">
	<rect id="icon-m-whereami_1_" style="opacity:0;fill:#FFFFFF;" width="64" height="64"/>
	<path style="fill:#FFFFFF;" d="M32,58.019c-0.81,0-1.575-0.288-2.154-0.811c-0.04-0.037-3.978-3.618-7.997-8.378
		c-0.829-0.885-1.679-1.945-2.493-3.113c-3.346-4.806-5.803-11.2-6.412-16.687c-0.101-0.909-0.151-1.757-0.151-2.522
		c0-8.986,6.372-16.879,15.15-18.769c2.702-0.581,5.415-0.58,8.113,0c8.779,1.889,15.15,9.783,15.15,18.769
		c0,0.771-0.05,1.596-0.151,2.521c-0.609,5.488-3.065,11.882-6.412,16.688c-0.815,1.17-1.665,2.23-2.526,3.151
		c-3.985,4.723-7.924,8.303-7.964,8.339C33.575,57.73,32.81,58.019,32,58.019z M32,9.301c-1.2,0-2.423,0.132-3.636,0.393
		c-7.863,1.692-13.571,8.763-13.571,16.813c0,0.692,0.047,1.466,0.14,2.302c0.574,5.175,2.898,11.216,6.065,15.765
		c0.759,1.089,1.548,2.074,2.346,2.927c3.967,4.698,7.806,8.189,7.844,8.224c0.413,0.373,1.209,0.374,1.623,0
		c0.038-0.034,3.882-3.531,7.812-8.186c0.829-0.889,1.619-1.874,2.38-2.966c3.166-4.548,5.49-10.589,6.064-15.764
		c0.093-0.839,0.14-1.614,0.14-2.302c0-8.05-5.707-15.121-13.57-16.813C34.424,9.433,33.2,9.301,32,9.301z"/>
	<path style="opacity:0.6;fill:#FFFFFF;" d="M33.995,17.332C33.301,17.182,32.648,17.11,32,17.11c-0.648,0-1.302,0.072-1.995,0.222
		c-4.259,0.916-7.352,4.743-7.37,9.107c-0.001,0.046-0.003,0.087-0.003,0.126c0,0.04,0.002,0.08,0.003,0.126
		c0.018,4.364,3.111,8.191,7.37,9.107c0.693,0.149,1.347,0.222,1.995,0.222c0.648,0,1.301-0.072,1.995-0.222
		c4.259-0.916,7.351-4.743,7.37-9.107c0.001-0.046,0.002-0.086,0.002-0.126c0-0.039-0.001-0.08-0.002-0.126
		C41.346,22.075,38.254,18.248,33.995,17.332z"/>
</g>
</svg>
