<?xml version="1.0" encoding="iso-8859-1"?>
<!-- Generator: Adobe Illustrator 17.0.1, SVG Export Plug-In . SVG Version: 6.00 Build 0)  -->
<!DOCTYPE svg PUBLIC "-//W3C//DTD SVG 1.1//EN" "http://www.w3.org/Graphics/SVG/1.1/DTD/svg11.dtd">
<svg version="1.1" id="Layer_1" xmlns="http://www.w3.org/2000/svg" xmlns:xlink="http://www.w3.org/1999/xlink" x="0px" y="0px"
	 width="32px" height="32px" viewBox="0 0 32 32" style="enable-background:new 0 0 32 32;" xml:space="preserve">
<g id="icon-lock-birthday">
	<rect id="icon-lock-birthday_1_" style="opacity:0;fill:#FFFFFF;" width="32" height="32"/>
	<g>
		<path style="fill:#E6C571;" d="M32,30c0,1.1-0.9,2-2,2H2c-1.1,0-2-0.9-2-2V16.667c0-1.1,0.9-2,2-2h28c1.1,0,2,0.9,2,2V30z"/>
		<g>
			<path style="fill:#DE7654;" d="M8.334,15.409V9.372C8.334,8.728,7.7,8.2,6.924,8.2H6.689c-0.776,0-1.41,0.528-1.41,1.173v6.037
				H8.334z"/>
		</g>
		<path style="fill:#E6AB45;" d="M8.794,5.154c0,1.088-0.89,1.971-1.987,1.971c-1.098,0-1.988-0.883-1.988-1.971
			c0-1.089,1.988-4.821,1.988-4.821S8.794,4.065,8.794,5.154z"/>
		<g>
			<path style="fill:#DE7654;" d="M16.764,15.409V9.372c0-0.645-0.635-1.173-1.41-1.173h-0.235c-0.776,0-1.41,0.528-1.41,1.173
				v6.037H16.764z"/>
		</g>
		<path style="fill:#E6AB45;" d="M17.223,5.154c0,1.088-0.889,1.971-1.987,1.971s-1.987-0.883-1.987-1.971
			c0-1.089,1.987-4.821,1.987-4.821S17.223,4.065,17.223,5.154z"/>
		<g>
			<path style="fill:#DE7654;" d="M25.194,15.409V9.372c0-0.645-0.635-1.173-1.41-1.173h-0.235c-0.776,0-1.41,0.528-1.41,1.173
				v6.037H25.194z"/>
		</g>
		<path style="fill:#E6AB45;" d="M25.653,5.154c0,1.088-0.89,1.971-1.987,1.971s-1.987-0.883-1.987-1.971
			c0-1.089,1.987-4.821,1.987-4.821S25.653,4.065,25.653,5.154z"/>
		<path style="fill:#FFFFFF;" d="M29.725,14.667H2.275c-0.967,0-2.275,0.92-2.275,2.52v7.153c2.013,0,3.862-0.705,5.333-1.879
			c1.472,1.174,3.32,1.879,5.334,1.879c2.013,0,3.861-0.705,5.333-1.879c1.472,1.174,3.32,1.879,5.333,1.879
			c2.015,0,3.863-0.705,5.334-1.879c1.471,1.174,3.32,1.879,5.333,1.879v-7.153C32,15.979,30.957,14.667,29.725,14.667z"/>
	</g>
</g>
</svg>
