<?xml version="1.0" encoding="iso-8859-1"?>
<!-- Generator: Adobe Illustrator 19.0.0, SVG Export Plug-In . SVG Version: 6.00 Build 0)  -->
<svg version="1.1" id="Layer_1" xmlns="http://www.w3.org/2000/svg" xmlns:xlink="http://www.w3.org/1999/xlink" x="0px" y="0px"
	 viewBox="0 0 32 32" style="enable-background:new 0 0 32 32;" xml:space="preserve">
<g id="icon-cover-timer_2_">
	<rect id="icon-cover-timer_3_" style="opacity:0;fill:#FFFFFF;" width="32" height="32"/>
	<path style="opacity:0.4;fill:#FFFFFF;" d="M16,1.05C7.743,1.05,1.05,7.744,1.05,16S7.743,30.95,16,30.95
		c8.257,0,14.95-6.693,14.95-14.95S24.257,1.05,16,1.05z M16,25.967c-5.495,0-9.967-4.471-9.967-9.967S10.505,6.033,16,6.033
		c5.496,0,9.967,4.471,9.967,9.967S21.496,25.967,16,25.967z"/>
	<circle style="fill:#FFFFFF;" cx="16" cy="3.542" r="2.491"/>
	<g>
		<path style="fill:#FFFFFF;" d="M16,18.492c-0.638,0-1.275-0.243-1.762-0.73l-8.81-8.809c-0.973-0.973-0.973-2.55,0-3.524
			c0.973-0.973,2.551-0.973,3.524,0l8.809,8.81c0.973,0.973,0.973,2.55,0,3.524C17.275,18.248,16.638,18.492,16,18.492z"/>
	</g>
</g>
</svg>
