<?xml version="1.0" encoding="iso-8859-1"?>
<!-- Generator: Adobe Illustrator 19.0.0, SVG Export Plug-In . SVG Version: 6.00 Build 0)  -->
<svg version="1.1" id="Layer_1" xmlns="http://www.w3.org/2000/svg" xmlns:xlink="http://www.w3.org/1999/xlink" x="0px" y="0px"
	 viewBox="0 0 32 32" style="enable-background:new 0 0 32 32;" xml:space="preserve">
<g id="icon-cover-message_2_">
	<rect id="icon-cover-message_3_" style="opacity:0;fill:#FFFFFF;" width="32" height="32"/>
	<g>
		<path style="opacity:0.4;fill:#FFFFFF;" d="M9.567,12.722H9.056c-1.129,0-2.045,0.916-2.045,2.044v0.511
			c0,1.13,0.915,2.045,2.045,2.045h0.511c1.129,0,2.045-0.915,2.045-2.045v-0.511C11.611,13.638,10.696,12.722,9.567,12.722z"/>
		<path style="opacity:0.4;fill:#FFFFFF;" d="M16.185,12.722h-0.511c-1.129,0-2.045,0.916-2.045,2.044v0.511
			c0,1.13,0.915,2.045,2.045,2.045h0.511c1.129,0,2.044-0.915,2.044-2.045v-0.511C18.229,13.638,17.313,12.722,16.185,12.722z"/>
		<path style="opacity:0.4;fill:#FFFFFF;" d="M22.802,12.722h-0.511c-1.129,0-2.045,0.916-2.045,2.044v0.511
			c0,1.13,0.916,2.045,2.045,2.045h0.511c1.129,0,2.045-0.915,2.045-2.045v-0.511C24.847,13.638,23.932,12.722,22.802,12.722z"/>
	</g>
	<path style="fill:#FFFFFF;" d="M18.454,2.992C18.362,2.991,13.232,2.99,13.14,2.99c-6.916,0-12.522,5.218-12.522,11.654
		c0,6.437,5.606,11.715,12.522,11.715h13.385c0,2.146,1.869,3.629,4.174,3.629v-3.689V14.644C30.699,8.294,25.242,3.13,18.454,2.992
		z M11.611,15.277c0,1.13-0.916,2.045-2.045,2.045H9.056c-1.129,0-2.045-0.915-2.045-2.045v-0.511c0-1.129,0.915-2.044,2.045-2.044
		h0.511c1.129,0,2.045,0.916,2.045,2.044V15.277z M18.229,15.277c0,1.13-0.916,2.045-2.044,2.045h-0.511
		c-1.129,0-2.045-0.915-2.045-2.045v-0.511c0-1.129,0.915-2.044,2.045-2.044h0.511c1.129,0,2.044,0.916,2.044,2.044V15.277z
		 M24.847,15.277c0,1.13-0.915,2.045-2.045,2.045h-0.511c-1.129,0-2.045-0.915-2.045-2.045v-0.511c0-1.129,0.916-2.044,2.045-2.044
		h0.511c1.129,0,2.045,0.916,2.045,2.044V15.277z"/>
</g>
</svg>
