<?xml version="1.0" encoding="iso-8859-1"?>
<!-- Generator: Adobe Illustrator 17.0.1, SVG Export Plug-In . SVG Version: 6.00 Build 0)  -->
<!DOCTYPE svg PUBLIC "-//W3C//DTD SVG 1.1//EN" "http://www.w3.org/Graphics/SVG/1.1/DTD/svg11.dtd">
<svg version="1.1" id="Layer_1" xmlns="http://www.w3.org/2000/svg" xmlns:xlink="http://www.w3.org/1999/xlink" x="0px" y="0px"
	 width="64px" height="64px" viewBox="0 0 64 64" style="enable-background:new 0 0 64 64;" xml:space="preserve">
<g id="icon-m-messaging">
	<rect id="icon-m-messaging_1_" style="opacity:0;fill:#FFFFFF;" width="64" height="64"/>
	<path style="opacity:0.5;fill:#FFFFFF;" d="M57.551,56.875h-1c-4.141,0-7.35-2.53-7.866-6.031H27.363
		c-12.028,0-21.813-9.184-21.813-20.473C5.55,19.139,15.335,10,27.363,10c0.086,0,8.685,0.001,8.857,0.005
		c11.761,0.237,21.33,9.374,21.33,20.366V56.875z M27.363,12C16.438,12,7.55,20.241,7.55,30.371
		c0,10.186,8.888,18.473,19.813,18.473h23.249v1c0,2.578,2.063,4.587,4.938,4.967V30.371c0-9.911-8.69-18.15-19.373-18.366
		C35.916,12.001,27.516,12,27.363,12z"/>
	<path style="fill:#FFFFFF;" d="M21.389,35.5h-0.777c-2.267,0-4.111-1.845-4.111-4.111v-0.777c0-2.267,1.844-4.111,4.111-4.111
		h0.777c2.267,0,4.111,1.844,4.111,4.111v0.777C25.5,33.655,23.656,35.5,21.389,35.5z M20.611,28.5
		c-1.164,0-2.111,0.947-2.111,2.111v0.777c0,1.164,0.947,2.111,2.111,2.111h0.777c1.164,0,2.111-0.947,2.111-2.111v-0.777
		c0-1.164-0.947-2.111-2.111-2.111H20.611z"/>
	<path style="fill:#FFFFFF;" d="M32.389,35.5h-0.777c-2.267,0-4.111-1.845-4.111-4.111v-0.777c0-2.267,1.844-4.111,4.111-4.111
		h0.777c2.267,0,4.111,1.844,4.111,4.111v0.777C36.5,33.655,34.655,35.5,32.389,35.5z M31.611,28.5
		c-1.164,0-2.111,0.947-2.111,2.111v0.777c0,1.164,0.947,2.111,2.111,2.111h0.777c1.164,0,2.111-0.947,2.111-2.111v-0.777
		c0-1.164-0.947-2.111-2.111-2.111H31.611z"/>
	<path style="fill:#FFFFFF;" d="M43.389,35.5h-0.777c-2.267,0-4.111-1.845-4.111-4.111v-0.777c0-2.267,1.845-4.111,4.111-4.111
		h0.777c2.267,0,4.111,1.844,4.111,4.111v0.777C47.5,33.655,45.655,35.5,43.389,35.5z M42.611,28.5
		c-1.164,0-2.111,0.947-2.111,2.111v0.777c0,1.164,0.947,2.111,2.111,2.111h0.777c1.164,0,2.111-0.947,2.111-2.111v-0.777
		c0-1.164-0.947-2.111-2.111-2.111H42.611z"/>
</g>
</svg>
