<?xml version="1.0" encoding="iso-8859-1"?>
<!-- Generator: Adobe Illustrator 17.0.1, SVG Export Plug-In . SVG Version: 6.00 Build 0)  -->
<!DOCTYPE svg PUBLIC "-//W3C//DTD SVG 1.1//EN" "http://www.w3.org/Graphics/SVG/1.1/DTD/svg11.dtd">
<svg version="1.1" id="Layer_1" xmlns="http://www.w3.org/2000/svg" xmlns:xlink="http://www.w3.org/1999/xlink" x="0px" y="0px"
	 width="32px" height="32px" viewBox="0 0 32 32" style="enable-background:new 0 0 32 32;" xml:space="preserve">
<g id="icon-lock-backup_2_">
	<rect id="icon-lock-backup_3_" y="0.005" style="opacity:0;fill:#FFFFFF;" width="32" height="32"/>
	<g>
		<circle style="fill:#3993C7;" cx="16.013" cy="16" r="16"/>
		<path style="fill:#FFFFFF;" d="M6.781,22.917c-0.092,0-0.177-0.041-0.234-0.113c-1.07-1.34-1.79-2.876-2.14-4.567
			c-0.135-0.649-0.212-1.314-0.227-1.977c-0.002-0.081,0.029-0.13,0.085-0.188c0.056-0.057,0.134-0.061,0.214-0.061h4.4
			c0.096,0,0.187,0.017,0.243,0.095c0.056,0.078,0.072,0.164,0.042,0.255l-2.098,6.356c-0.034,0.105-0.123,0.178-0.232,0.198
			L6.781,22.917z"/>
		<path style="fill:#FFFFFF;" d="M20.851,18.019h-5.548c-0.736,0-1.333-0.597-1.333-1.333v-6.206c0-0.736,0.597-1.333,1.333-1.333
			s1.333,0.597,1.333,1.333v4.873h4.215c0.736,0,1.333,0.597,1.333,1.333C22.184,17.422,21.587,18.019,20.851,18.019z"/>
		<path style="fill:#FFFFFF;" d="M15.962,28.005c-2.526,0-4.943-0.775-6.988-2.243c-0.598-0.429-0.735-1.262-0.306-1.86
			s1.262-0.734,1.861-0.306c1.589,1.14,3.468,1.743,5.434,1.743c5.146,0,9.333-4.188,9.333-9.333c0-5.146-4.187-9.333-9.333-9.333
			s-9.333,4.187-9.333,9.333c0,1.026,0.165,2.034,0.49,2.995c0.236,0.697-0.138,1.454-0.835,1.69
			c-0.699,0.235-1.455-0.138-1.69-0.835c-0.419-1.237-0.632-2.533-0.632-3.85c0-6.617,5.383-12,12-12
			c6.616,0,11.999,5.383,11.999,12S22.578,28.005,15.962,28.005z"/>
	</g>
</g>
</svg>
