<?xml version="1.0" encoding="iso-8859-1"?>
<!-- Generator: Adobe Illustrator 17.0.1, SVG Export Plug-In . SVG Version: 6.00 Build 0)  -->
<!DOCTYPE svg PUBLIC "-//W3C//DTD SVG 1.1//EN" "http://www.w3.org/Graphics/SVG/1.1/DTD/svg11.dtd">
<svg version="1.1" id="Layer_1" xmlns="http://www.w3.org/2000/svg" xmlns:xlink="http://www.w3.org/1999/xlink" x="0px" y="0px"
	 width="64px" height="64px" viewBox="0 0 64 64" style="enable-background:new 0 0 64 64;" xml:space="preserve">
<g id="icon-m-rotate-left">
	<rect id="icon-m-rotate-left_1_" style="opacity:0;fill:#FFFFFF;" width="64" height="64"/>
	<path style="fill:#FFFFFF;" d="M24.276,36.948L24.276,36.948c-0.578,0-1.174-0.206-1.771-0.612L9.526,27.515
		c-0.929-0.631-1.461-1.547-1.461-2.514c0-0.966,0.532-1.882,1.46-2.514l12.98-8.822c0.597-0.406,1.193-0.612,1.771-0.612
		c1.131,0,2.272,0.851,2.272,2.752v18.389c0,0.759-0.191,1.414-0.552,1.896C25.582,36.644,24.971,36.948,24.276,36.948z
		 M24.275,15.054c-0.077,0-0.293,0.026-0.646,0.266l-12.98,8.822c-0.377,0.256-0.585,0.562-0.585,0.859
		c0,0.297,0.208,0.603,0.585,0.859l12.979,8.821c0.354,0.24,0.57,0.267,0.647,0.267l0,0c0.071,0,0.089-0.016,0.12-0.056
		c0.036-0.048,0.152-0.239,0.152-0.697V15.806C24.548,15.799,24.545,15.054,24.275,15.054z"/>
	<path style="opacity:0.6;fill:#FFFFFF;" d="M53.881,54.334c-0.553,0-1-0.447-1-1C52.881,38.263,40.619,26,25.548,26
		c-0.552,0-1-0.448-1-1s0.448-1,1-1c16.174,0,29.333,13.159,29.333,29.333C54.881,53.887,54.434,54.334,53.881,54.334z"/>
</g>
</svg>
