<?xml version="1.0" encoding="iso-8859-1"?>
<!-- Generator: Adobe Illustrator 17.0.1, SVG Export Plug-In . SVG Version: 6.00 Build 0)  -->
<!DOCTYPE svg PUBLIC "-//W3C//DTD SVG 1.1//EN" "http://www.w3.org/Graphics/SVG/1.1/DTD/svg11.dtd">
<svg version="1.1" id="Layer_1" xmlns="http://www.w3.org/2000/svg" xmlns:xlink="http://www.w3.org/1999/xlink" x="0px" y="0px"
	 width="32px" height="32px" viewBox="0 0 32 32" style="enable-background:new 0 0 32 32;" xml:space="preserve">
<g id="icon-lock-email">
	<rect id="icon-lock-email_1_" style="opacity:0;fill:#FFFFFF;" width="32" height="32"/>
	<g>
		<g>
			<path style="fill:#D4C887;" d="M1.976,4c-1.101,0-1.91,1.309-1.91,2.156v18.642c0,1.647,0.988,2.536,2.39,2.536h26.928
				c1.402,0,2.549-0.889,2.549-2.536V6.156c0-1.282-1.103-2.156-2.03-2.156H1.976z"/>
			<path style="fill:#FFFFFF;" d="M1.918,4C1.391,4,1.069,4.313,0.627,4.729l13.389,12.566c1.093,0.959,2.882,0.959,3.975-0.001
				L31.345,4.679C31.051,4.39,30.652,4,30.081,4H1.918z"/>
		</g>
	</g>
</g>
</svg>
