<?xml version="1.0" encoding="iso-8859-1"?>
<!-- Generator: Adobe Illustrator 17.0.1, SVG Export Plug-In . SVG Version: 6.00 Build 0)  -->
<!DOCTYPE svg PUBLIC "-//W3C//DTD SVG 1.1//EN" "http://www.w3.org/Graphics/SVG/1.1/DTD/svg11.dtd">
<svg version="1.1" id="Layer_1" xmlns="http://www.w3.org/2000/svg" xmlns:xlink="http://www.w3.org/1999/xlink" x="0px" y="0px"
	 width="64px" height="64px" viewBox="0 0 64 64" style="enable-background:new 0 0 64 64;" xml:space="preserve">
<g id="icon-m-shuffle">
	<rect id="icon-m-shuffle_1_" style="opacity:0;fill:#FFFFFF;" width="64" height="64"/>
	<path style="fill:#FFFFFF;" d="M3.023,48.106c-0.226,0-0.453-0.076-0.64-0.232c-0.424-0.354-0.481-0.984-0.127-1.408l20.11-24.094
		c3.042-3.646,8.001-6.501,11.29-6.501h5.396c0.553,0,1,0.448,1,1s-0.447,1-1,1h-5.396c-2.671,0-7.139,2.648-9.755,5.782
		L3.791,47.747C3.593,47.984,3.309,48.106,3.023,48.106z"/>
	<g>
		<path style="fill:#FFFFFF;" d="M40.225,28.395c-1.081,0-2.172-0.833-2.172-2.696v-18c0-1.862,1.091-2.696,2.172-2.696
			c0.598,0,1.213,0.234,1.828,0.695l11.199,8.401c0.884,0.663,1.391,1.61,1.391,2.6c0,0.989-0.507,1.937-1.391,2.6l-11.199,8.4
			C41.438,28.161,40.822,28.395,40.225,28.395z M40.225,7.003c-0.049,0.023-0.172,0.216-0.172,0.696v18
			c0,0.48,0.123,0.673,0.156,0.698l0.016-0.002c0.113,0,0.338-0.078,0.629-0.296l11.199-8.399c0.38-0.286,0.59-0.641,0.59-1
			c0-0.36-0.21-0.715-0.59-1l-11.199-8.4C40.563,7.081,40.338,7.003,40.225,7.003z"/>
	</g>
	<g style="opacity:0.5;">
		<path style="fill:#FFFFFF;" d="M39.053,48.13h-5.396c-3.289,0-8.248-2.855-11.291-6.501L2.232,17.512
			c-0.354-0.424-0.297-1.054,0.127-1.408c0.424-0.354,1.054-0.298,1.408,0.127L23.9,40.348c2.617,3.134,7.084,5.782,9.756,5.782
			h5.396c0.553,0,1,0.447,1,1S39.605,48.13,39.053,48.13z"/>
		<path style="fill:#FFFFFF;" d="M40.325,59.055L40.325,59.055c-1.131,0-2.272-0.852-2.272-2.753V37.913
			c0-1.901,1.142-2.753,2.272-2.753c0.578,0,1.173,0.206,1.771,0.611l12.979,8.822c0.929,0.631,1.462,1.547,1.462,2.513
			c0,0.967-0.533,1.883-1.463,2.514l-12.978,8.822C41.499,58.849,40.902,59.055,40.325,59.055z M40.325,37.16
			c-0.27,0-0.272,0.745-0.272,0.753v18.389c0,0.008,0.003,0.753,0.272,0.753c0.076,0,0.293-0.026,0.646-0.267l12.979-8.822
			c0.379-0.257,0.587-0.562,0.587-0.859c0-0.297-0.208-0.602-0.586-0.858l-12.979-8.822C40.619,37.187,40.402,37.16,40.325,37.16z"
			/>
	</g>
</g>
</svg>
