<?xml version="1.0" encoding="iso-8859-1"?>
<!-- Generator: Adobe Illustrator 17.0.1, SVG Export Plug-In . SVG Version: 6.00 Build 0)  -->
<!DOCTYPE svg PUBLIC "-//W3C//DTD SVG 1.1//EN" "http://www.w3.org/Graphics/SVG/1.1/DTD/svg11.dtd">
<svg version="1.1" id="Layer_1" xmlns="http://www.w3.org/2000/svg" xmlns:xlink="http://www.w3.org/1999/xlink" x="0px" y="0px"
	 width="32px" height="32px" viewBox="0 0 32 32" style="enable-background:new 0 0 32 32;" xml:space="preserve">
<g id="icon-s-favorite">
	<rect id="icon-s-favorite_1_" style="opacity:0;fill:#FFFFFF;" width="32" height="32"/>
	<g>
		<path style="fill:#FFFFFF;" d="M15.382,5.282c0.34-1.046,0.896-1.046,1.236,0l1.768,5.44c0.34,1.046,1.518,1.902,2.618,1.902
			h5.719c1.1,0,1.272,0.529,0.382,1.176l-4.627,3.362c-0.89,0.647-1.34,2.032-1,3.078l1.767,5.44c0.34,1.046-0.11,1.373-1,0.727
			l-4.627-3.362c-0.89-0.647-2.346-0.647-3.236,0l-4.627,3.362c-0.89,0.647-1.34,0.32-1-0.727l1.767-5.44
			c0.34-1.046-0.11-2.431-1-3.078L4.895,13.8c-0.89-0.647-0.718-1.176,0.382-1.176h5.719c1.1,0,2.278-0.856,2.618-1.902
			L15.382,5.282z"/>
		<path style="fill:#FFFFFF;" d="M22.999,27.327c-0.329,0-0.689-0.146-1.101-0.444l-4.627-3.361c-0.651-0.473-1.892-0.473-2.543,0
			l-4.627,3.361c-0.8,0.58-1.495,0.566-1.852,0.074c-0.244-0.335-0.263-0.826-0.057-1.461l1.767-5.439
			c0.259-0.796-0.108-1.926-0.786-2.418l-4.626-3.361c-0.839-0.609-0.882-1.147-0.77-1.491c0.112-0.343,0.462-0.753,1.499-0.753
			h5.719c0.837,0,1.798-0.698,2.057-1.494L14.82,5.1c0.32-0.985,0.818-1.192,1.18-1.192s0.859,0.207,1.18,1.193l1.768,5.439
			c0.259,0.796,1.22,1.495,2.057,1.495h5.72c1.036,0,1.387,0.41,1.498,0.753c0.111,0.344,0.069,0.881-0.77,1.49l-4.628,3.362
			c-0.688,0.501-1.049,1.608-0.785,2.418l1.768,5.439c0.206,0.634,0.187,1.126-0.057,1.461
			C23.576,27.195,23.31,27.327,22.999,27.327z M16,21.969c0.737,0,1.435,0.212,1.965,0.598l4.627,3.361
			c0.052,0.037,0.098,0.068,0.139,0.094c-0.012-0.047-0.027-0.101-0.047-0.16l-1.768-5.439c-0.421-1.296,0.113-2.938,1.215-3.738
			l4.628-3.362c0.051-0.037,0.094-0.071,0.131-0.102c-0.048-0.003-0.104-0.005-0.166-0.005h-5.72c-1.362,0-2.759-1.015-3.18-2.311
			l-1.768-5.439C16.037,5.404,16.018,5.353,16,5.308c-0.018,0.045-0.037,0.097-0.057,0.157l-1.768,5.44
			c-0.421,1.295-1.817,2.31-3.18,2.31H5.277c-0.063,0-0.119,0.002-0.167,0.005c0.038,0.031,0.081,0.065,0.132,0.103l4.626,3.361
			c1.103,0.801,1.636,2.442,1.215,3.738l-1.767,5.439c-0.02,0.06-0.035,0.113-0.046,0.16c0.041-0.025,0.087-0.057,0.138-0.094
			l4.627-3.361C14.565,22.181,15.263,21.969,16,21.969z"/>
	</g>
</g>
</svg>
