<?xml version="1.0" encoding="iso-8859-1"?>
<!-- Generator: Adobe Illustrator 19.0.0, SVG Export Plug-In . SVG Version: 6.00 Build 0)  -->
<svg version="1.1" id="Layer_1" xmlns="http://www.w3.org/2000/svg" xmlns:xlink="http://www.w3.org/1999/xlink" x="0px" y="0px"
	 viewBox="0 0 32 32" style="enable-background:new 0 0 32 32;" xml:space="preserve">
<g id="icon-cover-alarm_2_">
	<rect id="icon-cover-alarm_3_" style="opacity:0;fill:#FFFFFF;" width="32" height="32"/>
	<g>
		<path style="fill:#FFFFFF;" d="M30.477,11.414c-2.319-0.36-5.392-1.427-7.026-3.216l-4.753-4.197
			C14.385-0.313,7.841-0.765,3.526,3.549c-4.314,4.316-3.864,10.859,0.451,15.174l4.883,5.439c1.623,1.774,2.156,3.989,2.521,6.292
			c0.053,0.332,0.575,0.542,0.835,0.282c0.26-0.26,18.172-18.17,18.467-18.465C30.979,11.975,30.794,11.463,30.477,11.414z"/>
	</g>
	<g style="opacity:0.6;">
		<path style="fill:#FFFFFF;" d="M18.29,24.654c1.759,1.76,4.61,1.76,6.373,0c1.76-1.759,1.76-4.613,0-6.371L18.29,24.654z"/>
	</g>
</g>
</svg>
