<?xml version="1.0" encoding="iso-8859-1"?>
<!-- Generator: Adobe Illustrator 17.0.1, SVG Export Plug-In . SVG Version: 6.00 Build 0)  -->
<!DOCTYPE svg PUBLIC "-//W3C//DTD SVG 1.1//EN" "http://www.w3.org/Graphics/SVG/1.1/DTD/svg11.dtd">
<svg version="1.1" id="Layer_1" xmlns="http://www.w3.org/2000/svg" xmlns:xlink="http://www.w3.org/1999/xlink" x="0px" y="0px"
	 width="64px" height="64px" viewBox="0 0 64 64" style="enable-background:new 0 0 64 64;" xml:space="preserve">
<g id="icon-m-screenlock">
	<rect id="icon-m-screenlock_1_" style="opacity:0;fill:#FFFFFF;" width="64" height="64"/>
	<g style="opacity:0.6;">
		<path style="fill:#FFFFFF;" d="M44.839,57.031H19.161c-2.863,0-5.192-2.329-5.192-5.192V12.161c0-2.863,2.329-5.192,5.192-5.192
			h25.678c2.863,0,5.192,2.329,5.192,5.192v39.678C50.031,54.702,47.702,57.031,44.839,57.031z M19.161,9.031
			c-1.726,0-3.13,1.404-3.13,3.13v39.678c0,1.727,1.404,3.13,3.13,3.13h25.678c1.727,0,3.13-1.403,3.13-3.13V12.161
			c0-1.726-1.403-3.13-3.13-3.13H19.161z"/>
	</g>
	<g>
		<path style="fill:#FFFFFF;" d="M39.08,43.904H24.92c-1.61,0-2.92-1.31-2.92-2.92v-9.249c0-1.61,1.31-2.92,2.92-2.92h14.16
			c1.61,0,2.92,1.31,2.92,2.92v9.249C42,42.595,40.69,43.904,39.08,43.904z M24.92,30.815c-0.507,0-0.92,0.413-0.92,0.92v9.249
			c0,0.507,0.413,0.92,0.92,0.92h14.16c0.507,0,0.92-0.413,0.92-0.92v-9.249c0-0.507-0.413-0.92-0.92-0.92H24.92z"/>
		<path style="opacity:0.6;fill:#FFFFFF;" d="M38.721,30.753c-0.553,0-1-0.448-1-1v-1.724c0-3.327-2.513-5.934-5.721-5.934
			c-3.208,0-5.72,2.606-5.72,5.934v1.724c0,0.552-0.448,1-1,1s-1-0.448-1-1v-1.724c0-4.449,3.391-7.934,7.72-7.934
			s7.721,3.485,7.721,7.934v1.724C39.721,30.306,39.273,30.753,38.721,30.753z"/>
		<g style="opacity:0.6;">
			<path style="fill:#FFFFFF;" d="M32,39.906c-0.552,0-1-0.447-1-1v-2.588c0-0.553,0.448-1,1-1s1,0.447,1,1v2.588
				C33,39.459,32.552,39.906,32,39.906z"/>
			<circle style="fill:#FFFFFF;" cx="32" cy="35.246" r="1.68"/>
		</g>
	</g>
</g>
</svg>
