<?xml version="1.0" encoding="iso-8859-1"?>
<!-- Generator: Adobe Illustrator 17.0.1, SVG Export Plug-In . SVG Version: 6.00 Build 0)  -->
<!DOCTYPE svg PUBLIC "-//W3C//DTD SVG 1.1//EN" "http://www.w3.org/Graphics/SVG/1.1/DTD/svg11.dtd">
<svg version="1.1" id="Layer_1" xmlns="http://www.w3.org/2000/svg" xmlns:xlink="http://www.w3.org/1999/xlink" x="0px" y="0px"
	 width="64px" height="64px" viewBox="0 0 64 64" style="enable-background:new 0 0 64 64;" xml:space="preserve">
<g id="icon-m-wlan">
	<rect id="icon-m-wlan_1_" style="opacity:0;fill:#FFFFFF;" width="64" height="64"/>
	<path style="fill:#FFFFFF;" d="M32.134,52.93L32.134,52.93c-1.447,0-2.804-0.561-3.821-1.577l-21.61-21.61
		c-2.008-2.009-2.101-5.256-0.21-7.393l0.087-0.087c7.078-6.252,16.153-9.696,25.554-9.696c9.398,0,18.471,3.439,25.547,9.685
		l0.085,0.084c1.896,2.131,1.813,5.379-0.19,7.394l-21.62,21.624C34.938,52.37,33.581,52.93,32.134,52.93z M7.953,23.719
		c-1.152,1.347-1.084,3.361,0.165,4.61l21.61,21.61c1.277,1.276,3.535,1.277,4.814,0.001l21.618-21.622
		c1.244-1.251,1.307-3.266,0.149-4.609c-6.703-5.896-15.286-9.142-24.175-9.142C23.243,14.567,14.658,17.817,7.953,23.719z"/>
	<g>
		<path style="opacity:0.6;fill:#FFFFFF;" d="M52.014,33.586c-5.165-5.665-12.496-8.914-20.113-8.914
			c-7.616,0-14.944,3.249-20.106,8.914l-1.479-1.347c5.54-6.08,13.407-9.567,21.584-9.567c8.178,0,16.047,3.487,21.591,9.566
			L52.014,33.586z"/>
		<path style="opacity:0.6;fill:#FFFFFF;" d="M45.855,39.811c-3.726-3.729-8.681-5.781-13.953-5.781
			c-5.27,0-10.225,2.053-13.952,5.779l-1.414-1.414c4.104-4.104,9.562-6.365,15.366-6.365c5.807,0,11.264,2.262,15.367,6.367
			L45.855,39.811z"/>
		<path style="opacity:0.6;fill:#FFFFFF;" d="M24.454,46.311l-1.414-1.414c2.369-2.368,5.517-3.672,8.863-3.672
			c3.349,0,6.498,1.304,8.864,3.672l-1.414,1.414c-1.989-1.99-4.635-3.086-7.45-3.086C29.09,43.225,26.445,44.32,24.454,46.311z"/>
	</g>
</g>
</svg>
