<?xml version="1.0" encoding="iso-8859-1"?>
<!-- Generator: Adobe Illustrator 17.0.1, SVG Export Plug-In . SVG Version: 6.00 Build 0)  -->
<!DOCTYPE svg PUBLIC "-//W3C//DTD SVG 1.1//EN" "http://www.w3.org/Graphics/SVG/1.1/DTD/svg11.dtd">
<svg version="1.1" id="Layer_1" xmlns="http://www.w3.org/2000/svg" xmlns:xlink="http://www.w3.org/1999/xlink" x="0px" y="0px"
	 width="96px" height="96px" viewBox="0 0 96 96" style="enable-background:new 0 0 96 96;" xml:space="preserve">
<g id="icon-l-power">
	<rect id="icon-l-power_1_" style="opacity:0;fill:#FFFFFF;" width="96" height="96"/>
	<path style="opacity:0.6;fill:#FFFFFF;" d="M48,89.5C25.117,89.5,6.5,70.883,6.5,48C6.5,25.117,25.117,6.5,48,6.5
		c22.883,0,41.5,18.617,41.5,41.5C89.5,70.883,70.883,89.5,48,89.5z M48,8.5C26.22,8.5,8.5,26.22,8.5,48S26.22,87.5,48,87.5
		S87.5,69.78,87.5,48S69.78,8.5,48,8.5z"/>
	<path style="fill:#FFFFFF;" d="M48,49.5c-0.552,0-1-0.447-1-1v-45c0-0.552,0.448-1,1-1s1,0.448,1,1v45
		C49,49.053,48.552,49.5,48,49.5z"/>
</g>
</svg>
