<?xml version="1.0" encoding="iso-8859-1"?>
<!-- Generator: Adobe Illustrator 19.0.0, SVG Export Plug-In . SVG Version: 6.00 Build 0)  -->
<svg version="1.1" id="Layer_1" xmlns="http://www.w3.org/2000/svg" xmlns:xlink="http://www.w3.org/1999/xlink" x="0px" y="0px"
	 viewBox="0 0 32 32" style="enable-background:new 0 0 32 32;" xml:space="preserve">
<g id="icon-cover-reject_2_">
	<rect id="icon-cover-reject_3_" style="opacity:0;fill:#FFFFFF;" width="32" height="32"/>
	<path style="opacity:0.4;fill:#FFFFFF;" d="M1.05,2.857v12.541V16v0.602C1.549,24.504,8.005,30.95,15.984,30.95h13.157
		c1.18,0,1.808-0.628,1.808-1.807V16.602V16v-0.602C30.451,7.496,23.996,1.05,16.016,1.05H2.858C1.678,1.05,1.05,1.678,1.05,2.857z"
		/>
	<path style="fill:#FFFFFF;" d="M5.143,10.942C5.986,9.13,6.83,7.318,7.674,5.506c0.137-0.294,0.5-0.45,0.804-0.34
		c8.731,3.164,15.243,9.677,18.407,18.409c0.11,0.304-0.046,0.666-0.339,0.803c-1.812,0.843-3.624,1.688-5.436,2.531
		c-0.297,0.137-0.606,0.042-0.696-0.204c-0.627-1.73-1.415-3.354-2.349-4.858c-0.134-0.217-0.029-0.549,0.237-0.743
		c0.431-0.314,0.861-0.628,1.291-0.941c0.267-0.193,0.364-0.541,0.21-0.77c-1.907-2.827-4.315-5.235-7.143-7.143
		c-0.229-0.154-0.578-0.058-0.77,0.209c-0.313,0.43-0.628,0.86-0.942,1.292c-0.194,0.266-0.527,0.37-0.743,0.238
		c-1.503-0.935-3.127-1.724-4.857-2.351C5.099,11.548,5.006,11.237,5.143,10.942z"/>
</g>
</svg>
