<?xml version="1.0" encoding="iso-8859-1"?>
<!-- Generator: Adobe Illustrator 17.0.1, SVG Export Plug-In . SVG Version: 6.00 Build 0)  -->
<!DOCTYPE svg PUBLIC "-//W3C//DTD SVG 1.1//EN" "http://www.w3.org/Graphics/SVG/1.1/DTD/svg11.dtd">
<svg version="1.1" id="Layer_1" xmlns="http://www.w3.org/2000/svg" xmlns:xlink="http://www.w3.org/1999/xlink" x="0px" y="0px"
	 width="64px" height="64px" viewBox="0 0 64 64" style="enable-background:new 0 0 64 64;" xml:space="preserve">
<g id="icon-m-toy">
	<rect id="icon-m-toy_1_" style="opacity:0;fill:#FFFFFF;" width="64" height="64"/>
	<path style="fill:#FFFFFF;" d="M17.483,53.668c-4.247,0-7.702-3.456-7.702-7.703s3.455-7.703,7.702-7.703s7.702,3.456,7.702,7.703
		S21.73,53.668,17.483,53.668z M17.483,40.262c-3.144,0-5.702,2.559-5.702,5.703s2.558,5.703,5.702,5.703s5.702-2.559,5.702-5.703
		S20.627,40.262,17.483,40.262z"/>
	<path style="fill:#FFFFFF;" d="M10.781,47.667h-1.26c-2.715-0.064-4.905-2.304-4.905-4.99v-9.841c0-2.757,2.243-5,5-5h6.109
		c3.388-6.709,10.325-11.01,17.851-11.01c11.032,0,20.007,8.975,20.007,20.006c0,2.424-0.447,4.822-1.33,7.13
		c-0.119,0.447-0.303,0.877-0.546,1.278c-0.223,0.371-0.501,0.719-0.825,1.033l-1.393-1.436c0.2-0.194,0.37-0.406,0.506-0.631
		c0.152-0.252,0.265-0.521,0.335-0.798l0.037-0.113c0.807-2.094,1.216-4.269,1.216-6.464c0-9.929-8.078-18.006-18.007-18.006
		c-6.965,0-13.371,4.095-16.318,10.432l-0.269,0.578H9.616c-1.654,0-3,1.346-3,3v9.841c0,1.61,1.314,2.952,2.929,2.99h1.236V47.667z
		"/>
	<rect x="24.186" y="44.965" style="fill:#FFFFFF;" width="12.779" height="2"/>
	<path style="fill:#FFFFFF;" d="M43.625,53.699c-4.265,0-7.733-3.47-7.733-7.734s3.469-7.734,7.733-7.734s7.734,3.47,7.734,7.734
		S47.89,53.699,43.625,53.699z M43.625,40.23c-3.161,0-5.733,2.572-5.733,5.734s2.572,5.734,5.733,5.734
		c3.162,0,5.734-2.572,5.734-5.734S46.787,40.23,43.625,40.23z"/>
	<path style="opacity:0.6;fill:#FFFFFF;" d="M52.155,22.529L52.155,22.529c-2.093,0-4.029-1.081-5.178-2.772l-1.453,2.112
		c-0.305,0.443-0.907,0.565-1.361,0.277l-2.428-1.545c-0.229-0.146-0.389-0.379-0.443-0.645c-0.054-0.267,0.003-0.543,0.157-0.767
		l1.324-1.916c-2.343-0.513-4.21-2.321-4.75-4.743c-0.752-3.378,1.385-6.741,4.762-7.496c0.451-0.101,0.912-0.151,1.37-0.151
		c2.914,0,5.49,2.067,6.125,4.915c0.032,0.144,0.059,0.289,0.08,0.436c0.142-0.043,0.284-0.081,0.428-0.113
		c0.451-0.101,0.911-0.151,1.37-0.151c2.914,0,5.489,2.067,6.124,4.915c0.364,1.637,0.07,3.318-0.829,4.734
		c-0.9,1.416-2.297,2.396-3.935,2.76C53.07,22.479,52.611,22.529,52.155,22.529z M47.126,16.777c0.051,0,0.102,0.004,0.153,0.012
		c0.38,0.059,0.691,0.33,0.804,0.697c0.544,1.792,2.219,3.043,4.072,3.043l0,0c0.31,0,0.622-0.035,0.929-0.103
		c1.116-0.248,2.067-0.916,2.681-1.881s0.813-2.11,0.565-3.226c-0.433-1.941-2.188-3.35-4.172-3.35
		c-0.313,0-0.627,0.035-0.935,0.104c-0.441,0.098-0.872,0.282-1.318,0.562c-0.325,0.206-0.738,0.204-1.066-0.002
		c-0.325-0.206-0.503-0.581-0.458-0.962c0.063-0.529,0.046-0.999-0.052-1.437c-0.434-1.941-2.188-3.35-4.174-3.35
		c-0.313,0-0.627,0.035-0.935,0.104c-2.302,0.515-3.758,2.806-3.245,5.108c0.463,2.075,2.379,3.495,4.531,3.311
		c0.381-0.035,0.755,0.161,0.948,0.496c0.194,0.334,0.178,0.751-0.042,1.069l-1.728,2.501l0.737,0.47l1.879-2.731
		C46.49,16.937,46.8,16.777,47.126,16.777z"/>
</g>
</svg>
