<?xml version="1.0" encoding="iso-8859-1"?>
<!-- Generator: Adobe Illustrator 19.0.0, SVG Export Plug-In . SVG Version: 6.00 Build 0)  -->
<svg version="1.1" id="Layer_1" xmlns="http://www.w3.org/2000/svg" xmlns:xlink="http://www.w3.org/1999/xlink" x="0px" y="0px"
	 viewBox="0 0 32 32" style="enable-background:new 0 0 32 32;" xml:space="preserve">
<g id="icon-cover-favorite_3_">
	<rect id="icon-cover-favorite_5_" style="opacity:0;fill:#FFFFFF;" width="32" height="32"/>
	<rect id="icon-cover-favorite_4_" style="opacity:0;fill:#FFFFFF;" width="32" height="32"/>
	<path style="fill:#FFFFFF;" d="M22.696,20.83c-0.241-0.74,0.078-1.721,0.708-2.179l6.956-5.053
		c0.998-0.816,0.712-1.461-0.707-1.461l-8.368-0.01c-0.779,0-1.613-0.606-1.853-1.346L16.844,2.83c-0.464-1.429-1.223-1.429-1.687,0
		l-2.587,7.951c-0.241,0.74-1.075,1.346-1.853,1.346l-8.368,0.01c-1.419,0-1.705,0.645-0.707,1.461l6.955,5.053
		c0.63,0.458,0.948,1.438,0.708,2.179l-2.585,7.969c-0.453,1.395,0.124,1.85,1.283,1.048c-0.002-0.001-0.003-0.002-0.005-0.003
		l6.857-4.982c0.63-0.458,1.661-0.458,2.291,0l6.856,4.982c-0.001,0.001-0.003,0.002-0.004,0.003
		c1.159,0.802,1.736,0.347,1.283-1.048L22.696,20.83z"/>
</g>
</svg>
