<?xml version="1.0" encoding="iso-8859-1"?>
<!-- Generator: Adobe Illustrator 17.0.1, SVG Export Plug-In . SVG Version: 6.00 Build 0)  -->
<!DOCTYPE svg PUBLIC "-//W3C//DTD SVG 1.1//EN" "http://www.w3.org/Graphics/SVG/1.1/DTD/svg11.dtd">
<svg version="1.1" id="Layer_1" xmlns="http://www.w3.org/2000/svg" xmlns:xlink="http://www.w3.org/1999/xlink" x="0px" y="0px"
	 width="64px" height="64px" viewBox="0 0 64 64" style="enable-background:new 0 0 64 64;" xml:space="preserve">
<g id="icon-m-mouse">
	<rect id="icon-m-mouse_1_" style="opacity:0;fill:#FFFFFF;" width="64" height="64"/>
	<path style="fill:#FFFFFF;" d="M32,54.73c-9.374,0-17-6.729-17-15V13.157c0-2.696,2.442-4.889,5.444-4.889h23.111
		c3.002,0,5.444,2.193,5.444,4.889V39.73C49,48.002,41.374,54.73,32,54.73z M20.444,10.269c-1.899,0-3.444,1.296-3.444,2.889V39.73
		c0,7.168,6.729,13,15,13c8.271,0,15-5.832,15-13V13.157c0-1.593-1.545-2.889-3.444-2.889H20.444z"/>
	<g style="opacity:0.6;">
		<path style="fill:#FFFFFF;" d="M31.995,16.046c-0.552,0-1-0.448-1-1V8.961c0-0.552,0.448-1,1-1s1,0.448,1,1v6.085
			C32.995,15.598,32.547,16.046,31.995,16.046z"/>
		<path style="fill:#FFFFFF;" d="M33.296,27.454h-2.602c-1.212,0-2.199-0.986-2.199-2.199v-8.603c0-1.212,0.986-2.199,2.199-2.199
			h2.602c1.213,0,2.199,0.986,2.199,2.199v8.603C35.495,26.468,34.509,27.454,33.296,27.454z M30.694,16.454
			c-0.108,0-0.199,0.091-0.199,0.199v8.603c0,0.108,0.091,0.199,0.199,0.199h2.602c0.108,0,0.199-0.091,0.199-0.199v-8.603
			c0-0.108-0.091-0.199-0.199-0.199H30.694z"/>
	</g>
</g>
</svg>
