<?xml version="1.0" encoding="iso-8859-1"?>
<!-- Generator: Adobe Illustrator 17.0.1, SVG Export Plug-In . SVG Version: 6.00 Build 0)  -->
<!DOCTYPE svg PUBLIC "-//W3C//DTD SVG 1.1//EN" "http://www.w3.org/Graphics/SVG/1.1/DTD/svg11.dtd">
<svg version="1.1" id="Layer_1" xmlns="http://www.w3.org/2000/svg" xmlns:xlink="http://www.w3.org/1999/xlink" x="0px" y="0px"
	 width="64px" height="64px" viewBox="0 0 64 64" style="enable-background:new 0 0 64 64;" xml:space="preserve">
<g id="icon-m-battery">
	<rect id="icon-m-battery_1_" style="opacity:0;fill:#FFFFFF;" width="64" height="64"/>
	<path style="fill:#FFFFFF;" d="M27.194,49.023L27.194,49.023c-0.387,0-0.741-0.177-0.971-0.484
		c-0.346-0.463-0.37-1.114-0.077-2.112l3.037-10.454c0.171-0.33,0.217-0.635,0.12-0.794c-0.098-0.16-0.39-0.26-0.764-0.26h-7.685
		c-1.637,0-2.137-0.743-2.29-1.186c-0.15-0.438-0.214-1.313,1.025-2.306l15.723-15.511c0.598-0.69,1.132-1.022,1.678-1.022
		c0.388,0,0.741,0.177,0.972,0.485c0.347,0.462,0.369,1.114,0.075,2.113l-3.035,10.453c-0.171,0.331-0.217,0.635-0.12,0.794
		c0.098,0.16,0.391,0.259,0.765,0.259h7.684c1.636,0,2.136,0.743,2.289,1.186c0.15,0.438,0.215,1.314-1.026,2.308L28.87,48.001
		C28.274,48.69,27.741,49.023,27.194,49.023z M31.007,36.798l-2.538,8.794l14.792-14.593h-7.613c-1.1,0-2.001-0.444-2.473-1.219
		c-0.456-0.749-0.454-1.713,0.004-2.659l2.538-8.797L20.926,32.919h7.613c1.1,0,2,0.444,2.473,1.22
		C31.468,34.889,31.465,35.853,31.007,36.798z"/>
	<g style="opacity:0.6;">
		<path style="fill:#FFFFFF;" d="M49.729,54H14.272C11.917,54,10,52.083,10,49.728V14.272C10,11.917,11.917,10,14.272,10h35.457
			C52.084,10,54,11.917,54,14.272v35.455C54,52.083,52.084,54,49.729,54z M14.272,12C13.019,12,12,13.02,12,14.272v35.455
			C12,50.98,13.019,52,14.272,52h35.457C50.981,52,52,50.98,52,49.728V14.272C52,13.02,50.981,12,49.729,12H14.272z"/>
	</g>
</g>
</svg>
