<?xml version="1.0" encoding="iso-8859-1"?>
<!-- Generator: Adobe Illustrator 17.0.1, SVG Export Plug-In . SVG Version: 6.00 Build 0)  -->
<!DOCTYPE svg PUBLIC "-//W3C//DTD SVG 1.1//EN" "http://www.w3.org/Graphics/SVG/1.1/DTD/svg11.dtd">
<svg version="1.1" id="Layer_1" xmlns="http://www.w3.org/2000/svg" xmlns:xlink="http://www.w3.org/1999/xlink" x="0px" y="0px"
	 width="32px" height="32px" viewBox="0 0 32 32" style="enable-background:new 0 0 32 32;" xml:space="preserve">
<g id="icon-s-sailfish">
	<rect id="icon-s-sailfish_1_" style="opacity:0;fill:#FFFFFF;" width="32" height="32"/>
	<g>
		<g>
			<path style="fill:#FFFFFF;" d="M15.657,5.733V4.327c-6.364,0-11.523,5.159-11.523,11.522h1.406
				C5.541,10.271,10.079,5.733,15.657,5.733z"/>
			<path style="fill:#FFFFFF;" d="M15.657,3.148V1.741c-7.792,0-14.108,6.316-14.108,14.108h1.407
				C2.956,8.846,8.653,3.148,15.657,3.148z"/>
			<path style="fill:#FFFFFF;" d="M8.146,15.849c0-3.404,2.294-6.232,5.388-7.203c1.275-0.4,2.123-0.194,3.577-0.432
				c2.54-0.417,4.804-1.992,6.116-4.257c-0.395-0.253-0.802-0.487-1.222-0.7c-1.059,1.833-2.886,3.145-5.034,3.558
				c-1.255,0.241-2.539,0.088-3.854,0.484c-3.684,1.108-6.378,4.508-6.378,8.551c0,2.463,0.998,4.692,2.612,6.306l0.996-0.996
				C8.931,19.739,8.146,17.849,8.146,15.849z"/>
			<path style="fill:#FFFFFF;" d="M24.068,27.089c-0.867-3.106-3.384-5.427-6.433-6.153c-1.156-0.276-2.359-0.122-3.329-0.42
				c-2.015-0.617-3.507-2.457-3.507-4.667c0-2.679,2.179-4.858,4.859-4.858V9.584c-3.46,0-6.265,2.805-6.265,6.265
				c0,2.8,1.837,5.171,4.371,5.974c1.168,0.37,2.403,0.214,3.528,0.475c2.79,0.646,4.981,2.876,5.549,5.694
				c0.432-0.256,0.847-0.535,1.248-0.834L24.068,27.089z"/>
		</g>
	</g>
</g>
</svg>
