<?xml version="1.0" encoding="iso-8859-1"?>
<!-- Generator: Adobe Illustrator 17.0.1, SVG Export Plug-In . SVG Version: 6.00 Build 0)  -->
<!DOCTYPE svg PUBLIC "-//W3C//DTD SVG 1.1//EN" "http://www.w3.org/Graphics/SVG/1.1/DTD/svg11.dtd">
<svg version="1.1" id="Layer_1" xmlns="http://www.w3.org/2000/svg" xmlns:xlink="http://www.w3.org/1999/xlink" x="0px" y="0px"
	 width="64px" height="64px" viewBox="0 0 64 64" style="enable-background:new 0 0 64 64;" xml:space="preserve">
<g id="icon-m-usb">
	<rect id="icon-m-usb_1_" style="opacity:0;fill:#FFFFFF;" width="64" height="64"/>
	<g>
		<path style="fill:#FFFFFF;" d="M35.434,13.857h-8.767c-0.645,0-1.164-0.283-1.425-0.775S25.04,12,25.402,11.467l4.259-6.266
			c0.673-0.99,2.105-0.99,2.778,0l4.259,6.267c0.362,0.534,0.42,1.123,0.159,1.615S36.078,13.857,35.434,13.857z M27.556,11.856
			l6.989,0l-3.494-5.142L27.556,11.856z"/>
		<g style="opacity:0.5;">
			<rect x="30.051" y="12.311" style="fill:#FFFFFF;" width="2" height="35.543"/>
			<path style="fill:#FFFFFF;" d="M31.051,41.777c-7.694,0-13.279-4.601-13.279-10.939h2c0,5.18,4.744,8.939,11.279,8.939V41.777z"
				/>
			<path style="fill:#FFFFFF;" d="M31.051,35.547v-2c5.712,0,11.783-3.552,11.783-10.136h2
				C44.834,30.33,38.908,35.547,31.051,35.547z"/>
		</g>
		<path style="fill:#FFFFFF;" d="M18.645,30.838c-2.587,0-4.691-2.104-4.691-4.691c0-2.587,2.104-4.692,4.691-4.692
			c2.588,0,4.693,2.105,4.693,4.692C23.338,28.733,21.232,30.838,18.645,30.838z M18.645,23.454c-1.484,0-2.691,1.208-2.691,2.692
			c0,1.484,1.208,2.691,2.691,2.691c1.485,0,2.693-1.208,2.693-2.691C21.338,24.662,20.13,23.454,18.645,23.454z"/>
		<path style="fill:#FFFFFF;" d="M31.051,58.518c-3.492,0-6.332-2.84-6.332-6.331c0-3.492,2.84-6.333,6.332-6.333
			c3.491,0,6.331,2.841,6.331,6.333C37.382,55.678,34.542,58.518,31.051,58.518z M31.051,47.854c-2.389,0-4.332,1.943-4.332,4.333
			c0,2.388,1.943,4.331,4.332,4.331c2.388,0,4.331-1.943,4.331-4.331C35.382,49.797,33.438,47.854,31.051,47.854z"/>
		<path style="fill:#FFFFFF;" d="M46.241,24.411h-4.473c-1.103,0-2-0.897-2-2v-4.472c0-1.103,0.897-2,2-2h4.473c1.103,0,2,0.897,2,2
			v4.472C48.241,23.514,47.344,24.411,46.241,24.411z M46.241,22.411v1V22.411L46.241,22.411L46.241,22.411z M41.769,17.939v4.472
			h4.47l0.003-4.472H41.769z"/>
	</g>
</g>
</svg>
