<?xml version="1.0" encoding="iso-8859-1"?>
<!-- Generator: Adobe Illustrator 17.0.1, SVG Export Plug-In . SVG Version: 6.00 Build 0)  -->
<!DOCTYPE svg PUBLIC "-//W3C//DTD SVG 1.1//EN" "http://www.w3.org/Graphics/SVG/1.1/DTD/svg11.dtd">
<svg version="1.1" id="Layer_1" xmlns="http://www.w3.org/2000/svg" xmlns:xlink="http://www.w3.org/1999/xlink" x="0px" y="0px"
	 width="64px" height="64px" viewBox="0 0 64 64" style="enable-background:new 0 0 64 64;" xml:space="preserve">
<g id="icon-m-redirect">
	<rect id="icon-m-redirect_1_" style="opacity:0;fill:#FFFFFF;" width="64" height="64"/>
	<path style="fill:#FFFFFF;" d="M35.232,54.285L35.232,54.285c-0.707,0-1.424-0.544-1.424-1.584V27.299
		c0-1.04,0.717-1.584,1.424-1.584c0.324,0,0.658,0.11,0.965,0.319L54.702,38.61c0.495,0.337,0.778,0.844,0.778,1.39
		s-0.283,1.053-0.778,1.39L36.198,53.966C35.891,54.175,35.557,54.285,35.232,54.285z M35.809,28.188v23.624L53.188,40
		L35.809,28.188z"/>
	<g style="opacity:0.6;">
		<path style="fill:#FFFFFF;" d="M33.9,41h-7.702c-8.519,0-14.702-6.309-14.702-15V8.19c0-0.552,0.448-1,1-1s1,0.448,1,1V26
			c0,7.654,5.223,13,12.702,13H33.9c0.553,0,1,0.447,1,1S34.453,41,33.9,41z"/>
	</g>
</g>
</svg>
