<?xml version="1.0" encoding="iso-8859-1"?>
<!-- Generator: Adobe Illustrator 19.0.0, SVG Export Plug-In . SVG Version: 6.00 Build 0)  -->
<svg version="1.1" id="Layer_1" xmlns="http://www.w3.org/2000/svg" xmlns:xlink="http://www.w3.org/1999/xlink" x="0px" y="0px"
	 viewBox="0 0 96 96" style="enable-background:new 0 0 96 96;" xml:space="preserve">
<g id="icon-l-reboot">
	<rect id="icon-l-reboot_1_" style="opacity:0;fill:#FFFFFF;" width="96" height="96"/>
	<g style="opacity:0.6;">
		<path style="fill:#FFFFFF;" d="M48.496,84.975c-3.845,0-7.753-0.617-11.592-1.918c-9.164-3.104-16.571-9.591-20.856-18.266
			s-4.936-18.5-1.832-27.664c2.179-6.433,5.421-13.656,12.945-18.448c0.305-0.195,0.69-0.209,1.011-0.038
			c0.319,0.171,0.52,0.502,0.526,0.864l0.35,20.707c0.005,0.325-0.147,0.633-0.411,0.825s-0.603,0.242-0.91,0.14l-11.396-3.86
			c-0.02-0.007-0.04-0.014-0.059-0.022c-0.054,0.157-0.109,0.315-0.163,0.475c-2.933,8.658-2.318,17.94,1.73,26.137
			s11.046,14.324,19.705,17.257c17.874,6.056,37.339-3.561,43.394-21.435c4.563-13.468,0.472-28.075-10.421-37.212
			c-0.423-0.355-0.479-0.986-0.124-1.409c0.355-0.422,0.985-0.479,1.409-0.124c11.529,9.671,15.858,25.131,11.03,39.386
			C77.727,75.448,63.599,84.974,48.496,84.975z M16.955,35.416c0.006,0.002,0.012,0.004,0.019,0.006l10.051,3.404L26.73,21.397
			C22.441,24.559,19.468,28.821,16.955,35.416z"/>
	</g>
	<path style="fill:#FFFFFF;" d="M48,50c-0.552,0-1-0.447-1-1V10c0-0.552,0.448-1,1-1s1,0.448,1,1v39C49,49.553,48.552,50,48,50z"/>
</g>
</svg>
