<?xml version="1.0" encoding="iso-8859-1"?>
<!-- Generator: Adobe Illustrator 17.0.1, SVG Export Plug-In . SVG Version: 6.00 Build 0)  -->
<!DOCTYPE svg PUBLIC "-//W3C//DTD SVG 1.1//EN" "http://www.w3.org/Graphics/SVG/1.1/DTD/svg11.dtd">
<svg version="1.1" id="Layer_1" xmlns="http://www.w3.org/2000/svg" xmlns:xlink="http://www.w3.org/1999/xlink" x="0px" y="0px"
	 width="64px" height="64px" viewBox="0 0 64 64" style="enable-background:new 0 0 64 64;" xml:space="preserve">
<g id="icon-m-device-upload_1_">
	<rect id="icon-m-device-upload" style="opacity:0;fill:#FFFFFF;" width="64" height="64"/>
	<g>
		<path style="fill:#FFFFFF;" d="M43.963,57H20.037C17.26,57,15,54.74,15,51.963V12.037C15,9.26,17.26,7,20.037,7h23.926
			C46.74,7,49,9.26,49,12.037v39.926C49,54.74,46.74,57,43.963,57z M20.037,9C18.362,9,17,10.362,17,12.037v39.926
			C17,53.638,18.362,55,20.037,55h23.926C45.638,55,47,53.638,47,51.963V12.037C47,10.362,45.638,9,43.963,9H20.037z"/>
		<g style="opacity:0.6;">
			<path style="fill:#FFFFFF;" d="M41.999,49.934h-20c-1.654,0-3-1.346-3-3v-30c0-1.654,1.346-3,3-3h20c1.654,0,3,1.346,3,3v30
				C44.999,48.588,43.653,49.934,41.999,49.934z M21.999,15.934c-0.551,0-1,0.449-1,1v30c0,0.552,0.449,1,1,1h20
				c0.552,0,1-0.448,1-1v-30c0-0.551-0.448-1-1-1H21.999z"/>
		</g>
	</g>
	<g>
		<path style="fill:#FFFFFF;" d="M31.963,60.917c-0.552,0-1-0.447-1-1V44.812c0-0.553,0.448-1,1-1s1,0.447,1,1v15.105
			C32.963,60.47,32.516,60.917,31.963,60.917z"/>
		<path style="fill:#FFFFFF;" d="M32.096,33.296l6.468,9.516l-12.936,0L32.096,33.296 M32.096,30.71
			c-0.408,0-0.815,0.227-1.124,0.682l-7.998,11.766c-0.618,0.91-0.224,1.654,0.876,1.654h16.492c1.1,0,1.494-0.744,0.876-1.654
			l-7.998-11.766C32.912,30.937,32.504,30.71,32.096,30.71L32.096,30.71z"/>
	</g>
</g>
</svg>
