<?xml version="1.0" encoding="iso-8859-1"?>
<!-- Generator: Adobe Illustrator 17.0.1, SVG Export Plug-In . SVG Version: 6.00 Build 0)  -->
<!DOCTYPE svg PUBLIC "-//W3C//DTD SVG 1.1//EN" "http://www.w3.org/Graphics/SVG/1.1/DTD/svg11.dtd">
<svg version="1.1" id="Layer_1" xmlns="http://www.w3.org/2000/svg" xmlns:xlink="http://www.w3.org/1999/xlink" x="0px" y="0px"
	 width="96px" height="96px" viewBox="0 0 96 96" style="enable-background:new 0 0 96 96;" xml:space="preserve">
<g id="icon-l-timer">
	<rect id="icon-l-timer_1_" style="opacity:0;fill:#FFFFFF;" width="96" height="96"/>
	<g>
		<g>
			<path style="opacity:0.6;fill:#FFFFFF;" d="M48,88.688c-21.856,0-39.637-17.881-39.637-39.86c0-19.521,14.447-36.459,33.604-39.4
				l1.067-0.164l0.082,1.077c0.196,2.571,2.341,4.585,4.884,4.585s4.688-2.014,4.883-4.585l0.082-1.077l1.066,0.164
				c19.158,2.941,33.604,19.879,33.604,39.4C87.636,70.807,69.855,88.688,48,88.688z M41.29,11.568
				c-17.7,3.211-30.926,19.052-30.926,37.259c0,20.876,16.884,37.86,37.637,37.86c20.752,0,37.636-16.983,37.636-37.86
				c0-18.208-13.226-34.049-30.926-37.259c-0.729,3.078-3.492,5.357-6.71,5.357C44.783,16.925,42.019,14.646,41.29,11.568z"/>
		</g>
		<g>
			<g>
				<path style="fill:#FFFFFF;" d="M48,17.185c-3.492,0-6.437-2.741-6.705-6.241l1.994-0.152c0.188,2.463,2.258,4.393,4.711,4.393
					s4.522-1.93,4.71-4.393l1.994,0.152C54.438,14.443,51.492,17.185,48,17.185z"/>
				<path style="fill:#FFFFFF;" d="M54.704,10.949l-1.994-0.162c0.006-0.071,0.015-0.142,0.024-0.212
					c0.006-0.045,0.015-0.091,0.015-0.138c0-2.619-2.131-4.749-4.749-4.749c-2.62,0-4.751,2.13-4.751,4.749
					c0,0.044,0.009,0.086,0.015,0.129c0.01,0.075,0.02,0.149,0.025,0.225l-1.994,0.155l-0.014-0.112
					c-0.018-0.131-0.032-0.262-0.032-0.396c0-3.721,3.028-6.749,6.751-6.749c3.722,0,6.749,3.028,6.749,6.749
					c0,0.135-0.015,0.267-0.032,0.398L54.704,10.949z"/>
			</g>
			<path style="fill:#FFFFFF;" d="M48,49.835c-0.256,0-0.512-0.098-0.707-0.293L17.468,19.721c-0.391-0.391-0.391-1.023,0-1.414
				s1.023-0.391,1.414,0l29.825,29.821c0.391,0.391,0.391,1.023,0,1.414C48.512,49.737,48.256,49.835,48,49.835z"/>
		</g>
	</g>
</g>
</svg>
