<?xml version="1.0" encoding="iso-8859-1"?>
<!-- Generator: Adobe Illustrator 17.0.1, SVG Export Plug-In . SVG Version: 6.00 Build 0)  -->
<!DOCTYPE svg PUBLIC "-//W3C//DTD SVG 1.1//EN" "http://www.w3.org/Graphics/SVG/1.1/DTD/svg11.dtd">
<svg version="1.1" id="Layer_1" xmlns="http://www.w3.org/2000/svg" xmlns:xlink="http://www.w3.org/1999/xlink" x="0px" y="0px"
	 width="64px" height="64px" viewBox="0 0 64 64" style="enable-background:new 0 0 64 64;" xml:space="preserve">
<g id="icon-m-backup">
	<rect id="icon-m-backup_1_" style="opacity:0;fill:#FFFFFF;" width="64" height="64"/>
	<path style="fill:#FFFFFF;" d="M48,34H32c-0.552,0-1-0.447-1-1V15c0-0.552,0.448-1,1-1s1,0.448,1,1v17h15c0.553,0,1,0.448,1,1
		C49,33.553,48.553,34,48,34z"/>
	<g style="opacity:0.6;">
		<path style="fill:#FFFFFF;" d="M32.401,56.482c-5.153,0-10.083-1.582-14.256-4.576c-0.449-0.322-0.551-0.946-0.229-1.396
			c0.321-0.449,0.945-0.553,1.396-0.229c3.831,2.748,8.357,4.201,13.09,4.201c12.396,0,22.482-10.086,22.482-22.482
			c0-12.397-10.086-22.482-22.482-22.482C20.004,9.518,9.919,19.603,9.919,32h7.731c0.325,0,0.63,0.158,0.817,0.424
			c0.188,0.266,0.234,0.606,0.124,0.913l-4.65,13c-0.122,0.341-0.418,0.589-0.775,0.649c-0.358,0.057-0.718-0.077-0.945-0.36
			C8.43,41.91,7.919,36.586,7.919,32c0-13.5,10.983-24.482,24.482-24.482c13.5,0,24.482,10.983,24.482,24.482
			C56.884,45.5,45.901,56.482,32.401,56.482z M9.963,34c0.194,4.161,1.038,7.214,2.735,9.873L16.23,34H9.963z"/>
	</g>
</g>
</svg>
