<?xml version="1.0" encoding="iso-8859-1"?>
<!-- Generator: Adobe Illustrator 17.0.1, SVG Export Plug-In . SVG Version: 6.00 Build 0)  -->
<!DOCTYPE svg PUBLIC "-//W3C//DTD SVG 1.1//EN" "http://www.w3.org/Graphics/SVG/1.1/DTD/svg11.dtd">
<svg version="1.1" id="Layer_1" xmlns="http://www.w3.org/2000/svg" xmlns:xlink="http://www.w3.org/1999/xlink" x="0px" y="0px"
	 width="64px" height="64px" viewBox="0 0 64 64" style="enable-background:new 0 0 64 64;" xml:space="preserve">
<g id="icon-m-mail-open">
	<g id="icon-m-mail-open_1_" style="opacity:0;">
		<rect style="fill:#FFFFFF;" width="64" height="64"/>
	</g>
	<g style="opacity:0.5;">
		<path style="fill:none;stroke:#FFFFFF;stroke-width:2;stroke-miterlimit:10;" d="M32.379,47.376"/>
	</g>
	<path style="fill:none;stroke:#FFFFFF;stroke-width:2;stroke-miterlimit:10;" d="M7,24.878"/>
	<path style="fill:#FFFFFF;" d="M54,58H10c-1.654,0-3-1.346-3-3V25.595l0.632-0.025c0.277-0.222,0.758-0.608,1.301-1.044
		L30.178,7.472c1.189-0.954,3.192-0.938,4.364,0.033l20.555,17.007C56.931,26.029,57,26.199,57,26.676V55C57,56.654,55.654,58,54,58
		z M9,27.03V55c0,0.552,0.449,1,1,1h44c0.552,0,1-0.448,1-1V27.072c-0.233-0.215-0.642-0.574-1.179-1.019L33.267,9.045
		c-0.458-0.38-1.371-0.387-1.836-0.014L10.186,26.085C9.651,26.514,9.274,26.817,9,27.03z"/>
	<g style="opacity:0.5;">
		<path style="fill:#FFFFFF;" d="M32.339,46.375c-0.776,0-1.552-0.243-2.161-0.731L7.374,27.337l1.252-1.56L31.43,44.083
			c0.483,0.389,1.358,0.383,1.836-0.013l22.096-18.283l1.275,1.541L34.542,45.611C33.928,46.12,33.133,46.375,32.339,46.375z"/>
	</g>
</g>
</svg>
