<?xml version="1.0" encoding="iso-8859-1"?>
<!-- Generator: Adobe Illustrator 17.0.1, SVG Export Plug-In . SVG Version: 6.00 Build 0)  -->
<!DOCTYPE svg PUBLIC "-//W3C//DTD SVG 1.1//EN" "http://www.w3.org/Graphics/SVG/1.1/DTD/svg11.dtd">
<svg version="1.1" id="Layer_1" xmlns="http://www.w3.org/2000/svg" xmlns:xlink="http://www.w3.org/1999/xlink" x="0px" y="0px"
	 width="64px" height="64px" viewBox="0 0 64 64" style="enable-background:new 0 0 64 64;" xml:space="preserve">
<g id="icon-m-device-download">
	<g>
		<path style="fill:#FFFFFF;" d="M43.963,56.934h-9.817v-2h9.817c1.675,0,3.037-1.362,3.037-3.037V11.971
			c0-1.675-1.362-3.037-3.037-3.037H20.037c-1.675,0-3.037,1.362-3.037,3.037v39.926c0,1.675,1.362,3.037,3.037,3.037h9.854v2
			h-9.854c-2.777,0-5.037-2.26-5.037-5.037V11.971c0-2.777,2.26-5.037,5.037-5.037h23.926c2.777,0,5.037,2.26,5.037,5.037v39.926
			C49,54.674,46.74,56.934,43.963,56.934z"/>
		<g style="opacity:0.6;">
			<path style="fill:#FFFFFF;" d="M41.999,49.867h-3.244v-2h3.244c0.552,0,1-0.448,1-1v-30c0-0.551-0.448-1-1-1h-20
				c-0.551,0-1,0.449-1,1v30c0,0.552,0.449,1,1,1h3.285v2h-3.285c-1.654,0-3-1.346-3-3v-30c0-1.654,1.346-3,3-3h20
				c1.654,0,3,1.346,3,3v30C44.999,48.521,43.653,49.867,41.999,49.867z"/>
		</g>
	</g>
	<g>
		<path style="fill:#FFFFFF;" d="M32,46.35c-0.552,0-1-0.447-1-1V29.917c0-0.552,0.448-1,1-1s1,0.448,1,1V45.35
			C33,45.902,32.552,46.35,32,46.35z"/>
		<path style="fill:#FFFFFF;" d="M38.468,47.35L32,56.866l-6.468-9.516H38.468 M40.246,45.35H23.754c-1.1,0-1.494,0.744-0.876,1.654
			l7.998,11.766c0.309,0.455,0.717,0.682,1.124,0.682s0.815-0.227,1.124-0.682l7.998-11.766C41.74,46.094,41.346,45.35,40.246,45.35
			L40.246,45.35z"/>
	</g>
	<rect id="icon-m-device-download_1_" style="opacity:0;fill:#FFFFFF;" width="64" height="64"/>
</g>
</svg>
