<?xml version="1.0" encoding="iso-8859-1"?>
<!-- Generator: Adobe Illustrator 17.0.1, SVG Export Plug-In . SVG Version: 6.00 Build 0)  -->
<!DOCTYPE svg PUBLIC "-//W3C//DTD SVG 1.1//EN" "http://www.w3.org/Graphics/SVG/1.1/DTD/svg11.dtd">
<svg version="1.1" id="Layer_1" xmlns="http://www.w3.org/2000/svg" xmlns:xlink="http://www.w3.org/1999/xlink" x="0px" y="0px"
	 width="64px" height="64px" viewBox="0 0 64 64" style="enable-background:new 0 0 64 64;" xml:space="preserve">
<g id="icon-m-question">
	<rect id="icon-m-question_1_" style="opacity:0;fill:#FFFFFF;" width="64" height="64"/>
	<circle style="fill:#FFFFFF;" cx="32.134" cy="44.044" r="2.5"/>
	<path style="opacity:0.6;fill:#FFFFFF;" d="M49.885,53.953H16.116c-2.244,0-4.069-1.896-4.069-4.226V14.272
		c0-2.33,1.826-4.226,4.069-4.226h33.769c2.243,0,4.068,1.896,4.068,4.226v35.455C53.953,52.058,52.128,53.953,49.885,53.953z
		 M16.116,11.953c-1.193,0-2.163,1.041-2.163,2.319v35.455c0,1.279,0.97,2.319,2.163,2.319h33.769c1.192,0,2.162-1.04,2.162-2.319
		V14.272c0-1.279-0.97-2.319-2.162-2.319H16.116z"/>
	<path style="fill:#FFFFFF;" d="M32.258,38.49c-0.552,0-1-0.447-1-1v-3.155c0-1.974,1.418-4.098,4.531-4.098
		c2.815,0,4.498-2.432,4.498-4.783c0-2.245-1.587-4.63-4.528-4.63h-9.672c-0.552,0-1-0.448-1-1s0.448-1,1-1h9.672
		c4.086,0,6.528,3.371,6.528,6.63c0,3.334-2.431,6.783-6.498,6.783c-1.868,0-2.53,1.13-2.53,2.098v3.155
		C33.259,38.043,32.811,38.49,32.258,38.49z"/>
</g>
</svg>
