<?xml version="1.0" encoding="iso-8859-1"?>
<!-- Generator: Adobe Illustrator 17.0.1, SVG Export Plug-In . SVG Version: 6.00 Build 0)  -->
<!DOCTYPE svg PUBLIC "-//W3C//DTD SVG 1.1//EN" "http://www.w3.org/Graphics/SVG/1.1/DTD/svg11.dtd">
<svg version="1.1" id="Layer_1" xmlns="http://www.w3.org/2000/svg" xmlns:xlink="http://www.w3.org/1999/xlink" x="0px" y="0px"
	 width="32px" height="32px" viewBox="0 0 32 32" style="enable-background:new 0 0 32 32;" xml:space="preserve">
<g id="icon-lock-warning_1_">
	<rect id="icon-lock-warning" x="0" style="opacity:0;fill:#FFFFFF;" width="32" height="32"/>
	<g>
		<path style="fill:#DE7454;" d="M1.759,29.909c-1.567,0-2.207-1.11-1.424-2.467L14.576,2.775c0.783-1.357,2.065-1.357,2.848,0
			l14.242,24.667c0.783,1.357,0.142,2.467-1.424,2.467H1.759z"/>
		<path style="fill:#FFFFFF;" d="M18.136,24.918c0,0.615-0.204,1.127-0.61,1.534c-0.41,0.407-0.917,0.613-1.526,0.613
			c-0.608,0-1.116-0.206-1.524-0.613c-0.409-0.407-0.612-0.919-0.612-1.534c0-0.602,0.202-1.105,0.612-1.513
			c0.408-0.41,0.917-0.613,1.524-0.613c0.609,0,1.116,0.203,1.526,0.613C17.933,23.813,18.136,24.317,18.136,24.918z"/>
		<path style="fill:#FFFFFF;" d="M14.296,13.983c-0.048-0.699-0.109-1.843-0.135-2.542l-0.034-0.906
			c-0.026-0.7,0.525-1.272,1.226-1.272h1.294c0.701,0,1.252,0.573,1.226,1.272l-0.034,0.906c-0.026,0.7-0.087,1.844-0.134,2.542
			l-0.372,5.403c-0.047,0.699-0.647,1.27-1.333,1.27c-0.685,0-1.285-0.571-1.333-1.27L14.296,13.983z"/>
	</g>
</g>
</svg>
