<?xml version="1.0" encoding="iso-8859-1"?>
<!-- Generator: Adobe Illustrator 17.0.1, SVG Export Plug-In . SVG Version: 6.00 Build 0)  -->
<!DOCTYPE svg PUBLIC "-//W3C//DTD SVG 1.1//EN" "http://www.w3.org/Graphics/SVG/1.1/DTD/svg11.dtd">
<svg version="1.1" id="Layer_1" xmlns="http://www.w3.org/2000/svg" xmlns:xlink="http://www.w3.org/1999/xlink" x="0px" y="0px"
	 width="96px" height="96px" viewBox="0 0 96 96" style="enable-background:new 0 0 96 96;" xml:space="preserve">
<g id="icon-l-gps">
	<rect id="icon-l-gps_1_" style="opacity:0;fill:#FFFFFF;" width="96" height="96"/>
	<g style="opacity:0.6;">
		<path style="fill:#FFFFFF;" d="M27.002,84.286c-1.875,0-3.632-0.727-4.949-2.044l-8.51-8.513c-2.729-2.729-2.728-7.171,0.001-9.9
			l16.75-16.75l1.414,1.414l-16.75,16.75c-1.949,1.95-1.95,5.122-0.001,7.072l8.51,8.513c0.939,0.939,2.195,1.458,3.535,1.458
			c1.34,0,2.595-0.519,3.535-1.458l16.754-16.756l1.414,1.414L31.952,82.242C30.634,83.56,28.876,84.286,27.002,84.286z"/>
	</g>
	<g style="opacity:0.6;">
		<path style="fill:#FFFFFF;" d="M65.698,48.493l-1.414-1.414l16.757-16.756c0.939-0.94,1.458-2.195,1.458-3.536
			s-0.519-2.596-1.458-3.536l-8.514-8.514c-0.939-0.939-2.195-1.457-3.536-1.457c-1.34,0-2.596,0.518-3.535,1.458l-16.75,16.756
			l-1.414-1.414l16.75-16.756c1.317-1.317,3.075-2.043,4.949-2.043c1.875,0,3.633,0.726,4.95,2.043l8.514,8.514
			c1.317,1.317,2.044,3.075,2.044,4.95s-0.727,3.632-2.044,4.95L65.698,48.493z"/>
	</g>
	<path style="fill:#FFFFFF;" d="M28.654,39.24c-0.256,0-0.512-0.098-0.707-0.293l-6.875-6.872c-0.753-0.753-1.168-1.757-1.168-2.828
		c0-1.071,0.415-2.075,1.168-2.828l5.38-5.379c1.561-1.56,4.099-1.559,5.657,0l6.87,6.873c0.391,0.391,0.391,1.024,0,1.414
		c-0.391,0.391-1.023,0.391-1.414,0l-6.87-6.873c-0.78-0.78-2.048-0.78-2.829,0l-5.38,5.379c-0.375,0.375-0.582,0.877-0.582,1.414
		c0,0.536,0.207,1.038,0.582,1.414l6.875,6.872c0.391,0.39,0.391,1.023,0,1.414C29.167,39.143,28.91,39.24,28.654,39.24z"/>
	<path style="fill:#FFFFFF;" d="M63.396,83.584c-0.472,0-0.892-0.335-0.982-0.816l-1.656-8.855
		c-0.363-1.942,0.447-4.562,1.846-5.961l5.381-5.379c1.397-1.399,4.022-2.21,5.961-1.846l8.854,1.655
		c0.543,0.102,0.9,0.624,0.8,1.167c-0.102,0.543-0.626,0.896-1.167,0.8l-8.854-1.655c-1.295-0.248-3.249,0.361-4.18,1.293
		l-5.381,5.379c-0.932,0.932-1.536,2.885-1.293,4.18l1.656,8.855c0.102,0.543-0.257,1.065-0.8,1.167
		C63.52,83.578,63.457,83.584,63.396,83.584z"/>
	<path style="fill:#FFFFFF;" d="M53.147,69.682c-1.07,0-2.075-0.414-2.828-1.167L26.652,44.848
		c-0.754-0.753-1.169-1.757-1.169-2.828c0-1.071,0.415-2.075,1.168-2.828L39.224,26.62c0.753-0.753,1.757-1.168,2.828-1.168
		s2.076,0.415,2.829,1.168l23.667,23.669c1.559,1.56,1.558,4.097-0.001,5.657L55.977,68.514
		C55.224,69.267,54.22,69.682,53.147,69.682z M42.051,27.452c-0.536,0-1.038,0.207-1.414,0.582L28.065,40.606
		c-0.375,0.375-0.582,0.877-0.582,1.414s0.207,1.038,0.583,1.413l23.668,23.667c0.75,0.751,2.08,0.75,2.829-0.001l12.569-12.567
		c0.779-0.78,0.78-2.05,0.001-2.829L43.465,28.034C43.09,27.659,42.588,27.452,42.051,27.452z"/>
</g>
</svg>
