<?xml version="1.0" encoding="iso-8859-1"?>
<!-- Generator: Adobe Illustrator 17.0.1, SVG Export Plug-In . SVG Version: 6.00 Build 0)  -->
<!DOCTYPE svg PUBLIC "-//W3C//DTD SVG 1.1//EN" "http://www.w3.org/Graphics/SVG/1.1/DTD/svg11.dtd">
<svg version="1.1" id="Layer_1" xmlns="http://www.w3.org/2000/svg" xmlns:xlink="http://www.w3.org/1999/xlink" x="0px" y="0px"
	 width="64px" height="64px" viewBox="0 0 64 64" style="enable-background:new 0 0 64 64;" xml:space="preserve">
<g id="icon-m-autocaps">
	<rect id="icon-m-autocaps_1_" style="opacity:0;fill:#FFFFFF;" width="64" height="64"/>
	<path style="opacity:0.2;fill:#FFFFFF;" d="M57.616,29.59L35.026,9.573c-1.664-1.476-4.388-1.476-6.052,0L6.384,29.59
		c-1.663,1.475-1.205,2.682,1.018,2.682h10.246v7.146c0,2.224,1.82,4.043,4.043,4.043h20.618c2.222,0,4.042-1.819,4.042-4.043
		v-7.146h10.246C58.821,32.271,59.279,31.065,57.616,29.59z"/>
	<path style="fill:#FFFFFF;" d="M42.309,46.418H21.691c-2.223,0-4.043,1.799-4.043,4c0,2.199,1.82,4,4.043,4h20.618
		c2.222,0,4.042-1.801,4.042-4C46.352,48.217,44.531,46.418,42.309,46.418z"/>
</g>
</svg>
