<?xml version="1.0" encoding="iso-8859-1"?>
<!-- Generator: Adobe Illustrator 17.0.1, SVG Export Plug-In . SVG Version: 6.00 Build 0)  -->
<!DOCTYPE svg PUBLIC "-//W3C//DTD SVG 1.1//EN" "http://www.w3.org/Graphics/SVG/1.1/DTD/svg11.dtd">
<svg version="1.1" id="Layer_1" xmlns="http://www.w3.org/2000/svg" xmlns:xlink="http://www.w3.org/1999/xlink" x="0px" y="0px"
	 width="64px" height="64px" viewBox="0 0 64 64" style="enable-background:new 0 0 64 64;" xml:space="preserve">
<g id="icon-m-vibration_4_">
	<rect id="icon-m-vibration" style="opacity:0;fill:#FFFFFF;" width="64" height="64"/>
	<path style="fill:#FFFFFF;" d="M41.963,54H22.037C19.26,54,17,51.74,17,48.963V15.037C17,12.26,19.26,10,22.037,10h19.926
		C44.74,10,47,12.26,47,15.037v33.926C47,51.74,44.74,54,41.963,54z M22.037,12C20.362,12,19,13.362,19,15.037v33.926
		C19,50.638,20.362,52,22.037,52h19.926C43.638,52,45,50.638,45,48.963V15.037C45,13.362,43.638,12,41.963,12H22.037z"/>
	<path style="fill:#FFFFFF;" d="M51.562,44.662c-0.143,0-0.288-0.03-0.426-0.096c-0.499-0.235-0.713-0.831-0.478-1.331l2.526-5.354
		l-2.416-5.475c-0.117-0.266-0.113-0.568,0.011-0.831l2.557-5.419l-2.407-5.412c-0.224-0.504,0.003-1.096,0.508-1.32
		c0.505-0.225,1.096,0.004,1.32,0.507l2.593,5.831c0.118,0.266,0.114,0.57-0.01,0.833l-2.557,5.42l2.415,5.476
		c0.117,0.265,0.113,0.567-0.011,0.83l-2.721,5.768C52.296,44.45,51.937,44.662,51.562,44.662z"/>
	<path style="fill:#FFFFFF;" d="M13.454,44.636c-0.374,0-0.733-0.211-0.904-0.571l-2.744-5.788
		c-0.124-0.263-0.128-0.565-0.012-0.831l2.374-5.406l-2.526-5.355c-0.124-0.262-0.127-0.565-0.011-0.831l2.6-5.893
		c0.223-0.505,0.814-0.733,1.319-0.511c0.505,0.223,0.734,0.813,0.511,1.319l-2.416,5.475l2.526,5.354
		c0.124,0.262,0.127,0.564,0.011,0.829l-2.373,5.406l2.548,5.375c0.236,0.499,0.023,1.096-0.476,1.332
		C13.743,44.604,13.597,44.636,13.454,44.636z"/>
	<path style="opacity:0.6;fill:#FFFFFF;" d="M6.454,44.636c-0.374,0-0.733-0.211-0.904-0.571L2.61,37.863l2.557-5.824l-2.721-5.768
		L5.23,19.96c0.223-0.505,0.814-0.733,1.319-0.511c0.505,0.223,0.734,0.813,0.511,1.319l-2.416,5.475l2.72,5.767l-2.556,5.822
		l2.548,5.375c0.236,0.499,0.023,1.096-0.476,1.332C6.743,44.604,6.597,44.636,6.454,44.636z"/>
	<path style="opacity:0.6;fill:#FFFFFF;" d="M57.562,44.662c-0.143,0-0.288-0.03-0.426-0.096c-0.499-0.235-0.713-0.831-0.478-1.331
		l2.526-5.354l-2.601-5.893l2.752-5.832l-2.407-5.412c-0.224-0.504,0.003-1.096,0.508-1.32c0.506-0.225,1.096,0.004,1.32,0.507
		l2.778,6.249l-2.752,5.835l2.599,5.893l-2.915,6.181C58.296,44.45,57.937,44.662,57.562,44.662z"/>
</g>
</svg>
