<?xml version="1.0" encoding="iso-8859-1"?>
<!-- Generator: Adobe Illustrator 17.0.1, SVG Export Plug-In . SVG Version: 6.00 Build 0)  -->
<!DOCTYPE svg PUBLIC "-//W3C//DTD SVG 1.1//EN" "http://www.w3.org/Graphics/SVG/1.1/DTD/svg11.dtd">
<svg version="1.1" id="Layer_1" xmlns="http://www.w3.org/2000/svg" xmlns:xlink="http://www.w3.org/1999/xlink" x="0px" y="0px"
	 width="32px" height="32px" viewBox="0 0 32 32" style="enable-background:new 0 0 32 32;" xml:space="preserve">
<g id="icon-lock-sms">
	<rect id="icon-lock-sms_1_" style="opacity:0;fill:#FFFFFF;" width="32" height="32"/>
	<g>
		<g>
			<path style="fill:#45DDEB;" d="M13.077,3.333c0.099,0,5.556,0.002,5.655,0.003C25.952,3.476,32,8.637,32,15.114V27v3.763
				c-2.452,0-4.683-1.827-4.683-4.015l-14.049,0.003C5.912,26.751,0,21.679,0,15.114C0,8.549,5.72,3.333,13.077,3.333z"/>
			<path style="fill:#FFFFFF;" d="M11,15.74c0,1.145-0.929,2.074-2.074,2.074H8.408c-1.145,0-2.074-0.929-2.074-2.074v-0.518
				c0-1.146,0.929-2.074,2.074-2.074h0.518c1.145,0,2.074,0.929,2.074,2.074V15.74z"/>
			<path style="fill:#FFFFFF;" d="M18.333,15.74c0,1.145-0.929,2.074-2.074,2.074H15.74c-1.145,0-2.073-0.929-2.073-2.074v-0.518
				c0-1.146,0.928-2.074,2.073-2.074h0.519c1.145,0,2.074,0.929,2.074,2.074V15.74z"/>
			<path style="fill:#FFFFFF;" d="M25.667,15.74c0,1.145-0.928,2.074-2.073,2.074h-0.519c-1.145,0-2.074-0.929-2.074-2.074v-0.518
				c0-1.146,0.929-2.074,2.074-2.074h0.519c1.145,0,2.073,0.929,2.073,2.074V15.74z"/>
		</g>
	</g>
</g>
</svg>
