<?xml version="1.0" encoding="iso-8859-1"?>
<!-- Generator: Adobe Illustrator 17.0.1, SVG Export Plug-In . SVG Version: 6.00 Build 0)  -->
<!DOCTYPE svg PUBLIC "-//W3C//DTD SVG 1.1//EN" "http://www.w3.org/Graphics/SVG/1.1/DTD/svg11.dtd">
<svg version="1.1" id="Layer_1" xmlns="http://www.w3.org/2000/svg" xmlns:xlink="http://www.w3.org/1999/xlink" x="0px" y="0px"
	 width="64px" height="64px" viewBox="0 0 64 64" style="enable-background:new 0 0 64 64;" xml:space="preserve">
<g id="icon-m-people">
	<rect id="icon-m-people_1_" style="opacity:0;fill:#FFFFFF;" width="64" height="64"/>
	<g>
		<path style="fill:#FFFFFF;" d="M32,18.465c-3.273,0-5.937-2.629-5.937-5.861S28.727,6.743,32,6.743
			c3.274,0,5.938,2.629,5.938,5.861S35.274,18.465,32,18.465z M32,8.743c-2.171,0-3.937,1.732-3.937,3.861s1.766,3.861,3.937,3.861
			s3.938-1.732,3.938-3.861S34.171,8.743,32,8.743z"/>
		<g>
			<path style="fill:#FFFFFF;" d="M23.142,39.592c-3.91-0.582-6.642-2.811-6.642-5.419v-9.185c0-2.812,3.027-5.099,6.748-5.099
				h17.504c3.721,0,6.748,2.288,6.748,5.099v9.185c0,2.637-2.681,4.814-6.67,5.418l-0.299-1.977
				c2.879-0.437,4.969-1.884,4.969-3.441v-9.185c0-1.68-2.175-3.099-4.748-3.099H23.248c-2.574,0-4.748,1.419-4.748,3.099v9.185
				c0,1.543,2.122,3.021,4.937,3.44L23.142,39.592z"/>
		</g>
		<g style="opacity:0.6;">
			<path style="fill:#FFFFFF;" d="M23.996,56.969c-0.163,0-0.326-0.013-0.488-0.039l-2.207-0.352
				c-0.806-0.129-1.502-0.583-1.913-1.245c-0.409-0.662-0.504-1.488-0.26-2.266L23.58,38.88c0.288-0.916,0.47-1.528,0.526-1.736
				c-0.035-0.441-0.035-1.047-0.035-1.872V22.889c0-1.654,1.346-3,3-3h9.857c1.654,0,3,1.346,3,3v12.382c0,0.854,0,1.483-0.05,1.938
				c0.058,0.227,0.229,0.821,0.496,1.671l4.452,14.187c0.244,0.779,0.148,1.605-0.262,2.268s-1.106,1.115-1.911,1.243l-2.208,0.353
				c-0.161,0.026-0.323,0.038-0.485,0.038l0,0c-1.433,0-2.779-0.976-3.2-2.32L32,39.479c-0.007-0.023-0.015-0.047-0.022-0.07
				c-0.008,0.023-0.015,0.047-0.022,0.07l-4.761,15.17C26.772,55.993,25.428,56.969,23.996,56.969z M26.086,36.981
				c0.093,0.295-0.049,0.749-0.598,2.498l-4.452,14.188c-0.071,0.226-0.052,0.443,0.053,0.614c0.105,0.17,0.292,0.284,0.527,0.322
				l2.207,0.352c0.623,0.094,1.284-0.337,1.462-0.904l4.761-15.171c0.82-2.608,1.57-2.608,1.931-2.608s1.11,0,1.93,2.608
				l4.762,15.169c0.161,0.516,0.729,0.919,1.292,0.919l0,0c0.058,0,0.114-0.004,0.171-0.013l2.208-0.353
				c0.233-0.037,0.42-0.151,0.525-0.321c0.105-0.171,0.125-0.39,0.054-0.616l-4.452-14.186c-0.539-1.718-0.684-2.181-0.564-2.516
				c0.013-0.272,0.026-0.867,0.026-1.692V22.889c0-0.551-0.448-1-1-1h-9.857c-0.551,0-1,0.449-1,1v12.382
				C26.071,36.104,26.079,36.696,26.086,36.981z"/>
		</g>
	</g>
</g>
</svg>
