<?xml version="1.0" encoding="iso-8859-1"?>
<!-- Generator: Adobe Illustrator 17.0.1, SVG Export Plug-In . SVG Version: 6.00 Build 0)  -->
<!DOCTYPE svg PUBLIC "-//W3C//DTD SVG 1.1//EN" "http://www.w3.org/Graphics/SVG/1.1/DTD/svg11.dtd">
<svg version="1.1" id="Layer_1" xmlns="http://www.w3.org/2000/svg" xmlns:xlink="http://www.w3.org/1999/xlink" x="0px" y="0px"
	 width="96px" height="96px" viewBox="0 0 96 96" style="enable-background:new 0 0 96 96;" xml:space="preserve">
<g id="icon-l-message">
	<rect id="icon-l-message_1_" style="opacity:0;fill:#FFFFFF;" width="96" height="96"/>
	<g>
		<g>
			<path style="opacity:0.6;fill:#FFFFFF;" d="M83.5,84.286h-1c-5.993,0-11.294-4.292-11.915-9.409l-31.986,0.008
				C20.6,74.885,6.5,62.465,6.5,46.61C6.5,30.567,20.402,18,38.148,18c0.128,0,13.021,0.004,13.27,0.008
				C69.109,18.351,83.5,31.182,83.5,46.61V84.286z M72.524,72.877v1c0,4.196,4.09,7.909,8.976,8.363V46.61
				c0-14.347-13.511-26.28-30.118-26.602C51.085,20.004,38.77,20,38.148,20C21.523,20,8.5,31.688,8.5,46.61
				c0,14.734,13.221,26.275,30.099,26.275L72.524,72.877z"/>
			<path style="fill:#FFFFFF;" d="M29.427,54.702h-1.192c-3.18,0-5.767-2.548-5.767-5.679v-1.17c0-3.132,2.587-5.68,5.767-5.68
				h1.192c3.18,0,5.767,2.548,5.767,5.68v1.17C35.193,52.154,32.606,54.702,29.427,54.702z M28.234,44.173
				c-2.077,0-3.767,1.651-3.767,3.68v1.17c0,2.028,1.69,3.679,3.767,3.679h1.192c2.077,0,3.767-1.65,3.767-3.679v-1.17
				c0-2.029-1.689-3.68-3.767-3.68H28.234z"/>
			<path style="fill:#FFFFFF;" d="M46.868,54.702h-1.192c-3.18,0-5.767-2.548-5.767-5.679v-1.17c0-3.132,2.587-5.68,5.767-5.68
				h1.192c3.181,0,5.769,2.548,5.769,5.68v1.17C52.637,52.154,50.049,54.702,46.868,54.702z M45.675,44.173
				c-2.077,0-3.767,1.651-3.767,3.68v1.17c0,2.028,1.69,3.679,3.767,3.679h1.192c2.078,0,3.769-1.65,3.769-3.679v-1.17
				c0-2.029-1.691-3.68-3.769-3.68H45.675z"/>
			<path style="fill:#FFFFFF;" d="M64.312,54.702h-1.195c-3.18,0-5.767-2.548-5.767-5.679v-1.17c0-3.132,2.587-5.68,5.767-5.68
				h1.195c3.178,0,5.764,2.548,5.764,5.68v1.17C70.075,52.154,67.489,54.702,64.312,54.702z M63.116,44.173
				c-2.077,0-3.767,1.651-3.767,3.68v1.17c0,2.028,1.689,3.679,3.767,3.679h1.195c2.075,0,3.764-1.65,3.764-3.679v-1.17
				c0-2.029-1.688-3.68-3.764-3.68H63.116z"/>
		</g>
	</g>
</g>
</svg>
