<?xml version="1.0" encoding="iso-8859-1"?>
<!-- Generator: Adobe Illustrator 17.0.1, SVG Export Plug-In . SVG Version: 6.00 Build 0)  -->
<!DOCTYPE svg PUBLIC "-//W3C//DTD SVG 1.1//EN" "http://www.w3.org/Graphics/SVG/1.1/DTD/svg11.dtd">
<svg version="1.1" id="Layer_1" xmlns="http://www.w3.org/2000/svg" xmlns:xlink="http://www.w3.org/1999/xlink" x="0px" y="0px"
	 width="32px" height="32px" viewBox="0 0 32 32" style="enable-background:new 0 0 32 32;" xml:space="preserve">
<g id="icon-lock-information">
	<rect id="icon-lock-information_1_" style="opacity:0;fill:#FFFFFF;" width="32" height="32"/>
	<g>
		<circle style="fill:#7086FF;" cx="16" cy="16" r="16"/>
		<path style="fill:#FFFFFF;" d="M18.342,8.685c0,0.674-0.223,1.235-0.669,1.681c-0.449,0.446-1.005,0.672-1.673,0.672
			c-0.666,0-1.223-0.226-1.671-0.672c-0.448-0.446-0.671-1.007-0.671-1.681c0-0.659,0.222-1.211,0.671-1.658
			c0.447-0.45,1.005-0.672,1.671-0.672c0.667,0,1.223,0.222,1.673,0.672C18.118,7.474,18.342,8.026,18.342,8.685z"/>
		<path style="fill:#FFFFFF;" d="M14.133,19.251c-0.052-0.766-0.119-2.02-0.147-2.787l-0.038-0.993
			c-0.029-0.767,0.576-1.394,1.344-1.394h1.418c0.768,0,1.372,0.627,1.344,1.394l-0.038,0.993c-0.029,0.767-0.096,2.021-0.147,2.787
			l-0.407,5.922c-0.052,0.766-0.709,1.392-1.461,1.392c-0.751,0-1.409-0.626-1.461-1.392L14.133,19.251z"/>
	</g>
</g>
</svg>
