<?xml version="1.0" encoding="iso-8859-1"?>
<!-- Generator: Adobe Illustrator 17.0.1, SVG Export Plug-In . SVG Version: 6.00 Build 0)  -->
<!DOCTYPE svg PUBLIC "-//W3C//DTD SVG 1.1//EN" "http://www.w3.org/Graphics/SVG/1.1/DTD/svg11.dtd">
<svg version="1.1" id="Layer_1" xmlns="http://www.w3.org/2000/svg" xmlns:xlink="http://www.w3.org/1999/xlink" x="0px" y="0px"
	 width="64px" height="64px" viewBox="0 0 64 64" style="enable-background:new 0 0 64 64;" xml:space="preserve">
<g id="icon-m-swipe">
	<rect id="icon-m-swipe_2_" style="opacity:0;fill:#FFFFFF;" width="64" height="64"/>
	<path style="opacity:0.6;fill:#FFFFFF;" d="M42.432,33h-9.433c-0.552,0-1-0.448-1-1s0.448-1,1-1h9.433c0.553,0,1,0.448,1,1
		S42.984,33,42.432,33z"/>
	<g style="opacity:0.6;">
		<path style="fill:#FFFFFF;" d="M44.878,25.501L52.076,32l-7.199,6.498L44.878,25.501 M43.539,21.935
			c-0.398,0-0.662,0.374-0.662,1.065v18c0,0.691,0.264,1.065,0.662,1.065c0.236,0,0.519-0.131,0.823-0.405l9.215-8.32
			c0.816-0.737,0.816-1.943,0-2.681l-9.215-8.319C44.058,22.066,43.775,21.935,43.539,21.935L43.539,21.935z"/>
	</g>
	<path style="fill:#FFFFFF;" d="M20.999,45c-7.168,0-13-5.832-13-13c0-7.168,5.832-13,13-13s13,5.832,13,13
		C33.999,39.168,28.167,45,20.999,45z M20.999,21c-6.065,0-11,4.935-11,11s4.935,11,11,11s11-4.935,11-11S27.064,21,20.999,21z"/>
</g>
</svg>
