<?xml version="1.0" encoding="iso-8859-1"?>
<!-- Generator: Adobe Illustrator 17.0.1, SVG Export Plug-In . SVG Version: 6.00 Build 0)  -->
<!DOCTYPE svg PUBLIC "-//W3C//DTD SVG 1.1//EN" "http://www.w3.org/Graphics/SVG/1.1/DTD/svg11.dtd">
<svg version="1.1" id="Layer_1" xmlns="http://www.w3.org/2000/svg" xmlns:xlink="http://www.w3.org/1999/xlink" x="0px" y="0px"
	 width="64px" height="64px" viewBox="0 0 64 64" style="enable-background:new 0 0 64 64;" xml:space="preserve">
<g id="icon-m-bluetooth-device">
	<rect id="icon-m-bluetooth-device_1_" style="opacity:0;fill:#FFFFFF;" width="64" height="64"/>
	<g style="opacity:0.6;">
		<path style="fill:#FFFFFF;" d="M50.285,54.5H13.984c-2.398,0-4.35-1.951-4.35-4.35v-36.3c0-2.399,1.952-4.351,4.35-4.351h36.301
			c2.398,0,4.35,1.952,4.35,4.351v36.3C54.635,52.549,52.684,54.5,50.285,54.5z M13.984,11.5c-1.296,0-2.35,1.055-2.35,2.351v36.3
			c0,1.296,1.054,2.35,2.35,2.35h36.301c1.296,0,2.35-1.054,2.35-2.35v-36.3c0-1.296-1.054-2.351-2.35-2.351H13.984z"/>
	</g>
	<path style="fill:#FFFFFF;" d="M32.9,46.124c-0.259,0-0.509-0.057-0.741-0.172c-0.651-0.321-1.024-1.033-1.024-1.952v-9.98
		l-7.565,5.773c-0.44,0.336-1.067,0.25-1.401-0.188c-0.335-0.438-0.251-1.066,0.188-1.401l8.13-6.205l-8.13-6.206
		c-0.439-0.335-0.523-0.963-0.188-1.402c0.334-0.439,0.962-0.524,1.402-0.188l7.565,5.774V20c0-0.919,0.373-1.631,1.023-1.953
		c0.651-0.321,1.442-0.186,2.173,0.371l5.992,4.572c0.667,0.509,1.049,1.241,1.049,2.008s-0.382,1.499-1.048,2.008l-6.541,4.991
		l6.54,4.993c0.667,0.509,1.049,1.24,1.049,2.008c0,0.769-0.382,1.5-1.049,2.009l-5.992,4.573
		C33.861,45.939,33.366,46.124,32.9,46.124z M33.135,34.02v9.959l5.976-4.561c0.169-0.129,0.262-0.277,0.262-0.419
		c0-0.141-0.093-0.289-0.262-0.418L33.135,34.02z M33.135,20.021v9.957l5.976-4.56c0.169-0.129,0.262-0.278,0.262-0.418
		s-0.093-0.29-0.263-0.418L33.135,20.021z"/>
</g>
</svg>
