<?xml version="1.0" encoding="iso-8859-1"?>
<!-- Generator: Adobe Illustrator 17.0.1, SVG Export Plug-In . SVG Version: 6.00 Build 0)  -->
<!DOCTYPE svg PUBLIC "-//W3C//DTD SVG 1.1//EN" "http://www.w3.org/Graphics/SVG/1.1/DTD/svg11.dtd">
<svg version="1.1" id="Layer_1" xmlns="http://www.w3.org/2000/svg" xmlns:xlink="http://www.w3.org/1999/xlink" x="0px" y="0px"
	 width="32px" height="32px" viewBox="0 0 32 32" style="enable-background:new 0 0 32 32;" xml:space="preserve">
<g id="icon-s-time">
	<rect id="icon-s-time_1_" style="opacity:0;fill:#FFFFFF;" width="32" height="32"/>
	<path style="fill:#FFFFFF;" d="M16,28.146C9.303,28.146,3.855,22.697,3.855,16S9.303,3.854,16,3.854
		c6.696,0,12.145,5.448,12.145,12.146S22.696,28.146,16,28.146z M16,5.854C10.406,5.854,5.855,10.406,5.855,16
		c0,5.595,4.551,10.146,10.145,10.146S26.145,21.595,26.145,16C26.145,10.406,21.594,5.854,16,5.854z"/>
	<path style="opacity:0.6;fill:#FFFFFF;" d="M15.594,17.93c-0.262,0-0.523-0.103-0.72-0.306l-4.623-4.79
		c-0.383-0.397-0.372-1.03,0.025-1.414c0.397-0.383,1.03-0.372,1.414,0.025l3.941,4.083l7.492-6.955
		c0.403-0.375,1.038-0.354,1.413,0.053c0.376,0.405,0.353,1.037-0.052,1.413l-8.211,7.622C16.082,17.841,15.837,17.93,15.594,17.93z
		"/>
</g>
</svg>
