<?xml version="1.0" encoding="iso-8859-1"?>
<!-- Generator: Adobe Illustrator 17.0.1, SVG Export Plug-In . SVG Version: 6.00 Build 0)  -->
<!DOCTYPE svg PUBLIC "-//W3C//DTD SVG 1.1//EN" "http://www.w3.org/Graphics/SVG/1.1/DTD/svg11.dtd">
<svg version="1.1" id="Layer_1" xmlns="http://www.w3.org/2000/svg" xmlns:xlink="http://www.w3.org/1999/xlink" x="0px" y="0px"
	 width="96px" height="96px" viewBox="0 0 96 96" style="enable-background:new 0 0 96 96;" xml:space="preserve">
<g id="icon-l-reject">
	<rect id="icon-l-reject_1_" style="opacity:0;fill:#FFFFFF;" width="96" height="96"/>
	<g>
		<path style="opacity:0.6;fill:#FFFFFF;" d="M81.821,69.639c-0.187,0-0.375-0.052-0.543-0.161c-0.066-0.043-6.617-4.29-10.38-6.53
			c-5.735-3.416-8.855-10.282-7.563-16.333c-0.275-0.07-0.55-0.138-0.824-0.206c-1.423-0.368-2.84-0.682-4.225-0.935
			c-9.426-1.82-17.742-1.494-26.838,1.066c1.167,6.085-2.132,13.087-7.683,16.409l-10.462,6.252l-1.025-1.717l10.461-6.252
			c4.809-2.877,7.775-9.161,6.751-14.306l-0.481-1.614l0.039-0.011L29,45.147l0.983-0.265c9.773-2.891,18.616-3.315,28.673-1.374
			c1.422,0.26,2.888,0.584,4.346,0.961c0.592,0.146,1.195,0.297,1.81,0.462l0.995,0.268l-0.298,0.987
			c-1.862,6.181,1.914,12.363,6.413,15.042c3.796,2.26,10.379,6.528,10.444,6.571c0.464,0.301,0.596,0.92,0.295,1.383
			C82.47,69.479,82.148,69.639,81.821,69.639z"/>
		<path style="fill:#FFFFFF;" d="M82.529,69.346l-1.414-1.414l7.995-7.996c2.976-3.063,2.666-10.103-2.514-15.441
			c-1.23-1.27-2.672-2.37-4.285-3.272c-1.072-0.6-2.21-1.191-3.479-1.808l0.334-0.951l-0.436,0.9
			c-19.203-9.293-42.454-9.309-62.199-0.042l-0.219,0.104c-1.224,0.58-2.296,1.118-3.275,1.644c-1.632,0.876-3.1,1.966-4.362,3.24
			C3.393,49.634,2.83,56.996,5.856,60.022c3.265,3.266,7.64,7.61,7.64,7.61l-1.409,1.42c0,0-4.378-4.349-7.632-7.603
			c-4.179-4.179-2.864-12.841,2.8-18.549c1.402-1.414,3.029-2.623,4.835-3.593c1.009-0.542,2.111-1.096,3.368-1.691l0.225-0.107
			c20.284-9.521,44.179-9.501,63.918,0.054l0.105,0.052c1.303,0.634,2.475,1.242,3.581,1.861c1.782,0.997,3.379,2.216,4.744,3.625
			c5.535,5.706,6.665,14.074,2.467,18.273L82.529,69.346z"/>
	</g>
</g>
</svg>
