<?xml version="1.0" encoding="iso-8859-1"?>
<!-- Generator: Adobe Illustrator 19.0.0, SVG Export Plug-In . SVG Version: 6.00 Build 0)  -->
<svg version="1.1" id="Layer_1" xmlns="http://www.w3.org/2000/svg" xmlns:xlink="http://www.w3.org/1999/xlink" x="0px" y="0px"
	 viewBox="0 0 32 32" style="enable-background:new 0 0 32 32;" xml:space="preserve">
<g id="icon-cover-transfers_2_">
	<rect id="icon-cover-transfers_3_" style="opacity:0;fill:#FFFFFF;" width="32" height="32"/>
	<path style="fill:#FFFFFF;" d="M29.093,9.901L17.862,2.858C16.849,2.166,16.02,2.603,16.02,3.83l-0.002,4.909H3.106
		c-1.336,0-2.429,1.093-2.429,2.429s1.093,2.429,2.429,2.429h12.911l0.002,4.893c0,1.227,0.829,1.665,1.842,0.973l11.231-7.043
		C30.106,11.726,30.106,10.594,29.093,9.901z"/>
	<path style="opacity:0.4;fill:#FFFFFF;" d="M2.907,22.093l11.231,7.044c1.014,0.692,1.843,0.255,1.843-0.972l0.002-4.91h12.911
		c1.336,0,2.429-1.093,2.429-2.428c0-1.336-1.093-2.429-2.429-2.429H15.982l-0.002-4.893c0-1.227-0.829-1.665-1.843-0.973
		L2.907,19.576C1.894,20.268,1.894,21.4,2.907,22.093z"/>
</g>
</svg>
