<?xml version="1.0" encoding="iso-8859-1"?>
<!-- Generator: Adobe Illustrator 19.0.0, SVG Export Plug-In . SVG Version: 6.00 Build 0)  -->
<svg version="1.1" id="Layer_1" xmlns="http://www.w3.org/2000/svg" xmlns:xlink="http://www.w3.org/1999/xlink" x="0px" y="0px"
	 viewBox="0 0 96 96" style="enable-background:new 0 0 96 96;" xml:space="preserve">
<g id="icon-l-acknowledge">
	<rect id="icon-l-acknowledge_1_" style="opacity:0;fill:#FFFFFF;" width="96" height="96"/>
	<path style="opacity:0.6;fill:#FFFFFF;" d="M48,84.249c-19.988,0-36.25-16.262-36.25-36.249c0-19.989,16.262-36.251,36.25-36.251
		S84.25,28.011,84.25,48C84.25,67.987,67.988,84.249,48,84.249z M48,13.749c-18.886,0-34.25,15.365-34.25,34.251
		c0,18.885,15.364,34.249,34.25,34.249S82.25,66.885,82.25,48C82.25,29.114,66.886,13.749,48,13.749z"/>
	<path style="fill:#FFFFFF;" d="M45.067,64.227c-0.017,0-0.034,0-0.051,0c-1.716-0.017-3.303-0.859-4.467-2.373L29.208,47.11
		c-0.337-0.438-0.255-1.066,0.183-1.402c0.438-0.337,1.066-0.255,1.402,0.183l11.342,14.745c0.782,1.017,1.813,1.582,2.901,1.592
		c0.01,0,0.021,0,0.03,0c1.079,0,2.107-0.545,2.901-1.537l20.251-25.314c0.347-0.43,0.974-0.501,1.406-0.156
		c0.431,0.345,0.501,0.974,0.156,1.405L49.529,61.939C48.348,63.416,46.765,64.227,45.067,64.227z"/>
</g>
</svg>
