<?xml version="1.0" encoding="iso-8859-1"?>
<!-- Generator: Adobe Illustrator 17.0.1, SVG Export Plug-In . SVG Version: 6.00 Build 0)  -->
<!DOCTYPE svg PUBLIC "-//W3C//DTD SVG 1.1//EN" "http://www.w3.org/Graphics/SVG/1.1/DTD/svg11.dtd">
<svg version="1.1" id="Layer_1" xmlns="http://www.w3.org/2000/svg" xmlns:xlink="http://www.w3.org/1999/xlink" x="0px" y="0px"
	 width="64px" height="64px" viewBox="0 0 64 64" style="enable-background:new 0 0 64 64;" xml:space="preserve">
<g id="icon-m-health">
	<rect id="icon-m-health_1_" style="opacity:0;fill:#FFFFFF;" width="64" height="64"/>
	<path style="opacity:0.6;fill:#FFFFFF;" d="M32,56.636C18.417,56.636,7.365,45.584,7.365,32C7.365,18.415,18.417,7.363,32,7.363
		c13.585,0,24.637,11.052,24.637,24.637C56.637,45.584,45.585,56.636,32,56.636z M32,9.363C19.519,9.363,9.365,19.518,9.365,32
		c0,12.481,10.154,22.636,22.635,22.636c12.481,0,22.637-10.154,22.637-22.636C54.637,19.518,44.481,9.363,32,9.363z"/>
	<path style="fill:#FFFFFF;" d="M32.46,46.824h-0.919c-2.499,0-4.531-2.033-4.531-4.532v-5.301h-5.302
		c-2.499,0-4.532-2.032-4.532-4.531v-0.919c0-2.499,2.033-4.532,4.532-4.532h5.302v-5.301c0-2.499,2.033-4.532,4.531-4.532h0.919
		c2.499,0,4.532,2.033,4.532,4.532v5.301h5.3c2.499,0,4.532,2.033,4.532,4.532v0.919c0,2.499-2.033,4.531-4.532,4.531h-5.3v5.301
		C36.992,44.791,34.959,46.824,32.46,46.824z M21.708,29.009c-1.396,0-2.532,1.136-2.532,2.532v0.919
		c0,1.396,1.136,2.531,2.532,2.531h7.302v7.301c0,1.396,1.136,2.532,2.531,2.532h0.919c1.396,0,2.532-1.136,2.532-2.532v-7.301h7.3
		c1.396,0,2.532-1.136,2.532-2.531v-0.919c0-1.396-1.136-2.532-2.532-2.532h-7.3v-7.301c0-1.396-1.136-2.532-2.532-2.532h-0.919
		c-1.396,0-2.531,1.136-2.531,2.532v7.301H21.708z"/>
</g>
</svg>
