<?xml version="1.0" encoding="iso-8859-1"?>
<!-- Generator: Adobe Illustrator 19.0.0, SVG Export Plug-In . SVG Version: 6.00 Build 0)  -->
<svg version="1.1" id="Layer_1" xmlns="http://www.w3.org/2000/svg" xmlns:xlink="http://www.w3.org/1999/xlink" x="0px" y="0px"
	 viewBox="0 0 32 32" style="enable-background:new 0 0 32 32;" xml:space="preserve">
<g id="icon-cover-backup_2_">
	<rect id="icon-cover-backup_3_" style="opacity:0;fill:#FFFFFF;" width="32" height="32"/>
	<path style="fill:#FFFFFF;" d="M1.771,13.643c-0.114,0.676-0.186,1.366-0.207,2.071C1.467,19.092,2.5,22.239,4.32,24.792
		l7.57-7.554c0.765-1.136,0.272-2.096-1.096-2.133l-4.138-0.114c0.666-5.246,5.151-8.954,10.12-8.818
		c2.662,0.073,5.049,1.194,6.785,2.952l-0.009,0.009c2.062,2.079,3.197,5.041,2.826,8.17c-0.647,5.451-5.607,9.366-11.057,8.727
		c-1.367-0.16-2.635-0.596-3.76-1.24l-3.608,3.609c1.95,1.361,4.253,2.278,6.782,2.574c8.188,0.96,15.613-4.901,16.585-13.09
		c0.559-4.709-1.141-9.16-4.241-12.277l0.009-0.009c-2.604-2.624-6.18-4.291-10.169-4.401C9.382,0.992,2.991,6.411,1.771,13.643z"/>
</g>
</svg>
