<?xml version="1.0" encoding="iso-8859-1"?>
<!-- Generator: Adobe Illustrator 17.0.1, SVG Export Plug-In . SVG Version: 6.00 Build 0)  -->
<!DOCTYPE svg PUBLIC "-//W3C//DTD SVG 1.1//EN" "http://www.w3.org/Graphics/SVG/1.1/DTD/svg11.dtd">
<svg version="1.1" id="Layer_1" xmlns="http://www.w3.org/2000/svg" xmlns:xlink="http://www.w3.org/1999/xlink" x="0px" y="0px"
	 width="32px" height="32px" viewBox="0 0 32 32" style="enable-background:new 0 0 32 32;" xml:space="preserve">
<g id="icon-s-installed">
	<rect id="icon-s-installed_1_" style="opacity:0;fill:#FFFFFF;" width="32" height="32"/>
	<path style="opacity:0.4;fill:#FFFFFF;" d="M16,4.426C9.608,4.426,4.426,9.607,4.426,16c0,6.393,5.182,11.574,11.574,11.574
		S27.574,22.393,27.574,16C27.574,9.607,22.392,4.426,16,4.426z"/>
	<path style="fill:#FFFFFF;" d="M15.611,17.738c-0.389,0.389-1.025,0.389-1.415,0l-3.164-3.163c-0.389-0.389-1.025-0.389-1.414,0
		L8.62,15.574c-0.389,0.389-0.389,1.025,0,1.414l3.164,3.164c0.389,0.389,1.025,1.025,1.414,1.414l0.277,0.277
		c0.765,0.766,1.935,0.924,2.885-0.026l0.25-0.25c0.389-0.389,1.025-1.025,1.414-1.414l6.075-6.075c0.389-0.389,0.389-1.025,0-1.414
		l-0.999-1c-0.389-0.389-1.025-0.389-1.414,0L15.611,17.738z"/>
</g>
</svg>
