<?xml version="1.0" encoding="iso-8859-1"?>
<!-- Generator: Adobe Illustrator 19.0.0, SVG Export Plug-In . SVG Version: 6.00 Build 0)  -->
<svg version="1.1" id="Layer_1" xmlns="http://www.w3.org/2000/svg" xmlns:xlink="http://www.w3.org/1999/xlink" x="0px" y="0px"
	 viewBox="0 0 32 32" style="enable-background:new 0 0 32 32;" xml:space="preserve">
<g id="icon-cover-answer_2_">
	<rect id="icon-cover-answer_3_" style="opacity:0;fill:#FFFFFF;" width="32" height="32"/>
	<path style="fill:#FFFFFF;" d="M16.016,1.05H2.858c-1.18,0-1.808,0.628-1.808,1.808v12.541V16v0.602
		C1.549,24.504,8.005,30.95,15.984,30.95h13.157c1.18,0,1.808-0.628,1.808-1.807V16.602V16v-0.602
		C30.451,7.496,23.996,1.05,16.016,1.05z M26.987,21.152c-0.85,1.827-1.701,3.654-2.552,5.482c-0.138,0.297-0.505,0.454-0.811,0.343
		C14.82,23.787,8.254,17.219,5.063,8.414c-0.111-0.307,0.046-0.672,0.342-0.81c1.827-0.851,3.655-1.702,5.482-2.553
		c0.299-0.139,0.61-0.043,0.701,0.206c0.632,1.744,1.427,3.382,2.369,4.898c0.135,0.219,0.029,0.553-0.239,0.75
		c-0.434,0.316-0.868,0.633-1.302,0.949c-0.27,0.195-0.367,0.546-0.211,0.776c1.923,2.851,4.351,5.279,7.203,7.203
		c0.231,0.156,0.582,0.059,0.776-0.21c0.316-0.434,0.633-0.867,0.95-1.303c0.196-0.269,0.531-0.373,0.749-0.24
		c1.516,0.943,3.154,1.738,4.898,2.37C27.031,20.541,27.125,20.855,26.987,21.152z"/>
</g>
</svg>
