<?xml version="1.0" encoding="iso-8859-1"?>
<!-- Generator: Adobe Illustrator 17.0.1, SVG Export Plug-In . SVG Version: 6.00 Build 0)  -->
<!DOCTYPE svg PUBLIC "-//W3C//DTD SVG 1.1//EN" "http://www.w3.org/Graphics/SVG/1.1/DTD/svg11.dtd">
<svg version="1.1" id="Layer_1" xmlns="http://www.w3.org/2000/svg" xmlns:xlink="http://www.w3.org/1999/xlink" x="0px" y="0px"
	 width="64px" height="64px" viewBox="0 0 64 64" style="enable-background:new 0 0 64 64;" xml:space="preserve">
<g id="icon-m-accessory-speaker">
	<rect id="icon-m-accessory-speaker_1_" style="opacity:0;fill:#FFFFFF;" width="64" height="64"/>
	<path style="fill:#FFFFFF;" d="M43.909,56H20.091C17.284,56,15,53.716,15,50.909V13.091C15,10.284,17.284,8,20.091,8h23.818
		C46.716,8,49,10.284,49,13.091v37.818C49,53.716,46.716,56,43.909,56z M20.091,10C18.387,10,17,11.387,17,13.091v37.818
		C17,52.613,18.387,54,20.091,54h23.818C45.613,54,47,52.613,47,50.909V13.091C47,11.387,45.613,10,43.909,10H20.091z"/>
	<g style="opacity:0.5;">
		<path style="fill:#FFFFFF;" d="M32,26.289c-3.871,0-7.02-3.149-7.02-7.02s3.149-7.02,7.02-7.02c3.87,0,7.02,3.149,7.02,7.02
			S35.87,26.289,32,26.289z M32,14.25c-2.768,0-5.02,2.252-5.02,5.02s2.252,5.02,5.02,5.02s5.02-2.252,5.02-5.02
			S34.768,14.25,32,14.25z"/>
		<path style="fill:#FFFFFF;" d="M32.017,51.289c-7.168,0-13-5.832-13-13c0-7.168,5.832-13,13-13c7.168,0,13,5.832,13,13
			C45.017,45.457,39.185,51.289,32.017,51.289z M32.017,27.289c-6.065,0-11,4.935-11,11s4.935,11,11,11s11-4.935,11-11
			S38.082,27.289,32.017,27.289z"/>
	</g>
	<path style="fill:#FFFFFF;" d="M32.017,44.289c-3.309,0-6-2.691-6-6s2.691-6,6-6s6,2.691,6,6S35.325,44.289,32.017,44.289z
		 M32.017,34.289c-2.206,0-4,1.794-4,4s1.794,4,4,4c2.206,0,4-1.794,4-4S34.223,34.289,32.017,34.289z"/>
</g>
</svg>
