<?xml version="1.0" encoding="iso-8859-1"?>
<!-- Generator: Adobe Illustrator 17.0.1, SVG Export Plug-In . SVG Version: 6.00 Build 0)  -->
<!DOCTYPE svg PUBLIC "-//W3C//DTD SVG 1.1//EN" "http://www.w3.org/Graphics/SVG/1.1/DTD/svg11.dtd">
<svg version="1.1" id="Layer_1" xmlns="http://www.w3.org/2000/svg" xmlns:xlink="http://www.w3.org/1999/xlink" x="0px" y="0px"
	 width="64px" height="64px" viewBox="0 0 64 64" style="enable-background:new 0 0 64 64;" xml:space="preserve">
<g id="icon-m-mobile-network_3_">
	<rect id="icon-m-mobile-network_10_" style="opacity:0;fill:#FFFFFF;" width="64" height="64"/>
	<path style="fill:#FFFFFF;" d="M40.839,58.031H17.161c-2.863,0-5.192-2.329-5.192-5.192V17.161c0-2.863,2.329-5.192,5.192-5.192
		h17.564v2.062H17.161c-1.726,0-3.13,1.404-3.13,3.13v35.678c0,1.727,1.404,3.13,3.13,3.13h23.678c1.727,0,3.13-1.403,3.13-3.13
		V29.571h2.063v23.268C46.031,55.702,43.702,58.031,40.839,58.031z"/>
	<g style="opacity:0.6;">
		<path style="fill:#FFFFFF;" d="M38.918,51.041H19.082c-1.722,0-3.123-1.401-3.123-3.123V22.082c0-1.722,1.401-3.123,3.123-3.123
			h8.995v2.082h-8.995c-0.574,0-1.041,0.467-1.041,1.041v25.836c0,0.574,0.467,1.041,1.041,1.041h19.836
			c0.574,0,1.041-0.467,1.041-1.041V32.912h2.082v15.006C42.041,49.64,40.64,51.041,38.918,51.041z"/>
	</g>
	<g>
		<g style="opacity:0.6;">
			<path style="fill:#FFFFFF;" d="M53.318,16.04h-9.143c-0.895,0-1.616-0.369-1.981-1.011s-0.312-1.452,0.146-2.219l4.524-7.602
				c0.453-0.761,1.139-1.197,1.883-1.197c0.743,0,1.429,0.437,1.882,1.198l4.525,7.602c0.457,0.768,0.51,1.577,0.145,2.219
				C54.936,15.671,54.213,16.04,53.318,16.04z M43.971,14.02c0.047,0.011,0.114,0.02,0.205,0.02h9.143
				c0.091,0,0.159-0.009,0.206-0.02c-0.015-0.046-0.041-0.109-0.088-0.187L48.911,6.23c-0.078-0.131-0.143-0.189-0.175-0.212
				c-0.01,0.023-0.074,0.081-0.152,0.212l-4.525,7.603C44.012,13.911,43.985,13.974,43.971,14.02z"/>
		</g>
		<path style="opacity:0.6;fill:#FFFFFF;" d="M48.747,28c-0.553,0-1-0.448-1-1V14.953c0-0.552,0.447-1,1-1s1,0.448,1,1V27
			C49.747,27.552,49.3,28,48.747,28z"/>
	</g>
	<g>
		<path style="fill:#FFFFFF;" d="M37.748,30.076c-0.744,0-1.43-0.436-1.883-1.197l-4.526-7.603c-0.457-0.769-0.51-1.578-0.145-2.22
			c0.365-0.642,1.087-1.01,1.981-1.01h9.143c0.895,0,1.616,0.368,1.981,1.011c0.365,0.642,0.313,1.451-0.145,2.219l-4.525,7.603
			C39.177,29.64,38.491,30.076,37.748,30.076z M32.97,20.066c0.015,0.046,0.042,0.109,0.087,0.188l4.526,7.602
			c0.069,0.117,0.129,0.176,0.164,0.204c0.034-0.028,0.094-0.086,0.163-0.204l4.525-7.603c0.047-0.078,0.073-0.141,0.088-0.187
			c-0.047-0.011-0.115-0.02-0.206-0.02h-9.143C33.085,20.046,33.017,20.056,32.97,20.066z"/>
		<path style="fill:#FFFFFF;" d="M37.747,20.047c-0.553,0-1-0.448-1-1V7c0-0.552,0.447-1,1-1s1,0.448,1,1v12.047
			C38.747,19.6,38.3,20.047,37.747,20.047z"/>
	</g>
</g>
</svg>
