<?xml version="1.0" encoding="iso-8859-1"?>
<!-- Generator: Adobe Illustrator 17.0.1, SVG Export Plug-In . SVG Version: 6.00 Build 0)  -->
<!DOCTYPE svg PUBLIC "-//W3C//DTD SVG 1.1//EN" "http://www.w3.org/Graphics/SVG/1.1/DTD/svg11.dtd">
<svg version="1.1" id="Layer_1" xmlns="http://www.w3.org/2000/svg" xmlns:xlink="http://www.w3.org/1999/xlink" x="0px" y="0px"
	 width="96px" height="96px" viewBox="0 0 96 96" style="enable-background:new 0 0 96 96;" xml:space="preserve">
<g id="icon-l-wlan">
	<rect id="icon-l-wlan_1_" style="opacity:0;fill:#FFFFFF;" width="96" height="96"/>
	<path style="fill:#FFFFFF;" d="M48.202,81.107L48.202,81.107c-2.173,0-4.211-0.841-5.739-2.367L7.555,43.832
		c-3.015-3.016-3.152-7.891-0.313-11.1l0.087-0.087c11.32-10,25.835-15.508,40.871-15.508c15.032,0,29.544,5.501,40.862,15.491
		l0.085,0.085c2.847,3.2,2.723,8.076-0.283,11.1l-34.925,34.93C52.411,80.268,50.374,81.107,48.202,81.107z M8.7,34.102
		c-2.1,2.419-1.986,6.061,0.269,8.316l34.908,34.908c1.149,1.148,2.686,1.781,4.325,1.781c1.639,0,3.174-0.632,4.322-1.779
		L87.447,42.4c2.246-2.26,2.35-5.902,0.243-8.315c-10.945-9.641-24.967-14.949-39.491-14.949
		C33.673,19.137,19.647,24.451,8.7,34.102z"/>
	<g>
		<path style="opacity:0.6;fill:#FFFFFF;" d="M80.769,50.061c-8.46-9.278-20.468-14.6-32.944-14.6
			c-12.476,0-24.479,5.321-32.934,14.6l-1.479-1.347c8.832-9.693,21.375-15.252,34.412-15.252c13.038,0,25.584,5.559,34.423,15.252
			L80.769,50.061z"/>
		<path style="opacity:0.6;fill:#FFFFFF;" d="M70.801,60.095c-6.134-6.139-14.292-9.52-22.973-9.52
			c-8.678,0-16.837,3.38-22.975,9.517l-1.414-1.414c6.515-6.515,15.176-10.103,24.389-10.103c9.215,0,17.876,3.589,24.387,10.105
			L70.801,60.095z"/>
		<path style="opacity:0.6;fill:#FFFFFF;" d="M35.36,70.596l-1.414-1.414c3.71-3.709,8.64-5.752,13.882-5.752
			c5.244,0,10.175,2.043,13.883,5.752l-1.414,1.414c-3.33-3.331-7.759-5.166-12.469-5.166C43.121,65.43,38.693,67.265,35.36,70.596z
			"/>
	</g>
</g>
</svg>
