<?xml version="1.0" encoding="iso-8859-1"?>
<!-- Generator: Adobe Illustrator 17.0.1, SVG Export Plug-In . SVG Version: 6.00 Build 0)  -->
<!DOCTYPE svg PUBLIC "-//W3C//DTD SVG 1.1//EN" "http://www.w3.org/Graphics/SVG/1.1/DTD/svg11.dtd">
<svg version="1.1" id="Layer_1" xmlns="http://www.w3.org/2000/svg" xmlns:xlink="http://www.w3.org/1999/xlink" x="0px" y="0px"
	 width="32px" height="32px" viewBox="0 0 32 32" style="enable-background:new 0 0 32 32;" xml:space="preserve">
<g id="icon-lock-social">
	<rect id="icon-lock-social_1_" style="opacity:0;fill:#FFFFFF;" width="32" height="32"/>
	<g>
		<path style="fill:#48C1F5;" d="M15.999,0C7.162,0,0,7.163,0,16c0,8.838,7.162,16,15.999,16C24.837,32,32,24.838,32,16
			C32,7.163,24.837,0,15.999,0z"/>
		<g>
			<path style="fill:#E6F5FF;" d="M28.209,19.551c-0.214-0.09-0.46-0.04-0.624,0.124l-1.488,1.502l-2.526-2.522v-1.902
				c0-0.317-0.256-0.572-0.573-0.572l-6.994,0.003l-2.153-2.153c-0.215-0.215-0.594-0.215-0.809,0l-2.149,2.153h-2.3
				c-0.152,0-0.297,0.06-0.405,0.167l-2.222,2.222c-0.107,0.107-0.168,0.253-0.168,0.404v2.04c0,0.152,0.06,0.297,0.168,0.405
				l4.765,4.765c0.107,0.107,0.252,0.168,0.404,0.168l4.591-0.002l2.621,2.607l-1.823,1.823c-0.168,0.169-0.215,0.426-0.116,0.643
				c0.023,0.051,0.054,0.098,0.09,0.139c2.518-0.084,4.882-0.768,6.955-1.918c0.018-0.056,0.03-0.116,0.03-0.177l-0.005-3.195
				l4.918-4.917c0.107-0.108,0.168-0.253,0.168-0.405V20.08C28.562,19.849,28.423,19.64,28.209,19.551z"/>
			<path style="fill:#E6F5FF;" d="M8.315,3.577c0.041,0.01,0.082,0.022,0.126,0.022l2.442-0.018l-1.5,1.5
				C9.219,5.245,9.17,5.491,9.258,5.705c0.088,0.214,0.297,0.353,0.529,0.353h0.87c0.152,0,0.297-0.059,0.404-0.168l2.166-2.165
				c0.107-0.107,0.168-0.252,0.168-0.404V1.644c0-0.317-0.256-0.572-0.572-0.572h-0.326C8.285,2.04,4.733,4.728,2.616,8.358
				C2.652,8.422,2.698,8.481,2.758,8.53C2.863,8.615,2.99,8.655,3.116,8.655c0.146,0,0.293-0.056,0.404-0.168l4.655-4.654
				C8.249,3.76,8.289,3.671,8.315,3.577z"/>
			<path style="fill:#E6F5FF;" d="M19.648,1.118c-0.14,0.056-0.257,0.162-0.316,0.307c-0.089,0.213-0.04,0.459,0.124,0.623
				l1.554,1.53h-4.78c-0.152,0-0.297,0.061-0.405,0.168L13.88,5.69c-0.224,0.224-0.224,0.586,0,0.81l1.173,1.172
				c0.164,0.165,0.41,0.214,0.623,0.124c0.214-0.088,0.354-0.297,0.354-0.529L16.02,6.116L17.957,6.1L16.02,8.615h-2.405
				c-0.152,0-0.297,0.061-0.405,0.168L10.9,11.096H8.922c-0.316,0-0.572,0.257-0.572,0.572V13.1c0,0.316,0.256,0.572,0.572,0.572
				h1.735c0.152,0,0.297-0.059,0.404-0.167l2.375-2.389l2.389,2.389c0.108,0.108,0.253,0.167,0.405,0.167h1.782
				c0.316,0,0.572-0.256,0.572-0.572l-0.003-2.008l2.422-2.483l2.631,2.653l-3.623,0.034c-0.235,0.003-0.445,0.149-0.53,0.369
				c-0.083,0.22-0.024,0.469,0.151,0.627l1.281,1.162c0.106,0.095,0.242,0.149,0.385,0.149l2.326-0.011v2.515
				c0,0.152,0.061,0.298,0.168,0.405l1.754,1.755c0.108,0.107,0.253,0.167,0.405,0.167c0.152,0,0.298-0.06,0.405-0.167l1.243-1.244
				c0.164-0.164,0.213-0.409,0.124-0.623c-0.088-0.214-0.297-0.354-0.529-0.354l-1.216,0.017l2.515-2.529l1.982,1.982
				c0.169,0.169,0.426,0.215,0.642,0.117c0.137-0.062,0.234-0.176,0.288-0.308C31.05,8.413,26.156,2.707,19.648,1.118z"/>
			<path style="fill:#E6F5FF;" d="M13.097,6.99c-0.215-0.096-0.468-0.048-0.635,0.119l-0.565,0.565
				c-0.165,0.165-0.213,0.413-0.122,0.628c0.089,0.211,0.297,0.349,0.526,0.349h0.008l0.542-0.008
				c0.303-0.005,0.551-0.245,0.563-0.548l0.024-0.557C13.448,7.302,13.313,7.084,13.097,6.99z"/>
		</g>
	</g>
</g>
</svg>
