<?xml version="1.0" encoding="iso-8859-1"?>
<!-- Generator: Adobe Illustrator 17.0.1, SVG Export Plug-In . SVG Version: 6.00 Build 0)  -->
<!DOCTYPE svg PUBLIC "-//W3C//DTD SVG 1.1//EN" "http://www.w3.org/Graphics/SVG/1.1/DTD/svg11.dtd">
<svg version="1.1" id="Layer_1" xmlns="http://www.w3.org/2000/svg" xmlns:xlink="http://www.w3.org/1999/xlink" x="0px" y="0px"
	 width="96px" height="96px" viewBox="0 0 96 96" style="enable-background:new 0 0 96 96;" xml:space="preserve">
<g id="icon-l-computer">
	<rect id="icon-l-computer_1_" style="opacity:0;fill:#FFFFFF;" width="96" height="96"/>
	<path style="fill:#FFFFFF;" d="M86.377,68.223h-2V23.747c0-2.757-2.243-5-5-5H16.623c-2.757,0-5,2.243-5,5v44.476h-2V23.747
		c0-3.86,3.14-7,7-7h62.754c3.859,0,7,3.14,7,7V68.223z"/>
	<path style="fill:#FFFFFF;" d="M89.356,78.747H6.644C4.083,78.747,2,76.663,2,74.103v-2.236c0-2.561,2.083-4.644,4.644-4.644
		h82.713c2.561,0,4.644,2.083,4.644,4.644v2.236C94,76.663,91.917,78.747,89.356,78.747z M6.644,69.223
		C5.186,69.223,4,70.408,4,71.866v2.236c0,1.458,1.186,2.645,2.644,2.645h82.713c1.458,0,2.644-1.187,2.644-2.645v-2.236
		c0-1.458-1.186-2.644-2.644-2.644H6.644z"/>
	<g style="opacity:0.6;">
		<path style="fill:#FFFFFF;" d="M74.534,61.021H21.466c-1.759,0-3.189-1.431-3.189-3.189V27.923c0-1.758,1.431-3.189,3.189-3.189
			h53.068c1.759,0,3.189,1.431,3.189,3.189v29.908C77.724,59.59,76.293,61.021,74.534,61.021z M21.466,26.734
			c-0.656,0-1.189,0.533-1.189,1.189v29.908c0,0.656,0.534,1.189,1.189,1.189h53.068c0.656,0,1.189-0.533,1.189-1.189V27.923
			c0-0.656-0.533-1.189-1.189-1.189H21.466z"/>
	</g>
</g>
</svg>
