<?xml version="1.0" encoding="iso-8859-1"?>
<!-- Generator: Adobe Illustrator 17.0.1, SVG Export Plug-In . SVG Version: 6.00 Build 0)  -->
<!DOCTYPE svg PUBLIC "-//W3C//DTD SVG 1.1//EN" "http://www.w3.org/Graphics/SVG/1.1/DTD/svg11.dtd">
<svg version="1.1" id="Layer_1" xmlns="http://www.w3.org/2000/svg" xmlns:xlink="http://www.w3.org/1999/xlink" x="0px" y="0px"
	 width="96px" height="96px" viewBox="0 0 96 96" style="enable-background:new 0 0 96 96;" xml:space="preserve">
<g id="icon-l-answer">
	<rect id="icon-l-answer_1_" style="opacity:0;fill:#FFFFFF;" width="96" height="96"/>
	<g>
		<path style="fill:#FFFFFF;" d="M56.159,67.983l-0.888-0.514c-8.955-4.864-15.507-10.817-21.246-19.304
			c-0.82-1.186-1.627-2.451-2.393-3.752c-0.316-0.521-0.635-1.056-0.953-1.607l-0.514-0.893l0.908-0.487
			c5.688-3.054,7.389-10.096,6.102-15.171c-1.085-4.282-2.722-11.955-2.739-12.032c-0.115-0.54,0.229-1.071,0.77-1.187
			c0.539-0.12,1.071,0.229,1.187,0.77c0.016,0.077,1.646,7.712,2.721,11.958c1.641,6.471-1.008,13.533-6.201,16.896
			c0.146,0.244,0.291,0.486,0.438,0.728c0.748,1.27,1.528,2.494,2.327,3.648c5.379,7.954,11.489,13.604,19.731,18.223
			c3.479-5.128,10.761-7.745,17.035-6.169c4.318,1.085,11.818,2.977,11.818,2.977l-0.488,1.939c-0.001,0-7.5-1.892-11.818-2.977
			c-5.433-1.365-11.976,0.98-14.891,5.342l-0.769,1.426l-0.032-0.016L56.159,67.983z"/>
		<path style="opacity:0.6;fill:#FFFFFF;" d="M69.857,84.942c-1.962,0-3.938-0.295-5.876-0.878c-1.095-0.33-2.265-0.719-3.577-1.188
			l-0.231-0.081C39.095,75.184,22.212,58.273,15.01,37.56l-0.037-0.111c-0.474-1.369-0.872-2.628-1.217-3.849
			c-0.556-1.967-0.822-3.958-0.792-5.918c0.121-7.948,5.239-14.664,11.177-14.666l11.272,0c0.552,0,1,0.448,1,1s-0.448,1-1,1
			l-11.251,0c-4.27,0.001-9.084,5.216-9.198,12.696c-0.027,1.766,0.213,3.564,0.716,5.344c0.334,1.183,0.721,2.406,1.182,3.738
			l-0.908,0.437l0.944-0.329c7.006,20.15,23.437,36.602,43.952,44.011l0.228,0.08c1.279,0.457,2.418,0.835,3.479,1.155
			c1.776,0.534,3.595,0.779,5.376,0.793c7.5-0.029,13.104-4.839,13.104-9.118c0-4.617-0.021-10.783-0.021-10.783l2-0.008
			c0,0,0.021,6.17,0.021,10.772c0,5.909-7.055,11.104-15.097,11.137C69.913,84.942,69.886,84.942,69.857,84.942z"/>
	</g>
</g>
</svg>
