<?xml version="1.0" encoding="iso-8859-1"?>
<!-- Generator: Adobe Illustrator 17.0.1, SVG Export Plug-In . SVG Version: 6.00 Build 0)  -->
<!DOCTYPE svg PUBLIC "-//W3C//DTD SVG 1.1//EN" "http://www.w3.org/Graphics/SVG/1.1/DTD/svg11.dtd">
<svg version="1.1" id="Layer_1" xmlns="http://www.w3.org/2000/svg" xmlns:xlink="http://www.w3.org/1999/xlink" x="0px" y="0px"
	 width="96px" height="96px" viewBox="0 0 96 96" style="enable-background:new 0 0 96 96;" xml:space="preserve">
<g id="icon-l-battery_2_">
	<rect id="icon-l-battery_3_" style="opacity:0;fill:#FFFFFF;" width="96" height="96"/>
	<path style="fill:#FFFFFF;" d="M40.791,73.035C40.791,73.035,40.791,73.035,40.791,73.035c-0.421,0-0.806-0.191-1.057-0.526
		c-0.416-0.555-0.427-1.396-0.036-2.729l4.521-15.59c0.346-0.671,0.406-1.284,0.163-1.684c-0.244-0.399-0.817-0.629-1.573-0.629
		H31.282c-2.038,0-2.735-0.783-2.961-1.441c-0.224-0.65-0.161-1.683,1.398-2.921L53.321,24.23c0.818-0.944,1.503-1.389,2.166-1.389
		c0.421,0,0.807,0.192,1.057,0.526c0.416,0.556,0.426,1.397,0.033,2.73l-4.518,15.59c-0.346,0.67-0.405,1.283-0.162,1.682
		c0.243,0.399,0.816,0.628,1.573,0.628h11.525c2.036,0,2.733,0.784,2.96,1.441c0.225,0.651,0.162,1.686-1.397,2.926L42.954,71.646
		C42.137,72.59,41.454,73.035,40.791,73.035z M46.042,55.017l-4.351,15.07l23.588-23.26c0.397-0.311,0.604-0.555,0.7-0.705
		c-0.168-0.058-0.479-0.123-0.983-0.123H53.471c-1.471,0-2.667-0.579-3.281-1.588c-0.601-0.984-0.582-2.272,0.047-3.547
		l4.349-15.073L30.997,49.055c-0.395,0.309-0.601,0.551-0.698,0.701c0.168,0.058,0.48,0.122,0.983,0.122h11.527
		c1.471,0,2.667,0.579,3.281,1.589C46.69,52.453,46.671,53.741,46.042,55.017z"/>
	<g style="opacity:0.6;">
		<path style="fill:#FFFFFF;" d="M78,83H18c-2.757,0-5-2.243-5-5V18c0-2.757,2.243-5,5-5h60c2.757,0,5,2.243,5,5v60
			C83,80.757,80.757,83,78,83z M18,15c-1.654,0-3,1.346-3,3v60c0,1.654,1.346,3,3,3h60c1.654,0,3-1.346,3-3V18c0-1.654-1.346-3-3-3
			H18z"/>
	</g>
</g>
</svg>
