<?xml version="1.0" encoding="iso-8859-1"?>
<!-- Generator: Adobe Illustrator 17.0.1, SVG Export Plug-In . SVG Version: 6.00 Build 0)  -->
<!DOCTYPE svg PUBLIC "-//W3C//DTD SVG 1.1//EN" "http://www.w3.org/Graphics/SVG/1.1/DTD/svg11.dtd">
<svg version="1.1" id="Layer_1" xmlns="http://www.w3.org/2000/svg" xmlns:xlink="http://www.w3.org/1999/xlink" x="0px" y="0px"
	 width="64px" height="64px" viewBox="0 0 64 64" style="enable-background:new 0 0 64 64;" xml:space="preserve">
<g id="icon-m-ambience_2_">
	<rect id="icon-m-ambience_5_" style="opacity:0;fill:#FFFFFF;" width="64" height="64"/>
	<path style="opacity:0.2;fill:#FFFFFF;" d="M32.004,58.038c-6.672,0-13.344-2.539-18.424-7.619l1.486-1.486
		c9.339,9.338,24.534,9.34,33.872,0.002c9.337-9.338,9.336-24.533-0.003-33.871l1.486-1.486
		c10.158,10.158,10.16,26.686,0.003,36.844C45.347,55.499,38.675,58.038,32.004,58.038z"/>
	<path style="opacity:0.6;fill:#FFFFFF;" d="M17.116,46.883c-3.977-3.976-6.166-9.263-6.166-14.885
		c0-5.623,2.19-10.909,6.166-14.885c8.206-8.208,21.563-8.208,29.771,0L45.4,18.599c-7.39-7.388-19.41-7.387-26.798,0
		c-3.579,3.579-5.55,8.337-5.55,13.399c0,5.061,1.971,9.82,5.55,13.399L17.116,46.883z"/>
	<path style="opacity:0.2;fill:#FFFFFF;" d="M13.585,50.414C3.429,40.259,3.428,23.734,13.583,13.579
		c4.919-4.919,11.459-7.628,18.416-7.628c0,0,0.001,0,0.001,0c6.958,0,13.499,2.71,18.418,7.631l-1.486,1.486
		C44.408,10.544,38.396,8.053,32,8.053c-6.396,0-12.408,2.49-16.931,7.012c-9.335,9.335-9.334,24.526,0.002,33.862L13.585,50.414z"
		/>
	<path style="opacity:0.6;fill:#FFFFFF;" d="M18.816,41.152c-5.048-7.271-3.24-17.292,4.03-22.339
		c7.271-5.048,17.292-3.239,22.339,4.03l-1.727,1.199c-4.387-6.318-13.097-7.889-19.414-3.502
		c-6.318,4.387-7.889,13.096-3.502,19.414L18.816,41.152z"/>
	<path style="fill:#FFFFFF;" d="M22.202,37.107c-1.365-2.618-1.629-5.61-0.743-8.427c0.886-2.816,2.815-5.118,5.432-6.483
		c5.404-2.816,12.09-0.712,14.909,4.69l-1.863,0.973c-2.283-4.376-7.699-6.081-12.074-3.798c-2.119,1.105-3.681,2.969-4.398,5.25
		s-0.503,4.704,0.602,6.823L22.202,37.107z"/>
	<path style="fill:#FFFFFF;" d="M18.908,46.213l-2.097-0.144c0.008-0.113,0.919-11.403,14.923-15.088
		c12.559-3.305,13.354-13.097,13.361-13.196l2.098,0.14c-0.008,0.114-0.919,11.403-14.923,15.089
		C19.774,36.302,18.938,45.81,18.908,46.213z"/>
	<path style="opacity:0.6;fill:#FFFFFF;" d="M32.001,53.049c-5.623,0-10.909-2.189-14.885-6.166l1.486-1.486
		c3.579,3.579,8.338,5.551,13.399,5.551c5.061-0.001,9.82-1.972,13.399-5.551c7.388-7.389,7.388-19.41,0-26.798l1.486-1.486
		c8.208,8.208,8.208,21.563,0,29.771C42.91,50.859,37.624,53.049,32.001,53.049z"/>
</g>
</svg>
