<?xml version="1.0" encoding="iso-8859-1"?>
<!-- Generator: Adobe Illustrator 17.0.1, SVG Export Plug-In . SVG Version: 6.00 Build 0)  -->
<!DOCTYPE svg PUBLIC "-//W3C//DTD SVG 1.1//EN" "http://www.w3.org/Graphics/SVG/1.1/DTD/svg11.dtd">
<svg version="1.1" id="Layer_1" xmlns="http://www.w3.org/2000/svg" xmlns:xlink="http://www.w3.org/1999/xlink" x="0px" y="0px"
	 width="96px" height="96px" viewBox="0 0 96 96" style="enable-background:new 0 0 96 96;" xml:space="preserve">
<g id="icon-l-date">
	<rect id="icon-l-date_1_" style="opacity:0;fill:#FFFFFF;" width="96" height="96"/>
	<g style="opacity:0.6;">
		<path style="fill:#FFFFFF;" d="M78.371,83.114H17.627c-2.552,0-4.628-2.076-4.628-4.628V17.743c0-2.552,2.076-4.628,4.628-4.628
			h60.744c2.552,0,4.628,2.076,4.628,4.628v60.744C82.999,81.038,80.923,83.114,78.371,83.114z M17.627,15.114
			c-1.449,0-2.628,1.179-2.628,2.628v60.744c0,1.449,1.179,2.628,2.628,2.628h60.744c1.449,0,2.628-1.179,2.628-2.628V17.743
			c0-1.449-1.179-2.628-2.628-2.628H17.627z"/>
	</g>
	<g>
		<path style="fill:#FFFFFF;" d="M47.771,20.886c-0.552,0-1-0.448-1-1v-12c0-0.552,0.448-1,1-1s1,0.448,1,1v12
			C48.771,20.438,48.323,20.886,47.771,20.886z"/>
		<path style="fill:#FFFFFF;" d="M28.04,20.886c-0.552,0-1-0.448-1-1v-12c0-0.552,0.448-1,1-1s1,0.448,1,1v12
			C29.04,20.438,28.592,20.886,28.04,20.886z"/>
		<path style="fill:#FFFFFF;" d="M67.5,20.886c-0.553,0-1-0.448-1-1v-12c0-0.552,0.447-1,1-1s1,0.448,1,1v12
			C68.5,20.438,68.053,20.886,67.5,20.886z"/>
	</g>
	<g>
		<path style="fill:#FFFFFF;" d="M68.999,45.709H27c-0.552,0-1-0.448-1-1s0.448-1,1-1h42c0.553,0,1,0.448,1,1
			S69.552,45.709,68.999,45.709z"/>
		<path style="fill:#FFFFFF;" d="M68.999,58.21H27c-0.552,0-1-0.447-1-1s0.448-1,1-1h42c0.553,0,1,0.447,1,1
			S69.552,58.21,68.999,58.21z"/>
		<rect x="40" y="32.079" style="fill:#FFFFFF;" width="2" height="38"/>
		<rect x="54" y="32.079" style="fill:#FFFFFF;" width="2" height="38"/>
		<path style="fill:#FFFFFF;" d="M66.999,70.713H29c-1.654,0-3-1.346-3-3V34.208c0-1.654,1.346-3,3-3h38c1.654,0,3,1.346,3,3v33.505
			C69.999,69.367,68.653,70.713,66.999,70.713z M29,33.208c-0.551,0-1,0.449-1,1v33.505c0,0.552,0.449,1,1,1h38c0.552,0,1-0.448,1-1
			V34.208c0-0.551-0.448-1-1-1H29z"/>
	</g>
</g>
</svg>
