<?xml version="1.0" encoding="iso-8859-1"?>
<!-- Generator: Adobe Illustrator 17.0.1, SVG Export Plug-In . SVG Version: 6.00 Build 0)  -->
<!DOCTYPE svg PUBLIC "-//W3C//DTD SVG 1.1//EN" "http://www.w3.org/Graphics/SVG/1.1/DTD/svg11.dtd">
<svg version="1.1" id="Layer_1" xmlns="http://www.w3.org/2000/svg" xmlns:xlink="http://www.w3.org/1999/xlink" x="0px" y="0px"
	 width="64px" height="64px" viewBox="0 0 64 64" style="enable-background:new 0 0 64 64;" xml:space="preserve">
<g id="icon-m-dialpad">
	<rect id="icon-m-dialpad_1_" style="opacity:0;fill:#FFFFFF;" width="64" height="64"/>
	<path style="fill:#FFFFFF;" d="M34.834,55h-5.459c-3.309,0-6-2.691-6-6v-1c0-2.206-1.794-4-4-4H14.5c-3.309,0-6-2.691-6-6V15
		c0-3.309,2.691-6,6-6h35c3.309,0,6,2.691,6,6v23c0,3.309-2.691,6-6,6h-4.666c-2.206,0-4,1.794-4,4v1
		C40.834,52.309,38.143,55,34.834,55z M14.5,11c-2.206,0-4,1.794-4,4v23c0,2.206,1.794,4,4,4h4.875c3.309,0,6,2.691,6,6v1
		c0,2.206,1.794,4,4,4h5.459c2.206,0,4-1.794,4-4v-1c0-3.309,2.691-6,6-6H49.5c2.206,0,4-1.794,4-4V15c0-2.206-1.794-4-4-4H14.5z"/>
	<g style="opacity:0.6;">
		<path style="fill:#FFFFFF;" d="M24.666,28.5C24.666,28.5,24.666,28.5,24.666,28.5c-0.553,0-1-0.448-1-1l0.001-3.25
			c0.001-2.343,1.909-4.25,4.251-4.25h3.25c0.552,0,1,0.448,1,1s-0.448,1-1,1h-3.25c-1.241,0-2.251,1.01-2.251,2.25l-0.001,3.25
			C25.666,28.052,25.218,28.5,24.666,28.5z"/>
		<path style="fill:#FFFFFF;" d="M19.669,22H10c-0.552,0-1-0.448-1-1s0.448-1,1-1h9.669c2.206,0,4-1.794,4-4v-6c0-0.552,0.448-1,1-1
			s1,0.448,1,1v6C25.669,19.309,22.978,22,19.669,22z"/>
		<path style="fill:#FFFFFF;" d="M39.334,28.5c-0.553,0-1-0.448-1-1v-3.25c0-2.383,2.636-4.25,6-4.25H54c0.553,0,1,0.448,1,1
			s-0.447,1-1,1h-9.666c-2.357,0-4,1.186-4,2.25v3.25C40.334,28.052,39.887,28.5,39.334,28.5z"/>
		<path style="fill:#FFFFFF;" d="M35.252,22h-4.083c-0.552,0-1-0.448-1-1s0.448-1,1-1h4.083c1.67,0,3.082-1.832,3.083-4l0.001-6
			c0-0.552,0.448-1,1-1l0,0c0.553,0,1,0.448,1,1l-0.001,6C40.334,19.309,38.054,22,35.252,22z"/>
		<path style="fill:#FFFFFF;" d="M39.334,39.813c-0.553,0-1-0.447-1-1v-3.25c0-2.383,2.636-4.25,6-4.25H54c0.553,0,1,0.448,1,1
			s-0.447,1-1,1h-9.666c-2.357,0-4,1.186-4,2.25v3.25C40.334,39.365,39.887,39.813,39.334,39.813z"/>
		<path style="fill:#FFFFFF;" d="M35.252,33.313h-4.083c-0.552,0-1-0.448-1-1s0.448-1,1-1h4.083c1.699,0,3.082-1.15,3.083-2.563
			l0.001-3.562c0-0.552,0.447-1,1-1s1,0.448,1,1l-0.001,3.563C40.334,31.266,38.054,33.313,35.252,33.313z"/>
		<path style="fill:#FFFFFF;" d="M24.666,39.813C24.666,39.813,24.666,39.813,24.666,39.813c-0.553,0-1-0.448-1-1l0.001-3.251
			c0.001-2.343,1.909-4.249,4.251-4.249h3.25c0.552,0,1,0.448,1,1s-0.448,1-1,1h-3.25c-1.241,0-2.251,1.01-2.251,2.251l-0.001,3.249
			C25.666,39.365,25.218,39.813,24.666,39.813z"/>
		<path style="fill:#FFFFFF;" d="M31.166,44h-3.249c-2.343,0-4.249-1.906-4.249-4.25V36.5c0-0.553,0.448-1,1-1s1,0.447,1,1v3.25
			c0,1.24,1.009,2.25,2.249,2.25h3.249c0.552,0,1,0.447,1,1S31.718,44,31.166,44z"/>
		<path style="fill:#FFFFFF;" d="M35.25,44h-4.084c-0.552,0-1-0.447-1-1s0.448-1,1-1h4.084c1.672,0,3.084-1.03,3.084-2.249v-3.25
			c0-0.553,0.447-1,1-1s1,0.447,1,1v3.25C40.334,42.094,38.054,44,35.25,44z"/>
		<path style="fill:#FFFFFF;" d="M19.669,33.313H10c-0.552,0-1-0.448-1-1s0.448-1,1-1h9.669c2.168,0,4-1.173,4-2.563v-3.563
			c0-0.552,0.448-1,1-1s1,0.448,1,1v3.563C25.669,31.266,22.978,33.313,19.669,33.313z"/>
	</g>
</g>
</svg>
