<?xml version="1.0" encoding="iso-8859-1"?>
<!-- Generator: Adobe Illustrator 17.0.1, SVG Export Plug-In . SVG Version: 6.00 Build 0)  -->
<!DOCTYPE svg PUBLIC "-//W3C//DTD SVG 1.1//EN" "http://www.w3.org/Graphics/SVG/1.1/DTD/svg11.dtd">
<svg version="1.1" id="Layer_1" xmlns="http://www.w3.org/2000/svg" xmlns:xlink="http://www.w3.org/1999/xlink" x="0px" y="0px"
	 width="96px" height="96px" viewBox="0 0 96 96" style="enable-background:new 0 0 96 96;" xml:space="preserve">
<g id="icon-l-check">
	<rect id="icon-l-check_1_" style="opacity:0;fill:#FFFFFF;" width="96" height="96"/>
	<g style="opacity:0.6;">
		<path style="fill:#FFFFFF;" d="M77.998,82.797h-60c-2.757,0-5-2.243-5-5v-60c0-2.757,2.243-5,5-5h60c2.757,0,5,2.243,5,5v60
			C82.998,80.554,80.755,82.797,77.998,82.797z M17.999,14.797c-1.654,0-3,1.346-3,3v60c0,1.654,1.346,3,3,3h60c1.654,0,3-1.346,3-3
			v-60c0-1.654-1.346-3-3-3H17.999z"/>
	</g>
	<path style="fill:#FFFFFF;" d="M44.163,66.16c-0.014,0-0.027-0.001-0.041-0.001c-0.971-0.015-1.887-0.555-2.511-1.482
		L29.042,46.001c-0.309-0.458-0.187-1.08,0.271-1.388c0.458-0.308,1.08-0.187,1.388,0.271L43.27,63.56
		c0.257,0.382,0.571,0.596,0.883,0.6c0.003,0.001,0.007,0.001,0.01,0.001c0.309,0,0.625-0.203,0.891-0.574l24.005-33.42
		c0.321-0.448,0.948-0.552,1.396-0.229c0.449,0.322,0.552,0.947,0.229,1.396l-24.006,33.42C46.034,65.649,45.12,66.16,44.163,66.16z
		"/>
</g>
</svg>
