<?xml version="1.0" encoding="iso-8859-1"?>
<!-- Generator: Adobe Illustrator 17.0.1, SVG Export Plug-In . SVG Version: 6.00 Build 0)  -->
<!DOCTYPE svg PUBLIC "-//W3C//DTD SVG 1.1//EN" "http://www.w3.org/Graphics/SVG/1.1/DTD/svg11.dtd">
<svg version="1.1" id="Layer_1" xmlns="http://www.w3.org/2000/svg" xmlns:xlink="http://www.w3.org/1999/xlink" x="0px" y="0px"
	 width="96px" height="96px" viewBox="0 0 96 96" style="enable-background:new 0 0 96 96;" xml:space="preserve">
<g id="icon-l-new">
	<rect id="icon-l-new_1_" style="opacity:0;fill:#FFFFFF;" width="96" height="96"/>
	<g>
		<path style="fill:#FFFFFF;" d="M4,48.991c-0.552,0-1-0.448-1-1s0.448-1,1-1l34-0.001c4.962,0,9-4.038,9.001-9l0.004-33.996
			c0-0.552,0.448-1,1-1l0,0c0.552,0,1,0.448,1,1l-0.004,33.996c-0.002,6.066-4.937,11-11.002,11L4,48.991z"/>
		<g style="opacity:0.6;">
			<path style="fill:#FFFFFF;" d="M47.999,92.994L47.999,92.994c-0.552,0-1-0.447-1-1L47,57.989c0-6.065,4.935-11.002,11-11.005
				l33.999-0.018c0.001,0,0.001,0,0.001,0c0.552,0,1,0.447,1,1s-0.447,1-0.999,1l-34,0.018C53.037,48.987,49,53.026,49,57.989
				l-0.001,34.005C48.999,92.547,48.551,92.994,47.999,92.994z"/>
		</g>
	</g>
</g>
</svg>
