<?xml version="1.0" encoding="iso-8859-1"?>
<!-- Generator: Adobe Illustrator 17.0.1, SVG Export Plug-In . SVG Version: 6.00 Build 0)  -->
<!DOCTYPE svg PUBLIC "-//W3C//DTD SVG 1.1//EN" "http://www.w3.org/Graphics/SVG/1.1/DTD/svg11.dtd">
<svg version="1.1" id="Layer_1" xmlns="http://www.w3.org/2000/svg" xmlns:xlink="http://www.w3.org/1999/xlink" x="0px" y="0px"
	 width="64px" height="64px" viewBox="0 0 64 64" style="enable-background:new 0 0 64 64;" xml:space="preserve">
<g id="icon-m-headset">
	<rect id="icon-m-headset_1_" style="opacity:0;fill:#FFFFFF;" width="64" height="64"/>
	<g>
		<path style="opacity:0.6;fill:#FFFFFF;" d="M50.324,36.49c-0.162,0-0.327-0.039-0.479-0.123c-0.484-0.266-0.662-0.873-0.396-1.357
			c1.604-2.929,2.453-6.252,2.453-9.609c0-11.048-8.988-20.037-20.036-20.037S11.829,14.352,11.829,25.4
			c0,3.357,0.848,6.68,2.452,9.609c0.266,0.484,0.088,1.093-0.396,1.357c-0.485,0.267-1.092,0.088-1.357-0.396
			c-1.765-3.224-2.698-6.879-2.698-10.57c0-12.151,9.885-22.037,22.036-22.037c12.15,0,22.036,9.886,22.036,22.037
			c0,3.692-0.934,7.348-2.699,10.57C51.021,36.303,50.678,36.49,50.324,36.49z"/>
		<path style="fill:#FFFFFF;" d="M21.098,48.635c-2.033,0-3.849-1.208-4.627-3.077l-3.881-9.326
			c-0.512-1.229-0.512-2.587-0.002-3.825c0.51-1.238,1.468-2.201,2.697-2.713l1.335-0.556c0.61-0.253,1.252-0.382,1.911-0.382
			c2.033,0,3.849,1.208,4.627,3.077l3.881,9.325c0.512,1.229,0.512,2.587,0.002,3.825c-0.51,1.238-1.468,2.201-2.698,2.713
			l-1.334,0.556C22.398,48.506,21.756,48.635,21.098,48.635z M18.53,30.756c-0.393,0-0.777,0.077-1.142,0.229l-1.335,0.556
			c-0.736,0.306-1.31,0.884-1.617,1.628c-0.306,0.744-0.307,1.559,0,2.294l3.881,9.326c0.467,1.121,1.558,1.846,2.781,1.846
			c0.393,0,0.777-0.077,1.142-0.229l1.334-0.557c0.736-0.307,1.311-0.885,1.617-1.629c0.306-0.743,0.307-1.559,0-2.294l-3.881-9.325
			C20.844,31.48,19.752,30.756,18.53,30.756z"/>
		<path style="fill:#FFFFFF;" d="M42.705,48.635L42.705,48.635c-0.658,0-1.301-0.129-1.91-0.383l-1.336-0.557
			c-1.229-0.511-2.186-1.474-2.696-2.712c-0.51-1.238-0.509-2.597,0.003-3.826l3.881-9.324c0.778-1.869,2.595-3.077,4.627-3.077
			c0.658,0,1.301,0.129,1.91,0.382l1.336,0.556c1.229,0.512,2.186,1.475,2.696,2.713c0.51,1.238,0.509,2.596-0.003,3.826
			l-3.881,9.324C46.554,47.427,44.737,48.635,42.705,48.635z M45.273,30.756c-1.223,0-2.314,0.725-2.781,1.846l-3.881,9.324
			c-0.306,0.736-0.306,1.552,0.001,2.295c0.307,0.744,0.88,1.322,1.615,1.629l1.337,0.557c0.364,0.151,0.748,0.229,1.141,0.229
			c1.223,0,2.313-0.725,2.781-1.847l3.881-9.324c0.306-0.736,0.306-1.551-0.001-2.295s-0.88-1.322-1.616-1.628l-1.334-0.556
			C46.051,30.833,45.667,30.756,45.273,30.756z"/>
		<path style="opacity:0.6;fill:#FFFFFF;" d="M35.957,58.702c-0.438,0-0.84-0.29-0.963-0.733c-0.147-0.532,0.165-1.083,0.697-1.23
			c2.991-0.828,7.012-3.338,9.776-6.103c2.374-2.374,4.124-5.323,5.061-8.529c0.155-0.53,0.709-0.834,1.24-0.68
			c0.53,0.155,0.835,0.71,0.68,1.24c-1.031,3.527-2.956,6.772-5.566,9.383c-2.983,2.984-7.366,5.704-10.657,6.616
			C36.136,58.69,36.046,58.702,35.957,58.702z"/>
		<path style="fill:#FFFFFF;" d="M32.958,60.807h-1.916c-1.654,0-3-1.346-3-3v-0.639c0-1.654,1.346-3,3-3h1.916c1.654,0,3,1.346,3,3
			v0.639C35.958,59.461,34.612,60.807,32.958,60.807z M31.042,56.168c-0.551,0-1,0.448-1,1v0.639c0,0.552,0.449,1,1,1h1.916
			c0.552,0,1-0.448,1-1v-0.639c0-0.552-0.448-1-1-1H31.042z"/>
	</g>
</g>
</svg>
