<?xml version="1.0" encoding="iso-8859-1"?>
<!-- Generator: Adobe Illustrator 17.0.1, SVG Export Plug-In . SVG Version: 6.00 Build 0)  -->
<!DOCTYPE svg PUBLIC "-//W3C//DTD SVG 1.1//EN" "http://www.w3.org/Graphics/SVG/1.1/DTD/svg11.dtd">
<svg version="1.1" id="Layer_1" xmlns="http://www.w3.org/2000/svg" xmlns:xlink="http://www.w3.org/1999/xlink" x="0px" y="0px"
	 width="64px" height="64px" viewBox="0 0 64 64" style="enable-background:new 0 0 64 64;" xml:space="preserve">
<g id="icon-m-scale">
	<rect id="icon-m-scale_1_" style="opacity:0;fill:#FFFFFF;" width="64" height="64"/>
	<g style="opacity:0.4;">
		<path style="fill:#FFFFFF;" d="M48.634,58h-2.03c-0.553,0-1-0.447-1-1s0.447-1,1-1h2.03c0.553,0,1,0.447,1,1S49.187,58,48.634,58z
			 M42.543,58h-2.031c-0.553,0-1-0.447-1-1s0.447-1,1-1h2.031c0.553,0,1,0.447,1,1S43.096,58,42.543,58z M36.451,58h-2.03
			c-0.553,0-1-0.447-1-1s0.447-1,1-1h2.03c0.553,0,1,0.447,1,1S37.004,58,36.451,58z M30.36,58h-2.03c-0.552,0-1-0.447-1-1
			s0.448-1,1-1h2.03c0.552,0,1,0.447,1,1S30.912,58,30.36,58z M24.269,58h-2.031c-0.552,0-1-0.447-1-1s0.448-1,1-1h2.031
			c0.552,0,1,0.447,1,1S24.821,58,24.269,58z M18.177,58h-2.031c-0.552,0-1-0.447-1-1s0.448-1,1-1h2.031c0.552,0,1,0.447,1,1
			S18.729,58,18.177,58z M12.101,57.825c-0.077,0-0.155-0.009-0.233-0.027c-0.764-0.182-1.491-0.483-2.16-0.896
			c-0.47-0.29-0.617-0.905-0.327-1.376c0.29-0.47,0.905-0.617,1.376-0.327c0.488,0.301,1.018,0.521,1.575,0.653
			c0.537,0.128,0.869,0.667,0.741,1.204C12.963,57.517,12.553,57.825,12.101,57.825z M52.661,57.688
			c-0.422,0-0.813-0.269-0.951-0.69c-0.171-0.525,0.116-1.09,0.642-1.261c0.545-0.177,1.057-0.438,1.521-0.777
			c0.446-0.324,1.071-0.227,1.397,0.22c0.325,0.446,0.227,1.072-0.22,1.397c-0.635,0.462-1.335,0.82-2.08,1.063
			C52.868,57.672,52.764,57.688,52.661,57.688z M7.631,54.021c-0.391,0-0.762-0.23-0.923-0.613
			c-0.303-0.725-0.488-1.488-0.551-2.271c-0.043-0.551,0.368-1.032,0.918-1.076c0.556-0.036,1.032,0.368,1.076,0.918
			c0.045,0.571,0.18,1.129,0.401,1.656c0.213,0.51-0.027,1.096-0.536,1.31C7.891,53.996,7.76,54.021,7.631,54.021z M56.816,53.542
			c-0.104,0-0.209-0.016-0.313-0.05c-0.524-0.173-0.81-0.737-0.638-1.263c0.179-0.542,0.269-1.108,0.269-1.685
			c0-0.553,0.447-1.038,1-1.038s1,0.41,1,0.963v0.075c0,0.789-0.124,1.565-0.368,2.31C57.628,53.275,57.236,53.542,56.816,53.542z
			 M7.135,47.995c-0.552,0-1-0.447-1-1v-2.03c0-0.553,0.448-1,1-1s1,0.447,1,1v2.03C8.135,47.548,7.687,47.995,7.135,47.995z
			 M57.135,47.409c-0.553,0-1-0.447-1-1v-2.03c0-0.553,0.447-1,1-1s1,0.447,1,1v2.03C58.135,46.962,57.688,47.409,57.135,47.409z
			 M7.135,41.904c-0.552,0-1-0.447-1-1v-2.03c0-0.553,0.448-1,1-1s1,0.447,1,1v2.03C8.135,41.457,7.687,41.904,7.135,41.904z
			 M57.135,41.317c-0.553,0-1-0.447-1-1v-2.03c0-0.553,0.447-1,1-1s1,0.447,1,1v2.03C58.135,40.87,57.688,41.317,57.135,41.317z
			 M7.135,35.813c-0.552,0-1-0.447-1-1v-2.03c0-0.552,0.448-1,1-1s1,0.448,1,1v2.03C8.135,35.365,7.687,35.813,7.135,35.813z
			 M57.135,35.227c-0.553,0-1-0.447-1-1v-2.031c0-0.552,0.447-1,1-1s1,0.448,1,1v2.031C58.135,34.779,57.688,35.227,57.135,35.227z
			 M7.135,29.721c-0.552,0-1-0.448-1-1v-2.03c0-0.552,0.448-1,1-1s1,0.448,1,1v2.03C8.135,29.273,7.687,29.721,7.135,29.721z
			 M57.135,29.135c-0.553,0-1-0.448-1-1v-2.03c0-0.552,0.447-1,1-1s1,0.448,1,1v2.03C58.135,28.687,57.688,29.135,57.135,29.135z
			 M7.135,23.63c-0.552,0-1-0.448-1-1V20.6c0-0.552,0.448-1,1-1s1,0.448,1,1v2.03C8.135,23.182,7.687,23.63,7.135,23.63z
			 M57.135,23.043c-0.553,0-1-0.448-1-1v-2.03c0-0.552,0.447-1,1-1s1,0.448,1,1v2.03C58.135,22.596,57.688,23.043,57.135,23.043z
			 M7.135,17.539c-0.552,0-1-0.448-1-1v-2.03c0-0.552,0.448-1,1-1s1,0.448,1,1v2.03C8.135,17.091,7.687,17.539,7.135,17.539z
			 M57.135,16.952c-0.553,0-1-0.448-1-1v-2.031c0-0.552,0.447-1,1-1s1,0.448,1,1v2.031C58.135,16.504,57.688,16.952,57.135,16.952z
			 M7.826,11.556c-0.152,0-0.306-0.035-0.451-0.108c-0.493-0.25-0.69-0.851-0.44-1.344C7.288,9.407,7.747,8.771,8.3,8.213
			c0.389-0.394,1.022-0.396,1.414-0.007c0.393,0.389,0.396,1.022,0.007,1.414c-0.406,0.41-0.743,0.877-1.002,1.388
			C8.542,11.356,8.191,11.556,7.826,11.556z M56.156,11.046c-0.333,0-0.658-0.166-0.849-0.469c-0.305-0.487-0.683-0.921-1.123-1.292
			c-0.422-0.355-0.477-0.986-0.12-1.409c0.355-0.42,0.986-0.478,1.409-0.12c0.6,0.505,1.113,1.097,1.529,1.76
			c0.293,0.468,0.151,1.085-0.316,1.378C56.521,10.997,56.338,11.046,56.156,11.046z M12.556,8.083
			c-0.481,0-0.906-0.349-0.985-0.839c-0.089-0.545,0.281-1.059,0.826-1.147C12.789,6.032,13.189,6,13.589,6h0.994
			c0.552,0,1,0.448,1,1s-0.448,1-1,1h-0.994c-0.292,0-0.586,0.023-0.872,0.07C12.663,8.079,12.609,8.083,12.556,8.083z
			 M51.132,8.016c-0.024,0-0.048-0.001-0.072-0.002C50.934,8.004,50.807,8,50.68,8h-1.579c-0.553,0-1-0.448-1-1s0.447-1,1-1h1.579
			c0.176,0,0.35,0.006,0.522,0.019c0.552,0.04,0.966,0.519,0.926,1.069C52.091,7.614,51.651,8.016,51.132,8.016z M45.04,8h-2.03
			c-0.553,0-1-0.448-1-1s0.447-1,1-1h2.03c0.553,0,1,0.448,1,1S45.593,8,45.04,8z M38.948,8h-2.03c-0.553,0-1-0.448-1-1s0.447-1,1-1
			h2.03c0.553,0,1,0.448,1,1S39.501,8,38.948,8z M32.857,8h-2.03c-0.552,0-1-0.448-1-1s0.448-1,1-1h2.03c0.552,0,1,0.448,1,1
			S33.409,8,32.857,8z M26.766,8h-2.03c-0.552,0-1-0.448-1-1s0.448-1,1-1h2.03c0.552,0,1,0.448,1,1S27.318,8,26.766,8z M20.674,8
			h-2.03c-0.552,0-1-0.448-1-1s0.448-1,1-1h2.03c0.552,0,1,0.448,1,1S21.227,8,20.674,8z"/>
	</g>
	<path style="fill:#FFFFFF;" d="M51.318,49H12.951c-3.207,0-5.816-2.609-5.816-5.816V20.816c0-3.207,2.609-5.816,5.816-5.816h38.368
		c3.207,0,5.816,2.609,5.816,5.816v22.368C57.135,46.391,54.525,49,51.318,49z M12.951,17c-2.104,0-3.816,1.712-3.816,3.816v22.368
		c0,2.104,1.712,3.816,3.816,3.816h38.368c2.104,0,3.816-1.712,3.816-3.816V20.816c0-2.104-1.712-3.816-3.816-3.816H12.951z"/>
</g>
</svg>
