<?xml version="1.0" encoding="iso-8859-1"?>
<!-- Generator: Adobe Illustrator 17.0.1, SVG Export Plug-In . SVG Version: 6.00 Build 0)  -->
<!DOCTYPE svg PUBLIC "-//W3C//DTD SVG 1.1//EN" "http://www.w3.org/Graphics/SVG/1.1/DTD/svg11.dtd">
<svg version="1.1" id="Layer_1" xmlns="http://www.w3.org/2000/svg" xmlns:xlink="http://www.w3.org/1999/xlink" x="0px" y="0px"
	 width="32px" height="32px" viewBox="0 0 32 32" style="enable-background:new 0 0 32 32;" xml:space="preserve">
<g id="icon-s-duration">
	<rect id="icon-s-duration_1_" style="opacity:0;fill:#FFFFFF;" width="32" height="32"/>
	<path style="fill:#FFFFFF;" d="M24.441,8.485C22.451,6.495,19.038,5,16,5v12L24.441,8.485z"/>
	<path style="opacity:0.4;fill:#FFFFFF;" d="M16,28C9.383,28,4,22.617,4,16C4,9.383,9.383,4,16,4c6.617,0,12,5.383,12,12
		C28,22.617,22.617,28,16,28z M16,6C10.486,6,6,10.486,6,16c0,5.514,4.486,10,10,10c5.514,0,10-4.486,10-10C26,10.486,21.514,6,16,6
		z"/>
	<rect x="13" y="1.022" style="opacity:0.4;fill:#FFFFFF;" width="6" height="1.957"/>
</g>
</svg>
