<?xml version="1.0" encoding="iso-8859-1"?>
<!-- Generator: Adobe Illustrator 17.0.1, SVG Export Plug-In . SVG Version: 6.00 Build 0)  -->
<!DOCTYPE svg PUBLIC "-//W3C//DTD SVG 1.1//EN" "http://www.w3.org/Graphics/SVG/1.1/DTD/svg11.dtd">
<svg version="1.1" id="Layer_1" xmlns="http://www.w3.org/2000/svg" xmlns:xlink="http://www.w3.org/1999/xlink" x="0px" y="0px"
	 width="64px" height="64px" viewBox="0 0 64 64" style="enable-background:new 0 0 64 64;" xml:space="preserve">
<g id="icon-m-clear_2_">
	<rect id="icon-m-clear_3_" style="opacity:0;fill:#FFFFFF;" width="64" height="64"/>
	<g>
		<circle style="opacity:0.2;fill:#FFFFFF;" cx="32" cy="32" r="24"/>
		<path style="fill:#FFFFFF;" d="M41.899,42.9c-0.256,0-0.512-0.098-0.707-0.293l-6.364-6.364c-2.339-2.339-2.339-6.146,0-8.485
			l6.364-6.364c0.391-0.391,1.023-0.391,1.414,0s0.391,1.023,0,1.414l-6.364,6.364c-1.56,1.56-1.56,4.097,0,5.657l6.364,6.364
			c0.391,0.391,0.391,1.023,0,1.414C42.411,42.803,42.155,42.9,41.899,42.9z"/>
		<path style="fill:#FFFFFF;" d="M22.101,42.9c-0.256,0-0.512-0.098-0.707-0.293c-0.391-0.391-0.391-1.023,0-1.414l6.364-6.364
			c0.751-0.752,1.166-1.756,1.166-2.828s-0.414-2.077-1.166-2.829l-6.363-6.363c-0.391-0.391-0.391-1.023,0-1.414
			s1.023-0.391,1.414,0l6.363,6.363c1.129,1.129,1.751,2.636,1.751,4.243s-0.622,3.113-1.751,4.242l-6.364,6.364
			C22.612,42.803,22.356,42.9,22.101,42.9z"/>
	</g>
</g>
</svg>
