<?xml version="1.0" encoding="iso-8859-1"?>
<!-- Generator: Adobe Illustrator 17.0.1, SVG Export Plug-In . SVG Version: 6.00 Build 0)  -->
<!DOCTYPE svg PUBLIC "-//W3C//DTD SVG 1.1//EN" "http://www.w3.org/Graphics/SVG/1.1/DTD/svg11.dtd">
<svg version="1.1" id="Layer_1" xmlns="http://www.w3.org/2000/svg" xmlns:xlink="http://www.w3.org/1999/xlink" x="0px" y="0px"
	 width="96px" height="96px" viewBox="0 0 96 96" style="enable-background:new 0 0 96 96;" xml:space="preserve">
<g id="icon-l-redirect">
	<rect id="icon-l-redirect_1_" style="opacity:0;fill:#FFFFFF;" width="96" height="96"/>
	<path style="fill:#FFFFFF;" d="M52.867,86.003L52.867,86.003c-0.707,0-1.424-0.544-1.424-1.584V39.454
		c0-1.04,0.717-1.584,1.424-1.584c0.324,0,0.658,0.11,0.966,0.32l32.895,22.357c0.495,0.337,0.779,0.844,0.779,1.39
		s-0.284,1.053-0.779,1.39L53.833,85.684C53.525,85.893,53.191,86.003,52.867,86.003z M53.443,40.343v43.186l31.771-21.593
		L53.443,40.343z"/>
	<g style="opacity:0.6;">
		<path style="fill:#FFFFFF;" d="M50.886,62.937h-13.2c-14.187,0-24.483-10.512-24.483-24.994V7.419c0-0.552,0.448-1,1-1
			s1,0.448,1,1v30.523c0,13.539,9.246,22.994,22.483,22.994h13.2c0.553,0,1,0.447,1,1S51.438,62.937,50.886,62.937z"/>
	</g>
</g>
</svg>
