<?xml version="1.0" encoding="iso-8859-1"?>
<!-- Generator: Adobe Illustrator 17.0.1, SVG Export Plug-In . SVG Version: 6.00 Build 0)  -->
<!DOCTYPE svg PUBLIC "-//W3C//DTD SVG 1.1//EN" "http://www.w3.org/Graphics/SVG/1.1/DTD/svg11.dtd">
<svg version="1.1" id="Layer_1" xmlns="http://www.w3.org/2000/svg" xmlns:xlink="http://www.w3.org/1999/xlink" x="0px" y="0px"
	 width="64px" height="64px" viewBox="0 0 64 64" style="enable-background:new 0 0 64 64;" xml:space="preserve">
<g id="icon-m-service-upload">
	<path style="opacity:0.6;fill:#FFFFFF;" d="M52.196,39.003H38.978c-0.553,0-1-0.447-1-1s0.447-1,1-1h13.219
		c3.854,0,7.11-3.378,7.11-7.377c0-3.995-3.189-7.246-7.11-7.246l-0.253-0.004c-0.112-0.002-0.223-0.007-0.338,0.002l-1.664,0.139
		l0.663-1.532c0.388-0.895,0.592-1.883,0.592-2.86c0-3.93-3.191-7.128-7.113-7.128c-2.717,0-5.154,1.53-6.36,3.993l-0.817,1.667
		l-0.942-1.6c-2.201-3.735-6.245-6.055-10.554-6.055c-6.755,0-12.25,5.494-12.25,12.247v1h-1c-3.854,0-7.111,3.378-7.111,7.377
		c0,3.998,3.256,7.376,7.111,7.376h13.145c0.552,0,1,0.447,1,1s-0.448,1-1,1H12.159c-4.938,0-9.111-4.294-9.111-9.376
		c0-4.747,3.639-8.806,8.142-9.322c0.488-7.417,6.679-13.302,14.219-13.302c4.471,0,8.697,2.146,11.374,5.69
		c1.695-2.313,4.37-3.696,7.3-3.696c5.025,0,9.113,4.095,9.113,9.128c0,0.766-0.099,1.538-0.289,2.284
		c4.692,0.369,8.399,4.362,8.399,9.218C61.307,34.709,57.135,39.003,52.196,39.003z"/>
	<rect id="icon-m-service-upload_1_" style="opacity:0;fill:#FFFFFF;" width="64" height="64"/>
	<g>
		<path style="fill:#FFFFFF;" d="M32.045,55c-0.552,0-1-0.447-1-1V43.306c0-0.553,0.448-1,1-1s1,0.447,1,1V54
			C33.045,54.553,32.597,55,32.045,55z"/>
		<path style="fill:#FFFFFF;" d="M32.178,32.235l7.222,10.625l-14.444,0L32.178,32.235 M32.178,29.649
			c-0.408,0-0.815,0.227-1.124,0.682l-8.751,12.875c-0.618,0.91-0.224,1.654,0.876,1.654h18c1.1,0,1.494-0.744,0.876-1.654
			l-8.751-12.875C32.993,29.876,32.585,29.649,32.178,29.649L32.178,29.649z"/>
	</g>
</g>
</svg>
