<?xml version="1.0" encoding="iso-8859-1"?>
<!-- Generator: Adobe Illustrator 17.0.1, SVG Export Plug-In . SVG Version: 6.00 Build 0)  -->
<!DOCTYPE svg PUBLIC "-//W3C//DTD SVG 1.1//EN" "http://www.w3.org/Graphics/SVG/1.1/DTD/svg11.dtd">
<svg version="1.1" id="Layer_1" xmlns="http://www.w3.org/2000/svg" xmlns:xlink="http://www.w3.org/1999/xlink" x="0px" y="0px"
	 width="32px" height="32px" viewBox="0 0 32 32" style="enable-background:new 0 0 32 32;" xml:space="preserve">
<g id="icon-s-clipboard">
	<rect id="icon-s-clipboard_1_" style="opacity:0;fill:#FFFFFF;" width="32" height="32"/>
	<g style="opacity:0.6;">
		<path style="fill:#FFFFFF;" d="M24.397,27.126H7.603c-1.103,0-2-0.897-2-2v-18.5c0-1.103,0.897-2,2-2H12c0.552,0,1,0.448,1,1
			s-0.448,1-1,1H7.603v18.5h16.795v-18.5H20c-0.553,0-1-0.448-1-1s0.447-1,1-1h4.397c1.103,0,2,0.897,2,2v18.5
			C26.397,26.229,25.5,27.126,24.397,27.126z"/>
	</g>
	<path style="fill:#FFFFFF;" d="M18.5,9.013h-5c-1.103,0-2-0.897-2-2v-3c0-1.103,0.897-2,2-2h5c1.103,0,2,0.897,2,2v3
		C20.5,8.116,19.603,9.013,18.5,9.013z M18.5,7.013v1V7.013L18.5,7.013L18.5,7.013z M13.5,4.013v3h4.997l0.003-3H13.5z"/>
	<path style="fill:#FFFFFF;" d="M20.813,12.988h-9.625c-0.552,0-1-0.448-1-1s0.448-1,1-1h9.625c0.553,0,1,0.448,1,1
		S21.365,12.988,20.813,12.988z"/>
	<path style="fill:#FFFFFF;" d="M20.813,17.625h-9.625c-0.552,0-1-0.447-1-1c0-0.552,0.448-1,1-1h9.625c0.553,0,1,0.448,1,1
		C21.813,17.178,21.365,17.625,20.813,17.625z"/>
	<path style="fill:#FFFFFF;" d="M20.813,22.262h-9.625c-0.552,0-1-0.447-1-1s0.448-1,1-1h9.625c0.553,0,1,0.447,1,1
		S21.365,22.262,20.813,22.262z"/>
</g>
</svg>
