<?xml version="1.0" encoding="iso-8859-1"?>
<!-- Generator: Adobe Illustrator 17.0.1, SVG Export Plug-In . SVG Version: 6.00 Build 0)  -->
<!DOCTYPE svg PUBLIC "-//W3C//DTD SVG 1.1//EN" "http://www.w3.org/Graphics/SVG/1.1/DTD/svg11.dtd">
<svg version="1.1" id="Layer_1" xmlns="http://www.w3.org/2000/svg" xmlns:xlink="http://www.w3.org/1999/xlink" x="0px" y="0px"
	 width="64px" height="64px" viewBox="0 0 64 64" style="enable-background:new 0 0 64 64;" xml:space="preserve">
<g id="icon-m-share_2_">
	<rect id="icon-m-share_3_" style="opacity:0;fill:#FFFFFF;" width="64" height="64"/>
	<path style="fill:#FFFFFF;" d="M18.379,40.5c-4.688,0-8.501-3.813-8.501-8.5c0-4.687,3.813-8.5,8.501-8.5
		c4.687,0,8.499,3.813,8.499,8.5C26.878,36.687,23.065,40.5,18.379,40.5z M18.379,25.5c-3.584,0-6.501,2.916-6.501,6.5
		s2.917,6.5,6.501,6.5c3.583,0,6.499-2.916,6.499-6.5S21.962,25.5,18.379,25.5z"/>
	<path style="fill:#FFFFFF;" d="M43.581,55.715c-3.031,0-5.854-1.629-7.367-4.251c-2.342-4.058-0.947-9.267,3.11-11.61
		c1.292-0.745,2.759-1.139,4.242-1.139c3.031,0,5.854,1.629,7.367,4.251c1.135,1.966,1.438,4.257,0.85,6.448
		c-0.587,2.193-1.994,4.025-3.961,5.161C46.531,55.32,45.064,55.715,43.581,55.715z M43.566,40.715
		c-1.133,0-2.254,0.301-3.242,0.871c-3.103,1.792-4.169,5.774-2.378,8.878c1.157,2.005,3.316,3.251,5.635,3.251
		c1.133,0,2.254-0.302,3.241-0.872c1.504-0.868,2.58-2.27,3.029-3.945c0.449-1.677,0.218-3.428-0.65-4.932
		C48.044,41.96,45.885,40.715,43.566,40.715z"/>
	<path style="fill:#FFFFFF;" d="M43.566,25.286c-1.483,0-2.95-0.394-4.242-1.14c-4.058-2.343-5.453-7.551-3.11-11.609
		c1.514-2.622,4.336-4.251,7.366-4.251c1.484,0,2.951,0.395,4.242,1.141c1.967,1.134,3.374,2.967,3.961,5.16
		c0.588,2.192,0.285,4.483-0.85,6.449C49.42,23.657,46.598,25.286,43.566,25.286z M43.58,10.286c-2.317,0-4.477,1.246-5.634,3.251
		c-1.792,3.104-0.725,7.086,2.378,8.877c0.988,0.571,2.109,0.872,3.242,0.872c2.318,0,4.478-1.245,5.635-3.25
		c0.868-1.504,1.1-3.255,0.65-4.932c-0.449-1.677-1.525-3.078-3.029-3.946C45.835,10.587,44.714,10.286,43.58,10.286z"/>
	
		<rect x="24.501" y="38.608" transform="matrix(0.8661 0.5 -0.5 0.8661 23.9453 -10.1592)" style="opacity:0.6;fill:#FFFFFF;" width="12.863" height="2"/>
	
		<rect x="29.932" y="17.955" transform="matrix(0.5005 0.8657 -0.8657 0.5005 36.5646 -14.5968)" style="opacity:0.6;fill:#FFFFFF;" width="2" height="12.867"/>
</g>
</svg>
