<?xml version="1.0" encoding="iso-8859-1"?>
<!-- Generator: Adobe Illustrator 17.0.1, SVG Export Plug-In . SVG Version: 6.00 Build 0)  -->
<!DOCTYPE svg PUBLIC "-//W3C//DTD SVG 1.1//EN" "http://www.w3.org/Graphics/SVG/1.1/DTD/svg11.dtd">
<svg version="1.1" id="Layer_1" xmlns="http://www.w3.org/2000/svg" xmlns:xlink="http://www.w3.org/1999/xlink" x="0px" y="0px"
	 width="64px" height="64px" viewBox="0 0 64 64" style="enable-background:new 0 0 64 64;" xml:space="preserve">
<g id="icon-m-rotate-right">
	<rect id="icon-m-rotate-right_1_" style="opacity:0;fill:#FFFFFF;" width="64" height="64"/>
	<path style="fill:#FFFFFF;" d="M39.725,36.948c-1.131,0-2.272-0.852-2.272-2.753V15.806c0-1.901,1.142-2.752,2.272-2.752
		c0.577,0,1.174,0.206,1.771,0.612l12.979,8.822c0.929,0.631,1.461,1.547,1.461,2.514s-0.532,1.882-1.461,2.514l-12.979,8.821
		C40.898,36.742,40.302,36.948,39.725,36.948z M39.725,15.054c-0.27,0-0.272,0.745-0.272,0.752v18.389
		c0,0.008,0.003,0.753,0.272,0.753c0.076,0,0.293-0.026,0.646-0.267L53.35,25.86c0.378-0.257,0.586-0.562,0.586-0.859
		s-0.208-0.603-0.586-0.859L40.371,15.32C40.018,15.08,39.802,15.054,39.725,15.054z"/>
	<path style="opacity:0.6;fill:#FFFFFF;" d="M10.119,54.334c-0.552,0-1-0.447-1-1C9.119,37.159,22.278,24,38.452,24
		c0.553,0,1,0.448,1,1s-0.447,1-1,1c-15.071,0-27.333,12.262-27.333,27.333C11.119,53.887,10.671,54.334,10.119,54.334z"/>
</g>
</svg>
