<?xml version="1.0" encoding="iso-8859-1"?>
<!-- Generator: Adobe Illustrator 17.0.1, SVG Export Plug-In . SVG Version: 6.00 Build 0)  -->
<!DOCTYPE svg PUBLIC "-//W3C//DTD SVG 1.1//EN" "http://www.w3.org/Graphics/SVG/1.1/DTD/svg11.dtd">
<svg version="1.1" id="Layer_1" xmlns="http://www.w3.org/2000/svg" xmlns:xlink="http://www.w3.org/1999/xlink" x="0px" y="0px"
	 width="64px" height="64px" viewBox="0 0 64 64" style="enable-background:new 0 0 64 64;" xml:space="preserve">
<g id="icon-m-bluetooth">
	<rect id="icon-m-bluetooth_1_" style="opacity:0;fill:#FFFFFF;" width="64" height="64"/>
	<g>
		<path style="fill:#FFFFFF;" d="M15.98,44.502c-0.301,0-0.599-0.136-0.796-0.394c-0.335-0.438-0.251-1.066,0.188-1.401
			L30.05,31.506V10.997c0-0.919,0.373-1.631,1.023-1.953c0.651-0.32,1.443-0.187,2.173,0.371l11.892,9.074
			c0.667,0.509,1.05,1.241,1.05,2.008c0,0.768-0.382,1.5-1.048,2.009L31.693,32.768c-0.024,0.021-0.05,0.04-0.076,0.058
			L16.585,44.297C16.404,44.436,16.191,44.502,15.98,44.502z M32.05,11.018v18.961l11.876-9.063
			c0.169-0.129,0.262-0.278,0.262-0.418c0-0.141-0.094-0.29-0.263-0.419L32.05,11.018z"/>
		<g>
			<g style="opacity:0.6;">
				<path style="fill:#FFFFFF;" d="M31.815,55.131c-0.259,0-0.509-0.057-0.741-0.172c-0.651-0.321-1.024-1.033-1.024-1.952V32.494
					L15.372,21.29c-0.439-0.335-0.523-0.963-0.188-1.402c0.336-0.439,0.964-0.521,1.402-0.188l28.553,21.795
					c0.667,0.51,1.05,1.242,1.049,2.01c0,0.767-0.382,1.498-1.049,2.007l-11.893,9.076C32.777,54.946,32.281,55.131,31.815,55.131z
					 M32.05,34.021v18.965l11.876-9.063c0.169-0.129,0.262-0.277,0.262-0.418s-0.093-0.29-0.263-0.419L32.05,34.021z"/>
			</g>
		</g>
	</g>
</g>
</svg>
