<?xml version="1.0" encoding="iso-8859-1"?>
<!-- Generator: Adobe Illustrator 17.0.1, SVG Export Plug-In . SVG Version: 6.00 Build 0)  -->
<!DOCTYPE svg PUBLIC "-//W3C//DTD SVG 1.1//EN" "http://www.w3.org/Graphics/SVG/1.1/DTD/svg11.dtd">
<svg version="1.1" id="Layer_1" xmlns="http://www.w3.org/2000/svg" xmlns:xlink="http://www.w3.org/1999/xlink" x="0px" y="0px"
	 width="64px" height="64px" viewBox="0 0 64 64" style="enable-background:new 0 0 64 64;" xml:space="preserve">
<g id="icon-m-location">
	<rect id="icon-m-location_1_" style="opacity:0;fill:#FFFFFF;" width="64" height="64"/>
	<path style="opacity:0.6;fill:#FFFFFF;" d="M35.846,8.716C34.605,8.449,33.321,8.301,32,8.301s-2.605,0.148-3.846,0.416
		c-8.206,1.766-14.36,9.057-14.36,17.791c0,0.768,0.053,1.579,0.146,2.412c0.574,5.175,2.875,11.395,6.238,16.226
		c0.761,1.093,1.574,2.118,2.437,3.039c4.022,4.765,7.903,8.281,7.903,8.281c0.816,0.738,2.15,0.738,2.966,0
		c0,0,3.881-3.516,7.903-8.281c0.862-0.922,1.675-1.946,2.437-3.039c3.363-4.831,5.664-11.051,6.238-16.226
		c0.092-0.833,0.146-1.644,0.146-2.412C50.207,17.773,44.053,10.482,35.846,8.716z"/>
	<path style="fill:#FFFFFF;" d="M33.995,17.332C33.301,17.182,32.648,17.11,32,17.11c-0.648,0-1.302,0.072-1.995,0.222
		c-4.259,0.916-7.352,4.743-7.37,9.107c-0.001,0.046-0.003,0.087-0.003,0.126c0,0.04,0.002,0.08,0.003,0.126
		c0.018,4.364,3.111,8.191,7.37,9.107c0.693,0.149,1.347,0.222,1.995,0.222c0.648,0,1.301-0.072,1.995-0.222
		c4.259-0.916,7.351-4.743,7.37-9.107c0.001-0.046,0.002-0.086,0.002-0.126c0-0.039-0.001-0.08-0.002-0.126
		C41.346,22.075,38.254,18.248,33.995,17.332z"/>
</g>
</svg>
