<?xml version="1.0" encoding="iso-8859-1"?>
<!-- Generator: Adobe Illustrator 17.0.1, SVG Export Plug-In . SVG Version: 6.00 Build 0)  -->
<!DOCTYPE svg PUBLIC "-//W3C//DTD SVG 1.1//EN" "http://www.w3.org/Graphics/SVG/1.1/DTD/svg11.dtd">
<svg version="1.1" id="Layer_1" xmlns="http://www.w3.org/2000/svg" xmlns:xlink="http://www.w3.org/1999/xlink" x="0px" y="0px"
	 width="64px" height="64px" viewBox="0 0 64 64" style="enable-background:new 0 0 64 64;" xml:space="preserve">
<g id="icon-m-device-lock">
	<rect id="icon-m-device-lock_1_" style="opacity:0;fill:#FFFFFF;" width="64" height="64"/>
	<path style="fill:#FFFFFF;" d="M47,55H17c-2.757,0-5-2.243-5-5V30.733c0-2.757,2.243-5,5-5h30c2.757,0,5,2.243,5,5V50
		C52,52.757,49.757,55,47,55z M17,27.733c-1.654,0-3,1.346-3,3V50c0,1.654,1.346,3,3,3h30c1.654,0,3-1.346,3-3V30.733
		c0-1.654-1.346-3-3-3H17z"/>
	<path style="opacity:0.6;fill:#FFFFFF;" d="M46,27.604c-0.553,0-1-0.448-1-1v-3.591c0-7.539-5.71-13.444-13-13.444
		c-7.29,0-13,5.905-13,13.444v3.591c0,0.552-0.448,1-1,1s-1-0.448-1-1v-3.591c0-8.66,6.589-15.444,15-15.444s15,6.784,15,15.444
		v3.591C47,27.156,46.553,27.604,46,27.604z"/>
	<g style="opacity:0.6;">
		<path style="fill:#FFFFFF;" d="M32,47.173c-0.829,0-1.5-0.672-1.5-1.5v-5.392c0-0.828,0.671-1.5,1.5-1.5s1.5,0.672,1.5,1.5v5.392
			C33.5,46.501,32.829,47.173,32,47.173z"/>
		<circle style="fill:#FFFFFF;" cx="32" cy="38.047" r="3.5"/>
	</g>
</g>
</svg>
