<?xml version="1.0" encoding="iso-8859-1"?>
<!-- Generator: Adobe Illustrator 17.0.1, SVG Export Plug-In . SVG Version: 6.00 Build 0)  -->
<!DOCTYPE svg PUBLIC "-//W3C//DTD SVG 1.1//EN" "http://www.w3.org/Graphics/SVG/1.1/DTD/svg11.dtd">
<svg version="1.1" id="Layer_1" xmlns="http://www.w3.org/2000/svg" xmlns:xlink="http://www.w3.org/1999/xlink" x="0px" y="0px"
	 width="32px" height="32px" viewBox="0 0 32 32" style="enable-background:new 0 0 32 32;" xml:space="preserve">
<g id="icon-s-settings">
	<rect id="icon-s-settings_1_" style="opacity:0;fill:#FFFFFF;" width="32" height="32"/>
	<path style="fill:#FFFFFF;" d="M29.139,18.652l-0.996-0.412c-0.417-0.174-0.671-0.6-0.624-1.049c0.083-0.791,0.082-1.592,0-2.384
		c-0.047-0.447,0.207-0.874,0.624-1.048l0.997-0.412c0.824-0.341,1.218-1.291,0.876-2.115l-0.733-1.771
		c-0.332-0.799-1.315-1.208-2.117-0.876l-0.996,0.412c-0.417,0.173-0.898,0.052-1.181-0.3c-0.5-0.616-1.067-1.184-1.685-1.686
		c-0.351-0.284-0.472-0.765-0.299-1.182l0.412-0.995c0.342-0.825-0.051-1.774-0.876-2.116l-1.77-0.733
		c-0.825-0.343-1.774,0.051-2.116,0.876L18.24,3.858c-0.173,0.417-0.599,0.671-1.047,0.623c-0.792-0.081-1.594-0.081-2.384,0.001
		c-0.448,0.048-0.875-0.206-1.048-0.624l-0.412-0.996c-0.33-0.798-1.316-1.207-2.117-0.876L9.461,2.719
		C8.638,3.061,8.244,4.01,8.585,4.836l0.413,0.995c0.173,0.418,0.051,0.898-0.3,1.182c-0.616,0.5-1.184,1.067-1.686,1.686
		C6.727,9.048,6.247,9.17,5.831,8.997L4.835,8.585C4.01,8.243,3.061,8.637,2.72,9.461l-0.734,1.771
		c-0.341,0.824,0.052,1.773,0.877,2.115l0.996,0.412c0.417,0.174,0.67,0.599,0.624,1.047c-0.082,0.793-0.082,1.595,0.001,2.385
		c0.047,0.448-0.207,0.874-0.624,1.047l-0.997,0.413c-0.823,0.342-1.217,1.291-0.875,2.115l0.733,1.773
		c0.331,0.798,1.315,1.206,2.116,0.875l0.996-0.412c0.256-0.106,0.536-0.101,0.78,0c0.153,0.063,0.292,0.164,0.401,0.3
		c0.5,0.617,1.067,1.185,1.685,1.687c0.35,0.283,0.472,0.765,0.299,1.182l-0.413,0.994c-0.341,0.826,0.051,1.775,0.877,2.117
		l1.771,0.733c0.825,0.341,1.773-0.052,2.116-0.877l0.412-0.996c0.172-0.416,0.598-0.67,1.048-0.623
		c0.791,0.082,1.594,0.082,2.383-0.001c0.449-0.047,0.875,0.207,1.048,0.623l0.413,0.998c0.331,0.798,1.316,1.206,2.116,0.876
		l1.771-0.733c0.824-0.342,1.218-1.292,0.876-2.117l-0.412-0.996c-0.173-0.417-0.052-0.897,0.3-1.182
		c0.617-0.5,1.184-1.067,1.686-1.686c0.284-0.35,0.765-0.471,1.182-0.299l0.996,0.412c0.825,0.342,1.773-0.051,2.115-0.876
		l0.733-1.771C30.356,19.942,29.964,18.993,29.139,18.652 M13.506,22.021c-3.326-1.378-4.905-5.19-3.528-8.516
		c1.378-3.325,5.191-4.906,8.517-3.527c3.325,1.377,4.904,5.189,3.527,8.516C20.645,21.819,16.831,23.399,13.506,22.021"/>
</g>
</svg>
