<?xml version="1.0" encoding="iso-8859-1"?>
<!-- Generator: Adobe Illustrator 17.0.1, SVG Export Plug-In . SVG Version: 6.00 Build 0)  -->
<!DOCTYPE svg PUBLIC "-//W3C//DTD SVG 1.1//EN" "http://www.w3.org/Graphics/SVG/1.1/DTD/svg11.dtd">
<svg version="1.1" id="Layer_1" xmlns="http://www.w3.org/2000/svg" xmlns:xlink="http://www.w3.org/1999/xlink" x="0px" y="0px"
	 width="64px" height="64px" viewBox="0 0 64 64" style="enable-background:new 0 0 64 64;" xml:space="preserve">
<g id="icon-m-wlan-no-signal_2_">
	<rect id="icon-m-wlan-no-signal_3_" style="opacity:0;fill:#FFFFFF;" width="64" height="64"/>
	<g style="opacity:0.6;">
		<path style="fill:#FFFFFF;" d="M32.134,52.327L32.134,52.327c-1.41,0-2.732-0.546-3.723-1.537L7.48,29.859
			c-1.957-1.957-2.047-5.121-0.205-7.204l0.087-0.087c6.862-6.061,15.66-9.399,24.771-9.399c9.109,0,17.904,3.334,24.765,9.389
			l0.085,0.085c1.848,2.076,1.766,5.24-0.186,7.204l-20.94,20.943C34.866,51.781,33.544,52.327,32.134,52.327z M8.735,24.025
			c-1.104,1.292-1.038,3.223,0.159,4.42l20.931,20.931c1.225,1.226,3.392,1.226,4.618,0.001l20.938-20.941
			c1.192-1.2,1.253-3.131,0.145-4.419c-6.487-5.705-14.792-8.846-23.393-8.846C23.532,15.17,15.225,18.314,8.735,24.025z"/>
	</g>
</g>
</svg>
