<?xml version="1.0" encoding="iso-8859-1"?>
<!-- Generator: Adobe Illustrator 17.0.1, SVG Export Plug-In . SVG Version: 6.00 Build 0)  -->
<!DOCTYPE svg PUBLIC "-//W3C//DTD SVG 1.1//EN" "http://www.w3.org/Graphics/SVG/1.1/DTD/svg11.dtd">
<svg version="1.1" id="Layer_1" xmlns="http://www.w3.org/2000/svg" xmlns:xlink="http://www.w3.org/1999/xlink" x="0px" y="0px"
	 width="32px" height="32px" viewBox="0 0 32 32" style="enable-background:new 0 0 32 32;" xml:space="preserve">
<g id="icon-s-edit">
	<rect id="icon-s-edit_1_" style="opacity:0;fill:#FFFFFF;" width="32" height="32"/>
	<g>
		<g>
			<path style="fill:#FFFFFF;" d="M20.185,8.43c-0.384-0.384-1.012-0.384-1.396,0L7.323,19.896c-0.384,0.384-0.77,1.137-0.858,1.672
				L6.35,22.271c-0.088,0.536,0.154,1.288,0.538,1.672l1.169,1.169c0.384,0.384,1.137,0.626,1.672,0.538l0.702-0.115
				c0.536-0.088,1.288-0.474,1.672-0.858L23.57,13.212c0.384-0.384,0.384-1.012,0-1.396L20.185,8.43z"/>
			<polygon style="opacity:0.6;fill:#FFFFFF;" points="7.162,20.479 4.745,27.255 11.523,24.84 			"/>
			<g style="opacity:0.6;">
				<path style="fill:#FFFFFF;" d="M22.887,13.897l2.588-2.588c0.768-0.768,0.858-1.934,0.2-2.592s-1.733-1.734-2.391-2.392
					s-1.823-0.568-2.591,0.2l-2.52,2.52"/>
			</g>
		</g>
	</g>
</g>
</svg>
