<?xml version="1.0" encoding="iso-8859-1"?>
<!-- Generator: Adobe Illustrator 17.0.1, SVG Export Plug-In . SVG Version: 6.00 Build 0)  -->
<!DOCTYPE svg PUBLIC "-//W3C//DTD SVG 1.1//EN" "http://www.w3.org/Graphics/SVG/1.1/DTD/svg11.dtd">
<svg version="1.1" id="Layer_1" xmlns="http://www.w3.org/2000/svg" xmlns:xlink="http://www.w3.org/1999/xlink" x="0px" y="0px"
	 width="96px" height="96px" viewBox="0 0 96 96" style="enable-background:new 0 0 96 96;" xml:space="preserve">
<g id="icon-l-add">
	<circle style="opacity:0.15;fill:#FFFFFF;" cx="48" cy="48.001" r="44"/>
	<g>
		<g style="opacity:0.6;">
			<path style="fill:#FFFFFF;" d="M47.998,74.949L47.998,74.949c-0.552,0-1-0.448-1-1L47,55.379c0-4.647,3.782-8.429,8.43-8.429
				l18.573,0c0.553,0,1,0.448,1,1s-0.447,1-1,1l-18.573,0c-3.545,0-6.43,2.884-6.43,6.429l-0.002,18.57
				C48.998,74.502,48.55,74.949,47.998,74.949z"/>
		</g>
		<path style="fill:#FFFFFF;" d="M40.568,49.05C40.568,49.05,40.568,49.05,40.568,49.05h-18.57c-0.552,0-1-0.448-1-1s0.448-1,1-1
			l0,0l18.569,0c0,0,0,0,0.001,0c1.708,0,3.32-0.671,4.539-1.889c1.219-1.218,1.89-2.831,1.89-4.54l0.001-18.571
			c0-0.552,0.448-1,1-1l0,0c0.552,0,1,0.448,1,1l-0.001,18.571c0,2.243-0.879,4.357-2.475,5.954
			C44.925,48.171,42.811,49.05,40.568,49.05z"/>
	</g>
	<rect id="icon-l-add_1_" style="opacity:0;fill:#FFFFFF;" width="96" height="96"/>
</g>
</svg>
