<?xml version="1.0" encoding="iso-8859-1"?>
<!-- Generator: Adobe Illustrator 17.0.1, SVG Export Plug-In . SVG Version: 6.00 Build 0)  -->
<!DOCTYPE svg PUBLIC "-//W3C//DTD SVG 1.1//EN" "http://www.w3.org/Graphics/SVG/1.1/DTD/svg11.dtd">
<svg version="1.1" id="Layer_1" xmlns="http://www.w3.org/2000/svg" xmlns:xlink="http://www.w3.org/1999/xlink" x="0px" y="0px"
	 width="64px" height="64px" viewBox="0 0 64 64" style="enable-background:new 0 0 64 64;" xml:space="preserve">
<g id="icon-m-refresh">
	<rect id="icon-m-refresh_1_" style="opacity:0;fill:#FFFFFF;" width="64" height="64"/>
	<path style="opacity:0.6;fill:#FFFFFF;" d="M31.997,51.563c-10.77,0-19.532-8.762-19.532-19.53
		c0-10.771,8.762-19.533,19.532-19.533c5.048,0,9.838,1.92,13.489,5.406c0.399,0.381,0.414,1.014,0.033,1.414
		c-0.382,0.4-1.015,0.415-1.414,0.033c-3.277-3.129-7.578-4.853-12.108-4.853c-9.667,0-17.532,7.865-17.532,17.533
		c0,9.666,7.865,17.53,17.532,17.53c4.098,0,8.086-1.447,11.23-4.076c0.426-0.354,1.056-0.296,1.409,0.126
		c0.354,0.424,0.298,1.055-0.126,1.409C41.006,49.951,36.563,51.563,31.997,51.563z"/>
	<path style="fill:#FFFFFF;" d="M39.586,27.713c-1.518,0-2.046-0.726-2.226-1.159s-0.321-1.321,0.753-2.399l10.665-10.704
		c0.583-0.585,1.18-0.882,1.774-0.882c0.823,0,1.785,0.615,1.789,2.35l0.016,9.15c0.002,0.964-0.374,1.874-1.058,2.56
		c-0.685,0.687-1.593,1.066-2.557,1.067L39.586,27.713z M39.4,25.707c0.054,0.004,0.115,0.007,0.186,0.007v1l0.004-1l9.149-0.016
		c0.431-0.001,0.836-0.171,1.144-0.479c0.307-0.308,0.476-0.715,0.475-1.145l-0.016-9.15c0-0.073-0.003-0.136-0.008-0.19
		c-0.041,0.035-0.088,0.078-0.14,0.129L39.529,25.567C39.479,25.618,39.436,25.665,39.4,25.707z"/>
</g>
</svg>
