<?xml version="1.0" encoding="iso-8859-1"?>
<!-- Generator: Adobe Illustrator 17.0.1, SVG Export Plug-In . SVG Version: 6.00 Build 0)  -->
<!DOCTYPE svg PUBLIC "-//W3C//DTD SVG 1.1//EN" "http://www.w3.org/Graphics/SVG/1.1/DTD/svg11.dtd">
<svg version="1.1" id="Layer_1" xmlns="http://www.w3.org/2000/svg" xmlns:xlink="http://www.w3.org/1999/xlink" x="0px" y="0px"
	 width="96px" height="96px" viewBox="0 0 96 96" style="enable-background:new 0 0 96 96;" xml:space="preserve">
<g id="icon-l-clear_2_">
	<circle style="opacity:0.15;fill:#FFFFFF;" cx="48" cy="48.001" r="44"/>
	<g>
		<g style="opacity:0.6;">
			<path style="fill:#FFFFFF;" d="M68.996,70.002c-0.256,0-0.512-0.098-0.707-0.293L53.292,54.708
				c-3.698-3.699-3.697-9.717,0.001-13.415l15-15.002c0.391-0.391,1.023-0.391,1.414,0c0.391,0.39,0.391,1.023,0,1.414l-15,15.002
				c-2.919,2.918-2.919,7.668-0.001,10.587l14.997,15.001c0.391,0.391,0.391,1.023,0,1.414
				C69.508,69.904,69.252,70.002,68.996,70.002z"/>
		</g>
		<path style="fill:#FFFFFF;" d="M27,70c-0.256,0-0.512-0.098-0.707-0.293c-0.391-0.391-0.391-1.023,0-1.414l15-14.998
			c2.918-2.919,2.919-7.667,0-10.586l-15-15.001c-0.391-0.391-0.391-1.023,0-1.414s1.023-0.391,1.414,0l15,15.001
			c3.698,3.698,3.698,9.716,0,13.414l-15,14.998C27.512,69.902,27.256,70,27,70z"/>
	</g>
	<rect id="icon-l-clear_3_" style="opacity:0;fill:#FFFFFF;" width="96" height="96"/>
</g>
</svg>
