<?xml version="1.0" encoding="iso-8859-1"?>
<!-- Generator: Adobe Illustrator 17.0.1, SVG Export Plug-In . SVG Version: 6.00 Build 0)  -->
<!DOCTYPE svg PUBLIC "-//W3C//DTD SVG 1.1//EN" "http://www.w3.org/Graphics/SVG/1.1/DTD/svg11.dtd">
<svg version="1.1" id="Layer_1" xmlns="http://www.w3.org/2000/svg" xmlns:xlink="http://www.w3.org/1999/xlink" x="0px" y="0px"
	 width="32px" height="32px" viewBox="0 0 32 32" style="enable-background:new 0 0 32 32;" xml:space="preserve">
<g id="icon-s-chat">
	<rect id="icon-s-chat_1_" style="opacity:0;fill:#FFFFFF;" width="32" height="32"/>
	<path style="fill:#FFFFFF;" d="M21.774,12.059c-0.05-0.001-4.347-0.002-4.398-0.002c-3.759,0-6.806,2.849-6.806,6.364
		c0,3.515,3.047,6.397,6.806,6.397l7.569-0.023c0.037,1.77,1.581,3.147,3.484,3.147v-3.157v-0.104v-6.26
		C28.43,14.954,25.464,12.134,21.774,12.059z"/>
	<path style="opacity:0.6;fill:#FFFFFF;" d="M10.226,6.059c0.05-0.001,4.347-0.002,4.398-0.002c3.759,0,6.806,2.849,6.806,6.364
		c0,3.515-3.047,6.397-6.806,6.397l-7.569-0.023c-0.037,1.77-1.581,3.147-3.484,3.147v-3.157v-0.104v-6.26
		C3.57,8.954,6.536,6.134,10.226,6.059z"/>
</g>
</svg>
