<?xml version="1.0" encoding="iso-8859-1"?>
<!-- Generator: Adobe Illustrator 17.0.1, SVG Export Plug-In . SVG Version: 6.00 Build 0)  -->
<!DOCTYPE svg PUBLIC "-//W3C//DTD SVG 1.1//EN" "http://www.w3.org/Graphics/SVG/1.1/DTD/svg11.dtd">
<svg version="1.1" id="Layer_1" xmlns="http://www.w3.org/2000/svg" xmlns:xlink="http://www.w3.org/1999/xlink" x="0px" y="0px"
	 width="64px" height="64px" viewBox="0 0 64 64" style="enable-background:new 0 0 64 64;" xml:space="preserve">
<g id="icon-m-forward_2_">
	<g style="opacity:0;">
		<rect id="icon-m-forward_1_" x="0.5" y="0.5" style="fill:#FFFFFF;" width="64" height="64.002"/>
		<path style="fill:#FFFFFF;" d="M65,65.002H0V0h65V65.002z M1,64.002h63V1H1V64.002z"/>
	</g>
	<path style="fill:#FFFFFF;" d="M24.749,52.839c-1.342,0-2.696-1.032-2.696-3.337v-34c0-2.305,1.354-3.337,2.697-3.337
		c0.702,0,1.434,0.255,2.173,0.758l24.279,16.502c1.146,0.778,1.803,1.899,1.803,3.075c0,1.176-0.656,2.297-1.802,3.077
		L26.922,52.08C26.182,52.583,25.451,52.839,24.749,52.839z M24.749,14.165c-0.629,0-0.697,0.935-0.697,1.337v34
		c0,0.402,0.068,1.337,0.696,1.337c0.286,0,0.658-0.146,1.049-0.413l24.279-16.503c0.598-0.406,0.927-0.911,0.927-1.422
		c0-0.51-0.329-1.015-0.927-1.421L25.798,14.578C25.407,14.312,25.035,14.165,24.749,14.165z"/>
	<path style="opacity:0.6;fill:#FFFFFF;" d="M23.052,33.501h-10c-0.552,0-1-0.447-1-1c0-0.552,0.448-1,1-1h10c0.552,0,1,0.448,1,1
		C24.052,33.054,23.604,33.501,23.052,33.501z"/>
</g>
</svg>
