<?xml version="1.0" encoding="iso-8859-1"?>
<!-- Generator: Adobe Illustrator 19.0.0, SVG Export Plug-In . SVG Version: 6.00 Build 0)  -->
<svg version="1.1" id="Layer_1" xmlns="http://www.w3.org/2000/svg" xmlns:xlink="http://www.w3.org/1999/xlink" x="0px" y="0px"
	 viewBox="0 0 32 32" style="enable-background:new 0 0 32 32;" xml:space="preserve">
<g id="icon-cover-search_2_">
	<rect id="icon-cover-search_3_" style="opacity:0;fill:#FFFFFF;" width="32" height="32"/>
	<path style="fill:#FFFFFF;" d="M14.037,1.1C6.892,1.1,1.1,6.892,1.1,14.037c0,7.144,5.792,12.936,12.937,12.936
		c7.145,0,12.937-5.792,12.937-12.936C26.974,6.892,21.182,1.1,14.037,1.1z M14.037,21.811c-4.294,0-7.774-3.48-7.774-7.774
		s3.48-7.774,7.774-7.774s7.774,3.48,7.774,7.774S18.331,21.811,14.037,21.811z"/>
	<g style="opacity:0.6;">
		<path style="fill:#FFFFFF;" d="M27.968,30.354c-0.638,0-1.275-0.243-1.762-0.73l-4.968-4.968c-0.973-0.973-0.973-2.551,0-3.524
			c0.973-0.973,2.551-0.973,3.524,0l4.968,4.968c0.973,0.973,0.973,2.55,0,3.524C29.243,30.111,28.605,30.354,27.968,30.354z"/>
	</g>
</g>
</svg>
