<?xml version="1.0" encoding="iso-8859-1"?>
<!-- Generator: Adobe Illustrator 17.0.1, SVG Export Plug-In . SVG Version: 6.00 Build 0)  -->
<!DOCTYPE svg PUBLIC "-//W3C//DTD SVG 1.1//EN" "http://www.w3.org/Graphics/SVG/1.1/DTD/svg11.dtd">
<svg version="1.1" id="Layer_1" xmlns="http://www.w3.org/2000/svg" xmlns:xlink="http://www.w3.org/1999/xlink" x="0px" y="0px"
	 width="64px" height="64px" viewBox="0 0 64 64" style="enable-background:new 0 0 64 64;" xml:space="preserve">
<g id="icon-m-like">
	<rect id="icon-m-like_1_" style="opacity:0;fill:#FFFFFF;" width="64" height="64"/>
	<path style="fill:#FFFFFF;" d="M24.298,30.459l2.19-0.057c1.099-0.027,2.512-0.791,3.136-1.695L44.285,7.449
		c0.625-0.904,1.632-0.895,2.238,0.023l1.122,1.699c0.606,0.918,0.813,2.52,0.457,3.563l-2.914,8.557
		c-0.355,1.043,0.202,2.197,1.238,2.568l11.453,4.108c1.036,0.371,1.579,1.523,1.207,2.559l-0.36,1.012
		c-0.371,1.035-1.193,2.148-1.828,2.471c-0.635,0.322-0.905,1.076-0.601,1.676c0.305,0.6,0.283,1.848-0.048,2.771
		c-0.331,0.924-1.125,1.947-1.764,2.271c-0.639,0.326-0.91,1.084-0.604,1.688c0.307,0.604,0.286,1.85-0.041,2.768
		c-0.328,0.918-1.124,1.938-1.767,2.266c-0.643,0.326-0.917,1.09-0.609,1.697c0.309,0.607,0.279,1.895-0.067,2.861
		c-0.346,0.969-1.51,1.574-2.586,1.348l-17.655-3.723c-1.076-0.226-2.831-0.199-3.9,0.063l-2.96,0.723V30.459z"/>
	<path style="opacity:0.6;fill:#FFFFFF;" d="M5.212,54.699c0,1.1,0.899,2,2,2h15.086c1.101,0,2-0.9,2-2V29.256c0-1.1-0.899-2-2-2
		H7.212c-1.101,0-2,0.9-2,2V54.699z"/>
</g>
</svg>
