<?xml version="1.0" encoding="iso-8859-1"?>
<!-- Generator: Adobe Illustrator 17.0.1, SVG Export Plug-In . SVG Version: 6.00 Build 0)  -->
<!DOCTYPE svg PUBLIC "-//W3C//DTD SVG 1.1//EN" "http://www.w3.org/Graphics/SVG/1.1/DTD/svg11.dtd">
<svg version="1.1" id="Layer_1" xmlns="http://www.w3.org/2000/svg" xmlns:xlink="http://www.w3.org/1999/xlink" x="0px" y="0px"
	 width="32px" height="32px" viewBox="0 0 32 32" style="enable-background:new 0 0 32 32;" xml:space="preserve">
<g id="icon-lock-system-update">
	<rect id="icon-lock-system-update_1_" style="opacity:0;fill:#FFFFFF;" width="32" height="32"/>
	<g>
		<path style="opacity:0.6;fill:#45DDEB;" d="M30.965,0H16c-1.105,0-2.183,0.112-3.224,0.325C5.484,1.816,0,8.268,0,16v14.965
			C0,30.965,0.343,32,1.047,32H16c1.657,0,3.255-0.252,4.758-0.719C27.271,29.255,32,23.18,32,16V1.07C32,0.366,31.669,0,30.965,0z"
			/>
		<g>
			<path style="fill:#FFFFFF;" d="M15.686,6.613V5.327c-5.818,0-10.535,4.717-10.535,10.535h1.286
				C6.437,10.762,10.586,6.613,15.686,6.613z"/>
			<path style="fill:#FFFFFF;" d="M15.686,4.249V2.963c-7.124,0-12.899,5.775-12.899,12.899h1.286
				C4.074,9.459,9.283,4.249,15.686,4.249z"/>
			<path style="fill:#FFFFFF;" d="M8.819,15.862c0-3.113,2.097-5.698,4.926-6.586c1.166-0.366,1.941-0.178,3.271-0.395
				c2.323-0.381,4.392-1.821,5.592-3.892c-0.361-0.231-0.733-0.446-1.118-0.64c-0.968,1.676-2.639,2.876-4.603,3.253
				c-1.147,0.221-2.321,0.081-3.523,0.442c-3.368,1.013-5.832,4.121-5.832,7.818c0,2.252,0.913,4.29,2.388,5.766l0.91-0.911
				C9.537,19.419,8.819,17.691,8.819,15.862z"/>
			<path style="fill:#FFFFFF;" d="M23.377,26.139c-0.793-2.84-3.095-4.962-5.882-5.626c-1.057-0.252-2.157-0.112-3.044-0.384
				c-1.842-0.564-3.207-2.246-3.207-4.267c0-2.449,1.993-4.442,4.442-4.442v-1.286c-3.164,0-5.728,2.564-5.728,5.728
				c0,2.56,1.679,4.727,3.996,5.462c1.068,0.338,2.197,0.195,3.226,0.434c2.551,0.591,4.554,2.629,5.073,5.206
				c0.394-0.234,0.775-0.489,1.141-0.762L23.377,26.139z"/>
		</g>
	</g>
</g>
</svg>
