<?xml version="1.0" encoding="iso-8859-1"?>
<!-- Generator: Adobe Illustrator 17.0.1, SVG Export Plug-In . SVG Version: 6.00 Build 0)  -->
<!DOCTYPE svg PUBLIC "-//W3C//DTD SVG 1.1//EN" "http://www.w3.org/Graphics/SVG/1.1/DTD/svg11.dtd">
<svg version="1.1" id="Layer_1" xmlns="http://www.w3.org/2000/svg" xmlns:xlink="http://www.w3.org/1999/xlink" x="0px" y="0px"
	 width="64px" height="64px" viewBox="0 0 64 64" style="enable-background:new 0 0 64 64;" xml:space="preserve">
<g id="icon-m-presence">
	<rect id="icon-m-presence_1_" style="opacity:0;fill:#FFFFFF;" width="64" height="64"/>
	<path style="fill:#FFFFFF;" d="M31.991,52.958c-11.557,0-20.958-9.402-20.958-20.958c0-11.557,9.402-20.959,20.958-20.959
		S52.95,20.443,52.95,32C52.95,43.556,43.548,52.958,31.991,52.958z M31.991,13.058c-10.445,0-18.942,8.498-18.942,18.942
		c0,10.444,8.497,18.941,18.942,18.941c10.444,0,18.942-8.497,18.942-18.941C50.934,21.555,42.436,13.058,31.991,13.058z"/>
	<path style="opacity:0.6;fill:#FFFFFF;" d="M31.991,44.443c-6.861,0-12.443-5.583-12.443-12.444
		c0-6.862,5.582-12.444,12.443-12.444S44.435,25.138,44.435,32C44.435,38.86,38.853,44.443,31.991,44.443z M31.991,21.643
		c-5.71,0-10.356,4.646-10.356,10.357c0,5.71,4.646,10.356,10.356,10.356c5.71,0,10.355-4.646,10.355-10.356
		C42.347,26.289,37.701,21.643,31.991,21.643z"/>
	<path style="opacity:0.6;fill:#FFFFFF;" d="M44.251,55.091l-0.221-0.024l-9.47-2.095h-5.477l-9.691,2.119
		c-6.278,0-10.663-4.352-10.663-10.583l0.024-0.219l2.095-9.55v-5.477L8.73,19.649c0-6.223,4.484-10.74,10.663-10.74l0.236,0.028
		l9.463,2.243h5.461l9.698-2.271c6.178,0,10.661,4.517,10.661,10.74l-0.024,0.222l-2.093,9.391v5.477l2.117,9.769
		C54.912,50.739,50.528,55.091,44.251,55.091z M10.776,44.616c0.05,4.934,3.529,8.38,8.508,8.43l9.688-2.119l5.92,0.024l9.468,2.095
		c4.979-0.05,8.456-3.497,8.507-8.43L50.75,34.85l0.024-5.922l2.093-9.388c-0.051-5.021-3.525-8.53-8.499-8.584l-9.696,2.27
		l-5.936-0.028l-9.46-2.242c-4.975,0.054-8.451,3.563-8.5,8.584l2.119,9.61l-0.024,5.919L10.776,44.616z"/>
	<rect x="11.822" y="28.999" style="opacity:0.6;fill:#FFFFFF;" width="8" height="6"/>
	<rect x="28.822" y="11.999" style="opacity:0.6;fill:#FFFFFF;" width="6" height="8"/>
	<rect x="43.822" y="28.999" style="opacity:0.6;fill:#FFFFFF;" width="8" height="6"/>
	<rect x="28.822" y="43.999" style="opacity:0.6;fill:#FFFFFF;" width="6" height="8"/>
</g>
</svg>
