<?xml version="1.0" encoding="iso-8859-1"?>
<!-- Generator: Adobe Illustrator 17.0.1, SVG Export Plug-In . SVG Version: 6.00 Build 0)  -->
<!DOCTYPE svg PUBLIC "-//W3C//DTD SVG 1.1//EN" "http://www.w3.org/Graphics/SVG/1.1/DTD/svg11.dtd">
<svg version="1.1" id="Layer_1" xmlns="http://www.w3.org/2000/svg" xmlns:xlink="http://www.w3.org/1999/xlink" x="0px" y="0px"
	 width="32px" height="32px" viewBox="0 0 32 32" style="enable-background:new 0 0 32 32;" xml:space="preserve">
<g id="icon-s-cloud-upload">
	<path style="opacity:0.5;fill:#FFFFFF;" d="M19.558,19.5h7.206c2.389,0,4.325-2.078,4.325-4.467c0-2.39-1.936-4.397-4.325-4.397
		c-0.124,0-0.24-0.009-0.359,0.001c0.229-0.527,0.359-1.126,0.359-1.737c0-2.39-1.937-4.334-4.326-4.334
		c-1.706,0-3.168,0.993-3.872,2.428c-1.228-2.086-3.49-3.491-6.087-3.491c-3.903,0-7.065,3.161-7.065,7.064
		c-2.389,0-4.326,2.078-4.326,4.467c0,2.389,1.937,4.466,4.326,4.466h7.476H19.558z"/>
	<rect id="icon-s-cloud-upload_1_" style="opacity:0;fill:#FFFFFF;" width="32" height="32"/>
	<g>
		<path style="fill:#FFFFFF;" d="M16.089,27.5c-0.552,0-1-0.447-1-1v-10c0-0.552,0.448-1,1-1s1,0.448,1,1v10
			C17.089,27.053,16.641,27.5,16.089,27.5z"/>
		<path style="fill:#FFFFFF;" d="M11.944,21.153c-0.55,0-0.747-0.372-0.438-0.827l3.999-5.883c0.309-0.455,0.815-0.455,1.124,0
			l3.998,5.883c0.309,0.455,0.112,0.827-0.438,0.827H11.944z"/>
	</g>
</g>
</svg>
