<?xml version="1.0" encoding="iso-8859-1"?>
<!-- Generator: Adobe Illustrator 17.0.1, SVG Export Plug-In . SVG Version: 6.00 Build 0)  -->
<!DOCTYPE svg PUBLIC "-//W3C//DTD SVG 1.1//EN" "http://www.w3.org/Graphics/SVG/1.1/DTD/svg11.dtd">
<svg version="1.1" id="Layer_1" xmlns="http://www.w3.org/2000/svg" xmlns:xlink="http://www.w3.org/1999/xlink" x="0px" y="0px"
	 width="64px" height="64px" viewBox="0 0 64 64" style="enable-background:new 0 0 64 64;" xml:space="preserve">
<g id="icon-m-enter-next">
	<rect id="icon-m-enter-next_1_" style="opacity:0;fill:#FFFFFF;" width="64" height="64"/>
	<g>
		<g>
			<path style="fill:#FFFFFF;" d="M33.931,25.07c0-1.65,0.955-2.045,2.122-0.878l6.686,6.687c1.167,1.167,1.166,3.076,0,4.243
				l-6.689,6.687c-1.167,1.167-2.121,0.771-2.121-0.879L33.931,25.07z"/>
			<g style="opacity:0.6;">
				<path style="fill:#FFFFFF;" d="M36.893,34H18.019c-0.552,0-1-0.447-1-1c0-0.552,0.448-1,1-1h18.874c0.553,0,1,0.448,1,1
					C37.893,33.553,37.445,34,36.893,34z"/>
			</g>
		</g>
	</g>
</g>
</svg>
