<?xml version="1.0" encoding="iso-8859-1"?>
<!-- Generator: Adobe Illustrator 19.0.0, SVG Export Plug-In . SVG Version: 6.00 Build 0)  -->
<svg version="1.1" id="Layer_1" xmlns="http://www.w3.org/2000/svg" xmlns:xlink="http://www.w3.org/1999/xlink" x="0px" y="0px"
	 viewBox="0 0 32 32" style="enable-background:new 0 0 32 32;" xml:space="preserve">
<g id="icon-cover-sync_2_">
	<rect id="icon-cover-sync_3_" style="opacity:0;fill:#FFFFFF;" width="32" height="32"/>
	<path style="opacity:0.4;fill:#FFFFFF;" d="M24.231,21.609c-1.796,2.628-4.815,4.358-8.231,4.358c-4.977,0-9.359-3.835-9.875-9.104
		h4.145c1.37,0,1.892-0.947,1.159-2.105L4.482,6.469C2.339,9.057,1.05,12.378,1.05,16c0,0.706,0.052,1.399,0.147,2.079
		C2.209,25.351,8.449,30.95,16,30.95c4.634,0,8.776-2.109,11.518-5.419L24.231,21.609z"/>
	<path style="fill:#FFFFFF;" d="M7.769,10.391C9.565,7.763,12.583,6.033,16,6.033c4.977,0,9.359,3.835,9.875,9.104h-4.145
		c-1.371,0-1.892,0.947-1.159,2.105l6.947,8.288c2.143-2.587,3.432-5.908,3.432-9.531c0-0.706-0.052-1.399-0.147-2.078
		C29.791,6.649,23.551,1.05,16,1.05c-4.634,0-8.776,2.109-11.518,5.419L7.769,10.391z"/>
</g>
</svg>
