<?xml version="1.0" encoding="iso-8859-1"?>
<!-- Generator: Adobe Illustrator 17.0.1, SVG Export Plug-In . SVG Version: 6.00 Build 0)  -->
<!DOCTYPE svg PUBLIC "-//W3C//DTD SVG 1.1//EN" "http://www.w3.org/Graphics/SVG/1.1/DTD/svg11.dtd">
<svg version="1.1" id="Layer_1" xmlns="http://www.w3.org/2000/svg" xmlns:xlink="http://www.w3.org/1999/xlink" x="0px" y="0px"
	 width="64px" height="64px" viewBox="0 0 64 64" style="enable-background:new 0 0 64 64;" xml:space="preserve">
<g id="icon-m-sounds">
	<rect id="icon-m-sounds_1_" style="opacity:0;fill:#FFFFFF;" width="64" height="64"/>
	<path style="fill:#FFFFFF;" d="M22.27,56.755c-4.434,0-7.652-2.954-7.652-7.024c0-4.638,4.234-9.306,9.438-10.407
		c0.755-0.16,1.508-0.241,2.24-0.241c4.435,0,7.653,2.955,7.653,7.025c0,4.638-4.233,9.307-9.437,10.406
		C23.757,56.674,23.002,56.755,22.27,56.755z M26.296,41.285c-0.579,0-1.179,0.064-1.784,0.192c-4.241,0.898-7.691,4.6-7.691,8.253
		c0,2.839,2.241,4.822,5.449,4.822c0.579,0,1.18-0.065,1.786-0.193c4.24-0.897,7.69-4.599,7.69-8.252
		C31.746,43.268,29.505,41.285,26.296,41.285z"/>
	<path style="opacity:0.6;fill:#FFFFFF;" d="M46,42.102c-0.001,0-0.002,0-0.003,0c-0.607-0.002-1.1-0.495-1.099-1.104v-0.001
		c0,0,0-0.001,0-0.002l0.008-4.619c-0.354-0.775-1.744-3.656-3.65-5.563l-8.034-8.034c-0.431-0.43-0.431-1.127,0-1.558
		c0.43-0.43,1.127-0.43,1.557,0l8.034,8.034c0.793,0.792,1.497,1.711,2.092,2.602c-0.001-0.737-0.003-1.461-0.006-2.146
		c-0.016-4.042-1.759-8.124-4.662-10.917c-4.581-4.407-7.032-6.837-7.057-6.862c-0.432-0.428-0.435-1.125-0.007-1.557
		c0.43-0.432,1.126-0.436,1.558-0.006c0.024,0.024,2.466,2.444,7.033,6.838c3.323,3.199,5.319,7.87,5.338,12.496
		c0.008,2.027,0.009,4.392,0.008,6.433c0,0.004,0,0.007,0,0.01v0.03c-0.002,2.615-0.008,4.689-0.008,4.821v0.006
		c0,0.001,0,0.001,0,0.001C47.1,41.61,46.606,42.102,46,42.102z"/>
	<g style="opacity:0.6;">
		<path style="fill:#FFFFFF;" d="M33,46.746c-0.608,0-1.102-0.493-1.102-1.102V6c0-0.608,0.493-1.102,1.102-1.102
			S34.102,5.392,34.102,6v39.645C34.102,46.253,33.608,46.746,33,46.746z"/>
	</g>
</g>
</svg>
