<?xml version="1.0" encoding="iso-8859-1"?>
<!-- Generator: Adobe Illustrator 17.0.1, SVG Export Plug-In . SVG Version: 6.00 Build 0)  -->
<!DOCTYPE svg PUBLIC "-//W3C//DTD SVG 1.1//EN" "http://www.w3.org/Graphics/SVG/1.1/DTD/svg11.dtd">
<svg version="1.1" id="Layer_1" xmlns="http://www.w3.org/2000/svg" xmlns:xlink="http://www.w3.org/1999/xlink" x="0px" y="0px"
	 width="32px" height="32px" viewBox="0 0 32 32" style="enable-background:new 0 0 32 32;" xml:space="preserve">
<g id="icon-lock-application-update">
	<rect id="icon-lock-application-update_1_" style="opacity:0;fill:#FFFFFF;" width="32" height="32"/>
	<g>
		<path style="fill:#1FBAA3;" d="M16,0C7.164,0,0,7.164,0,16c0,8.836,7.164,16,16,16s16-7.164,16-16C32,7.164,24.837,0,16,0z"/>
		<path style="fill:#FFFFFF;" d="M23.461,16.347l-6.671,9.757c-0.435,0.639-1.146,0.611-1.58-0.028l-6.671-9.714
			c-0.434-0.639-0.158-1.059,0.615-1.059h4.949V7.209c0-0.798,0.733-1.778,1.947-1.778c1.116,0,1.946,0.98,1.946,1.778v8.094h4.85
			C23.619,15.303,23.895,15.707,23.461,16.347z"/>
	</g>
</g>
</svg>
