<?xml version="1.0" encoding="iso-8859-1"?>
<!-- Generator: Adobe Illustrator 17.0.1, SVG Export Plug-In . SVG Version: 6.00 Build 0)  -->
<!DOCTYPE svg PUBLIC "-//W3C//DTD SVG 1.1//EN" "http://www.w3.org/Graphics/SVG/1.1/DTD/svg11.dtd">
<svg version="1.1" id="Layer_1" xmlns="http://www.w3.org/2000/svg" xmlns:xlink="http://www.w3.org/1999/xlink" x="0px" y="0px"
	 width="32px" height="32px" viewBox="0 0 32 32" style="enable-background:new 0 0 32 32;" xml:space="preserve">
<g id="icon-s-group-chat">
	<rect id="icon-s-group-chat_1_" style="opacity:0;fill:#FFFFFF;" width="32" height="32"/>
	<g>
		<path style="fill:#FFFFFF;" d="M19.82,14.442c0-1.244-1.018-2.262-2.262-2.262H6.799c-1.244,0-2.263,1.018-2.263,2.262v10.76
			c0,1.244,1.018,2.263,2.263,2.263h10.759c1.244,0,2.262-1.018,2.262-2.263V14.442z"/>
		<g style="opacity:0.6;">
			<path style="fill:#FFFFFF;" d="M27.464,6.8c0-1.244-1.018-2.262-2.263-2.262h-10.76c-1.244,0-2.262,1.018-2.262,2.262v10.758
				c0,1.244,1.018,2.263,2.262,2.263h10.76c1.244,0,2.263-1.018,2.263-2.263V6.8z"/>
		</g>
	</g>
</g>
</svg>
