<?xml version="1.0" encoding="iso-8859-1"?>
<!-- Generator: Adobe Illustrator 17.0.1, SVG Export Plug-In . SVG Version: 6.00 Build 0)  -->
<!DOCTYPE svg PUBLIC "-//W3C//DTD SVG 1.1//EN" "http://www.w3.org/Graphics/SVG/1.1/DTD/svg11.dtd">
<svg version="1.1" id="Layer_1" xmlns="http://www.w3.org/2000/svg" xmlns:xlink="http://www.w3.org/1999/xlink" x="0px" y="0px"
	 width="96px" height="96px" viewBox="0 0 96 96" style="enable-background:new 0 0 96 96;" xml:space="preserve">
<g id="icon-l-clock_2_">
	<rect id="icon-l-clock" style="opacity:0;fill:#FFFFFF;" width="96" height="96"/>
	<path style="opacity:0.6;fill:#FFFFFF;" d="M48,84.05c-19.878,0-36.051-16.172-36.051-36.05c0-19.879,16.173-36.053,36.051-36.053
		c19.879,0,36.051,16.173,36.051,36.053C84.051,67.878,67.879,84.05,48,84.05z M48,14.05c-18.719,0-33.949,15.23-33.949,33.95
		c0,18.719,15.229,33.948,33.949,33.948c18.72,0,33.949-15.229,33.949-33.948C81.949,29.28,66.72,14.05,48,14.05z"/>
	<path style="fill:#FFFFFF;" d="M63.749,59.619c-0.192,0-0.387-0.056-0.559-0.171l-15.75-10.621C47.165,48.642,47,48.331,47,47.999
		V20.625c0-0.552,0.448-1,1-1s1,0.448,1,1v26.842L64.31,57.79c0.457,0.309,0.578,0.931,0.27,1.389
		C64.386,59.465,64.07,59.619,63.749,59.619z"/>
</g>
</svg>
