<?xml version="1.0" encoding="iso-8859-1"?>
<!-- Generator: Adobe Illustrator 17.0.1, SVG Export Plug-In . SVG Version: 6.00 Build 0)  -->
<!DOCTYPE svg PUBLIC "-//W3C//DTD SVG 1.1//EN" "http://www.w3.org/Graphics/SVG/1.1/DTD/svg11.dtd">
<svg version="1.1" id="Layer_1" xmlns="http://www.w3.org/2000/svg" xmlns:xlink="http://www.w3.org/1999/xlink" x="0px" y="0px"
	 width="64px" height="64px" viewBox="0 0 64 64" style="enable-background:new 0 0 64 64;" xml:space="preserve">
<g id="icon-m-moon">
	<rect id="icon-m-moon_1_" style="opacity:0;fill:#FFFFFF;" width="64" height="64"/>
	<path style="fill:#FFFFFF;" d="M30,59c-3.218,0-6.37-0.599-9.367-1.779l-2.361-0.931l2.361-0.931C29.825,51.739,36,42.553,36,32.5
		S29.825,13.261,20.633,9.641L18.271,8.71l2.362-0.93C23.63,6.599,26.782,6,30,6c14.337,0,26,11.888,26,26.5S44.337,59,30,59z
		 M23.725,56.149C25.765,56.715,27.867,57,30,57c13.233,0,24-10.99,24-24.5C54,18.991,43.233,8,30,8
		c-2.133,0-4.235,0.286-6.275,0.851C32.357,13.318,38,22.516,38,32.5S32.357,51.681,23.725,56.149z"/>
</g>
</svg>
