<?xml version="1.0" encoding="iso-8859-1"?>
<!-- Generator: Adobe Illustrator 17.0.1, SVG Export Plug-In . SVG Version: 6.00 Build 0)  -->
<!DOCTYPE svg PUBLIC "-//W3C//DTD SVG 1.1//EN" "http://www.w3.org/Graphics/SVG/1.1/DTD/svg11.dtd">
<svg version="1.1" id="Layer_1" xmlns="http://www.w3.org/2000/svg" xmlns:xlink="http://www.w3.org/1999/xlink" x="0px" y="0px"
	 width="64px" height="64px" viewBox="0 0 64 64" style="enable-background:new 0 0 64 64;" xml:space="preserve">
<g id="icon-m-crop">
	<rect id="icon-m-crop_1_" style="opacity:0;fill:#FFFFFF;" width="64" height="64"/>
	<path style="fill:#FFFFFF;" d="M56,49.288H19.711c-2.757,0-5-2.243-5-5V8c0-0.552,0.448-1,1-1s1,0.448,1,1v36.288
		c0,1.654,1.346,3,3,3H56c0.553,0,1,0.447,1,1S56.553,49.288,56,49.288z"/>
	<path style="fill:#FFFFFF;" d="M48.288,57c-0.553,0-1-0.447-1-1V19.712c0-1.654-1.346-3-3-3H8c-0.552,0-1-0.448-1-1s0.448-1,1-1
		h36.288c2.757,0,5,2.243,5,5V56C49.288,56.553,48.841,57,48.288,57z"/>
	<path style="opacity:0.6;fill:#FFFFFF;" d="M17.315,47.686c-0.256,0-0.512-0.098-0.707-0.293c-0.391-0.391-0.391-1.023,0-1.414
		L55.293,7.293c0.391-0.391,1.023-0.391,1.414,0s0.391,1.023,0,1.414L18.022,47.393C17.827,47.588,17.571,47.686,17.315,47.686z"/>
</g>
</svg>
