<?xml version="1.0" encoding="iso-8859-1"?>
<!-- Generator: Adobe Illustrator 17.0.1, SVG Export Plug-In . SVG Version: 6.00 Build 0)  -->
<!DOCTYPE svg PUBLIC "-//W3C//DTD SVG 1.1//EN" "http://www.w3.org/Graphics/SVG/1.1/DTD/svg11.dtd">
<svg version="1.1" id="Layer_1" xmlns="http://www.w3.org/2000/svg" xmlns:xlink="http://www.w3.org/1999/xlink" x="0px" y="0px"
	 width="64px" height="64px" viewBox="0 0 64 64" style="enable-background:new 0 0 64 64;" xml:space="preserve">
<g id="icon-m-search">
	<rect id="icon-m-search_1_" style="opacity:0;fill:#FFFFFF;" width="64" height="64"/>
	<path style="opacity:0.6;fill:#FFFFFF;" d="M27.414,45.413c-9.926,0-18.001-8.074-18.001-18s8.075-18,18.001-18
		c9.925,0,17.999,8.075,17.999,18S37.339,45.413,27.414,45.413z M27.414,11.413c-8.823,0-16.001,7.178-16.001,16
		c0,8.822,7.178,16,16.001,16c8.822,0,15.999-7.178,15.999-16C43.413,18.591,36.236,11.413,27.414,11.413z"/>
	<path style="fill:#FFFFFF;" d="M51.162,54.899c-0.039,0-0.079-0.001-0.118-0.002c-1.037-0.03-2.02-0.458-2.764-1.203L37.243,42.658
		l1.414-1.414L49.694,52.28c0.383,0.383,0.883,0.603,1.407,0.618c0.493-0.006,0.964-0.162,1.3-0.497
		c0.713-0.713,0.658-1.927-0.121-2.707L41.243,38.658l1.414-1.414L53.694,48.28c1.559,1.561,1.613,4.043,0.121,5.535
		C53.114,54.517,52.176,54.899,51.162,54.899z"/>
</g>
</svg>
