<?xml version="1.0" encoding="iso-8859-1"?>
<!-- Generator: Adobe Illustrator 17.0.1, SVG Export Plug-In . SVG Version: 6.00 Build 0)  -->
<!DOCTYPE svg PUBLIC "-//W3C//DTD SVG 1.1//EN" "http://www.w3.org/Graphics/SVG/1.1/DTD/svg11.dtd">
<svg version="1.1" id="Layer_1" xmlns="http://www.w3.org/2000/svg" xmlns:xlink="http://www.w3.org/1999/xlink" x="0px" y="0px"
	 width="64px" height="64px" viewBox="0 0 64 64" style="enable-background:new 0 0 64 64;" xml:space="preserve">
<g id="icon-m-wlan-3_2_">
	<rect id="icon-m-wlan-3_3_" y="0" style="opacity:0;fill:#FFFFFF;" width="64" height="64"/>
	<path style="opacity:0.6;fill:#FFFFFF;" d="M32.134,52.327L32.134,52.327c-1.41,0-2.732-0.546-3.723-1.537L7.48,29.859
		c-1.957-1.957-2.047-5.122-0.205-7.204l0.087-0.087c6.861-6.061,15.659-9.399,24.771-9.399c9.109,0,17.904,3.334,24.765,9.388
		l0.085,0.085c1.848,2.077,1.767,5.241-0.186,7.204l-20.94,20.944C34.866,51.781,33.544,52.327,32.134,52.327z M8.735,24.025
		c-1.104,1.292-1.038,3.223,0.159,4.42l20.931,20.931c1.225,1.226,3.392,1.226,4.618,0.001l20.938-20.942
		c1.192-1.2,1.253-3.131,0.145-4.42c-6.487-5.705-14.792-8.845-23.393-8.845C23.531,15.17,15.224,18.314,8.735,24.025z"/>
	<g>
		<path style="fill:#FFFFFF;" d="M11.941,33.907c-0.24,0-0.481-0.086-0.673-0.261c-0.408-0.372-0.438-1.004-0.066-1.413
			c5.372-5.896,13-9.276,20.929-9.276c7.929,0,15.56,3.381,20.936,9.276c0.372,0.408,0.343,1.041-0.065,1.413
			c-0.406,0.372-1.039,0.345-1.413-0.065c-4.997-5.48-12.089-8.624-19.457-8.624c-7.368,0-14.457,3.143-19.45,8.624
			C12.483,33.797,12.213,33.907,11.941,33.907z"/>
		<path style="fill:#FFFFFF;" d="M46.331,39.903c-0.256,0-0.512-0.098-0.707-0.293c-3.602-3.604-8.394-5.59-13.491-5.59
			c-5.097,0-9.888,1.984-13.491,5.588c-0.391,0.391-1.023,0.391-1.414,0s-0.391-1.023,0-1.414c3.981-3.981,9.274-6.174,14.905-6.174
			c5.633,0,10.926,2.193,14.905,6.176c0.391,0.391,0.391,1.024,0,1.414C46.843,39.806,46.587,39.903,46.331,39.903z"/>
		<path style="fill:#FFFFFF;" d="M40.033,46.199c-0.256,0-0.512-0.098-0.707-0.293c-1.922-1.921-4.477-2.979-7.193-2.979
			c-2.715,0-5.269,1.059-7.193,2.979c-0.39,0.391-1.023,0.391-1.414,0c-0.39-0.391-0.39-1.024,0.001-1.414
			c2.301-2.3,5.357-3.565,8.606-3.565c3.252,0,6.309,1.267,8.607,3.565c0.391,0.391,0.391,1.023,0,1.414
			C40.545,46.102,40.289,46.199,40.033,46.199z"/>
	</g>
	<g>
		<path style="fill:#FFFFFF;" d="M32.134,52.329c-1.349,0-2.697-0.513-3.723-1.539L11.118,33.497l1.414-1.415l17.293,17.293
			c1.273,1.273,3.345,1.272,4.618,0.001l17.062-17.063l1.414,1.414L35.857,50.791C34.831,51.816,33.482,52.329,32.134,52.329z"/>
		<g>
			<path style="fill:#FFFFFF;" d="M11.941,33.907c-0.24,0-0.481-0.086-0.673-0.261c-0.408-0.372-0.438-1.004-0.066-1.413
				c5.372-5.896,13-9.276,20.929-9.276c7.929,0,15.56,3.381,20.936,9.276c0.372,0.408,0.343,1.041-0.065,1.413
				c-0.406,0.372-1.039,0.345-1.413-0.065c-4.997-5.48-12.089-8.624-19.457-8.624c-7.368,0-14.457,3.143-19.45,8.624
				C12.483,33.797,12.213,33.907,11.941,33.907z"/>
			<path style="fill:#FFFFFF;" d="M46.331,39.903c-0.256,0-0.512-0.098-0.707-0.293c-3.602-3.604-8.394-5.59-13.491-5.59
				c-5.097,0-9.888,1.984-13.491,5.588c-0.391,0.391-1.023,0.391-1.414,0s-0.391-1.023,0-1.414
				c3.981-3.981,9.274-6.174,14.905-6.174c5.633,0,10.926,2.193,14.905,6.176c0.391,0.391,0.391,1.024,0,1.414
				C46.843,39.806,46.587,39.903,46.331,39.903z"/>
			<path style="fill:#FFFFFF;" d="M40.033,46.199c-0.256,0-0.512-0.098-0.707-0.293c-1.922-1.921-4.477-2.979-7.193-2.979
				c-2.715,0-5.269,1.059-7.193,2.979c-0.39,0.391-1.023,0.391-1.414,0c-0.39-0.391-0.39-1.024,0.001-1.414
				c2.301-2.3,5.357-3.565,8.606-3.565c3.252,0,6.309,1.267,8.607,3.565c0.391,0.391,0.391,1.023,0,1.414
				C40.545,46.102,40.289,46.199,40.033,46.199z"/>
		</g>
	</g>
</g>
</svg>
