<?xml version="1.0" encoding="iso-8859-1"?>
<!-- Generator: Adobe Illustrator 17.0.1, SVG Export Plug-In . SVG Version: 6.00 Build 0)  -->
<!DOCTYPE svg PUBLIC "-//W3C//DTD SVG 1.1//EN" "http://www.w3.org/Graphics/SVG/1.1/DTD/svg11.dtd">
<svg version="1.1" id="Layer_1" xmlns="http://www.w3.org/2000/svg" xmlns:xlink="http://www.w3.org/1999/xlink" x="0px" y="0px"
	 width="32px" height="32px" viewBox="0 0 32 32" style="enable-background:new 0 0 32 32;" xml:space="preserve">
<g id="icon-s-invitation">
	<rect id="icon-s-invitation_1_" style="opacity:0;fill:#FFFFFF;" width="32" height="32"/>
	<g>
		<g>
			<g>
				<path style="opacity:0.6;fill:#FFFFFF;" d="M14.337,23.172L4.088,12.922V25.22c0,1.293,1.058,2.352,2.351,2.352h19.122
					c1.293,0,2.351-1.059,2.351-2.352V12.923L17.663,23.172C16.748,24.087,15.252,24.087,14.337,23.172z"/>
				<path style="opacity:0.3;fill:#FFFFFF;" d="M27.866,12.415c-0.085-0.437-0.295-0.826-0.587-1.141l-0.127-0.129l-9.49-9.489
					c-0.914-0.914-2.41-0.914-3.326,0l-9.494,9.496l-0.117,0.115c-0.293,0.315-0.505,0.708-0.591,1.147
					c-0.029,0.145-0.046,0.296-0.046,0.449v0.058l0.633,0.633l0.127,0.128l9.489,9.489c0.915,0.915,2.41,0.915,3.325,0l9.495-9.494
					l0.117-0.117l0.637-0.638v-0.059C27.912,12.711,27.895,12.56,27.866,12.415z"/>
			</g>
		</g>
		<g>
			<path style="fill:#FFFFFF;" d="M22.766,9.152H9.234c-0.648,0-1.175,0.53-1.175,1.176v6.565l6.278,6.278
				c0.915,0.915,2.41,0.915,3.325,0l6.278-6.278v-6.565C23.941,9.683,23.413,9.152,22.766,9.152z M11.41,17.558v-5.054h9.181v5.054
				H11.41z"/>
		</g>
	</g>
	<rect x="11.41" y="12.504" style="opacity:0.6;fill:#FFFFFF;" width="9.181" height="5.054"/>
</g>
</svg>
