<?xml version="1.0" encoding="iso-8859-1"?>
<!-- Generator: Adobe Illustrator 17.0.1, SVG Export Plug-In . SVG Version: 6.00 Build 0)  -->
<!DOCTYPE svg PUBLIC "-//W3C//DTD SVG 1.1//EN" "http://www.w3.org/Graphics/SVG/1.1/DTD/svg11.dtd">
<svg version="1.1" id="Layer_1" xmlns="http://www.w3.org/2000/svg" xmlns:xlink="http://www.w3.org/1999/xlink" x="0px" y="0px"
	 width="64px" height="64px" viewBox="0 0 64 64" style="enable-background:new 0 0 64 64;" xml:space="preserve">
<g id="icon-m-sailfish">
	<rect id="icon-m-sailfish_1_" style="opacity:0;fill:#FFFFFF;" width="64" height="64"/>
	<g>
		<g>
			<path style="fill:#FFFFFF;" d="M13.364,35.125c-0.552,0-1-0.447-1-1c0-12.315,10.019-22.335,22.334-22.335c0.553,0,1,0.448,1,1
				s-0.447,1-1,1c-11.212,0-20.334,9.122-20.334,20.335C14.364,34.678,13.916,35.125,13.364,35.125z"/>
			<path style="fill:#FFFFFF;" d="M8.578,35.125c-0.552,0-1-0.447-1-1C7.578,19.168,19.744,7,34.698,7c0.553,0,1,0.448,1,1
				s-0.447,1-1,1C20.847,9,9.578,20.271,9.578,34.125C9.578,34.678,9.13,35.125,8.578,35.125z"/>
			<path style="opacity:0.6;fill:#FFFFFF;" d="M23.025,46.799c-0.256,0-0.512-0.098-0.707-0.293
				c-3.309-3.309-5.131-7.705-5.131-12.381c0-7.792,5.032-14.541,12.521-16.792c1.524-0.458,2.988-0.545,4.404-0.63
				c0.987-0.06,1.919-0.115,2.833-0.292c3.657-0.704,6.809-2.929,8.646-6.105c0.275-0.478,0.886-0.644,1.366-0.365
				c0.478,0.276,0.642,0.888,0.364,1.366c-2.127,3.679-5.771,6.255-9.998,7.068c-1.041,0.201-2.083,0.264-3.091,0.324
				c-1.362,0.082-2.648,0.159-3.949,0.549c-6.637,1.995-11.097,7.974-11.097,14.876c0,4.142,1.614,8.036,4.545,10.967
				c0.391,0.391,0.391,1.023,0,1.414C23.537,46.701,23.281,46.799,23.025,46.799z"/>
			<path style="opacity:0.6;fill:#FFFFFF;" d="M47.999,57.605c-0.467,0-0.884-0.327-0.979-0.802
				c-0.972-4.819-4.709-8.651-9.521-9.764c-0.846-0.197-1.749-0.256-2.705-0.317c-1.271-0.081-2.583-0.165-3.901-0.585
				c-5.259-1.662-8.793-6.49-8.793-12.013c0-6.947,5.652-12.6,12.6-12.6c0.553,0,1,0.448,1,1s-0.447,1-1,1
				c-5.845,0-10.6,4.755-10.6,10.6c0,4.646,2.973,8.707,7.397,10.106c1.086,0.346,2.223,0.418,3.425,0.496
				c0.995,0.063,2.024,0.13,3.03,0.364c5.572,1.288,9.902,5.73,11.029,11.315c0.109,0.542-0.241,1.069-0.782,1.179
				C48.131,57.6,48.064,57.605,47.999,57.605z"/>
		</g>
	</g>
</g>
</svg>
