<?xml version="1.0" encoding="iso-8859-1"?>
<!-- Generator: Adobe Illustrator 17.0.1, SVG Export Plug-In . SVG Version: 6.00 Build 0)  -->
<!DOCTYPE svg PUBLIC "-//W3C//DTD SVG 1.1//EN" "http://www.w3.org/Graphics/SVG/1.1/DTD/svg11.dtd">
<svg version="1.1" id="Layer_1" xmlns="http://www.w3.org/2000/svg" xmlns:xlink="http://www.w3.org/1999/xlink" x="0px" y="0px"
	 width="64px" height="64px" viewBox="0 0 64 64" style="enable-background:new 0 0 64 64;" xml:space="preserve">
<g id="icon-m-mail">
	<g id="icon-m-mail_1_" style="opacity:0;">
		<rect style="fill:#FFFFFF;" width="64" height="64"/>
	</g>
	<g>
		<g>
			<path style="fill:#FFFFFF;" d="M53.865,50h-44c-1.654,0-3-1.346-3-3V17c0-1.654,1.346-3,3-3h44c1.654,0,3,1.346,3,3v30
				C56.865,48.654,55.52,50,53.865,50z M9.865,16c-0.551,0-1,0.449-1,1v30c0,0.552,0.449,1,1,1h44c0.552,0,1-0.448,1-1V17
				c0-0.551-0.448-1-1-1H9.865z"/>
		</g>
		<g>
			<g style="opacity:0.5;">
				<path style="fill:#FFFFFF;" d="M32.206,37.221c-0.799,0-1.556-0.286-2.131-0.805L8.679,17.083
					c-0.976-0.882-0.872-1.662-0.723-2.048C8.104,14.648,8.55,14,9.865,14h44c1.311,0,1.762,0.648,1.913,1.034
					c0.152,0.387,0.264,1.168-0.696,2.061L34.374,36.383C33.795,36.923,33.024,37.221,32.206,37.221z M10.463,16l20.952,18.932
					c0.415,0.375,1.187,0.368,1.595-0.012L53.323,16H10.463z"/>
			</g>
		</g>
	</g>
</g>
</svg>
