<?xml version="1.0" encoding="iso-8859-1"?>
<!-- Generator: Adobe Illustrator 17.0.1, SVG Export Plug-In . SVG Version: 6.00 Build 0)  -->
<!DOCTYPE svg PUBLIC "-//W3C//DTD SVG 1.1//EN" "http://www.w3.org/Graphics/SVG/1.1/DTD/svg11.dtd">
<svg version="1.1" id="Layer_1" xmlns="http://www.w3.org/2000/svg" xmlns:xlink="http://www.w3.org/1999/xlink" x="0px" y="0px"
	 width="64px" height="64px" viewBox="0 0 64 64" style="enable-background:new 0 0 64 64;" xml:space="preserve">
<g id="icon-m-menu_2_">
	<rect id="icon-m-menu" style="opacity:0;fill:#FFFFFF;" width="64" height="64.002"/>
	<path style="fill:#FFFFFF;" d="M52,13.167H12c-0.645,0-1.167-0.522-1.167-1.167s0.522-1.167,1.167-1.167h40
		c0.645,0,1.167,0.522,1.167,1.167S52.645,13.167,52,13.167z"/>
	<path style="opacity:0.6;fill:#FFFFFF;" d="M52,27.167H12c-0.645,0-1.167-0.522-1.167-1.167s0.522-1.167,1.167-1.167h40
		c0.645,0,1.167,0.522,1.167,1.167S52.645,27.167,52,27.167z"/>
	<path style="opacity:0.6;fill:#FFFFFF;" d="M52,40.167H12c-0.645,0-1.167-0.522-1.167-1.167s0.522-1.167,1.167-1.167h40
		c0.645,0,1.167,0.522,1.167,1.167S52.645,40.167,52,40.167z"/>
	<path style="opacity:0.6;fill:#FFFFFF;" d="M52,53.167H12c-0.645,0-1.167-0.522-1.167-1.167s0.522-1.167,1.167-1.167h40
		c0.645,0,1.167,0.522,1.167,1.167S52.645,53.167,52,53.167z"/>
</g>
</svg>
