<?xml version="1.0" encoding="iso-8859-1"?>
<!-- Generator: Adobe Illustrator 17.0.1, SVG Export Plug-In . SVG Version: 6.00 Build 0)  -->
<!DOCTYPE svg PUBLIC "-//W3C//DTD SVG 1.1//EN" "http://www.w3.org/Graphics/SVG/1.1/DTD/svg11.dtd">
<svg version="1.1" id="Layer_1" xmlns="http://www.w3.org/2000/svg" xmlns:xlink="http://www.w3.org/1999/xlink" x="0px" y="0px"
	 width="32px" height="32px" viewBox="0 0 32 32" style="enable-background:new 0 0 32 32;" xml:space="preserve">
<g id="icon-s-alarm">
	<rect id="icon-s-alarm_1_" style="opacity:0;fill:#FFFFFF;" width="32" height="32"/>
	<g>
		<path style="fill:#FFFFFF;" d="M12.816,29c-0.521,0-0.959-0.403-0.997-0.931c-0.13-1.858-0.925-3.604-2.238-4.915l-3.648-4.359
			C2.125,14.994,1.974,9.311,5.641,5.642c1.803-1.802,4.17-2.735,6.652-2.634c2.411,0.101,4.743,1.161,6.567,2.985l4.226,3.53
			c1.377,1.371,3.124,2.166,4.985,2.299c0.551,0.04,0.966,0.518,0.926,1.069c-0.039,0.55-0.506,0.963-1.068,0.926
			c-2.341-0.167-4.539-1.168-6.191-2.819l-4.226-3.53c-1.534-1.529-3.394-2.382-5.302-2.461c-1.911-0.081-3.752,0.647-5.154,2.049
			c-2.861,2.863-2.71,7.33,0.352,10.391l3.648,4.358c1.594,1.586,2.596,3.784,2.76,6.126c0.039,0.551-0.377,1.028-0.928,1.067
			C12.863,28.999,12.84,29,12.816,29z"/>
	</g>
	<g>
		<path style="opacity:0.4;fill:#FFFFFF;" d="M12.817,29c-0.261,0-0.522-0.102-0.719-0.305c-0.384-0.396-0.374-1.03,0.023-1.414
			l5.049-4.886c0.393-0.379,1.016-0.375,1.402,0.012c1.057,1.057,2.777,1.058,3.834-0.001c0.513-0.512,0.795-1.192,0.795-1.917
			c0-0.723-0.282-1.402-0.794-1.913c-0.387-0.386-0.393-1.011-0.013-1.403l4.886-5.049c0.385-0.397,1.017-0.408,1.414-0.023
			c0.396,0.384,0.407,1.017,0.023,1.414l-4.272,4.415c0.491,0.755,0.755,1.637,0.756,2.56c0,1.259-0.49,2.442-1.381,3.332
			c-1.599,1.598-4.067,1.806-5.892,0.623l-4.417,4.274C13.319,28.906,13.068,29,12.817,29z"/>
	</g>
</g>
</svg>
