<?xml version="1.0" encoding="iso-8859-1"?>
<!-- Generator: Adobe Illustrator 17.0.1, SVG Export Plug-In . SVG Version: 6.00 Build 0)  -->
<!DOCTYPE svg PUBLIC "-//W3C//DTD SVG 1.1//EN" "http://www.w3.org/Graphics/SVG/1.1/DTD/svg11.dtd">
<svg version="1.1" id="Layer_1" xmlns="http://www.w3.org/2000/svg" xmlns:xlink="http://www.w3.org/1999/xlink" x="0px" y="0px"
	 width="32px" height="32px" viewBox="0 0 32 32" style="enable-background:new 0 0 32 32;" xml:space="preserve">
<g id="icon-s-attach">
	<rect id="icon-s-attach_1_" style="opacity:0;fill:#FFFFFF;" width="32" height="32"/>
	<path style="fill:#FFFFFF;" d="M14.438,27.755c-0.256,0-0.512-0.098-0.707-0.293c-0.391-0.391-0.391-1.023,0-1.414l10.784-10.784
		c1.039-1.039,1.611-2.42,1.611-3.889c0-1.469-0.572-2.851-1.611-3.89c-2.146-2.145-5.635-2.144-7.778,0L5.953,18.269
		c-1.299,1.3-1.299,3.415,0,4.715c1.301,1.299,3.415,1.301,4.714,0L21.182,12.47c0.505-0.504,0.504-1.326-0.001-1.831
		c-0.504-0.504-1.326-0.504-1.83,0L8.836,21.153c-0.391,0.391-1.023,0.391-1.414,0s-0.391-1.023,0-1.414L17.937,9.225
		c1.244-1.244,3.414-1.244,4.658,0c1.285,1.285,1.285,3.375,0.001,4.659L12.081,24.397c-2.078,2.08-5.461,2.08-7.542,0
		c-2.079-2.08-2.079-5.463,0-7.543L15.322,6.071c2.924-2.924,7.683-2.924,10.606,0c1.417,1.417,2.197,3.3,2.197,5.304
		s-0.78,3.887-2.197,5.303L15.145,27.462C14.95,27.657,14.694,27.755,14.438,27.755z"/>
</g>
</svg>
