<?xml version="1.0" encoding="iso-8859-1"?>
<!-- Generator: Adobe Illustrator 17.0.1, SVG Export Plug-In . SVG Version: 6.00 Build 0)  -->
<!DOCTYPE svg PUBLIC "-//W3C//DTD SVG 1.1//EN" "http://www.w3.org/Graphics/SVG/1.1/DTD/svg11.dtd">
<svg version="1.1" id="Layer_1" xmlns="http://www.w3.org/2000/svg" xmlns:xlink="http://www.w3.org/1999/xlink" x="0px" y="0px"
	 width="32px" height="32px" viewBox="0 0 32 32" style="enable-background:new 0 0 32 32;" xml:space="preserve">
<g id="icon-s-like">
	<rect id="icon-s-like_1_" style="opacity:0;fill:#FFFFFF;" width="32" height="32"/>
	<path style="fill:#FFFFFF;" d="M12.149,15.23l1.095-0.028c0.549-0.014,1.256-0.396,1.568-0.848l7.331-10.629
		c0.313-0.452,0.816-0.447,1.119,0.012l0.561,0.85c0.303,0.459,0.406,1.26,0.229,1.781l-1.457,4.278
		c-0.178,0.521,0.101,1.099,0.619,1.284l5.726,2.054c0.518,0.186,0.79,0.762,0.604,1.279l-0.18,0.506
		c-0.186,0.517-0.597,1.074-0.914,1.235c-0.317,0.161-0.453,0.538-0.3,0.838c0.152,0.3,0.142,0.924-0.024,1.386
		c-0.166,0.462-0.563,0.974-0.882,1.136c-0.319,0.163-0.455,0.542-0.302,0.844c0.153,0.302,0.143,0.925-0.021,1.384
		c-0.164,0.459-0.562,0.969-0.883,1.133c-0.322,0.163-0.458,0.545-0.305,0.849c0.155,0.304,0.14,0.947-0.034,1.431
		c-0.173,0.484-0.755,0.787-1.293,0.674l-8.828-1.861c-0.538-0.113-1.415-0.1-1.95,0.031l-1.48,0.361V15.23z"/>
	<path style="opacity:0.4;fill:#FFFFFF;" d="M2.606,27.35c0,0.55,0.45,1,1,1h7.543c0.55,0,1-0.45,1-1V14.628c0-0.55-0.45-1-1-1
		H3.606c-0.55,0-1,0.45-1,1V27.35z"/>
</g>
</svg>
