<?xml version="1.0" encoding="iso-8859-1"?>
<!-- Generator: Adobe Illustrator 17.0.1, SVG Export Plug-In . SVG Version: 6.00 Build 0)  -->
<!DOCTYPE svg PUBLIC "-//W3C//DTD SVG 1.1//EN" "http://www.w3.org/Graphics/SVG/1.1/DTD/svg11.dtd">
<svg version="1.1" id="Layer_1" xmlns="http://www.w3.org/2000/svg" xmlns:xlink="http://www.w3.org/1999/xlink" x="0px" y="0px"
	 width="64px" height="64px" viewBox="0 0 64 64" style="enable-background:new 0 0 64 64;" xml:space="preserve">
<g id="icon-m-cloud-download">
	<path style="opacity:0.6;fill:#FFFFFF;" d="M52.196,39.003H12.159c-4.938,0-9.111-4.294-9.111-9.376
		c0-4.747,3.639-8.806,8.142-9.322c0.488-7.417,6.679-13.302,14.219-13.302c4.471,0,8.696,2.146,11.374,5.69
		c1.695-2.313,4.37-3.696,7.3-3.696c5.025,0,9.113,4.095,9.113,9.128c0,0.766-0.099,1.538-0.289,2.284
		c4.692,0.369,8.399,4.362,8.399,9.218C61.307,34.709,57.135,39.003,52.196,39.003z M12.159,22.25c-3.854,0-7.111,3.378-7.111,7.377
		c0,3.998,3.256,7.376,7.111,7.376h40.037c3.854,0,7.11-3.378,7.11-7.377c0-3.995-3.189-7.246-7.11-7.246l-0.443-0.007
		c-0.05,0-0.099,0.001-0.147,0.005l-1.664,0.139l0.663-1.532c0.388-0.895,0.592-1.883,0.592-2.86c0-3.93-3.191-7.128-7.113-7.128
		c-2.717,0-5.154,1.53-6.36,3.993l-0.817,1.667l-0.942-1.6c-2.201-3.735-6.245-6.055-10.554-6.055
		c-6.755,0-12.25,5.494-12.25,12.247v1H12.159z"/>
	<rect id="icon-m-cloud-download_1_" style="opacity:0;fill:#FFFFFF;" width="64" height="64"/>
	<g>
		<path style="fill:#FFFFFF;" d="M32,45.433c-0.552,0-1-0.447-1-1V29c0-0.552,0.448-1,1-1s1,0.448,1,1v15.433
			C33,44.985,32.552,45.433,32,45.433z"/>
		<path style="fill:#FFFFFF;" d="M39.222,45.878L32,56.504l-7.222-10.626H39.222 M41,43.878H23c-1.1,0-1.494,0.744-0.876,1.654
			l8.752,12.875c0.309,0.455,0.717,0.682,1.124,0.682c0.408,0,0.815-0.227,1.124-0.682l8.751-12.875
			C42.494,44.622,42.1,43.878,41,43.878L41,43.878z"/>
	</g>
</g>
</svg>
