<?xml version="1.0" encoding="iso-8859-1"?>
<!-- Generator: Adobe Illustrator 17.0.1, SVG Export Plug-In . SVG Version: 6.00 Build 0)  -->
<!DOCTYPE svg PUBLIC "-//W3C//DTD SVG 1.1//EN" "http://www.w3.org/Graphics/SVG/1.1/DTD/svg11.dtd">
<svg version="1.1" id="Layer_1" xmlns="http://www.w3.org/2000/svg" xmlns:xlink="http://www.w3.org/1999/xlink" x="0px" y="0px"
	 width="64px" height="64px" viewBox="0 0 64 64" style="enable-background:new 0 0 64 64;" xml:space="preserve">
<g id="icon-m-tablet">
	<rect id="icon-m-tablet_1_" style="opacity:0;fill:#FFFFFF;" width="64" height="64"/>
	<path style="fill:#FFFFFF;" d="M52.019,50.986H11.981c-2.739,0-4.967-2.229-4.967-4.968V19.981c0-2.739,2.229-4.967,4.967-4.967
		h40.038c2.739,0,4.968,2.229,4.968,4.967v26.038C56.986,48.758,54.758,50.986,52.019,50.986z M11.981,16.986
		c-1.651,0-2.995,1.343-2.995,2.995v26.038c0,1.651,1.343,2.995,2.995,2.995h40.038c1.651,0,2.995-1.344,2.995-2.995V19.981
		c0-1.651-1.344-2.995-2.995-2.995H11.981z"/>
	<g style="opacity:0.6;">
		<path style="fill:#FFFFFF;" d="M46.97,46.982H16.897c-1.625,0-2.946-1.322-2.946-2.946V21.964c0-1.625,1.321-2.946,2.946-2.946
			H46.97c1.624,0,2.946,1.321,2.946,2.946v22.072C49.916,45.66,48.594,46.982,46.97,46.982z M16.897,20.982
			c-0.542,0-0.982,0.44-0.982,0.982v22.072c0,0.541,0.44,0.981,0.982,0.981H46.97c0.541,0,0.981-0.44,0.981-0.981V21.964
			c0-0.542-0.44-0.982-0.981-0.982H16.897z"/>
	</g>
</g>
</svg>
