<?xml version="1.0" encoding="iso-8859-1"?>
<!-- Generator: Adobe Illustrator 17.0.1, SVG Export Plug-In . SVG Version: 6.00 Build 0)  -->
<!DOCTYPE svg PUBLIC "-//W3C//DTD SVG 1.1//EN" "http://www.w3.org/Graphics/SVG/1.1/DTD/svg11.dtd">
<svg version="1.1" id="Layer_1" xmlns="http://www.w3.org/2000/svg" xmlns:xlink="http://www.w3.org/1999/xlink" x="0px" y="0px"
	 width="64px" height="64px" viewBox="0 0 64 64" style="enable-background:new 0 0 64 64;" xml:space="preserve">
<g id="icon-m-airplane-mode">
	<rect id="icon-m-airplane-mode_1_" style="opacity:0;fill:#FFFFFF;" width="64" height="64"/>
	<g>
		<path style="opacity:0.6;fill:#FFFFFF;" d="M41.891,58.091c-0.117,0-0.234-0.012-0.349-0.035l-9.077-1.885
			c-0.003-0.001-0.333-0.071-0.486-0.08c-0.111,0.01-0.437,0.08-0.445,0.082l-9.076,1.883c-0.86,0.173-1.739-0.339-1.988-1.136
			l-0.798-2.51c-0.234-0.768,0.111-1.657,0.799-2.08l6.23-3.825c0.165-0.101,0.309-0.219,0.391-0.3v-7.793L9.488,43.243
			c-0.785,0-1.46-0.56-1.604-1.33l-0.854-4.594c-0.145-0.761,0.271-1.604,0.966-1.956l19.097-9.634l0-10.108
			c0-0.395,0.049-1.001,0.111-1.381c0.194-1.22,1.339-7.328,4.751-7.331c3.502,0,4.65,6.11,4.846,7.334
			c0.062,0.386,0.11,0.991,0.11,1.377v10.11L56,35.363c0.698,0.349,1.109,1.166,0.976,1.942l-0.86,4.605
			c-0.137,0.768-0.812,1.331-1.604,1.331l0,0l-0.254-0.021l-17.35-2.805v7.789c0.082,0.081,0.227,0.199,0.391,0.3l6.229,3.824
			c0.685,0.413,1.032,1.303,0.802,2.066l-0.796,2.526C43.308,57.614,42.633,58.091,41.891,58.091z M21.629,53.966l0.664,2.087
			l8.836-1.839c0.273-0.056,0.645-0.123,0.871-0.123c0.224,0,0.595,0.065,0.867,0.12l8.845,1.837l0.656-2.082l-6.113-3.754
			c-0.499-0.305-1.342-0.946-1.347-1.801v-8.555c0.002-0.855,0.666-1.523,1.511-1.523l0.257,0.021l17.539,2.836l0.767-4.101
			l-18.976-9.58c-0.637-0.321-1.098-1.07-1.096-1.781V15.621c0-0.282-0.04-0.778-0.085-1.062c-0.381-2.369-1.56-5.65-2.782-5.65
			c-1.31,0.001-2.486,3.282-2.866,5.65c-0.045,0.279-0.085,0.774-0.085,1.063v10.109c0,0.701-0.457,1.449-1.086,1.778L9.02,37.087
			l0.765,4.108l17.797-2.862c0.842,0,1.505,0.666,1.51,1.517v8.557c-0.004,0.811-0.733,1.427-1.344,1.803L21.629,53.966z"/>
		<path style="fill:#FFFFFF;" d="M31.999,56.091c-0.278,0-0.543-0.115-0.732-0.319c-0.308-0.331-3.03-3.292-3.725-5.206
			C27.392,50.149,27,48.529,27,47.332v-31.71c0-0.396,0.05-1.005,0.114-1.386c0.199-1.219,1.369-7.324,4.838-7.327
			c3.562,0,4.735,6.107,4.936,7.331C36.951,14.635,37,15.228,37,15.621v31.711c0,1.221-0.395,2.832-0.544,3.238
			c-0.695,1.908-3.417,4.87-3.725,5.201C32.542,55.975,32.277,56.091,31.999,56.091z M32.043,8.909
			c-1.359,0.001-2.57,3.284-2.956,5.653C29.041,14.841,29,15.334,29,15.622v31.71c0,0.937,0.339,2.321,0.423,2.554
			c0.358,0.986,1.646,2.616,2.576,3.7c0.931-1.085,2.219-2.716,2.579-3.704C34.66,49.66,35,48.269,35,47.332V15.621
			c0-0.28-0.04-0.775-0.087-1.059C34.523,12.193,33.309,8.909,32.043,8.909z"/>
	</g>
</g>
</svg>
