<?xml version="1.0" encoding="iso-8859-1"?>
<!-- Generator: Adobe Illustrator 17.0.1, SVG Export Plug-In . SVG Version: 6.00 Build 0)  -->
<!DOCTYPE svg PUBLIC "-//W3C//DTD SVG 1.1//EN" "http://www.w3.org/Graphics/SVG/1.1/DTD/svg11.dtd">
<svg version="1.1" id="Layer_1" xmlns="http://www.w3.org/2000/svg" xmlns:xlink="http://www.w3.org/1999/xlink" x="0px" y="0px"
	 width="32px" height="32px" viewBox="0 0 32 32" style="enable-background:new 0 0 32 32;" xml:space="preserve">
<g id="icon-s-timer">
	<rect id="icon-s-timer_1_" style="opacity:0;fill:#FFFFFF;" width="32" height="32"/>
	<g>
		<path style="opacity:0.4;fill:#FFFFFF;" d="M16,28.146C9.303,28.146,3.854,22.697,3.854,16c0-5.948,4.427-11.109,10.297-12.006
			l1.065-0.163L15.3,4.905c0.029,0.375,0.33,0.658,0.7,0.658c0.364,0,0.67-0.288,0.698-0.656l0.081-1.076l1.067,0.163
			C23.717,4.891,28.145,10.052,28.145,16C28.145,22.697,22.696,28.146,16,28.146z M13.623,6.134C9.14,7.217,5.854,11.316,5.854,16
			c0,5.595,4.551,10.146,10.146,10.146c5.594,0,10.145-4.551,10.145-10.146c0-4.683-3.285-8.783-7.768-9.865
			c-0.46,0.852-1.36,1.429-2.377,1.429C14.984,7.563,14.083,6.986,13.623,6.134z"/>
		<path style="fill:#FFFFFF;" d="M13.804,5.017c-0.008-0.069-0.013-0.115-0.013-0.162c0-1.218,0.991-2.209,2.209-2.209
			c1.218,0,2.209,0.991,2.209,2.209l-0.013,0.151l-0.999-0.069l0.009-0.074c0.003-0.675-0.54-1.217-1.206-1.217
			s-1.209,0.542-1.209,1.209L13.804,5.017z"/>
	</g>
	<g>
		<g>
			<path style="fill:#FFFFFF;" d="M16,7.563c-1.402,0-2.585-1.1-2.694-2.504L15.3,4.905c0.029,0.375,0.33,0.658,0.7,0.658
				c0.364,0,0.67-0.288,0.698-0.656l1.994,0.15C18.587,6.463,17.404,7.563,16,7.563z"/>
			<path style="fill:#FFFFFF;" d="M18.691,5.078l-1.992-0.186l0.013-0.101C16.709,4.463,16.391,4.146,16,4.146
				s-0.709,0.318-0.709,0.709l0.009,0.06L13.305,5.05c-0.008-0.061-0.014-0.127-0.014-0.196c0-1.494,1.215-2.709,2.709-2.709
				c1.494,0,2.709,1.215,2.709,2.709L18.691,5.078z"/>
		</g>
		<path style="fill:#FFFFFF;" d="M16,17c-0.256,0-0.512-0.098-0.707-0.293L6.429,7.844c-0.391-0.391-0.391-1.023,0-1.414
			s1.023-0.391,1.414,0l8.864,8.863c0.391,0.391,0.391,1.023,0,1.414C16.512,16.902,16.256,17,16,17z"/>
	</g>
</g>
</svg>
