<?xml version="1.0" encoding="iso-8859-1"?>
<!-- Generator: Adobe Illustrator 17.0.1, SVG Export Plug-In . SVG Version: 6.00 Build 0)  -->
<!DOCTYPE svg PUBLIC "-//W3C//DTD SVG 1.1//EN" "http://www.w3.org/Graphics/SVG/1.1/DTD/svg11.dtd">
<svg version="1.1" id="Layer_1" xmlns="http://www.w3.org/2000/svg" xmlns:xlink="http://www.w3.org/1999/xlink" x="0px" y="0px"
	 width="32px" height="32px" viewBox="0 0 32 32" style="enable-background:new 0 0 32 32;" xml:space="preserve">
<g id="icon-s-jolla">
	<rect id="icon-s-jolla_1_" style="opacity:0;fill:#FFFFFF;" width="32" height="32"/>
	<path style="fill:#FFFFFF;" d="M29.235,14.755c-0.026-0.052-0.064-0.114-0.135-0.115c-0.062-0.006-0.13,0.038-0.205,0.13
		c0,0-1.5,2.581-2.8,2.134c-0.286-0.098-0.39-0.257-0.389-0.298c0.001-0.201,0.092-0.544,0.205-0.741
		c0.021-0.038,0.483-0.85,0.649-1.473c0.138-0.516,0.202-1.338-0.184-1.493c-0.078-0.034-0.135-0.048-0.176-0.05
		c-0.01,0-0.05-0.001-0.083,0.034c-0.092,0.099-0.235,0.203-0.339,0.156c-0.142-0.063-0.438-0.098-0.762-0.054
		c-0.953,0.127-2.135,1.043-2.875,2.815c-0.028,0.037-0.949,0.976-1.335,0.962c-0.04-0.067-0.094-0.27-0.055-0.702
		c0.028-0.37,0.131-1.01,0.45-1.966h0.002c3.221-3.454,4.802-5.942,4.571-7.2c-0.055-0.307-0.223-0.539-0.482-0.666
		c-0.083-0.039-0.192-0.05-0.272-0.05c-0.24,0-1.107,0.092-2.172,1.261c-1.119,1.228-2.066,3.207-2.815,5.879
		c-0.114,0.418-0.221,0.819-0.314,1.196c-0.208,0.193-0.414,0.394-0.613,0.585c-0.795,0.774-1.621,1.575-2.031,1.575
		c-0.044,0-0.082-0.015-0.114-0.037c-0.031-0.036-0.109-0.275-0.044-0.901c0.066-0.59,0.235-1.319,0.484-2.057
		c3.209-3.442,4.731-5.777,4.52-6.941c-0.059-0.305-0.228-0.533-0.5-0.666c-0.083-0.04-0.192-0.051-0.271-0.051
		c-0.238,0-1.107,0.092-2.172,1.262c-1.118,1.225-2.062,3.195-2.808,5.855c-0.091,0.115-0.512,0.496-0.761,0.65
		c-0.055-0.43-0.416-0.76-0.786-0.848c-0.086-0.017-0.175-0.031-0.263-0.031c-0.483,0-0.93,0.301-1.305,0.593
		c-0.449,0.349-0.967,0.814-1.403,1.596c-0.588,1.06-1.072,2.774-0.306,3.272c0.174,0.115,0.366,0.171,0.571,0.171h0.002
		c1.04,0,2.141-1.452,2.476-2.011c0.36-0.591,0.717-1.365,0.904-1.862c0.176-0.055,0.372-0.149,0.552-0.247
		c-0.442,1.871-0.466,3.032-0.07,3.536c0.15,0.196,0.356,0.297,0.616,0.297c0.403,0,0.835-0.245,1.125-0.428
		c0.286-0.18,0.957-0.785,1.864-1.681c-0.105,0.817-0.03,1.37,0.229,1.681c0.153,0.184,0.362,0.277,0.623,0.277
		c0.291,0,0.603-0.121,0.867-0.26c0.356-0.173,0.651-0.367,0.669-0.385c0.071-0.058,0.15-0.088,0.22-0.085
		c0.076,0.002,0.139,0.038,0.17,0.106c0.013,0.027,0.436,0.711,0.915,0.711c0.8,0,1.338-0.602,1.373-0.629
		c0.059-0.05,0.127-0.077,0.187-0.075c0.076,0.003,0.132,0.073,0.185,0.139c0.091,0.115,0.542,0.5,1.058,0.523
		c0.798,0.031,1.568-0.338,2.265-1.084c0.221-0.239,1.169-1.67,1.17-1.866C29.31,15.082,29.287,14.864,29.235,14.755z M24.141,7.453
		c0.407,1.432-1.488,3.842-2.473,5.03C22.271,10.533,23.666,8.214,24.141,7.453z M20.266,7.284c0.421,1.404-1.435,3.577-2.423,4.715
		C18.438,10.094,19.798,7.98,20.266,7.284z M13.415,16.331c-0.247,0.26-0.485,0.415-0.647,0.415c-0.02,0-0.04,0-0.057-0.01
		c-0.161-0.052-0.26-0.172-0.302-0.371c-0.098-0.459,0.131-1.129,0.315-1.508c0.079,0.131,0.211,0.256,0.428,0.33
		c0.122,0.04,0.25,0.061,0.38,0.061c0.211,0,0.4-0.053,0.559-0.115C14.015,15.498,13.755,15.969,13.415,16.331z M25.201,14.663
		c-0.003,0.006-0.495,1.394-0.621,1.571c-0.105,0.15-0.466,0.501-0.863,0.452c-0.22-0.025-0.666-0.397-0.486-0.944
		c0.329-1.018,1.078-1.658,1.608-1.66C25.245,14.079,25.271,14.468,25.201,14.663z M10.951,11.183
		c-0.146,0.165-0.362,0.264-0.58,0.264l0,0c-0.286,0-0.517-0.159-0.634-0.44c-0.194-0.454-0.3-0.979,0.37-1.442
		c0.075-0.052,0.155-0.078,0.237-0.078c0.343,0,0.603,0.45,0.7,0.643C11.257,10.562,11.231,10.869,10.951,11.183z M10.29,17.156
		c0.125-0.357,0.24-0.681,0.343-0.967c0.401-1.106,0.622-1.72,0.606-2.241c-0.015-0.504-0.26-0.931-0.613-1.057
		c-0.067-0.019-0.135-0.034-0.205-0.034c-0.266,0-0.484,0.16-0.591,0.301c-0.138,0.176-0.099,0.416-0.059,0.646
		c0.016,0.099,0.034,0.205,0.039,0.306c0.016,0.582-0.348,2.073-0.551,2.584c-0.169,0.422-1.823,1.724-2.126,1.945
		c-1.142,0.835-3.187,2.517-4.07,4.422c-0.722,1.563-0.187,2.368-0.123,2.455l0.004,0.004c0.275,0.38,0.632,0.459,0.882,0.459l0,0
		c0.281,0,0.59-0.097,0.926-0.287c1.353-0.774,3.676-4.125,4.63-6.325c0.057-0.135,0.335-0.713,0.411-0.801
		c0.025-0.034,0.111-0.085,0.197-0.132c0.116-0.071,0.249-0.149,0.312-0.226c0.112-0.135,0.216-0.423,0.016-0.624
		c-0.148-0.146-0.105-0.24-0.057-0.355C10.27,17.204,10.281,17.18,10.29,17.156z M4.012,23.547
		c-0.098-0.452,0.619-1.496,1.158-2.093l0.02-0.021c0.578-0.64,0.927-1.022,1.722-1.637c0.727-0.561,1.057-0.703,1.203-0.729
		c-0.078,0.213-0.191,0.481-0.451,0.91c-1.108,1.824-2.634,3.79-3.362,3.79c-0.047,0-0.091-0.01-0.129-0.026
		C4.085,23.703,4.033,23.641,4.012,23.547z"/>
</g>
</svg>
