<?xml version="1.0" encoding="iso-8859-1"?>
<!-- Generator: Adobe Illustrator 17.0.1, SVG Export Plug-In . SVG Version: 6.00 Build 0)  -->
<!DOCTYPE svg PUBLIC "-//W3C//DTD SVG 1.1//EN" "http://www.w3.org/Graphics/SVG/1.1/DTD/svg11.dtd">
<svg version="1.1" id="Layer_1" xmlns="http://www.w3.org/2000/svg" xmlns:xlink="http://www.w3.org/1999/xlink" x="0px" y="0px"
	 width="64px" height="64px" viewBox="0 0 64 64" style="enable-background:new 0 0 64 64;" xml:space="preserve">
<g id="icon-m-backapce">
	<rect id="icon-m-backapce_1_" style="opacity:0;fill:#FFFFFF;" width="64" height="64"/>
	<g style="opacity:0.2;">
		<path style="fill:#FFFFFF;" d="M60.188,13.998c0-1.969-1.611-3.58-3.58-3.58h-34.23c-1.969,0-4.648,1.206-5.954,2.679
			L2.562,28.739c-1.306,1.473-1.306,3.885,0,5.358l13.862,15.642c1.306,1.473,3.985,2.679,5.954,2.679h34.23
			c1.969,0,3.58-1.611,3.58-3.58V13.998z"/>
	</g>
	<g style="opacity:0.6;">
		<path style="fill:#FFFFFF;" d="M48.647,44c-0.256,0-0.512-0.098-0.707-0.293l-6.755-6.757c-2.729-2.729-2.729-7.171,0-9.9
			l6.758-6.757c0.391-0.391,1.023-0.391,1.414,0s0.391,1.023,0,1.414L42.6,28.464c-1.949,1.95-1.949,5.122,0,7.072l6.755,6.757
			c0.391,0.391,0.391,1.023,0,1.414C49.159,43.902,48.903,44,48.647,44z"/>
	</g>
	<path style="fill:#FFFFFF;" d="M26.65,44c-0.256,0-0.512-0.098-0.707-0.293c-0.391-0.391-0.391-1.023,0-1.414l6.758-6.758
		c1.949-1.949,1.949-5.121,0-7.071l-6.758-6.757c-0.391-0.391-0.391-1.023,0-1.414s1.023-0.391,1.414,0l6.758,6.757
		c2.729,2.729,2.729,7.17,0,9.899l-6.758,6.758C27.162,43.902,26.906,44,26.65,44z"/>
</g>
</svg>
