<?xml version="1.0" encoding="iso-8859-1"?>
<!-- Generator: Adobe Illustrator 17.0.1, SVG Export Plug-In . SVG Version: 6.00 Build 0)  -->
<!DOCTYPE svg PUBLIC "-//W3C//DTD SVG 1.1//EN" "http://www.w3.org/Graphics/SVG/1.1/DTD/svg11.dtd">
<svg version="1.1" id="Layer_1" xmlns="http://www.w3.org/2000/svg" xmlns:xlink="http://www.w3.org/1999/xlink" x="0px" y="0px"
	 width="64px" height="64px" viewBox="0 0 64 64" style="enable-background:new 0 0 64 64;" xml:space="preserve">
<g id="icon-m-car">
	<rect id="icon-m-car_1_" style="opacity:0;fill:#FFFFFF;" width="64" height="64"/>
	<g>
		<path style="opacity:0.6;fill:#FFFFFF;" d="M53.825,52.169h-5.997c-1.156,0-2.097-0.94-2.097-2.096v-5.225h5.51
			c1.461,0,2.662-1.189,2.678-2.651l2,0.011l0.001,7.865C55.92,51.229,54.98,52.169,53.825,52.169z M47.731,46.849v3.225
			c0,0.05,0.046,0.096,0.097,0.096h5.997c0.05,0,0.095-0.046,0.095-0.096v-4.074c-0.761,0.535-1.686,0.85-2.679,0.85H47.731z"/>
		<path style="opacity:0.6;fill:#FFFFFF;" d="M16.001,52.169h-6c-1.155,0-2.095-0.94-2.095-2.096l0.013-8.007l0.893,0.137
			l1.097-0.007c0.017,1.463,1.219,2.652,2.681,2.652h5.508v5.225C18.097,51.229,17.157,52.169,16.001,52.169z M9.906,45.996v4.077
			c0,0.05,0.045,0.096,0.095,0.096h6c0.05,0,0.095-0.046,0.095-0.096v-3.225h-3.508C11.593,46.849,10.667,46.533,9.906,45.996z"/>
		<path style="fill:#FFFFFF;" d="M51.241,46.849H12.588c-2.582,0-4.683-2.1-4.683-4.681V32.085c0-1.002,0.178-2.288,0.49-3.593
			C7.298,28.287,6,27.736,6,26.166c0-1.973,2.232-4.384,4.837-4.384h0.461l2.441-4.589c1.129-2.12,3.894-3.781,6.293-3.781h23.763
			c2.401,0,5.165,1.661,6.292,3.781l2.442,4.589h0.633c2.604,0,4.837,2.411,4.837,4.384c0,1.64-1.384,2.172-2.56,2.358
			c0.306,1.29,0.479,2.563,0.479,3.561v10.083C55.92,44.749,53.821,46.849,51.241,46.849z M10.837,23.782
			C9.284,23.782,8,25.36,8,26.166c0,0.229,0.657,0.404,1.714,0.458l1.273,0.064l-0.366,1.221c-0.449,1.499-0.716,3.06-0.716,4.176
			v10.083c0,1.479,1.204,2.681,2.683,2.681h38.653c1.477,0,2.679-1.202,2.679-2.681V32.085c0-1.12-0.266-2.678-0.711-4.168
			l-0.369-1.234l1.287-0.051C55.282,26.586,56,26.407,56,26.166c0-0.806-1.284-2.384-2.837-2.384h-1.834l-3.007-5.65
			c-0.771-1.449-2.886-2.72-4.526-2.72H20.033c-1.64,0-3.756,1.271-4.528,2.721l-3.006,5.649H10.837z"/>
		<circle style="opacity:0.6;fill:#FFFFFF;" cx="17.032" cy="36.067" r="3.327"/>
		<circle style="opacity:0.6;fill:#FFFFFF;" cx="46.317" cy="36.067" r="3.327"/>
	</g>
</g>
</svg>
