<?xml version="1.0" encoding="iso-8859-1"?>
<!-- Generator: Adobe Illustrator 19.0.0, SVG Export Plug-In . SVG Version: 6.00 Build 0)  -->
<svg version="1.1" id="Layer_1" xmlns="http://www.w3.org/2000/svg" xmlns:xlink="http://www.w3.org/1999/xlink" x="0px" y="0px"
	 viewBox="0 0 32 32" style="enable-background:new 0 0 32 32;" xml:space="preserve">
<g id="icon-cover-new_2_">
	<rect id="icon-cover-new_3_" style="opacity:0;fill:#FFFFFF;" width="32" height="32"/>
	<path style="fill:#FFFFFF;" d="M16,1.051c-8.257,0-14.95,6.694-14.95,14.95c0,8.257,6.693,14.95,14.95,14.95
		s14.95-6.693,14.95-14.95C30.95,7.745,24.257,1.051,16,1.051z M24.736,18.618h-4.251c-1.028,0-1.869,0.841-1.869,1.869v4.251
		c0,1.028-0.841,1.869-1.869,1.869h-1.495c-1.028,0-1.869-0.841-1.869-1.869v-4.251c0-1.028-0.841-1.869-1.869-1.869H7.264
		c-1.028,0-1.869-0.841-1.869-1.869v-1.495c0-1.028,0.841-1.869,1.869-1.869h4.251c1.028,0,1.869-0.841,1.869-1.869V7.265
		c0-1.028,0.841-1.869,1.869-1.869h1.495c1.028,0,1.869,0.841,1.869,1.869v4.251c0,1.028,0.841,1.869,1.869,1.869h4.251
		c1.028,0,1.869,0.841,1.869,1.869v1.495C26.605,17.777,25.764,18.618,24.736,18.618z"/>
</g>
</svg>
