<?xml version="1.0" encoding="iso-8859-1"?>
<!-- Generator: Adobe Illustrator 17.0.1, SVG Export Plug-In . SVG Version: 6.00 Build 0)  -->
<!DOCTYPE svg PUBLIC "-//W3C//DTD SVG 1.1//EN" "http://www.w3.org/Graphics/SVG/1.1/DTD/svg11.dtd">
<svg version="1.1" id="Layer_1" xmlns="http://www.w3.org/2000/svg" xmlns:xlink="http://www.w3.org/1999/xlink" x="0px" y="0px"
	 width="96px" height="96px" viewBox="0 0 96 96" style="enable-background:new 0 0 96 96;" xml:space="preserve">
<g id="icon-l-people">
	<rect id="icon-l-people_1_" style="opacity:0;fill:#FFFFFF;" width="96" height="96"/>
	<g>
		<g>
			<path style="opacity:0.5;fill:#FFFFFF;" d="M78,18.75H18c-3.314,0-6,2.687-6,6v43.783v1.217c0,3.313,2.686,6,6,6h6.376
				c0-13.047,10.577-23.624,23.624-23.624c13.048,0,23.624,10.577,23.624,23.624H78c3.313,0,6-2.687,6-6V44.343V24.75
				C84,21.437,81.313,18.75,78,18.75z"/>
			<path style="opacity:0.6;fill:#FFFFFF;" d="M48,52.126c-13.047,0-23.624,10.577-23.624,23.624h47.248
				C71.624,62.703,61.048,52.126,48,52.126z"/>
			<path style="opacity:0.6;fill:#FFFFFF;" d="M48,52.126c-13.047,0-23.624,10.577-23.624,23.624h47.248
				C71.624,62.703,61.048,52.126,48,52.126z"/>
		</g>
		<circle style="fill:#FFFFFF;" cx="48" cy="40.972" r="14.718"/>
	</g>
</g>
</svg>
