<?xml version="1.0" encoding="iso-8859-1"?>
<!-- Generator: Adobe Illustrator 17.0.1, SVG Export Plug-In . SVG Version: 6.00 Build 0)  -->
<!DOCTYPE svg PUBLIC "-//W3C//DTD SVG 1.1//EN" "http://www.w3.org/Graphics/SVG/1.1/DTD/svg11.dtd">
<svg version="1.1" id="Layer_1" xmlns="http://www.w3.org/2000/svg" xmlns:xlink="http://www.w3.org/1999/xlink" x="0px" y="0px"
	 width="64px" height="64px" viewBox="0 0 64 64" style="enable-background:new 0 0 64 64;" xml:space="preserve">
<g id="icon-m-events_3_">
	<rect id="icon-m-events" style="opacity:0;fill:#FFFFFF;" width="64" height="64"/>
	<path style="fill:#FFFFFF;" d="M24,32c0,1.65-1.35,3-3,3l0,0c-1.65,0-3-1.35-3-3l0,0c0-1.65,1.35-3,3-3l0,0
		C22.65,29,24,30.35,24,32L24,32z"/>
	<g style="opacity:0.6;">
		<path style="fill:#FFFFFF;" d="M24,43c0,1.65-1.35,3-3,3l0,0c-1.65,0-3-1.35-3-3l0,0c0-1.65,1.35-3,3-3l0,0
			C22.65,40,24,41.35,24,43L24,43z"/>
	</g>
	<path style="fill:#FFFFFF;" d="M46,32.962H30c-0.531,0-0.962-0.431-0.962-0.962s0.431-0.962,0.962-0.962h16
		c0.531,0,0.962,0.431,0.962,0.962S46.531,32.962,46,32.962z"/>
	<path style="opacity:0.6;fill:#FFFFFF;" d="M46,43.962H30c-0.531,0-0.962-0.431-0.962-0.962s0.431-0.962,0.962-0.962h16
		c0.531,0,0.962,0.431,0.962,0.962S46.531,43.962,46,43.962z"/>
	<g style="opacity:0.6;">
		<path style="fill:#FFFFFF;" d="M48.684,54.001H15.24c-2.359,0-4.279-1.917-4.279-4.273V14.272c0-2.356,1.92-4.273,4.279-4.273
			h33.444c2.359,0,4.278,1.917,4.278,4.273v35.455C52.962,52.084,51.043,54.001,48.684,54.001z M15.24,12.001
			c-1.256,0-2.277,1.019-2.277,2.271v35.455c0,1.253,1.021,2.271,2.277,2.271h33.444c1.255,0,2.276-1.019,2.276-2.271V14.272
			c0-1.252-1.021-2.271-2.276-2.271H15.24z"/>
	</g>
	<rect x="12.961" y="21.024" style="opacity:0.6;fill:#FFFFFF;" width="38" height="1.951"/>
</g>
</svg>
