<?xml version="1.0" encoding="iso-8859-1"?>
<!-- Generator: Adobe Illustrator 17.0.1, SVG Export Plug-In . SVG Version: 6.00 Build 0)  -->
<!DOCTYPE svg PUBLIC "-//W3C//DTD SVG 1.1//EN" "http://www.w3.org/Graphics/SVG/1.1/DTD/svg11.dtd">
<svg version="1.1" id="Layer_1" xmlns="http://www.w3.org/2000/svg" xmlns:xlink="http://www.w3.org/1999/xlink" x="0px" y="0px"
	 width="64px" height="64px" viewBox="0 0 64 64" style="enable-background:new 0 0 64 64;" xml:space="preserve">
<g id="icon-m-media">
	<rect id="icon-m-media_1_" style="opacity:0;fill:#FFFFFF;" width="64" height="64"/>
	<path style="opacity:0.6;fill:#FFFFFF;" d="M32,56.5C18.491,56.5,7.5,45.51,7.5,32S18.491,7.5,32,7.5C45.51,7.5,56.5,18.49,56.5,32
		S45.51,56.5,32,56.5z M32,9.5C19.593,9.5,9.5,19.593,9.5,32c0,12.406,10.093,22.5,22.5,22.5c12.406,0,22.5-10.094,22.5-22.5
		C54.5,19.593,44.406,9.5,32,9.5z"/>
	<path style="fill:#FFFFFF;" d="M27.958,44.432c-1.193,0-2.585-0.857-2.585-3.273V22.841c0-2.416,1.393-3.273,2.585-3.273
		c0.72,0,1.469,0.284,2.228,0.843l11.402,8.41c1.103,0.813,1.734,1.972,1.734,3.18s-0.633,2.366-1.734,3.178l-11.402,8.41
		C29.426,44.148,28.677,44.432,27.958,44.432z M27.957,21.567c-0.543,0-0.585,0.975-0.585,1.273v18.317
		c0,0.299,0.042,1.273,0.585,1.273c0.271,0,0.65-0.165,1.04-0.452l11.402-8.41c0.595-0.438,0.922-0.996,0.922-1.569
		s-0.327-1.131-0.922-1.57l-11.402-8.41C28.607,21.732,28.229,21.567,27.957,21.567z"/>
</g>
</svg>
