<?xml version="1.0" encoding="iso-8859-1"?>
<!-- Generator: Adobe Illustrator 17.0.1, SVG Export Plug-In . SVG Version: 6.00 Build 0)  -->
<!DOCTYPE svg PUBLIC "-//W3C//DTD SVG 1.1//EN" "http://www.w3.org/Graphics/SVG/1.1/DTD/svg11.dtd">
<svg version="1.1" id="Layer_1" xmlns="http://www.w3.org/2000/svg" xmlns:xlink="http://www.w3.org/1999/xlink" x="0px" y="0px"
	 width="32px" height="32px" viewBox="0 0 32 32" style="enable-background:new 0 0 32 32;" xml:space="preserve">
<g id="icon-s-low-importance">
	<rect id="icon-s-low-importance_1_" style="opacity:0;fill:#FFFFFF;" width="32" height="32"/>
	<path style="opacity:0.6;fill:#FFFFFF;" d="M23.012,16.078l-6.269,9.165c-0.408,0.604-1.076,0.575-1.483-0.024L8.99,16.092
		c-0.409-0.604-0.148-0.997,0.578-0.997h4.663V7.53c0-0.751,0.793-1.596,1.769-1.596s1.768,0.845,1.768,1.596v7.564h4.664
		C23.157,15.095,23.419,15.479,23.012,16.078z"/>
	<path style="fill:#FFFFFF;" d="M17.769,15.095h4.664c0.725,0,0.986,0.384,0.579,0.983l-6.269,9.165
		c-0.408,0.604-1.076,0.575-1.483-0.024L8.99,16.092c-0.409-0.604-0.148-0.997,0.578-0.997h4.663"/>
</g>
</svg>
