<?xml version="1.0" encoding="iso-8859-1"?>
<!-- Generator: Adobe Illustrator 17.0.1, SVG Export Plug-In . SVG Version: 6.00 Build 0)  -->
<!DOCTYPE svg PUBLIC "-//W3C//DTD SVG 1.1//EN" "http://www.w3.org/Graphics/SVG/1.1/DTD/svg11.dtd">
<svg version="1.1" id="Layer_1" xmlns="http://www.w3.org/2000/svg" xmlns:xlink="http://www.w3.org/1999/xlink" x="0px" y="0px"
	 width="32px" height="32px" viewBox="0 0 32 32" style="enable-background:new 0 0 32 32;" xml:space="preserve">
<g id="icon-s-developer">
	<rect id="icon-s-developer_1_" style="opacity:0;fill:#FFFFFF;" width="31.97" height="32"/>
	<g>
		<path style="opacity:0.5;fill:#FFFFFF;" d="M6.213,28.639c-1.53,0-2.485-0.564-3.043-1.093c-0.644-0.608-1.373-1.751-1.187-3.735
			c0.167-1.782,0.222-2.442,0.29-3.262l0.125-1.474c0.038-0.436-0.006-1.05-0.428-1.494c-0.333-0.351-0.852-0.549-1.511-0.58
			C0.319,17.006,0.176,17.005,0.03,17v-1.999c0.146-0.005,0.288-0.006,0.427-0.002c0.66-0.031,1.178-0.229,1.511-0.58
			c0.422-0.444,0.466-1.057,0.428-1.493l-0.124-1.47c-0.068-0.821-0.123-1.481-0.291-3.266C1.796,6.206,2.525,5.063,3.169,4.454
			c0.679-0.641,1.943-1.335,4.113-1.008L6.983,5.423C5.912,5.26,5.044,5.432,4.542,5.908C3.96,6.458,3.91,7.351,3.971,8.002
			c0.169,1.797,0.224,2.46,0.293,3.287l0.123,1.463c0.104,1.195-0.24,2.277-0.971,3.045C3.349,15.868,3.28,15.936,3.207,16
			c0.072,0.065,0.142,0.132,0.209,0.203c0.73,0.769,1.075,1.85,0.971,3.046l-0.124,1.466c-0.069,0.824-0.124,1.489-0.292,3.283
			c-0.061,0.651-0.012,1.544,0.57,2.095c0.502,0.474,1.371,0.647,2.442,0.484l0.299,1.977C6.898,28.612,6.542,28.639,6.213,28.639z"
			/>
		<path style="opacity:0.5;fill:#FFFFFF;" d="M25.817,28.639c-0.329,0-0.685-0.026-1.069-0.085l0.299-1.977
			c1.074,0.159,1.939-0.011,2.443-0.484c0.581-0.551,0.63-1.443,0.569-2.095c-0.168-1.794-0.223-2.459-0.292-3.283l-0.124-1.466
			c-0.103-1.196,0.241-2.278,0.972-3.046c0.066-0.071,0.137-0.138,0.209-0.203c-0.072-0.064-0.142-0.132-0.209-0.203
			c-0.731-0.768-1.075-1.85-0.972-3.045l0.124-1.463c0.068-0.826,0.124-1.49,0.292-3.287c0.062-0.652,0.013-1.544-0.569-2.095
			c-0.504-0.476-1.366-0.648-2.443-0.484l-0.299-1.977c2.176-0.328,3.435,0.367,4.113,1.008c0.644,0.609,1.373,1.751,1.187,3.735
			c-0.168,1.786-0.222,2.445-0.291,3.266l-0.125,1.47c-0.038,0.436,0.006,1.049,0.428,1.494c0.334,0.351,0.852,0.549,1.511,0.58
			c0.141-0.004,0.283-0.003,0.427,0.002V17c-0.144,0.005-0.286,0.006-0.427,0.001c-0.66,0.031-1.178,0.23-1.511,0.58
			c-0.422,0.444-0.466,1.059-0.428,1.495l0.125,1.473c0.068,0.819,0.123,1.479,0.291,3.262c0.185,1.984-0.543,3.126-1.187,3.735
			C28.303,28.074,27.348,28.639,25.817,28.639z"/>
		<path style="fill:#FFFFFF;" d="M25.908,14.809c-0.096-0.568-0.644-1.009-1.218-0.98l-1.239,0.061
			c-0.574,0.028-1.279-0.356-1.567-0.854l-0.416-0.722c-0.288-0.498-0.268-1.302,0.044-1.785l0.672-1.043
			c0.312-0.484,0.188-1.159-0.274-1.501l-1.986-1.144c-0.526-0.233-1.171-0.005-1.433,0.507l-0.567,1.107
			c-0.262,0.512-0.947,0.931-1.522,0.931h-0.832c-0.575,0-1.26-0.419-1.522-0.931l-0.567-1.107
			c-0.262-0.512-0.907-0.741-1.433-0.507l-1.986,1.144C9.598,8.327,9.475,9.003,9.787,9.486l0.672,1.043
			c0.312,0.484,0.332,1.287,0.044,1.785l-0.416,0.722c-0.288,0.498-0.993,0.883-1.567,0.854l-1.239-0.061
			c-0.574-0.028-1.122,0.413-1.218,0.98c0,0-0.068,0.403-0.068,1.154s0.068,1.154,0.068,1.154c0.096,0.568,0.644,1.009,1.218,0.98
			l1.239-0.061c0.574-0.029,1.279,0.356,1.567,0.854l0.416,0.721c0.288,0.498,0.268,1.302-0.044,1.786l-0.672,1.043
			c-0.312,0.484-0.188,1.159,0.274,1.501l1.986,1.144c0.526,0.233,1.17,0.005,1.433-0.507l0.567-1.107
			c0.262-0.512,0.947-0.931,1.522-0.931h0.832c0.575,0,1.26,0.419,1.522,0.931l0.567,1.107c0.262,0.512,0.907,0.74,1.433,0.507
			l1.986-1.144c0.462-0.342,0.586-1.018,0.274-1.501l-0.672-1.043c-0.312-0.484-0.332-1.287-0.044-1.786l0.416-0.721
			c0.288-0.498,0.993-0.883,1.567-0.854l1.239,0.061c0.574,0.028,1.122-0.413,1.218-0.98c0,0,0.068-0.403,0.068-1.154
			S25.908,14.809,25.908,14.809z M15.985,19.788c-2.11,0-3.821-1.712-3.821-3.824s1.711-3.824,3.821-3.824s3.82,1.712,3.82,3.824
			S18.095,19.788,15.985,19.788z"/>
	</g>
</g>
</svg>
