<?xml version="1.0" encoding="iso-8859-1"?>
<!-- Generator: Adobe Illustrator 17.0.1, SVG Export Plug-In . SVG Version: 6.00 Build 0)  -->
<!DOCTYPE svg PUBLIC "-//W3C//DTD SVG 1.1//EN" "http://www.w3.org/Graphics/SVG/1.1/DTD/svg11.dtd">
<svg version="1.1" id="Layer_1" xmlns="http://www.w3.org/2000/svg" xmlns:xlink="http://www.w3.org/1999/xlink" x="0px" y="0px"
	 width="32px" height="32px" viewBox="0 0 32 32" style="enable-background:new 0 0 32 32;" xml:space="preserve">
<g id="icon-lock-settings">
	<rect id="icon-lock-settings_1_" style="opacity:0;fill:#FFFFFF;" width="32" height="32"/>
	<g>
		<path style="fill:#D4C887;" d="M30.559,18.94l-1.104-0.457c-0.463-0.193-0.744-0.665-0.691-1.162
			c0.091-0.876,0.09-1.764-0.001-2.641c-0.053-0.497,0.229-0.969,0.691-1.161l1.105-0.457c0.914-0.378,1.35-1.43,0.971-2.343
			l-0.812-1.963c-0.368-0.885-1.458-1.338-2.347-0.971l-1.103,0.456c-0.463,0.193-0.995,0.058-1.309-0.332
			c-0.554-0.682-1.182-1.31-1.868-1.867c-0.389-0.315-0.523-0.848-0.331-1.31l0.456-1.103c0.379-0.914-0.056-1.965-0.971-2.344
			l-1.961-0.812c-0.915-0.38-1.967,0.056-2.345,0.97l-0.457,1.104c-0.191,0.462-0.664,0.744-1.16,0.69
			c-0.878-0.09-1.766-0.09-2.643,0.002c-0.496,0.053-0.969-0.229-1.161-0.692L13.062,1.44c-0.366-0.883-1.458-1.338-2.346-0.97
			L8.753,1.283c-0.912,0.379-1.348,1.43-0.97,2.345l0.457,1.104c0.191,0.462,0.056,0.994-0.332,1.308
			C7.226,6.595,6.596,7.224,6.04,7.91c-0.316,0.386-0.848,0.522-1.309,0.33L3.627,7.783C2.713,7.405,1.662,7.84,1.283,8.754
			L0.47,10.717c-0.379,0.913,0.057,1.964,0.971,2.343l1.103,0.457c0.462,0.192,0.743,0.663,0.69,1.16
			c-0.09,0.878-0.09,1.767,0.002,2.642c0.053,0.498-0.229,0.969-0.691,1.16L1.44,18.939c-0.912,0.379-1.349,1.43-0.97,2.344
			l0.813,1.964c0.366,0.884,1.457,1.337,2.345,0.97l1.104-0.457c0.283-0.117,0.594-0.111,0.865,0
			c0.169,0.071,0.324,0.182,0.445,0.333c0.554,0.684,1.182,1.311,1.867,1.868c0.388,0.314,0.523,0.848,0.331,1.309l-0.457,1.102
			c-0.378,0.916,0.057,1.968,0.972,2.347l1.962,0.812c0.914,0.378,1.966-0.057,2.345-0.971l0.457-1.105
			c0.191-0.46,0.663-0.742,1.161-0.689c0.878,0.091,1.766,0.091,2.641-0.001c0.498-0.052,0.969,0.229,1.161,0.691l0.457,1.106
			c0.367,0.884,1.458,1.336,2.345,0.97l1.962-0.812c0.913-0.378,1.349-1.43,0.97-2.347l-0.456-1.103
			c-0.192-0.463-0.058-0.995,0.332-1.309c0.683-0.556,1.311-1.183,1.868-1.868c0.315-0.388,0.848-0.522,1.31-0.332l1.102,0.457
			c0.915,0.379,1.965-0.057,2.345-0.971l0.812-1.962C31.909,20.369,31.474,19.318,30.559,18.94 M13.236,22.673
			c-3.685-1.526-5.435-5.751-3.909-9.436c1.527-3.685,5.752-5.436,9.438-3.909c3.685,1.528,5.434,5.752,3.908,9.437
			C21.147,22.45,16.921,24.2,13.236,22.673"/>
	</g>
</g>
</svg>
