<?xml version="1.0" encoding="iso-8859-1"?>
<!-- Generator: Adobe Illustrator 17.0.1, SVG Export Plug-In . SVG Version: 6.00 Build 0)  -->
<!DOCTYPE svg PUBLIC "-//W3C//DTD SVG 1.1//EN" "http://www.w3.org/Graphics/SVG/1.1/DTD/svg11.dtd">
<svg version="1.1" id="Layer_1" xmlns="http://www.w3.org/2000/svg" xmlns:xlink="http://www.w3.org/1999/xlink" x="0px" y="0px"
	 width="32px" height="32px" viewBox="0 0 32 32" style="enable-background:new 0 0 32 32;" xml:space="preserve">
<g id="icon-lock-chat">
	<rect id="icon-lock-chat_1_" style="opacity:0;fill:#FFFFFF;" width="32" height="32"/>
	<g>
		<g>
			<path style="fill:#45DDEB;" d="M9.028,3.362c0.065-0.001,5.68-0.002,5.746-0.002c4.911,0,8.892,3.628,8.892,8.102
				c0,4.475-3.981,8.144-8.892,8.144l-9.889-0.029c-0.048,2.253-2.066,4.005-4.552,4.005v-4.019v-0.133v-7.969
				C0.333,7.047,4.208,3.458,9.028,3.362z"/>
			<path style="fill:#FFFFFF;" d="M22.971,11.061c-0.065-0.001-5.68-0.002-5.746-0.002c-4.911,0-8.892,3.627-8.892,8.102
				c0,4.474,4.423,8.122,9.334,8.122l9.447-0.007c0.048,2.253,2.066,4.005,4.552,4.005v-4.019V27.13v-7.969
				C31.666,14.746,27.791,11.156,22.971,11.061z"/>
		</g>
	</g>
</g>
</svg>
