<?xml version="1.0" encoding="iso-8859-1"?>
<!-- Generator: Adobe Illustrator 19.0.0, SVG Export Plug-In . SVG Version: 6.00 Build 0)  -->
<svg version="1.1" id="Layer_1" xmlns="http://www.w3.org/2000/svg" xmlns:xlink="http://www.w3.org/1999/xlink" x="0px" y="0px"
	 viewBox="0 0 32 32" style="enable-background:new 0 0 32 32;" xml:space="preserve">
<g id="icon-cover-hangup_2_">
	<rect id="icon-cover-hangup_3_" style="opacity:0;fill:#FFFFFF;" width="32" height="32"/>
	<circle style="opacity:0.4;fill:#FFFFFF;" cx="15.907" cy="15.908" r="14.95"/>
	<path style="fill:#FFFFFF;" d="M5.764,19.61c-0.615-1.686-1.23-3.374-1.845-5.061c-0.1-0.274,0.032-0.604,0.295-0.727
		c7.556-3.537,15.831-3.536,23.389,0.001c0.263,0.123,0.394,0.453,0.295,0.726c-0.615,1.687-1.23,3.375-1.845,5.062
		c-0.101,0.275-0.358,0.411-0.572,0.312c-1.497-0.701-3.03-1.232-4.579-1.593c-0.222-0.053-0.367-0.33-0.321-0.623
		c0.075-0.473,0.148-0.946,0.222-1.418c0.048-0.293-0.113-0.574-0.356-0.622c-3.008-0.585-6.067-0.585-9.076,0
		c-0.243,0.048-0.404,0.33-0.356,0.621c0.074,0.473,0.148,0.946,0.222,1.42c0.046,0.293-0.1,0.57-0.321,0.623
		c-1.549,0.361-3.082,0.892-4.579,1.593C6.121,20.023,5.865,19.884,5.764,19.61z"/>
</g>
</svg>
