<?xml version="1.0" encoding="iso-8859-1"?>
<!-- Generator: Adobe Illustrator 17.0.1, SVG Export Plug-In . SVG Version: 6.00 Build 0)  -->
<!DOCTYPE svg PUBLIC "-//W3C//DTD SVG 1.1//EN" "http://www.w3.org/Graphics/SVG/1.1/DTD/svg11.dtd">
<svg version="1.1" id="Layer_1" xmlns="http://www.w3.org/2000/svg" xmlns:xlink="http://www.w3.org/1999/xlink" x="0px" y="0px"
	 width="64px" height="64px" viewBox="0 0 64 64" style="enable-background:new 0 0 64 64;" xml:space="preserve">
<g id="icon-m-wizard">
	<rect id="icon-m-wizard_1_" y="0" style="opacity:0;fill:#FFFFFF;" width="64" height="64"/>
	<g>
		<path style="fill:#FFFFFF;" d="M29.026,44.243c-1.271,0-2.42-0.704-2.999-1.838l-4.05-7.948l-8.812,1.395
			c-1.463,0.235-2.869-0.508-3.526-1.797c-0.665-1.303-0.416-2.875,0.619-3.909l6.307-6.308l-4.049-7.949
			c-0.664-1.304-0.415-2.875,0.619-3.909c1.009-1.01,2.636-1.269,3.909-0.619l7.948,4.05l6.308-6.309
			c1.009-1.009,2.634-1.268,3.91-0.619c1.305,0.666,2.026,2.083,1.796,3.527l-1.395,8.812l7.948,4.05
			c1.303,0.665,2.024,2.081,1.798,3.525c-0.114,0.71-0.441,1.352-0.947,1.856c-0.504,0.504-1.145,0.832-1.854,0.944l-8.81,1.395
			l-1.396,8.811c-0.23,1.445-1.355,2.569-2.799,2.799C29.376,44.229,29.2,44.243,29.026,44.243z M23.099,32.254l4.71,9.243
			c0.267,0.523,0.836,0.817,1.431,0.729c0.586-0.094,1.043-0.551,1.137-1.138L32,30.844l10.245-1.623
			c0.287-0.045,0.548-0.178,0.752-0.383c0.207-0.206,0.34-0.466,0.386-0.754c0.092-0.585-0.202-1.161-0.73-1.431l-9.243-4.709
			l1.623-10.247c0.093-0.586-0.2-1.161-0.729-1.432c-0.522-0.265-1.176-0.161-1.587,0.251l-7.335,7.336l-9.243-4.709
			c-0.521-0.266-1.175-0.161-1.587,0.251c-0.42,0.42-0.521,1.058-0.251,1.587l4.708,9.243l-7.334,7.335
			c-0.42,0.42-0.521,1.058-0.251,1.587c0.267,0.524,0.839,0.822,1.431,0.73L23.099,32.254z"/>
		
			<rect x="41.784" y="38.09" transform="matrix(0.7071 0.7071 -0.7071 0.7071 42.0134 -18.0406)" style="opacity:0.6;fill:#FFFFFF;" width="2" height="7.208"/>
		<path style="opacity:0.6;fill:#FFFFFF;" d="M51.88,56.489c-1.331,0-2.58-0.516-3.517-1.452L30.929,37.604l1.07-6.76l6.798-1.077
			l17.418,17.417c0.937,0.937,1.452,2.186,1.452,3.518s-0.516,2.581-1.452,3.517l-0.818,0.818
			C54.461,55.974,53.212,56.489,51.88,56.489z M33.063,36.91l16.714,16.713c1.117,1.118,3.09,1.116,4.206,0l0.818-0.818
			c0.559-0.559,0.866-1.306,0.866-2.103c0-0.798-0.308-1.545-0.866-2.104L38.104,31.902l-4.356,0.69L33.063,36.91z"/>
	</g>
</g>
</svg>
