<?xml version="1.0" encoding="iso-8859-1"?>
<!-- Generator: Adobe Illustrator 17.0.1, SVG Export Plug-In . SVG Version: 6.00 Build 0)  -->
<!DOCTYPE svg PUBLIC "-//W3C//DTD SVG 1.1//EN" "http://www.w3.org/Graphics/SVG/1.1/DTD/svg11.dtd">
<svg version="1.1" id="Layer_1" xmlns="http://www.w3.org/2000/svg" xmlns:xlink="http://www.w3.org/1999/xlink" x="0px" y="0px"
	 width="64px" height="64px" viewBox="0 0 64 64" style="enable-background:new 0 0 64 64;" xml:space="preserve">
<g id="icon-m-mark-unread">
	<g id="icon-m-mark-unread_1_" style="opacity:0;">
		<rect style="fill:#FFFFFF;" width="64" height="64"/>
	</g>
	<g>
		<g>
			<path style="fill:#FFFFFF;" d="M51,54H13c-1.654,0-3-1.346-3-3V25c0-1.654,1.346-3,3-3h38c1.654,0,3,1.346,3,3v26
				C54,52.654,52.654,54,51,54z M13,24c-0.551,0-1,0.449-1,1v26c0,0.552,0.449,1,1,1h38c0.552,0,1-0.448,1-1V25c0-0.551-0.448-1-1-1
				H13z"/>
		</g>
		<g>
			<g style="opacity:0.5;">
				<path style="fill:#FFFFFF;" d="M32.295,42.627c-0.799,0-1.555-0.287-2.128-0.81L11.805,25.086
					c-0.971-0.885-0.865-1.666-0.715-2.052C11.239,22.648,11.686,22,13,22h38c1.309,0,1.761,0.648,1.914,1.034
					c0.152,0.386,0.267,1.168-0.688,2.064L34.46,41.784C33.882,42.328,33.113,42.627,32.295,42.627z M13.582,24l17.932,16.339
					c0.41,0.373,1.174,0.368,1.578-0.012L50.475,24H13.582z"/>
			</g>
		</g>
	</g>
	<g>
		<circle style="fill:#FFFFFF;" cx="46.249" cy="16.75" r="9.898"/>
		<path style="fill:#FFFFFF;" d="M32.422,33.156c-0.73,0-1.385-0.25-1.856-0.722c-0.612-0.612-0.851-1.533-0.654-2.527
			c0.171-0.863,0.652-1.726,1.355-2.429l7.223-7.224l1.414,1.414l-7.223,7.224c-0.85,0.85-0.985,1.844-0.701,2.128
			s1.277,0.149,2.128-0.701l7.224-7.224l1.414,1.414l-7.224,7.224c-0.703,0.703-1.565,1.184-2.429,1.355
			C32.865,33.134,32.64,33.156,32.422,33.156z"/>
	</g>
</g>
</svg>
