<?xml version="1.0" encoding="iso-8859-1"?>
<!-- Generator: Adobe Illustrator 19.0.0, SVG Export Plug-In . SVG Version: 6.00 Build 0)  -->
<svg version="1.1" id="Layer_1" xmlns="http://www.w3.org/2000/svg" xmlns:xlink="http://www.w3.org/1999/xlink" x="0px" y="0px"
	 viewBox="0 0 64 64" style="enable-background:new 0 0 64 64;" xml:space="preserve">
<g id="icon-m-acknowledge">
	<rect id="icon-m-acknowledge_1_" style="opacity:0;fill:#FFFFFF;" width="64" height="64"/>
	<path style="opacity:0.6;fill:#FFFFFF;" d="M32,56.499C18.491,56.499,7.5,45.509,7.5,32C7.5,18.49,18.491,7.499,32,7.499
		C45.51,7.499,56.5,18.49,56.5,32C56.5,45.509,45.51,56.499,32,56.499z M32,9.499C19.593,9.499,9.5,19.593,9.5,32
		c0,12.406,10.093,22.499,22.5,22.499c12.406,0,22.5-10.093,22.5-22.499C54.5,19.593,44.406,9.499,32,9.499z"/>
	<path style="fill:#FFFFFF;" d="M30.044,43.151c-0.012,0-0.024,0-0.036,0c-1.231-0.012-2.412-0.636-3.24-1.713l-7.561-9.829
		c-0.337-0.438-0.255-1.066,0.183-1.402c0.438-0.338,1.065-0.254,1.402,0.183l7.561,9.83c0.458,0.595,1.052,0.926,1.674,0.932
		c0.659-0.02,1.223-0.313,1.691-0.899l13.5-16.876c0.346-0.431,0.975-0.502,1.406-0.156c0.431,0.345,0.501,0.974,0.156,1.405
		L33.28,41.502C32.44,42.552,31.262,43.151,30.044,43.151z"/>
</g>
</svg>
