<?xml version="1.0" encoding="iso-8859-1"?>
<!-- Generator: Adobe Illustrator 17.0.1, SVG Export Plug-In . SVG Version: 6.00 Build 0)  -->
<!DOCTYPE svg PUBLIC "-//W3C//DTD SVG 1.1//EN" "http://www.w3.org/Graphics/SVG/1.1/DTD/svg11.dtd">
<svg version="1.1" id="Layer_1" xmlns="http://www.w3.org/2000/svg" xmlns:xlink="http://www.w3.org/1999/xlink" x="0px" y="0px"
	 width="64px" height="64px" viewBox="0 0 64 64" style="enable-background:new 0 0 64 64;" xml:space="preserve">
<g id="icon-m-mic-mute">
	<rect id="icon-m-mic-mute_1_" style="opacity:0;fill:#FFFFFF;" width="64" height="64"/>
	<path style="fill:#FFFFFF;" d="M6.934,57.821c-0.256,0-0.512-0.098-0.707-0.293c-0.391-0.391-0.391-1.023,0-1.414L56.359,5.979
		c0.391-0.391,1.023-0.391,1.414,0s0.391,1.023,0,1.414L7.641,57.528C7.445,57.724,7.189,57.821,6.934,57.821z"/>
	<g style="opacity:0.6;">
		<path style="fill:#FFFFFF;" d="M31.993,40.315c-5.046,0-8.999-4.206-8.999-9.575V14.891c0-5.37,3.953-9.576,8.999-9.576
			c5.047,0,9.001,4.207,9.001,9.576V30.74C40.994,36.109,37.04,40.315,31.993,40.315z M31.993,7.315
			c-3.925,0-6.999,3.328-6.999,7.576V30.74c0,4.248,3.074,7.575,6.999,7.575c3.926,0,7.001-3.327,7.001-7.575V14.891
			C38.994,10.643,35.919,7.315,31.993,7.315z"/>
		<path style="fill:#FFFFFF;" d="M32.133,46.134c-8.015,0-14.535-6.52-14.535-14.534c0-0.552,0.448-1,1-1s1,0.448,1,1
			c0,6.911,5.623,12.534,12.535,12.534S44.668,38.511,44.668,31.6c0-0.552,0.447-1,1-1s1,0.448,1,1
			C46.668,39.614,40.147,46.134,32.133,46.134z"/>
		<path style="fill:#FFFFFF;" d="M32.133,57.801c-0.552,0-1-0.447-1-1V45.659c0-0.553,0.448-1,1-1s1,0.447,1,1v11.142
			C33.133,57.354,32.685,57.801,32.133,57.801z"/>
		<path style="fill:#FFFFFF;" d="M41.048,58.357H23.221c-0.552,0-1-0.447-1-1s0.448-1,1-1h17.827c0.553,0,1,0.447,1,1
			S41.601,58.357,41.048,58.357z"/>
		<path style="fill:#FFFFFF;" d="M45.668,32.609c-0.553,0-1-0.448-1-1V23.81c0-0.552,0.447-1,1-1s1,0.448,1,1v7.799
			C46.668,32.161,46.221,32.609,45.668,32.609z"/>
		<path style="fill:#FFFFFF;" d="M18.598,32.586c-0.552,0-1-0.448-1-1v-7.799c0-0.552,0.448-1,1-1s1,0.448,1,1v7.799
			C19.598,32.138,19.15,32.586,18.598,32.586z"/>
	</g>
</g>
</svg>
