<?xml version="1.0" encoding="iso-8859-1"?>
<!-- Generator: Adobe Illustrator 17.0.1, SVG Export Plug-In . SVG Version: 6.00 Build 0)  -->
<!DOCTYPE svg PUBLIC "-//W3C//DTD SVG 1.1//EN" "http://www.w3.org/Graphics/SVG/1.1/DTD/svg11.dtd">
<svg version="1.1" id="Layer_1" xmlns="http://www.w3.org/2000/svg" xmlns:xlink="http://www.w3.org/1999/xlink" x="0px" y="0px"
	 width="64px" height="64px" viewBox="0 0 64 64" style="enable-background:new 0 0 64 64;" xml:space="preserve">
<g id="icon-m-back_2_">
	<g style="opacity:0;">
		<rect id="icon-m-back_1_" x="0.5" y="0.5" style="fill:#FFFFFF;" width="64" height="64.002"/>
		<path style="fill:#FFFFFF;" d="M65,65.002H0V0h65V65.002z M1,64.002h63V1H1V64.002z"/>
	</g>
	<path style="fill:#FFFFFF;" d="M40.251,52.836c-0.702,0-1.434-0.255-2.174-0.758L13.798,35.576
		c-1.146-0.778-1.802-1.899-1.803-3.075c0-1.176,0.657-2.297,1.803-3.076l24.279-16.504c0.74-0.503,1.472-0.758,2.174-0.758
		c1.343,0,2.697,1.032,2.697,3.337v34C42.948,51.804,41.594,52.836,40.251,52.836z M40.251,14.163c-0.285,0-0.658,0.146-1.049,0.413
		l-24.28,16.504c-0.598,0.406-0.927,0.911-0.927,1.422c0,0.51,0.33,1.015,0.927,1.421l24.28,16.502
		c0.391,0.266,0.764,0.412,1.049,0.412c0.629,0,0.697-0.935,0.697-1.337v-34C40.948,15.098,40.88,14.163,40.251,14.163z"/>
	<path style="opacity:0.6;fill:#FFFFFF;" d="M51.948,33.5h-10c-0.553,0-1-0.447-1-1s0.447-1,1-1h10c0.553,0,1,0.448,1,1
		S52.501,33.5,51.948,33.5z"/>
</g>
</svg>
