<?xml version="1.0" encoding="iso-8859-1"?>
<!-- Generator: Adobe Illustrator 17.0.1, SVG Export Plug-In . SVG Version: 6.00 Build 0)  -->
<!DOCTYPE svg PUBLIC "-//W3C//DTD SVG 1.1//EN" "http://www.w3.org/Graphics/SVG/1.1/DTD/svg11.dtd">
<svg version="1.1" id="Layer_1" xmlns="http://www.w3.org/2000/svg" xmlns:xlink="http://www.w3.org/1999/xlink" x="0px" y="0px"
	 width="64px" height="64px" viewBox="0 0 64 64" style="enable-background:new 0 0 64 64;" xml:space="preserve">
<g id="icon-m-train">
	<rect id="icon-m-train_1_" style="opacity:0;fill:#FFFFFF;" width="64" height="64"/>
	<g>
		<path style="fill:#FFFFFF;" d="M47,47.167H17c-3.309,0-6-2.691-6-6v-15c0-11.58,9.42-21,21-21c11.579,0,21,9.42,21,21v15
			C53,44.476,50.309,47.167,47,47.167z M32,7.167c-10.477,0-19,8.523-19,19v15c0,2.206,1.794,4,4,4h30c2.206,0,4-1.794,4-4v-15
			C51,15.69,42.477,7.167,32,7.167z"/>
		<path style="opacity:0.6;fill:#FFFFFF;" d="M12.54,58.675l-1.08-1.684l8.833-5.666c0.161-0.104,0.349-0.158,0.54-0.158h22.333
			c0.191,0,0.379,0.055,0.54,0.158l8.833,5.666l-1.08,1.684l-8.586-5.508H21.126L12.54,58.675z"/>
		<g style="opacity:0.6;">
			<circle style="fill:#FFFFFF;" cx="21.167" cy="37" r="3.167"/>
			<circle style="fill:#FFFFFF;" cx="42.833" cy="37" r="3.167"/>
		</g>
		<g style="opacity:0.6;">
			<path style="fill:#FFFFFF;" d="M34.5,17h-5c-1.654,0-3-1.346-3-3v-1c0-1.654,1.346-3,3-3h5c1.654,0,3,1.346,3,3v1
				C37.5,15.654,36.154,17,34.5,17z M29.5,12c-0.551,0-1,0.449-1,1v1c0,0.551,0.449,1,1,1h5c0.552,0,1-0.449,1-1v-1
				c0-0.551-0.448-1-1-1H29.5z"/>
		</g>
	</g>
</g>
</svg>
