<?xml version="1.0" encoding="iso-8859-1"?>
<!-- Generator: Adobe Illustrator 17.0.1, SVG Export Plug-In . SVG Version: 6.00 Build 0)  -->
<!DOCTYPE svg PUBLIC "-//W3C//DTD SVG 1.1//EN" "http://www.w3.org/Graphics/SVG/1.1/DTD/svg11.dtd">
<svg version="1.1" id="Layer_1" xmlns="http://www.w3.org/2000/svg" xmlns:xlink="http://www.w3.org/1999/xlink" x="0px" y="0px"
	 width="32px" height="32px" viewBox="0 0 32 32" style="enable-background:new 0 0 32 32;" xml:space="preserve">
<g id="icon-lock-voicemail">
	<rect id="icon-lock-voicemail_1_" style="opacity:0;fill:#FFFFFF;" width="32" height="32"/>
	<g>
		<g>
			<path style="fill:#65B897;" d="M32,23.943c0,1.498-1.226,2.723-2.723,2.723H2.723C1.226,26.667,0,25.441,0,23.943V8.057
				c0-1.498,1.226-2.723,2.723-2.723h26.553C30.775,5.333,32,6.559,32,8.057V23.943z"/>
			<path style="fill:#FFFFFF;" d="M9.523,10.667c-2.734,0-4.952,2.218-4.952,4.952c0,2.735,2.218,4.953,4.952,4.953
				c2.735,0,4.953-2.217,4.953-4.953C14.476,12.884,12.259,10.667,9.523,10.667z M9.524,17.945c-1.285,0-2.327-1.041-2.327-2.327
				c0-1.284,1.041-2.327,2.327-2.327c1.285,0,2.326,1.042,2.326,2.327C11.851,16.904,10.809,17.945,9.524,17.945z"/>
			<path style="fill:#FFFFFF;" d="M22.476,10.667c-2.735,0-4.952,2.218-4.952,4.952c0,2.735,2.217,4.953,4.952,4.953
				c2.735,0,4.953-2.217,4.953-4.953C27.429,12.884,25.211,10.667,22.476,10.667z M22.476,17.945c-1.285,0-2.326-1.041-2.326-2.327
				c0-1.284,1.042-2.327,2.326-2.327c1.285,0,2.327,1.042,2.327,2.327C24.803,16.904,23.761,17.945,22.476,17.945z"/>
			<path style="fill:#FFFFFF;" d="M23.619,26.623l-0.664-2.087c-0.157-0.493-0.716-0.897-1.243-0.897H10.779
				c-0.527,0-1.087,0.404-1.244,0.897l-0.663,2.087H23.619z"/>
		</g>
	</g>
</g>
</svg>
