<?xml version="1.0" encoding="iso-8859-1"?>
<!-- Generator: Adobe Illustrator 17.0.1, SVG Export Plug-In . SVG Version: 6.00 Build 0)  -->
<!DOCTYPE svg PUBLIC "-//W3C//DTD SVG 1.1//EN" "http://www.w3.org/Graphics/SVG/1.1/DTD/svg11.dtd">
<svg version="1.1" id="Layer_1" xmlns="http://www.w3.org/2000/svg" xmlns:xlink="http://www.w3.org/1999/xlink" x="0px" y="0px"
	 width="64px" height="64px" viewBox="0 0 64 64" style="enable-background:new 0 0 64 64;" xml:space="preserve">
<g id="icon-m-page-up">
	<rect id="icon-m-page-up_1_" style="opacity:0;fill:#FFFFFF;" width="64" height="64"/>
	<g style="opacity:0.6;">
		<path style="fill:#FFFFFF;" d="M40,35.096c2.2,0,2.727-1.273,1.172-2.828l-6.344-6.345c-1.556-1.556-4.101-1.556-5.657,0
			l-6.343,6.343C21.273,33.822,21.8,35.094,24,35.095L40,35.096z"/>
	</g>
	<path style="fill:#FFFFFF;" d="M40,21.816c2.2,0,2.727-1.273,1.172-2.828l-6.344-6.345c-1.556-1.556-4.101-1.556-5.657,0
		l-6.343,6.343C21.273,20.542,21.8,21.815,24,21.815L40,21.816z"/>
	<g style="opacity:0.3;">
		<path style="fill:#FFFFFF;" d="M40,48.969c2.2,0,2.727-1.273,1.172-2.828l-6.344-6.345c-1.556-1.556-4.101-1.556-5.657,0
			l-6.343,6.343C21.273,47.695,21.8,48.968,24,48.968L40,48.969z"/>
	</g>
</g>
</svg>
