<?xml version="1.0" encoding="iso-8859-1"?>
<!-- Generator: Adobe Illustrator 17.0.1, SVG Export Plug-In . SVG Version: 6.00 Build 0)  -->
<!DOCTYPE svg PUBLIC "-//W3C//DTD SVG 1.1//EN" "http://www.w3.org/Graphics/SVG/1.1/DTD/svg11.dtd">
<svg version="1.1" id="Layer_1" xmlns="http://www.w3.org/2000/svg" xmlns:xlink="http://www.w3.org/1999/xlink" x="0px" y="0px"
	 width="32px" height="32px" viewBox="0 0 32 32" style="enable-background:new 0 0 32 32;" xml:space="preserve">
<g id="icon-s-mms">
	<path style="fill:#FFFFFF;" d="M13.061,14.584v-3.339c0-0.474,0.321-0.644,0.714-0.378l6.024,4.095c0.393,0.267,0.393,0.703,0,0.97
		l-6.024,4.094c-0.392,0.267-0.714,0.097-0.714-0.378v-3.339V14.584z"/>
	<rect id="icon-s-mms_1_" style="opacity:0;fill:#FFFFFF;" width="32" height="32"/>
	<path style="opacity:0.5;fill:#FFFFFF;" d="M13.518,5.07c0.078,0,4.12,0.001,4.197,0.002C23.417,5.19,28,9.622,28,15.071v9.763
		v3.095c-1.936,0-3.506-1.202-3.506-3.043H13.518C7.709,24.887,3,20.595,3,15.071C3,9.548,7.709,5.07,13.518,5.07z"/>
</g>
</svg>
