<?xml version="1.0" encoding="iso-8859-1"?>
<!-- Generator: Adobe Illustrator 17.0.1, SVG Export Plug-In . SVG Version: 6.00 Build 0)  -->
<!DOCTYPE svg PUBLIC "-//W3C//DTD SVG 1.1//EN" "http://www.w3.org/Graphics/SVG/1.1/DTD/svg11.dtd">
<svg version="1.1" id="Layer_1" xmlns="http://www.w3.org/2000/svg" xmlns:xlink="http://www.w3.org/1999/xlink" x="0px" y="0px"
	 width="64px" height="64px" viewBox="0 0 64 64" style="enable-background:new 0 0 64 64;" xml:space="preserve">
<g id="icon-m-music">
	<rect id="icon-m-music_1_" style="opacity:0;fill:#FFFFFF;" width="64" height="64"/>
	<g>
		<path style="opacity:0.5;fill:#FFFFFF;" d="M49.767,10.504h-26.15c-2.2,0-4,1.785-4,3.966c0,1.271,0,28.497,0,28.497
			c0,2.2,3.863,2.2,3.863,0V22.738h26.424v20.229c0,2.2,3.863,2.2,3.863,0c0,0,0-27.226,0-28.497
			C53.767,12.288,51.967,10.504,49.767,10.504z"/>
		<path style="fill:#FFFFFF;" d="M13.325,54.716c-3.882,0-6.7-2.601-6.7-6.187c0-4.125,3.603-8.122,8.202-9.101
			c0.657-0.139,1.314-0.21,1.952-0.21c3.882,0,6.7,2.601,6.7,6.187c0,4.126-3.603,8.123-8.202,9.101
			C14.62,54.645,13.963,54.716,13.325,54.716z"/>
		<path style="fill:#FFFFFF;" d="M43.613,54.716c-3.882,0-6.7-2.601-6.7-6.187c0-4.125,3.603-8.122,8.202-9.101
			c0.657-0.139,1.314-0.21,1.952-0.21c3.882,0,6.7,2.601,6.7,6.187c0,4.126-3.603,8.123-8.202,9.101
			C44.907,54.645,44.25,54.716,43.613,54.716z"/>
	</g>
</g>
</svg>
