<?xml version="1.0" encoding="iso-8859-1"?>
<!-- Generator: Adobe Illustrator 17.0.1, SVG Export Plug-In . SVG Version: 6.00 Build 0)  -->
<!DOCTYPE svg PUBLIC "-//W3C//DTD SVG 1.1//EN" "http://www.w3.org/Graphics/SVG/1.1/DTD/svg11.dtd">
<svg version="1.1" id="Layer_1" xmlns="http://www.w3.org/2000/svg" xmlns:xlink="http://www.w3.org/1999/xlink" x="0px" y="0px"
	 width="64px" height="64px" viewBox="0 0 64 64" style="enable-background:new 0 0 64 64;" xml:space="preserve">
<g id="icon-m-edit">
	<rect id="icon-m-edit_1_" style="opacity:0;fill:#FFFFFF;" width="64" height="64"/>
	<g>
		<path style="fill:#FFFFFF;" d="M18.659,54.156L18.659,54.156c-1.317,0-2.772-0.57-3.623-1.42l-2.368-2.369
			c-1.013-1.012-1.602-2.842-1.371-4.256l0.232-1.422c0.21-1.286,1.097-3.014,2.017-3.934l27.279-27.279
			c1.128-1.128,3.111-1.131,4.243,0.001l6.856,6.858c1.169,1.17,1.169,3.073,0,4.243L24.648,51.857
			c-0.921,0.921-2.649,1.807-3.933,2.018l-1.423,0.232C19.091,54.14,18.878,54.156,18.659,54.156z M42.947,14.601
			c-0.269,0-0.52,0.103-0.707,0.291L14.961,42.17c-0.632,0.632-1.313,1.96-1.458,2.843l-0.232,1.421
			c-0.125,0.769,0.261,1.97,0.811,2.52l2.368,2.369c0.468,0.468,1.438,0.834,2.208,0.834c0,0,0,0,0,0
			c0.107,0,0.212-0.007,0.311-0.023l1.423-0.232c0.881-0.144,2.209-0.825,2.842-1.457l27.277-27.279c0.39-0.39,0.39-1.024,0-1.415
			l-6.857-6.858C43.467,14.704,43.216,14.601,42.947,14.601z"/>
		<polygon style="opacity:0.6;fill:#FFFFFF;" points="8.455,56.948 10.999,47.974 12.923,48.519 11.356,54.048 16.885,52.481 
			17.43,54.405 		"/>
		<g style="opacity:0.6;">
			<path style="fill:#FFFFFF;" d="M49.835,26.257c-0.256,0-0.512-0.098-0.707-0.293c-0.391-0.39-0.391-1.023,0-1.414l5.242-5.243
				c1.149-1.15,1.336-2.907,0.406-3.836l-4.843-4.844c-0.435-0.434-1.057-0.641-1.756-0.59c-0.757,0.059-1.495,0.413-2.079,0.996
				l-5.104,5.104c-0.391,0.391-1.023,0.391-1.414,0s-0.391-1.024,0-1.414l5.104-5.104c0.921-0.921,2.106-1.48,3.339-1.576
				c1.299-0.097,2.471,0.316,3.324,1.17l4.843,4.844c1.726,1.726,1.543,4.715-0.406,6.665l-5.242,5.243
				C50.347,26.16,50.091,26.257,49.835,26.257z"/>
		</g>
	</g>
</g>
</svg>
