<?xml version="1.0" encoding="iso-8859-1"?>
<!-- Generator: Adobe Illustrator 17.0.1, SVG Export Plug-In . SVG Version: 6.00 Build 0)  -->
<!DOCTYPE svg PUBLIC "-//W3C//DTD SVG 1.1//EN" "http://www.w3.org/Graphics/SVG/1.1/DTD/svg11.dtd">
<svg version="1.1" id="Layer_1" xmlns="http://www.w3.org/2000/svg" xmlns:xlink="http://www.w3.org/1999/xlink" x="0px" y="0px"
	 width="32px" height="32px" viewBox="0 0 32 32" style="enable-background:new 0 0 32 32;" xml:space="preserve">
<g id="icon-s-date">
	<path style="opacity:0.6;fill:#FFFFFF;" d="M25.001,27.126H7c-1.172,0-2.126-0.953-2.126-2.125V6.999
		c0-1.172,0.954-2.125,2.126-2.125h18.001c1.172,0,2.125,0.953,2.125,2.125v18.002C27.126,26.173,26.173,27.126,25.001,27.126z
		 M7,6.874c-0.067,0-0.126,0.059-0.126,0.125v18.002c0,0.066,0.059,0.125,0.126,0.125h18.001c0.066,0,0.125-0.059,0.125-0.125V6.999
		c0-0.066-0.059-0.125-0.125-0.125H7z"/>
	<rect id="icon-s-date_1_" style="opacity:0;fill:#FFFFFF;" width="32" height="32"/>
	<path style="fill:#FFFFFF;" d="M25.001,27.126H7c-1.172,0-2.126-0.953-2.126-2.125V6.999c0-1.172,0.954-2.125,2.126-2.125h18.001
		c1.172,0,2.125,0.953,2.125,2.125v18.002C27.126,26.173,26.173,27.126,25.001,27.126z M7,6.874c-0.067,0-0.126,0.059-0.126,0.125
		v18.002c0,0.066,0.059,0.125,0.126,0.125h18.001c0.066,0,0.125-0.059,0.125-0.125V6.999c0-0.066-0.059-0.125-0.125-0.125H7z"/>
	<path style="fill:none;stroke:#FFFFFF;stroke-width:2;stroke-miterlimit:10;" d="M5.874,10.608"/>
	<path style="fill:none;stroke:#FFFFFF;stroke-width:2;stroke-miterlimit:10;" d="M26.126,10.608"/>
	<g style="opacity:0.5;">
		<rect x="5.874" y="9.608" style="fill:#FFFFFF;" width="20.252" height="2"/>
		<rect x="5.874" y="14.781" style="fill:#FFFFFF;" width="20.252" height="2"/>
		<rect x="5.874" y="19.953" style="fill:#FFFFFF;" width="20.252" height="2"/>
		<rect x="11.625" y="10.608" style="fill:#FFFFFF;" width="2" height="15.518"/>
		<rect x="18.376" y="10.608" style="fill:#FFFFFF;" width="2" height="15.518"/>
	</g>
</g>
</svg>
