<?xml version="1.0" encoding="iso-8859-1"?>
<!-- Generator: Adobe Illustrator 17.0.1, SVG Export Plug-In . SVG Version: 6.00 Build 0)  -->
<!DOCTYPE svg PUBLIC "-//W3C//DTD SVG 1.1//EN" "http://www.w3.org/Graphics/SVG/1.1/DTD/svg11.dtd">
<svg version="1.1" id="Layer_1" xmlns="http://www.w3.org/2000/svg" xmlns:xlink="http://www.w3.org/1999/xlink" x="0px" y="0px"
	 width="64px" height="64px" viewBox="0 0 64 64" style="enable-background:new 0 0 64 64;" xml:space="preserve">
<g id="icon-m-link">
	<rect id="icon-m-link_1_" style="opacity:0;fill:#FFFFFF;" width="64" height="64"/>
	<g>
		<path style="fill:#FFFFFF;" d="M37.83,37.815c-0.042,0-0.082-0.001-0.12-0.004l0.129-1.995c0.384-0.019,1.978-0.696,3.464-2.183
			l9.702-9.702c1.409-1.41,2.186-3.284,2.186-5.277s-0.776-3.868-2.186-5.277c-2.91-2.91-7.646-2.91-10.556,0l-9.702,9.702
			c-2.909,2.91-2.908,7.645,0.002,10.555c1.812,1.812,4.124,2.075,5.111,2.188l-0.227,1.986c-1.859-0.211-4.255-0.716-6.299-2.76
			c-3.69-3.69-3.691-9.694-0.002-13.383l9.702-9.702c3.69-3.69,9.693-3.689,13.384,0c3.689,3.689,3.689,9.693,0,13.383l-9.702,9.702
			C40.952,36.813,38.893,37.815,37.83,37.815z"/>
		<path style="opacity:0.6;fill:#FFFFFF;" d="M18.655,55.19C18.655,55.19,18.655,55.19,18.655,55.19
			c-2.528,0-4.905-0.984-6.692-2.771c-1.788-1.787-2.773-4.164-2.773-6.691c0-2.528,0.984-4.904,2.772-6.691l9.701-9.701
			c1.787-1.788,4.163-2.772,6.691-2.772s4.905,0.985,6.692,2.772c1.787,1.787,2.771,4.164,2.771,6.691
			c0,2.528-0.984,4.904-2.771,6.691l-9.7,9.701C23.559,54.206,21.182,55.19,18.655,55.19z M28.354,28.563
			c-1.994,0-3.868,0.776-5.277,2.186l-9.701,9.701c-1.41,1.409-2.186,3.283-2.186,5.277c0,1.993,0.777,3.867,2.187,5.277
			c1.41,1.409,3.284,2.186,5.277,2.186c0,0,0,0,0,0c1.993,0,3.867-0.776,5.277-2.186l9.7-9.701c1.409-1.409,2.186-3.283,2.186-5.277
			c0-1.993-0.776-3.867-2.186-5.277C32.222,29.34,30.348,28.563,28.354,28.563z"/>
	</g>
</g>
</svg>
