<?xml version="1.0" encoding="iso-8859-1"?>
<!-- Generator: Adobe Illustrator 19.0.0, SVG Export Plug-In . SVG Version: 6.00 Build 0)  -->
<svg version="1.1" id="Layer_1" xmlns="http://www.w3.org/2000/svg" xmlns:xlink="http://www.w3.org/1999/xlink" x="0px" y="0px"
	 viewBox="0 0 32 32" style="enable-background:new 0 0 32 32;" xml:space="preserve">
<g id="icon-cover-shuffle_2_">
	<rect id="icon-cover-shuffle_3_" style="opacity:0;fill:#FFFFFF;" width="32" height="32"/>
	<g>
		<path style="fill:#FFFFFF;" d="M29.74,12.05c1.14-0.779,1.14-2.053,0-2.832l-8.26-5.642c-1.14-0.779-2.073-0.286-2.073,1.095
			v11.928c0,1.381,0.933,1.873,2.073,1.094L29.74,12.05z"/>
		<g>
			<path style="fill:#FFFFFF;" d="M3.857,23.796c-0.622,0-1.243-0.237-1.717-0.711c-0.949-0.949-0.949-2.487,0-3.435l9.016-9.016
				c1.408-1.408,3.873-2.429,5.864-2.429h6.571c1.341,0,2.429,1.088,2.429,2.429c0,1.341-1.087,2.429-2.429,2.429H17.02
				c-0.691,0-1.94,0.517-2.429,1.006l-9.016,9.016C5.1,23.559,4.478,23.796,3.857,23.796z"/>
		</g>
	</g>
	<g style="opacity:0.4;">
		<path style="fill:#FFFFFF;" d="M29.74,19.951c1.14,0.779,1.14,2.053,0,2.832l-8.26,5.642c-1.14,0.779-2.073,0.287-2.073-1.095
			V15.403c0-1.381,0.933-1.874,2.073-1.094L29.74,19.951z"/>
		<g>
			<path style="fill:#FFFFFF;" d="M3.857,8.204c-0.622,0-1.243,0.237-1.717,0.712c-0.949,0.949-0.949,2.486,0,3.435l9.016,9.016
				c1.408,1.407,3.873,2.429,5.864,2.429h6.571c1.341,0,2.429-1.088,2.429-2.429c0-1.341-1.087-2.429-2.429-2.429H17.02
				c-0.691,0-1.94-0.517-2.429-1.006L5.575,8.916C5.1,8.442,4.478,8.204,3.857,8.204z"/>
		</g>
	</g>
</g>
</svg>
