<?xml version="1.0" encoding="iso-8859-1"?>
<!-- Generator: Adobe Illustrator 17.0.1, SVG Export Plug-In . SVG Version: 6.00 Build 0)  -->
<!DOCTYPE svg PUBLIC "-//W3C//DTD SVG 1.1//EN" "http://www.w3.org/Graphics/SVG/1.1/DTD/svg11.dtd">
<svg version="1.1" id="Layer_1" xmlns="http://www.w3.org/2000/svg" xmlns:xlink="http://www.w3.org/1999/xlink" x="0px" y="0px"
	 width="64px" height="64px" viewBox="0 0 64 64" style="enable-background:new 0 0 64 64;" xml:space="preserve">
<g id="icon-m-alarm">
	<rect id="icon-m-alarm_1_" style="opacity:0;fill:#FFFFFF;" width="64" height="64"/>
	<g>
		<path style="fill:#FFFFFF;" d="M25.635,56.999c-0.521,0-0.959-0.402-0.997-0.93c-0.278-3.959-1.972-7.677-4.769-10.469
			l-7.236-8.652C5.36,29.683,5.058,18.925,11.99,11.989c6.936-6.933,17.693-6.629,25.024,0.704l8.518,7.12
			c2.859,2.853,6.579,4.547,10.54,4.829c0.551,0.04,0.966,0.518,0.926,1.069c-0.039,0.55-0.504,0.954-1.068,0.926
			c-4.44-0.317-8.612-2.217-11.746-5.35l-8.518-7.12c-6.591-6.586-16.134-6.888-22.261-0.764C7.278,19.533,7.581,29.075,14.107,35.6
			l7.236,8.651c3.078,3.067,4.978,7.238,5.29,11.678c0.039,0.551-0.376,1.029-0.928,1.067
			C25.682,56.998,25.658,56.999,25.635,56.999z"/>
	</g>
	<g>
		<path style="opacity:0.6;fill:#FFFFFF;" d="M25.636,56.999c-0.261,0-0.522-0.102-0.719-0.305c-0.384-0.396-0.374-1.03,0.023-1.414
			l10.098-9.771c0.393-0.378,1.016-0.376,1.402,0.012c2.502,2.502,6.576,2.503,9.082-0.001c1.214-1.212,1.882-2.825,1.882-4.541
			c-0.001-1.715-0.669-3.326-1.881-4.536c-0.387-0.386-0.393-1.011-0.013-1.403l9.771-10.096c0.385-0.396,1.018-0.407,1.414-0.023
			c0.397,0.384,0.407,1.017,0.023,1.414l-9.125,9.429c1.173,1.479,1.81,3.298,1.811,5.215c0,2.251-0.876,4.366-2.468,5.957
			c-3.049,3.045-7.872,3.264-11.174,0.656l-9.432,9.126C26.137,56.905,25.886,56.999,25.636,56.999z"/>
		<path style="opacity:0.6;fill:#FFFFFF;" d="M35.733,47.229c-0.256,0-0.512-0.098-0.707-0.293c-0.391-0.391-0.391-1.023,0-1.414
			l10.496-10.493c0.391-0.391,1.023-0.391,1.414,0s0.391,1.023,0,1.414L36.44,46.936C36.245,47.131,35.989,47.229,35.733,47.229z"/>
	</g>
</g>
</svg>
