<?xml version="1.0" encoding="iso-8859-1"?>
<!-- Generator: Adobe Illustrator 17.0.1, SVG Export Plug-In . SVG Version: 6.00 Build 0)  -->
<!DOCTYPE svg PUBLIC "-//W3C//DTD SVG 1.1//EN" "http://www.w3.org/Graphics/SVG/1.1/DTD/svg11.dtd">
<svg version="1.1" id="Layer_1" xmlns="http://www.w3.org/2000/svg" xmlns:xlink="http://www.w3.org/1999/xlink" x="0px" y="0px"
	 width="96px" height="96px" viewBox="0 0 96 96" style="enable-background:new 0 0 96 96;" xml:space="preserve">
<g id="icon-l-usb">
	<rect id="icon-l-usb_1_" style="opacity:0;fill:#FFFFFF;" width="96" height="96"/>
	<path style="fill:#FFFFFF;" d="M55.424,19H40.428c-0.645,0-1.164-0.283-1.425-0.775s-0.202-1.081,0.161-1.614l7.374-10.848
		c0.673-0.991,2.106-0.99,2.779,0l7.373,10.848c0.362,0.534,0.42,1.123,0.159,1.615S56.068,19,55.424,19z M41.317,17l13.218,0
		l-6.608-9.724L41.317,17z"/>
	<rect x="46.927" y="19" style="fill:#FFFFFF;" width="2" height="53"/>
	<path style="fill:#FFFFFF;" d="M47.927,62.916c-11.811,0-20.383-7.02-20.383-16.69h2c0,8.512,7.731,14.69,18.383,14.69V62.916z"/>
	<path style="fill:#FFFFFF;" d="M47.927,53.081v-2c9.298,0,19.179-5.81,19.179-16.578h2C69.105,45.094,60.001,53.081,47.927,53.081z
		"/>
	<path style="fill:#FFFFFF;" d="M28.999,46C25.14,46,22,42.86,22,39.001C22,35.141,25.14,32,28.999,32
		C32.859,32,36,35.141,36,39.001C36,42.86,32.859,46,28.999,46z M28.999,34C26.242,34,24,36.244,24,39.001
		C24,41.757,26.242,44,28.999,44C31.756,44,34,41.757,34,39.001C34,36.244,31.756,34,28.999,34z"/>
	<path style="fill:#FFFFFF;" d="M47.927,89.341c-5.192,0-9.417-4.224-9.417-9.415c0-5.193,4.224-9.419,9.417-9.419
		c5.191,0,9.415,4.226,9.415,9.419C57.342,85.117,53.118,89.341,47.927,89.341z M47.927,72.507c-4.089,0-7.417,3.328-7.417,7.419
		c0,4.089,3.327,7.415,7.417,7.415c4.089,0,7.415-3.326,7.415-7.415C55.342,75.835,52.016,72.507,47.927,72.507z"/>
	<path style="fill:#FFFFFF;" d="M72,35h-8c-1.103,0-2-0.897-2-2v-8c0-1.103,0.897-2,2-2h8c1.103,0,2,0.897,2,2v8
		C74,34.103,73.103,35,72,35z M72,33v1V33L72,33L72,33z M64,25v8h7.997L72,25H64z"/>
</g>
</svg>
