<?xml version="1.0" encoding="iso-8859-1"?>
<!-- Generator: Adobe Illustrator 19.0.0, SVG Export Plug-In . SVG Version: 6.00 Build 0)  -->
<svg version="1.1" id="Layer_1" xmlns="http://www.w3.org/2000/svg" xmlns:xlink="http://www.w3.org/1999/xlink" x="0px" y="0px"
	 viewBox="0 0 32 32" style="enable-background:new 0 0 32 32;" xml:space="preserve">
<g id="icon-cover-refresh_2_">
	<rect id="icon-cover-refresh_3_" style="opacity:0;fill:#FFFFFF;" width="32" height="32"/>
	<path style="fill:#FFFFFF;" d="M15.672,31.115l-0.001,0.012c-3.695-0.1-7.359-1.563-10.171-4.395
		C0.186,21.381-0.242,13.014,4.192,7.171C4.607,6.626,5.061,6.1,5.56,5.602c2.395-2.385,5.395-3.787,8.502-4.21l-0.32,10.689
		c-0.303,1.336-1.34,1.634-2.305,0.663L8.521,9.807c-3.367,4.079-2.996,9.887,0.506,13.413c1.876,1.89,4.328,2.86,6.799,2.922
		l0-0.012c2.927,0.078,5.862-1.123,7.889-3.538c3.322-3.958,3.033-9.769-0.515-13.384l3.518-3.519
		c5.36,5.426,5.805,14.148,0.804,20.107C24.473,29.428,20.066,31.238,15.672,31.115z"/>
</g>
</svg>
