<?xml version="1.0" encoding="iso-8859-1"?>
<!-- Generator: Adobe Illustrator 17.0.1, SVG Export Plug-In . SVG Version: 6.00 Build 0)  -->
<!DOCTYPE svg PUBLIC "-//W3C//DTD SVG 1.1//EN" "http://www.w3.org/Graphics/SVG/1.1/DTD/svg11.dtd">
<svg version="1.1" id="Layer_1" xmlns="http://www.w3.org/2000/svg" xmlns:xlink="http://www.w3.org/1999/xlink" x="0px" y="0px"
	 width="96px" height="96px" viewBox="0 0 96 96" style="enable-background:new 0 0 96 96;" xml:space="preserve">
<g id="icon-l-snooze">
	<rect id="icon-l-snooze_1_" style="opacity:0;fill:#FFFFFF;" width="96" height="96"/>
	<g>
		<path style="fill:#FFFFFF;" d="M83.999,86.652c-0.254,0-0.507-0.096-0.702-0.287l-72-70.926c-0.394-0.388-0.398-1.021-0.011-1.414
			s1.021-0.398,1.414-0.011l72,70.926c0.394,0.387,0.397,1.021,0.01,1.414C84.516,86.553,84.258,86.652,83.999,86.652z"/>
		<g style="opacity:0.6;">
			<path style="fill:#FFFFFF;" d="M31.212,86.265c-7.334,0-12.658-4.81-12.658-11.436c0-7.75,7.193-15.563,16.034-17.414
				c1.278-0.268,2.551-0.403,3.786-0.403c7.334,0,12.657,4.81,12.657,11.436c0,7.751-7.192,15.563-16.032,17.414
				C33.721,86.129,32.447,86.265,31.212,86.265z M38.375,59.012c-1.097,0-2.233,0.121-3.375,0.36
				c-7.965,1.669-14.444,8.603-14.444,15.457c0,5.556,4.382,9.436,10.658,9.436c1.097,0,2.233-0.121,3.376-0.36
				c7.963-1.668,14.442-8.602,14.442-15.457C49.031,62.892,44.649,59.012,38.375,59.012z"/>
			<path style="fill:#FFFFFF;" d="M51.056,67.632h-2V10.265c0-0.92,0.373-1.631,1.024-1.952c0.65-0.32,1.441-0.183,2.171,0.377
				l23.523,18.056l-1.219,1.587l-23.5-18.039V67.632z"/>
		</g>
	</g>
</g>
</svg>
