<?xml version="1.0" encoding="iso-8859-1"?>
<!-- Generator: Adobe Illustrator 17.0.1, SVG Export Plug-In . SVG Version: 6.00 Build 0)  -->
<!DOCTYPE svg PUBLIC "-//W3C//DTD SVG 1.1//EN" "http://www.w3.org/Graphics/SVG/1.1/DTD/svg11.dtd">
<svg version="1.1" id="Layer_1" xmlns="http://www.w3.org/2000/svg" xmlns:xlink="http://www.w3.org/1999/xlink" x="0px" y="0px"
	 width="32px" height="32px" viewBox="0 0 32 32" style="enable-background:new 0 0 32 32;" xml:space="preserve">
<g id="icon-lock-installed">
	<rect id="icon-lock-installed_1_" style="opacity:0;fill:#FFFFFF;" width="32" height="32"/>
	<g>
		<g>
			<circle style="fill:#F2BE30;" cx="16" cy="16" r="16"/>
		</g>
		<path style="fill:#FFFFFF;" d="M15.551,17.616c-0.456,0.455-1.201,0.455-1.656,0l-3.704-3.703c-0.455-0.455-1.2-0.455-1.655,0
			l-1.17,1.17c-0.455,0.455-0.455,1.2,0,1.656l3.704,3.704c0.455,0.455,1.201,1.201,1.656,1.656l0.324,0.325
			c0.896,0.896,2.265,1.081,3.377-0.031l0.293-0.293c0.455-0.455,1.201-1.201,1.656-1.656l7.112-7.112
			c0.455-0.455,0.455-1.2,0-1.655l-1.17-1.171c-0.455-0.455-1.2-0.455-1.655,0L15.551,17.616z"/>
	</g>
</g>
</svg>
