<?xml version="1.0" encoding="iso-8859-1"?>
<!-- Generator: Adobe Illustrator 17.0.1, SVG Export Plug-In . SVG Version: 6.00 Build 0)  -->
<!DOCTYPE svg PUBLIC "-//W3C//DTD SVG 1.1//EN" "http://www.w3.org/Graphics/SVG/1.1/DTD/svg11.dtd">
<svg version="1.1" id="Layer_1" xmlns="http://www.w3.org/2000/svg" xmlns:xlink="http://www.w3.org/1999/xlink" x="0px" y="0px"
	 width="32px" height="32px" viewBox="0 0 32 32" style="enable-background:new 0 0 32 32;" xml:space="preserve">
<g id="icon-s--device-upload">
	<path style="opacity:0.5;fill:#FFFFFF;" d="M28.5,7.5c0-1.104-0.896-2-2-2h-20c-1.104,0-2,0.896-2,2v10c0,1.105,0.896,2,2,2h20
		c1.104,0,2-0.895,2-2V7.5z"/>
	<rect id="icon-s--device-upload_1_" style="opacity:0;fill:#FFFFFF;" width="32" height="32"/>
	<g>
		<path style="fill:#FFFFFF;" d="M16.089,27.5c-0.552,0-1-0.447-1-1v-10c0-0.552,0.448-1,1-1s1,0.448,1,1v10
			C17.089,27.053,16.641,27.5,16.089,27.5z"/>
		<path style="fill:#FFFFFF;" d="M11.944,21.153c-0.55,0-0.747-0.372-0.438-0.827l3.999-5.883c0.309-0.455,0.815-0.455,1.124,0
			l3.998,5.883c0.309,0.455,0.112,0.827-0.438,0.827H11.944z"/>
	</g>
</g>
</svg>
