<?xml version="1.0" encoding="iso-8859-1"?>
<!-- Generator: Adobe Illustrator 17.0.1, SVG Export Plug-In . SVG Version: 6.00 Build 0)  -->
<!DOCTYPE svg PUBLIC "-//W3C//DTD SVG 1.1//EN" "http://www.w3.org/Graphics/SVG/1.1/DTD/svg11.dtd">
<svg version="1.1" id="Layer_1" xmlns="http://www.w3.org/2000/svg" xmlns:xlink="http://www.w3.org/1999/xlink" x="0px" y="0px"
	 width="64px" height="64px" viewBox="0 0 64 64" style="enable-background:new 0 0 64 64;" xml:space="preserve">
<g id="icon-m-tabs_2_">
	<g style="opacity:0;">
		<rect id="icon-m-tabs_1_" x="0.5" y="0.5" style="fill:#FFFFFF;" width="64" height="64.002"/>
		<path style="fill:#004C4C;" d="M65,65.002H0V0h65V65.002z M1,64.002h63V1H1V64.002z"/>
	</g>
	<path style="fill:#FFFFFF;" d="M48.5,53.452h-32c-2.731,0-4.952-2.222-4.952-4.952v-32c0-2.731,2.221-4.952,4.952-4.952h32
		c2.73,0,4.952,2.221,4.952,4.952v32C53.452,51.23,51.23,53.452,48.5,53.452z M16.5,13.452c-1.681,0-3.048,1.367-3.048,3.048v32
		c0,1.681,1.367,3.048,3.048,3.048h32c1.681,0,3.048-1.367,3.048-3.048v-32c0-1.681-1.367-3.048-3.048-3.048H16.5z"/>
</g>
</svg>
