<?xml version="1.0" encoding="iso-8859-1"?>
<!-- Generator: Adobe Illustrator 17.0.1, SVG Export Plug-In . SVG Version: 6.00 Build 0)  -->
<!DOCTYPE svg PUBLIC "-//W3C//DTD SVG 1.1//EN" "http://www.w3.org/Graphics/SVG/1.1/DTD/svg11.dtd">
<svg version="1.1" id="Layer_1" xmlns="http://www.w3.org/2000/svg" xmlns:xlink="http://www.w3.org/1999/xlink" x="0px" y="0px"
	 width="64px" height="64px" viewBox="0 0 64 64" style="enable-background:new 0 0 64 64;" xml:space="preserve">
<g id="icon-m-rotate">
	<rect id="icon-m-rotate_1_" style="opacity:0;fill:#FFFFFF;" width="64" height="64"/>
	<g style="opacity:0.4;">
		<path style="fill:#FFFFFF;" d="M20.783,58c0,0-0.001,0-0.001,0c-0.815-0.001-1.604-0.169-2.343-0.499
			c-0.504-0.225-0.731-0.816-0.506-1.32c0.225-0.505,0.816-0.733,1.32-0.506c0.482,0.215,0.998,0.324,1.532,0.325
			c0.552,0.001,1,0.449,0.999,1.001S21.335,58,20.783,58z M43.155,58h-0.419c-0.553,0-1-0.447-1-1s0.447-1,1-1h0.419
			c0.418,0,0.83-0.068,1.225-0.203c0.523-0.183,1.091,0.101,1.27,0.623s-0.101,1.091-0.623,1.27C44.423,57.896,43.793,58,43.155,58z
			 M38.745,58h-1.996c-0.553,0-1-0.447-1-1s0.447-1,1-1h1.996c0.553,0,1,0.447,1,1S39.298,58,38.745,58z M32.758,58h-1.996
			c-0.552,0-1-0.447-1-1s0.448-1,1-1h1.996c0.553,0,1,0.447,1,1S33.311,58,32.758,58z M26.771,58h-1.996c-0.552,0-1-0.447-1-1
			s0.448-1,1-1h1.996c0.552,0,1,0.447,1,1S27.323,58,26.771,58z M47.562,55.122c-0.135,0-0.272-0.027-0.403-0.086
			c-0.505-0.223-0.733-0.813-0.51-1.318c0.214-0.485,0.323-1.002,0.323-1.534c0-0.553,0.447-1.028,1-1.028s1,0.418,1,0.971v0.058
			c0,0.813-0.166,1.602-0.495,2.343C48.312,54.9,47.945,55.122,47.562,55.122z M16.227,54.728c-0.416,0-0.805-0.262-0.946-0.677
			c-0.206-0.603-0.309-1.23-0.309-1.868V51.76c0-0.553,0.448-1,1-1s1,0.447,1,1v0.424c0,0.418,0.067,0.828,0.201,1.221
			c0.178,0.523-0.101,1.092-0.624,1.27C16.442,54.711,16.333,54.728,16.227,54.728z M47.972,49.135c-0.553,0-1-0.447-1-1v-1.996
			c0-0.553,0.447-1,1-1s1,0.447,1,1v1.996C48.972,48.688,48.524,49.135,47.972,49.135z M15.972,48.769c-0.552,0-1-0.447-1-1v-1.996
			c0-0.553,0.448-1,1-1s1,0.447,1,1v1.996C16.972,48.321,16.524,48.769,15.972,48.769z M47.972,43.147c-0.553,0-1-0.447-1-1v-1.996
			c0-0.553,0.447-1,1-1s1,0.447,1,1v1.996C48.972,42.7,48.524,43.147,47.972,43.147z M15.972,42.781c-0.552,0-1-0.447-1-1v-1.996
			c0-0.553,0.448-1,1-1s1,0.447,1,1v1.996C16.972,42.334,16.524,42.781,15.972,42.781z M47.972,37.16c-0.553,0-1-0.447-1-1v-1.996
			c0-0.553,0.447-1,1-1s1,0.447,1,1v1.996C48.972,36.713,48.524,37.16,47.972,37.16z M15.972,36.794c-0.552,0-1-0.447-1-1v-1.996
			c0-0.553,0.448-1,1-1s1,0.447,1,1v1.996C16.972,36.347,16.524,36.794,15.972,36.794z M47.972,31.173c-0.553,0-1-0.448-1-1v-1.996
			c0-0.552,0.447-1,1-1s1,0.448,1,1v1.996C48.972,30.725,48.524,31.173,47.972,31.173z M15.972,30.807c-0.552,0-1-0.448-1-1v-1.996
			c0-0.552,0.448-1,1-1s1,0.448,1,1v1.996C16.972,30.359,16.524,30.807,15.972,30.807z M47.972,25.186c-0.553,0-1-0.448-1-1V22.19
			c0-0.552,0.447-1,1-1s1,0.448,1,1v1.996C48.972,24.738,48.524,25.186,47.972,25.186z M15.972,24.819c-0.552,0-1-0.448-1-1v-1.996
			c0-0.552,0.448-1,1-1s1,0.448,1,1v1.996C16.972,24.372,16.524,24.819,15.972,24.819z M47.972,19.199c-0.553,0-1-0.448-1-1v-1.996
			c0-0.552,0.447-1,1-1s1,0.448,1,1v1.996C48.972,18.751,48.524,19.199,47.972,19.199z M15.972,18.833c-0.552,0-1-0.448-1-1v-1.996
			c0-0.552,0.448-1,1-1s1,0.448,1,1v1.996C16.972,18.385,16.524,18.833,15.972,18.833z M47.972,13.211c-0.553,0-1-0.448-1-1v-0.396
			c0-0.426-0.07-0.844-0.208-1.243c-0.182-0.521,0.095-1.091,0.616-1.272c0.521-0.182,1.093,0.095,1.272,0.617
			c0.212,0.61,0.319,1.249,0.319,1.898v0.396C48.972,12.764,48.524,13.211,47.972,13.211z M15.972,12.831c-0.552,0-1-0.433-1-0.985
			v-0.029c0-0.801,0.162-1.579,0.481-2.311c0.22-0.506,0.807-0.737,1.316-0.517c0.506,0.221,0.737,0.81,0.517,1.316
			c-0.208,0.479-0.314,0.987-0.314,1.511C16.972,12.368,16.524,12.831,15.972,12.831z M45.07,8.4c-0.134,0-0.27-0.027-0.4-0.084
			C44.191,8.106,43.682,8,43.155,8c-0.553,0-1.012-0.448-1.012-1s0.436-1,0.988-1h0.023c0.804,0,1.584,0.163,2.317,0.484
			c0.506,0.221,0.736,0.811,0.515,1.317C45.823,8.176,45.456,8.4,45.07,8.4z M19.213,8.267c-0.414,0-0.8-0.259-0.944-0.671
			c-0.182-0.521,0.094-1.092,0.615-1.274C19.496,6.108,20.137,6,20.788,6h0.391c0.552,0,1,0.448,1,1s-0.448,1-1,1h-0.391
			c-0.426,0-0.845,0.071-1.245,0.21C19.433,8.249,19.322,8.267,19.213,8.267z M39.14,8h-1.995c-0.553,0-1-0.448-1-1s0.447-1,1-1
			h1.995c0.553,0,1,0.448,1,1S39.692,8,39.14,8z M33.152,8h-1.996c-0.552,0-1-0.448-1-1s0.448-1,1-1h1.996c0.553,0,1,0.448,1,1
			S33.705,8,33.152,8z M27.166,8H25.17c-0.552,0-1-0.448-1-1s0.448-1,1-1h1.996c0.552,0,1,0.448,1,1S27.718,8,27.166,8z"/>
	</g>
	<path style="fill:#FFFFFF;" d="M51.318,49H12.951c-3.207,0-5.816-2.609-5.816-5.816V20.816c0-3.207,2.609-5.816,5.816-5.816h38.368
		c3.207,0,5.816,2.609,5.816,5.816v22.368C57.135,46.391,54.525,49,51.318,49z M12.951,17c-2.104,0-3.816,1.712-3.816,3.816v22.368
		c0,2.104,1.712,3.816,3.816,3.816h38.368c2.104,0,3.816-1.712,3.816-3.816V20.816c0-2.104-1.712-3.816-3.816-3.816H12.951z"/>
</g>
</svg>
