<?xml version="1.0" encoding="iso-8859-1"?>
<!-- Generator: Adobe Illustrator 19.0.0, SVG Export Plug-In . SVG Version: 6.00 Build 0)  -->
<svg version="1.1" id="Layer_1" xmlns="http://www.w3.org/2000/svg" xmlns:xlink="http://www.w3.org/1999/xlink" x="0px" y="0px"
	 viewBox="0 0 64 64" style="enable-background:new 0 0 64 64;" xml:space="preserve">
<g id="icon-m-reboot">
	<rect id="icon-m-reboot_1_" style="opacity:0;fill:#FFFFFF;" width="64" height="64"/>
	<g style="opacity:0.6;">
		<path style="fill:#FFFFFF;" d="M32.371,56.994c-2.644,0-5.298-0.434-7.875-1.307C11.71,51.356,4.831,37.431,9.162,24.645
			c1.471-4.344,3.663-9.223,8.767-12.473c0.304-0.196,0.691-0.209,1.011-0.038c0.319,0.171,0.52,0.502,0.526,0.864l0.233,13.804
			c0.005,0.325-0.147,0.633-0.411,0.825c-0.263,0.191-0.603,0.243-0.91,0.14l-7.322-2.48c0,0,0,0,0,0
			c-3.977,11.741,2.34,24.529,14.081,28.507c5.689,1.928,11.787,1.522,17.169-1.137c5.385-2.66,9.411-7.257,11.337-12.944
			c2.997-8.849,0.31-18.445-6.846-24.446c-0.423-0.355-0.479-0.985-0.124-1.409c0.356-0.421,0.985-0.479,1.409-0.124
			c7.792,6.535,10.719,16.984,7.455,26.619c-2.098,6.194-6.482,11.2-12.346,14.097C39.77,56.14,36.081,56.994,32.371,56.994z
			 M11.74,23.406l5.935,2.01l-0.177-10.483C15.037,16.906,13.259,19.526,11.74,23.406z"/>
	</g>
	<path style="fill:#FFFFFF;" d="M32,33.667c-0.552,0-1-0.448-1-1V7c0-0.552,0.448-1,1-1s1,0.448,1,1v25.667
		C33,33.219,32.552,33.667,32,33.667z"/>
</g>
</svg>
