<?xml version="1.0" encoding="iso-8859-1"?>
<!-- Generator: Adobe Illustrator 17.0.1, SVG Export Plug-In . SVG Version: 6.00 Build 0)  -->
<!DOCTYPE svg PUBLIC "-//W3C//DTD SVG 1.1//EN" "http://www.w3.org/Graphics/SVG/1.1/DTD/svg11.dtd">
<svg version="1.1" id="Layer_1" xmlns="http://www.w3.org/2000/svg" xmlns:xlink="http://www.w3.org/1999/xlink" x="0px" y="0px"
	 width="64px" height="64px" viewBox="0 0 64 64" style="enable-background:new 0 0 64 64;" xml:space="preserve">
<g id="icon-m-flip">
	<rect id="icon-m-flip_1_" style="opacity:0;fill:#FFFFFF;" width="64" height="64"/>
	<g>
		<g>
			<path style="fill:#FFFFFF;" d="M31.986,49H11.014c-1.469,0-2.916-0.679-3.87-1.814c-0.901-1.072-1.262-2.435-1.016-3.836
				l4.829-23.076c0.358-1.345,1.41-5.274,4.88-5.274h16.149c0.552,0,1,0.448,1,1s-0.448,1-1,1H15.837
				c-0.831,0-2.039,0.387-2.936,3.737l-4.81,22.99c-0.176,1.005,0.22,1.738,0.583,2.171C9.245,46.578,10.142,47,11.014,47h20.973
				c0.552,0,1,0.447,1,1S32.539,49,31.986,49z"/>
		</g>
	</g>
	<g style="opacity:0.5;">
		<g>
			<g>
				<g>
					<path style="fill:#FFFFFF;" d="M31.146,48.999h-1c-0.552,0-1-0.447-1-1s0.448-1,1-1h1c0.552,0,1,0.447,1,1
						S31.699,48.999,31.146,48.999z"/>
					<path style="fill:#FFFFFF;" d="M52.38,48.999h-2.022c-0.553,0-1-0.447-1-1s0.447-1,1-1h2.022c0.553,0,1,0.447,1,1
						S52.933,48.999,52.38,48.999z M45.302,48.999H43.28c-0.553,0-1-0.447-1-1s0.447-1,1-1h2.021c0.553,0,1,0.447,1,1
						S45.854,48.999,45.302,48.999z M38.225,48.999h-2.022c-0.553,0-1-0.447-1-1s0.447-1,1-1h2.022c0.553,0,1,0.447,1,1
						S38.777,48.999,38.225,48.999z M56.659,46.898c-0.159,0-0.32-0.038-0.471-0.118c-0.487-0.261-0.671-0.867-0.41-1.354
						c0.201-0.377,0.304-0.787,0.304-1.222c0-0.063-0.002-0.126-0.007-0.19c-0.037-0.551,0.38-1.028,0.931-1.065
						c0.572-0.022,1.028,0.38,1.065,0.931c0.007,0.109,0.011,0.218,0.011,0.325c0,0.768-0.182,1.495-0.54,2.165
						C57.361,46.707,57.017,46.898,56.659,46.898z M56.072,39.994c-0.463,0-0.879-0.323-0.978-0.795L54.68,37.22
						c-0.113-0.54,0.232-1.07,0.773-1.184c0.539-0.114,1.07,0.232,1.184,0.773l0.415,1.979c0.113,0.54-0.232,1.07-0.773,1.184
						C56.209,39.987,56.141,39.994,56.072,39.994z M54.622,33.066c-0.463,0-0.879-0.323-0.978-0.795l-0.415-1.979
						c-0.113-0.541,0.232-1.07,0.773-1.184c0.539-0.116,1.07,0.232,1.184,0.773l0.415,1.979c0.113,0.541-0.232,1.07-0.773,1.184
						C54.759,33.06,54.69,33.066,54.622,33.066z M53.172,26.139c-0.464,0-0.879-0.324-0.978-0.795l-0.414-1.979
						c-0.113-0.541,0.233-1.07,0.773-1.184c0.543-0.112,1.07,0.234,1.184,0.774l0.414,1.979c0.113,0.541-0.233,1.07-0.773,1.184
						C53.309,26.132,53.239,26.139,53.172,26.139z M51.415,19.302c-0.369,0-0.724-0.205-0.897-0.557
						c-0.281-0.569-0.597-1.002-0.939-1.288c-0.424-0.354-0.481-0.984-0.127-1.409c0.352-0.423,0.981-0.481,1.408-0.127
						c0.565,0.472,1.04,1.106,1.451,1.938c0.245,0.496,0.041,1.095-0.454,1.339C51.715,19.269,51.563,19.302,51.415,19.302z
						 M45.329,17h-2.022c-0.553,0-1-0.448-1-1s0.447-1,1-1h2.022c0.553,0,1,0.448,1,1S45.882,17,45.329,17z M38.252,17h-2.022
						c-0.553,0-1-0.448-1-1s0.447-1,1-1h2.022c0.553,0,1,0.448,1,1S38.805,17,38.252,17z"/>
					<path style="fill:#FFFFFF;" d="M31.146,17h-1c-0.552,0-1-0.448-1-1s0.448-1,1-1h1c0.552,0,1,0.448,1,1S31.699,17,31.146,17z"/>
				</g>
			</g>
		</g>
		<path style="fill:#FFFFFF;" d="M32.134,58c-0.552,0-1-0.447-1-1V7c0-0.552,0.448-1,1-1s1,0.448,1,1v50
			C33.134,57.553,32.686,58,32.134,58z"/>
	</g>
</g>
</svg>
