<?xml version="1.0" encoding="iso-8859-1"?>
<!-- Generator: Adobe Illustrator 17.0.1, SVG Export Plug-In . SVG Version: 6.00 Build 0)  -->
<!DOCTYPE svg PUBLIC "-//W3C//DTD SVG 1.1//EN" "http://www.w3.org/Graphics/SVG/1.1/DTD/svg11.dtd">
<svg version="1.1" id="Layer_1" xmlns="http://www.w3.org/2000/svg" xmlns:xlink="http://www.w3.org/1999/xlink" x="0px" y="0px"
	 width="64px" height="64px" viewBox="0 0 64 64" style="enable-background:new 0 0 64 64;" xml:space="preserve">
<g id="icon-m-left_2_">
	<g>
		<circle style="opacity:0.2;fill:#FFFFFF;" cx="32.001" cy="31.999" r="24"/>
		<path style="fill:#FFFFFF;" d="M35.095,44.998c-0.256,0-0.512-0.098-0.707-0.293l-9.171-9.171
			c-0.941-0.941-1.459-2.197-1.459-3.536c0-1.339,0.519-2.594,1.46-3.535l9.172-9.172c0.391-0.391,1.023-0.391,1.414,0
			s0.391,1.023,0,1.414l-9.172,9.172c-1.17,1.169-1.17,3.073,0,4.243l9.171,9.171c0.391,0.391,0.391,1.023,0,1.414
			C35.606,44.9,35.351,44.998,35.095,44.998z"/>
	</g>
	<rect id="icon-m-left_3_" style="opacity:0;fill:#FFFFFF;" width="64" height="64"/>
</g>
</svg>
