<?xml version="1.0" encoding="iso-8859-1"?>
<!-- Generator: Adobe Illustrator 17.0.1, SVG Export Plug-In . SVG Version: 6.00 Build 0)  -->
<!DOCTYPE svg PUBLIC "-//W3C//DTD SVG 1.1//EN" "http://www.w3.org/Graphics/SVG/1.1/DTD/svg11.dtd">
<svg version="1.1" id="Layer_1" xmlns="http://www.w3.org/2000/svg" xmlns:xlink="http://www.w3.org/1999/xlink" x="0px" y="0px"
	 width="32px" height="32px" viewBox="0 0 32 32" style="enable-background:new 0 0 32 32;" xml:space="preserve">
<g id="icon-lock-mms">
	<rect id="icon-lock-mms_1_" style="opacity:0;fill:#FFFFFF;" width="32" height="32"/>
	<g>
		<path style="fill:#BDA0F7;" d="M13.077,3.331c0.099,0,5.556,0.001,5.655,0.003C25.952,3.474,32,8.635,32,15.111v11.886v3.763
			c-2.452,0-4.683-1.824-4.683-4.011H13.268C5.912,26.749,0,21.676,0,15.111C0,8.547,5.72,3.331,13.077,3.331z"/>
		<path style="fill:#FFFFFF;" d="M13.129,14.738v-3.656c0-0.519,0.353-0.705,0.783-0.414l6.607,4.483
			c0.431,0.291,0.432,0.77,0.001,1.062l-6.608,4.483c-0.43,0.291-0.783,0.105-0.783-0.414v-3.656V14.738z"/>
	</g>
</g>
</svg>
