<?xml version="1.0" encoding="iso-8859-1"?>
<!-- Generator: Adobe Illustrator 19.0.0, SVG Export Plug-In . SVG Version: 6.00 Build 0)  -->
<svg version="1.1" id="Layer_1" xmlns="http://www.w3.org/2000/svg" xmlns:xlink="http://www.w3.org/1999/xlink" x="0px" y="0px"
	 viewBox="0 0 32 32" style="enable-background:new 0 0 32 32;" xml:space="preserve">
<g id="icon-cover-mute_2_">
	<rect id="icon-cover-mute_3_" style="opacity:0;fill:#FFFFFF;" width="32" height="32"/>
	<path style="opacity:0.2;fill:#FFFFFF;" d="M16.018,1.479c-3.101,0-5.529,2.487-5.529,5.663v4.182v4.181
		c0,3.176,2.428,5.664,5.529,5.664c3.1,0,5.529-2.488,5.529-5.664v-4.181V7.142C21.547,3.966,19.118,1.479,16.018,1.479z"/>
	<path style="fill:#FFFFFF;" d="M25.617,26.019c-0.37,0.37-1.045,0.293-1.51-0.171L5.643,7.385c-0.464-0.464-0.54-1.14-0.17-1.51
		L6.49,4.857C6.86,4.487,7.536,4.564,8,5.028l18.464,18.464c0.464,0.464,0.54,1.14,0.171,1.51L25.617,26.019z"/>
	<path style="opacity:0.4;fill:#FFFFFF;" d="M23.976,11.324h-2.429v4.181c0,3.176-2.428,5.664-5.529,5.664
		c-3.101,0-5.529-2.488-5.529-5.664v-4.181H8.061c-1.336,0-1.969,0.633-1.969,1.969v1.61v0.603c0,5.013,2.834,8.641,7.397,9.757
		l0.044,3.845c0,0.762,0.618,1.38,1.38,1.38h2.098c0.762,0,1.38-0.618,1.38-1.38v-3.811c4.644-1.06,7.555-4.722,7.555-9.792v-0.603
		v-1.61C25.945,11.956,25.312,11.324,23.976,11.324z"/>
</g>
</svg>
