<?xml version="1.0" encoding="iso-8859-1"?>
<!-- Generator: Adobe Illustrator 17.0.1, SVG Export Plug-In . SVG Version: 6.00 Build 0)  -->
<!DOCTYPE svg PUBLIC "-//W3C//DTD SVG 1.1//EN" "http://www.w3.org/Graphics/SVG/1.1/DTD/svg11.dtd">
<svg version="1.1" id="Layer_1" xmlns="http://www.w3.org/2000/svg" xmlns:xlink="http://www.w3.org/1999/xlink" x="0px" y="0px"
	 width="64px" height="64px" viewBox="0 0 64 64" style="enable-background:new 0 0 64 64;" xml:space="preserve">
<g id="icon-m-region_6_">
	<rect id="icon-m-region_7_" style="opacity:0;fill:#FFFFFF;" width="64" height="64"/>
	<g>
		<g>
			<path style="fill:#FFFFFF;" d="M26.317,45.978c-9.62,0-18.381-9.195-18.381-19.292c0-10.759,8.753-19.512,19.512-19.512
				c10.758,0,19.511,8.753,19.511,19.512h-2.023c0-9.643-7.845-17.488-17.488-17.488S9.961,17.042,9.961,26.685
				c0,9.038,7.796,17.269,16.356,17.269V45.978z"/>
		</g>
		<path style="fill:#FFFFFF;" d="M55.052,54.966c-2.551,0-4.755-1.728-5.275-3.951L37.49,51.018
			c-7.536,0-13.439-5.471-13.439-12.455c0-7.063,5.825-12.596,13.26-12.596c0.092,0,5.225,0.001,5.316,0.003
			c7.404,0.151,13.424,5.8,13.424,12.593v15.403C56.052,54.519,55.604,54.966,55.052,54.966z M50.661,49.015
			c0.265,0,0.52,0.105,0.707,0.293s0.293,0.441,0.293,0.707c0,1.246,1.052,2.402,2.391,2.803V38.563
			c0-5.713-5.141-10.465-11.46-10.593c-0.159-0.001-5.189-0.003-5.28-0.003c-6.314,0-11.26,4.654-11.26,10.596
			c0,5.862,5.024,10.455,11.439,10.455L50.661,49.015z"/>
		<path style="fill:#FFFFFF;" d="M35.051,39.128c0,0.982-0.796,1.778-1.778,1.778h-0.444c-0.982,0-1.778-0.796-1.778-1.778v-0.444
			c0-0.982,0.796-1.778,1.778-1.778h0.444c0.982,0,1.778,0.796,1.778,1.778V39.128z"/>
		<path style="fill:#FFFFFF;" d="M42.051,39.189c0,0.982-0.796,1.778-1.778,1.778h-0.445c-0.981,0-1.777-0.796-1.777-1.778v-0.444
			c0-0.982,0.796-1.778,1.777-1.778h0.445c0.982,0,1.778,0.796,1.778,1.778V39.189z"/>
		<path style="fill:#FFFFFF;" d="M49.051,39.128c0,0.982-0.796,1.778-1.777,1.778h-0.445c-0.981,0-1.778-0.796-1.778-1.778v-0.444
			c0-0.982,0.796-1.778,1.778-1.778h0.445c0.982,0,1.777,0.796,1.777,1.778V39.128z"/>
		<path style="opacity:0.6;fill:#FFFFFF;" d="M26.286,46.034c-0.184,0-0.369-0.051-0.536-0.156
			c-0.305-0.193-7.463-4.905-7.463-18.844c0-13.918,8.092-19.592,8.437-19.827c0.329-0.224,0.76-0.231,1.097-0.019
			c0.346,0.218,8.466,5.509,8.466,19.846c0,0.552-0.447,1-1,1s-1-0.448-1-1c0-11.1-5.238-16.312-6.979-17.737
			c-1.733,1.504-7.021,6.976-7.021,17.737c0,12.852,6.471,17.115,6.537,17.157c0.466,0.296,0.604,0.914,0.307,1.38
			C26.94,45.87,26.617,46.034,26.286,46.034z"/>
		<path style="opacity:0.6;fill:#FFFFFF;" d="M43.287,20.034h-32c-0.552,0-1-0.448-1-1s0.448-1,1-1h32c0.553,0,1,0.448,1,1
			S43.84,20.034,43.287,20.034z"/>
		<path style="opacity:0.6;fill:#FFFFFF;" d="M26.276,34.966H11.028c-0.552,0-1-0.447-1-1s0.448-1,1-1h15.248c0.552,0,1,0.447,1,1
			S26.828,34.966,26.276,34.966z"/>
	</g>
</g>
</svg>
