<?xml version="1.0" encoding="iso-8859-1"?>
<!-- Generator: Adobe Illustrator 17.0.1, SVG Export Plug-In . SVG Version: 6.00 Build 0)  -->
<!DOCTYPE svg PUBLIC "-//W3C//DTD SVG 1.1//EN" "http://www.w3.org/Graphics/SVG/1.1/DTD/svg11.dtd">
<svg version="1.1" id="Layer_1" xmlns="http://www.w3.org/2000/svg" xmlns:xlink="http://www.w3.org/1999/xlink" x="0px" y="0px"
	 width="32px" height="32px" viewBox="0 0 32 32" style="enable-background:new 0 0 32 32;" xml:space="preserve">
<g id="icon-s-retweet">
	<rect id="icon-s-retweet_1_" style="opacity:0;fill:#FFFFFF;" width="32" height="32"/>
	<path style="opacity:0.4;fill:#FFFFFF;" d="M30.786,13.941l-3.945-5.805l-1.807-2.659c-0.154-0.228-0.358-0.341-0.562-0.341
		S24.064,5.25,23.91,5.478l-1.807,2.659l-3.946,5.805c-0.309,0.455-0.112,0.827,0.438,0.827h4.377v6.596c0,1.378-1.122,2.5-2.5,2.5
		H9.898L8.09,26.523c-0.154,0.227-0.358,0.341-0.562,0.341h12.943c3.033,0,5.5-2.467,5.5-5.5v-6.596h4.377
		C30.898,14.768,31.095,14.396,30.786,13.941z"/>
	<path style="fill:#FFFFFF;" d="M11.529,5.136c-3.033,0-5.5,2.467-5.5,5.5v6.596H1.652c-0.55,0-0.747,0.372-0.438,0.827l3.945,5.805
		l1.807,2.659c0.154,0.227,0.358,0.341,0.562,0.341c0.204,0,0.408-0.114,0.562-0.341l1.807-2.659l3.946-5.805
		c0.309-0.455,0.112-0.827-0.438-0.827H9.029v-6.596c0-1.378,1.122-2.5,2.5-2.5h10.574l1.807-2.659
		c0.154-0.228,0.358-0.341,0.562-0.341H11.529z"/>
</g>
</svg>
