<?xml version="1.0" encoding="iso-8859-1"?>
<!-- Generator: Adobe Illustrator 19.0.0, SVG Export Plug-In . SVG Version: 6.00 Build 0)  -->
<svg version="1.1" id="Layer_1" xmlns="http://www.w3.org/2000/svg" xmlns:xlink="http://www.w3.org/1999/xlink" x="0px" y="0px"
	 viewBox="0 0 32 32" style="enable-background:new 0 0 32 32;" xml:space="preserve">
<g id="icon-cover-cancel_2_">
	<rect id="icon-cover-cancel_3_" style="opacity:0;fill:#FFFFFF;" width="32" height="32"/>
	<circle style="opacity:0.4;fill:#FFFFFF;" cx="16" cy="16.001" r="14.95"/>
	<path style="fill:#FFFFFF;" d="M22.97,7.974c-0.727-0.727-1.916-0.727-2.643,0l-3.006,3.006c-0.727,0.727-1.916,0.727-2.643,0
		l-3.006-3.006c-0.727-0.727-1.916-0.727-2.643,0L7.972,9.031c-0.727,0.727-0.727,1.916,0,2.643l3.006,3.006
		c0.727,0.727,0.727,1.916,0,2.643l-3.006,3.006c-0.727,0.727-0.727,1.916,0,2.643l1.057,1.057c0.727,0.727,1.916,0.727,2.643,0
		l3.006-3.006c0.727-0.727,1.916-0.727,2.643,0l3.006,3.006c0.727,0.727,1.916,0.727,2.643,0l1.057-1.057
		c0.727-0.726,0.727-1.916,0-2.642l-3.006-3.006c-0.727-0.727-0.727-1.916,0-2.643l3.006-3.006c0.727-0.727,0.727-1.916,0-2.643
		L22.97,7.974z"/>
</g>
</svg>
