<?xml version="1.0" encoding="iso-8859-1"?>
<!-- Generator: Adobe Illustrator 17.0.1, SVG Export Plug-In . SVG Version: 6.00 Build 0)  -->
<!DOCTYPE svg PUBLIC "-//W3C//DTD SVG 1.1//EN" "http://www.w3.org/Graphics/SVG/1.1/DTD/svg11.dtd">
<svg version="1.1" id="Layer_1" xmlns="http://www.w3.org/2000/svg" xmlns:xlink="http://www.w3.org/1999/xlink" x="0px" y="0px"
	 width="64px" height="64px" viewBox="0 0 64 64" style="enable-background:new 0 0 64 64;" xml:space="preserve">
<g id="icon-m-transfer">
	<rect id="icon-m-transfer_1_" style="opacity:0;fill:#FFFFFF;" width="64" height="64"/>
	<g style="opacity:0.6;">
		<path style="fill:#FFFFFF;" d="M43,53.649c-0.75,0-1.449-0.423-1.918-1.159l-9.351-14.686c-0.484-0.76-0.559-1.565-0.205-2.21
			S32.6,34.58,33.5,34.58h19c0.9,0,1.619,0.37,1.974,1.015c0.354,0.646,0.279,1.45-0.204,2.21L44.918,52.49
			C44.449,53.227,43.75,53.649,43,53.649z M33.342,36.591c0.017,0.039,0.041,0.085,0.076,0.14l9.352,14.686
			c0.112,0.176,0.207,0.227,0.23,0.232c0.023-0.006,0.118-0.057,0.23-0.232l9.352-14.686c0.035-0.055,0.06-0.101,0.076-0.14
			c-0.042-0.006-0.094-0.011-0.158-0.011h-19C33.436,36.58,33.384,36.585,33.342,36.591z"/>
		<path style="fill:#FFFFFF;" d="M43,35.58c-0.553,0-1-0.447-1-1v-20c0-0.552,0.447-1,1-1s1,0.448,1,1v20
			C44,35.133,43.553,35.58,43,35.58z"/>
	</g>
	<g>
		<path style="fill:#FFFFFF;" d="M30,28.58H12c-0.898,0-1.619-0.369-1.976-1.014c-0.357-0.644-0.29-1.45,0.186-2.212l8.884-14.246
			c0.464-0.744,1.159-1.171,1.907-1.171s1.443,0.427,1.907,1.171l8.884,14.245c0.475,0.762,0.543,1.569,0.186,2.212
			C31.619,28.211,30.898,28.58,30,28.58z M11.826,26.567C11.87,26.574,11.928,26.58,12,26.58h18c0.072,0,0.13-0.006,0.174-0.013
			c-0.017-0.042-0.042-0.093-0.081-0.154l-8.884-14.246c-0.105-0.169-0.195-0.224-0.219-0.23c-0.005,0.006-0.095,0.062-0.2,0.23
			l-8.884,14.246C11.869,26.474,11.843,26.525,11.826,26.567z"/>
		<path style="fill:#FFFFFF;" d="M21,50.58c-0.552,0-1-0.447-1-1V27.218c0-0.552,0.448-1,1-1s1,0.448,1,1V49.58
			C22,50.133,21.552,50.58,21,50.58z"/>
	</g>
</g>
</svg>
