<?xml version="1.0" encoding="iso-8859-1"?>
<!-- Generator: Adobe Illustrator 17.0.1, SVG Export Plug-In . SVG Version: 6.00 Build 0)  -->
<!DOCTYPE svg PUBLIC "-//W3C//DTD SVG 1.1//EN" "http://www.w3.org/Graphics/SVG/1.1/DTD/svg11.dtd">
<svg version="1.1" id="Layer_1" xmlns="http://www.w3.org/2000/svg" xmlns:xlink="http://www.w3.org/1999/xlink" x="0px" y="0px"
	 width="96px" height="96px" viewBox="0 0 96 96" style="enable-background:new 0 0 96 96;" xml:space="preserve">
<g id="icon-l-mobile-network">
	<rect id="icon-l-mobile-network_1_" style="opacity:0;fill:#FFFFFF;" width="96" height="96"/>
	<path style="fill:#FFFFFF;" d="M62.839,86.031H23.161c-2.863,0-5.192-2.329-5.192-5.192V23.161c0-2.863,2.329-5.192,5.192-5.192
		h28.427v2.062H23.161c-1.726,0-3.13,1.404-3.13,3.13v57.678c0,1.727,1.404,3.13,3.13,3.13h39.678c1.727,0,3.13-1.403,3.13-3.13
		V43.857h2.063v36.982C68.031,83.702,65.702,86.031,62.839,86.031z"/>
	<g style="opacity:0.6;">
		<path style="fill:#FFFFFF;" d="M58.918,76.041H27.082c-1.722,0-3.123-1.401-3.123-3.123V32.082c0-1.722,1.401-3.123,3.123-3.123
			h14.534v2.082H27.082c-0.574,0-1.041,0.467-1.041,1.041v40.836c0,0.574,0.467,1.041,1.041,1.041h31.836
			c0.574,0,1.041-0.467,1.041-1.041v-23.55h2.082v23.55C62.041,74.64,60.64,76.041,58.918,76.041z"/>
	</g>
	<g>
		<g style="opacity:0.6;">
			<path style="fill:#FFFFFF;" d="M79.857,23.06H64.143c-0.894,0-1.615-0.368-1.98-1.01c-0.365-0.643-0.313-1.452,0.145-2.22
				l7.811-13.122C70.571,5.946,71.257,5.51,72,5.51s1.429,0.437,1.882,1.198l7.812,13.122c0.457,0.769,0.51,1.578,0.145,2.22
				C81.473,22.691,80.751,23.06,79.857,23.06z M63.938,21.04c0.047,0.011,0.114,0.02,0.205,0.02h15.715
				c0.091,0,0.158-0.009,0.205-0.02c-0.015-0.046-0.041-0.109-0.088-0.188L72.163,7.73c-0.078-0.131-0.143-0.189-0.175-0.212
				c-0.009,0.023-0.074,0.082-0.152,0.213l-7.811,13.121C63.979,20.931,63.952,20.994,63.938,21.04z"/>
		</g>
		<path style="opacity:0.6;fill:#FFFFFF;" d="M72,41c-0.553,0-1-0.448-1-1V21.929c0-0.552,0.447-1,1-1s1,0.448,1,1V40
			C73,40.552,72.553,41,72,41z"/>
	</g>
	<g>
		<path style="fill:#FFFFFF;" d="M57,44.62c-0.743,0-1.429-0.436-1.883-1.197l-7.811-13.124c-0.458-0.768-0.51-1.577-0.145-2.219
			c0.365-0.642,1.087-1.011,1.981-1.011h15.715c0.894,0,1.615,0.368,1.98,1.01c0.365,0.643,0.313,1.452-0.145,2.22l-7.812,13.123
			C58.429,44.183,57.743,44.62,57,44.62z M48.937,29.089c0.015,0.046,0.042,0.109,0.088,0.187l7.811,13.123
			c0.069,0.117,0.129,0.175,0.164,0.203c0.034-0.028,0.094-0.086,0.163-0.203l7.812-13.123c0.047-0.078,0.073-0.141,0.088-0.187
			c-0.047-0.011-0.114-0.02-0.205-0.02H49.143C49.052,29.069,48.984,29.079,48.937,29.089z"/>
		<path style="fill:#FFFFFF;" d="M57,29.071c-0.553,0-1-0.448-1-1V10c0-0.552,0.447-1,1-1s1,0.448,1,1v18.071
			C58,28.624,57.553,29.071,57,29.071z"/>
	</g>
</g>
</svg>
