<?xml version="1.0" encoding="iso-8859-1"?>
<!-- Generator: Adobe Illustrator 19.0.0, SVG Export Plug-In . SVG Version: 6.00 Build 0)  -->
<svg version="1.1" id="Layer_1" xmlns="http://www.w3.org/2000/svg" xmlns:xlink="http://www.w3.org/1999/xlink" x="0px" y="0px"
	 viewBox="0 0 32 32" style="enable-background:new 0 0 32 32;" xml:space="preserve">
<g id="icon-cover-unmute_2_">
	<rect id="icon-cover-unmute_3_" style="opacity:0;fill:#FFFFFF;" width="32" height="32"/>
	<path style="fill:#FFFFFF;" d="M16.538,21.153c-3.101,0-5.529-2.488-5.529-5.664V7.126c0-3.176,2.428-5.663,5.529-5.663
		c3.1,0,5.529,2.488,5.529,5.663v8.363C22.067,18.665,19.639,21.153,16.538,21.153z"/>
	<path style="opacity:0.4;fill:#FFFFFF;" d="M24.496,11.317h-2.429v4.181c0,3.176-2.428,5.664-5.529,5.664
		c-3.101,0-5.529-2.488-5.529-5.664v-4.181H8.581c-1.336,0-1.969,0.633-1.969,1.969v1.61v0.603c0,5.013,2.834,8.641,7.397,9.757
		l0.044,3.845c0,0.762,0.618,1.38,1.38,1.38h2.098c0.762,0,1.38-0.618,1.38-1.38V25.29c4.644-1.061,7.555-4.722,7.555-9.792v-0.603
		v-1.61C26.465,11.95,25.832,11.317,24.496,11.317z"/>
</g>
</svg>
