<?xml version="1.0" encoding="iso-8859-1"?>
<!-- Generator: Adobe Illustrator 17.0.1, SVG Export Plug-In . SVG Version: 6.00 Build 0)  -->
<!DOCTYPE svg PUBLIC "-//W3C//DTD SVG 1.1//EN" "http://www.w3.org/Graphics/SVG/1.1/DTD/svg11.dtd">
<svg version="1.1" id="Layer_1" xmlns="http://www.w3.org/2000/svg" xmlns:xlink="http://www.w3.org/1999/xlink" x="0px" y="0px"
	 width="96px" height="96px" viewBox="0 0 96 96" style="enable-background:new 0 0 96 96;" xml:space="preserve">
<g id="icon-l-airplane-mode">
	<rect id="icon-l-airplane-mode_1_" style="opacity:0;fill:#FFFFFF;" width="96" height="96"/>
	<g>
		<path style="opacity:0.6;fill:#FFFFFF;" d="M65.898,91.75c-0.153,0-0.306-0.016-0.455-0.047l-15.505-3.218
			c-0.382-0.077-0.824-0.148-0.942-0.151c-0.112,0.003-0.552,0.075-0.935,0.155l-15.506,3.215c-1.101,0.224-2.256-0.434-2.576-1.459
			l-1.365-4.287c-0.307-1.008,0.151-2.179,1.062-2.736l10.642-6.532c0.522-0.32,0.905-0.69,1.005-0.858V61.442l-30.457,4.923
			c-1.184,0.183-2.166-0.585-2.37-1.669l-1.459-7.845c-0.191-1.004,0.356-2.114,1.274-2.579l32.624-16.455
			c0.171-0.089,0.389-0.434,0.389-0.629V19.922c0-0.643,0.079-1.629,0.18-2.246c0.194-1.216,2.053-11.922,7.418-11.927h0.151
			c5.367,0,7.232,10.709,7.427,11.931c0.101,0.629,0.18,1.613,0.18,2.24v17.268c-0.001,0.196,0.207,0.53,0.384,0.619l32.618,16.464
			c0.906,0.453,1.461,1.557,1.286,2.565L89.5,64.694c-0.174,0.978-1.033,1.693-2.042,1.693l0,0c-0.106,0-0.215-0.008-0.322-0.024
			l-30.46-4.924V75.83c0.104,0.172,0.504,0.554,1.009,0.861l10.637,6.53c0.906,0.547,1.366,1.72,1.063,2.724l-1.357,4.304
			C67.736,91.137,66.863,91.75,65.898,91.75z M49,86.334c0.354,0,1.055,0.134,1.34,0.191l15.559,3.225
			c0.122,0,0.214-0.08,0.225-0.112l1.351-4.282c0.027-0.091-0.053-0.341-0.192-0.425L56.64,78.397
			c-0.729-0.445-1.956-1.36-1.964-2.475V61.313c0.004-1.171,1.006-2.06,2.197-1.868l30.577,4.942l0.001-0.004l0.082-0.057
			l1.466-7.845c0.021-0.123-0.096-0.364-0.215-0.424L56.163,39.593c-0.849-0.427-1.486-1.462-1.483-2.408V19.921
			c0-0.52-0.07-1.401-0.154-1.924C54.099,15.338,52.183,7.75,49.073,7.75h-0.15c-3.113,0.003-5.021,7.588-5.444,10.246
			c-0.084,0.514-0.155,1.394-0.155,1.927v17.267c0,0.933-0.634,1.968-1.475,2.408L9.214,56.057
			c-0.119,0.061-0.236,0.295-0.211,0.426l1.46,7.847c0.007,0.034,0.048,0.062,0.08,0.062l30.585-4.943
			c1.177-0.192,2.188,0.693,2.195,1.858v14.611c-0.006,1.115-1.231,2.03-1.96,2.478l-10.642,6.532
			c-0.144,0.088-0.228,0.336-0.198,0.437l1.363,4.281c0.013,0.035,0.101,0.105,0.214,0.105l15.554-3.22
			C47.94,86.472,48.642,86.334,49,86.334z"/>
		<path style="fill:#FFFFFF;" d="M48.999,88c-0.273,0-0.535-0.112-0.724-0.311c-0.211-0.221-5.181-5.46-6.368-8.653
			C41.657,78.362,41,75.717,41,73.747V19.588c0-0.642,0.083-1.631,0.189-2.252c0.203-1.217,2.15-11.916,7.728-11.92h0.159
			c5.58,0,7.532,10.703,7.736,11.923C56.917,17.973,57,18.96,57,19.586v54.161c0,2.026-0.689,4.718-0.909,5.295
			c-1.189,3.186-6.157,8.426-6.368,8.647C49.534,87.888,49.272,88,48.999,88z M48.917,7.416c-3.302,0.003-5.313,7.594-5.756,10.253
			C43.074,18.182,43,19.06,43,19.588v54.159c0,1.715,0.621,4.16,0.781,4.593c0.741,1.993,3.564,5.361,5.217,7.188
			c1.652-1.827,4.478-5.197,5.222-7.189c0.155-0.411,0.78-2.873,0.78-4.591V19.586c0-0.516-0.074-1.394-0.161-1.918
			c-0.447-2.659-2.465-10.253-5.764-10.253H48.917z"/>
	</g>
</g>
</svg>
