<?xml version="1.0" encoding="iso-8859-1"?>
<!-- Generator: Adobe Illustrator 17.0.1, SVG Export Plug-In . SVG Version: 6.00 Build 0)  -->
<!DOCTYPE svg PUBLIC "-//W3C//DTD SVG 1.1//EN" "http://www.w3.org/Graphics/SVG/1.1/DTD/svg11.dtd">
<svg version="1.1" id="Layer_1" xmlns="http://www.w3.org/2000/svg" xmlns:xlink="http://www.w3.org/1999/xlink" x="0px" y="0px"
	 width="64px" height="64px" viewBox="0 0 64 64" style="enable-background:new 0 0 64 64;" xml:space="preserve">
<g id="icon-m-home">
	<rect id="icon-m-home_1_" style="opacity:0;fill:#FFFFFF;" width="64" height="64"/>
	<path style="fill:#FFFFFF;" d="M48.342,53.138H15.658c-2.757,0-5-2.243-5-5V33.333c0-0.181-0.151-0.333-0.33-0.333L7,33
		c-1.096,0-1.428-0.713-1.504-0.932c-0.316-0.915,0.349-2.002,2.033-3.325l20.708-16.263c1.012-0.795,2.349-1.232,3.764-1.232
		c1.415,0,2.752,0.438,3.764,1.233l20.708,16.263c1.684,1.323,2.349,2.411,2.032,3.325C58.428,32.287,58.097,33,57,33l-3.329,0
		c-0.179,0-0.329,0.153-0.329,0.333v14.805C53.342,50.895,51.099,53.138,48.342,53.138z M10.329,31c1.285,0,2.33,1.047,2.33,2.333
		v14.805c0,1.654,1.346,3,3,3h32.684c1.654,0,3-1.346,3-3V33.333c0-1.287,1.045-2.333,2.329-2.333l2.351,0
		c-0.196-0.195-0.453-0.424-0.785-0.685L34.528,14.053c-1.305-1.025-3.753-1.025-5.057,0L8.764,30.316
		c-0.331,0.26-0.588,0.489-0.784,0.683L10.329,31z"/>
	<path style="opacity:0.6;fill:#FFFFFF;" d="M32,44.36c-4.51,0-8.18-3.67-8.18-8.181c0-4.51,3.669-8.18,8.18-8.18
		c4.511,0,8.18,3.669,8.18,8.18C40.18,41.226,37.046,44.36,32,44.36z M32,30c-3.408,0-6.18,2.772-6.18,6.18
		c0,3.408,2.772,6.181,6.18,6.181c2.308,0,6.18-0.803,6.18-6.181C38.18,32.772,35.407,30,32,30z"/>
</g>
</svg>
