<?xml version="1.0" encoding="iso-8859-1"?>
<!-- Generator: Adobe Illustrator 19.0.0, SVG Export Plug-In . SVG Version: 6.00 Build 0)  -->
<svg version="1.1" id="Layer_1" xmlns="http://www.w3.org/2000/svg" xmlns:xlink="http://www.w3.org/1999/xlink" x="0px" y="0px"
	 viewBox="0 0 64 64" style="enable-background:new 0 0 64 64;" xml:space="preserve">
<g id="icon-m-charging">
	<rect id="icon-m-charging_1_" style="opacity:0;fill:#FFFFFF;" width="64" height="64"/>
	<path style="fill:#FFFFFF;" d="M27.193,49.028c-0.189,0.001-0.385-0.045-0.583-0.152c-1.019-0.558-0.601-1.981-0.464-2.449
		l3.037-10.454c0.171-0.33,0.217-0.635,0.12-0.794c-0.098-0.16-0.39-0.26-0.764-0.26h-7.685c-1.637,0-2.137-0.743-2.29-1.186
		c-0.15-0.438-0.214-1.313,1.025-2.306l15.723-15.511c0.269-0.313,1.242-1.437,2.264-0.874c1.016,0.557,0.601,1.975,0.462,2.446
		l-3.036,10.457c-0.171,0.331-0.217,0.635-0.12,0.794c0.098,0.16,0.391,0.259,0.765,0.259h7.684c1.636,0,2.136,0.743,2.289,1.186
		c0.15,0.438,0.215,1.314-1.026,2.308L28.87,48.001C28.654,48.253,27.98,49.028,27.193,49.028z M31.007,36.798l-2.538,8.794
		l14.792-14.593h-7.613c-1.1,0-2.001-0.444-2.473-1.219c-0.456-0.749-0.454-1.713,0.004-2.659l2.538-8.797L20.926,32.919h7.613
		c1.1,0,2,0.444,2.473,1.22C31.468,34.889,31.465,35.853,31.007,36.798z"/>
	<g style="opacity:0.6;">
		<path style="fill:#FFFFFF;" d="M49.729,54H14.272C11.917,54,10,52.083,10,49.728V14.272C10,11.917,11.917,10,14.272,10h35.457
			C52.084,10,54,11.917,54,14.272v35.455C54,52.083,52.084,54,49.729,54z M14.272,12C13.019,12,12,13.02,12,14.272v35.455
			C12,50.98,13.019,52,14.272,52h35.457C50.981,52,52,50.98,52,49.728V14.272C52,13.02,50.981,12,49.729,12H14.272z"/>
	</g>
</g>
</svg>
