<?xml version="1.0" encoding="iso-8859-1"?>
<!-- Generator: Adobe Illustrator 17.0.1, SVG Export Plug-In . SVG Version: 6.00 Build 0)  -->
<!DOCTYPE svg PUBLIC "-//W3C//DTD SVG 1.1//EN" "http://www.w3.org/Graphics/SVG/1.1/DTD/svg11.dtd">
<svg version="1.1" id="Layer_1" xmlns="http://www.w3.org/2000/svg" xmlns:xlink="http://www.w3.org/1999/xlink" x="0px" y="0px"
	 width="64px" height="64px" viewBox="0 0 64 64" style="enable-background:new 0 0 64 64;" xml:space="preserve">
<g id="icon-m-clipboard">
	<rect id="icon-m-clipboard_1_" style="opacity:0;fill:#FFFFFF;" width="64" height="64"/>
	<g style="opacity:0.6;">
		<path style="fill:#FFFFFF;" d="M48.795,58.107h-33.59c-1.654,0-3-1.346-3-3v-37c0-1.654,1.346-3,3-3H24c0.552,0,1,0.448,1,1
			s-0.448,1-1,1h-8.795c-0.551,0-1,0.449-1,1v37c0,0.552,0.449,1,1,1h33.59c0.552,0,1-0.448,1-1v-37c0-0.551-0.448-1-1-1H40
			c-0.553,0-1-0.448-1-1s0.447-1,1-1h8.795c1.654,0,3,1.346,3,3v37C51.795,56.762,50.449,58.107,48.795,58.107z"/>
	</g>
	<path style="fill:#FFFFFF;" d="M37,21.881H27c-1.654,0-3-1.346-3-3v-6c0-1.654,1.346-3,3-3h10c1.654,0,3,1.346,3,3v6
		C40,20.535,38.654,21.881,37,21.881z M27,11.881c-0.551,0-1,0.449-1,1v6c0,0.551,0.449,1,1,1h10c0.552,0,1-0.449,1-1v-6
		c0-0.551-0.448-1-1-1H27z"/>
	<circle style="fill:#FFFFFF;" cx="32" cy="14" r="1.25"/>
	<path style="fill:#FFFFFF;" d="M43.625,29.833h-23.25c-0.552,0-1-0.448-1-1s0.448-1,1-1h23.25c0.553,0,1,0.448,1,1
		S44.178,29.833,43.625,29.833z"/>
	<path style="fill:#FFFFFF;" d="M43.625,36.683h-23.25c-0.552,0-1-0.447-1-1s0.448-1,1-1h23.25c0.553,0,1,0.447,1,1
		S44.178,36.683,43.625,36.683z"/>
	<path style="fill:#FFFFFF;" d="M43.625,43.531h-23.25c-0.552,0-1-0.447-1-1s0.448-1,1-1h23.25c0.553,0,1,0.447,1,1
		S44.178,43.531,43.625,43.531z"/>
	<path style="fill:#FFFFFF;" d="M43.625,50.381h-23.25c-0.552,0-1-0.447-1-1s0.448-1,1-1h23.25c0.553,0,1,0.447,1,1
		S44.178,50.381,43.625,50.381z"/>
</g>
</svg>
