<?xml version="1.0" encoding="iso-8859-1"?>
<!-- Generator: Adobe Illustrator 19.0.0, SVG Export Plug-In . SVG Version: 6.00 Build 0)  -->
<svg version="1.1" id="Layer_1" xmlns="http://www.w3.org/2000/svg" xmlns:xlink="http://www.w3.org/1999/xlink" x="0px" y="0px"
	 viewBox="0 0 32 32" style="enable-background:new 0 0 32 32;" xml:space="preserve">
<g id="icon-cover-previous_2_">
	<rect id="icon-cover-previous_3_" style="opacity:0;fill:#FFFFFF;" width="32" height="32"/>
	<circle style="opacity:0.4;fill:#FFFFFF;" cx="16.092" cy="16" r="14.95"/>
	<path style="fill:#FFFFFF;" d="M15.255,16.848l5.295,5.295c0.537,0.536,0.537,1.415,0,1.951l-1.301,1.301
		c-0.536,0.537-1.415,0.537-1.951,0l-8.549-8.548c-0.536-0.537-0.536-1.415,0-1.952l8.549-8.549c0.537-0.537,1.415-0.537,1.951,0
		l1.301,1.301c0.537,0.536,0.537,1.415,0,1.952l-5.296,5.296c-0.268,0.268-0.862,0.976-0.862,0.976S14.986,16.58,15.255,16.848z"/>
</g>
</svg>
