<?xml version="1.0" encoding="iso-8859-1"?>
<!-- Generator: Adobe Illustrator 17.0.1, SVG Export Plug-In . SVG Version: 6.00 Build 0)  -->
<!DOCTYPE svg PUBLIC "-//W3C//DTD SVG 1.1//EN" "http://www.w3.org/Graphics/SVG/1.1/DTD/svg11.dtd">
<svg version="1.1" id="Layer_1" xmlns="http://www.w3.org/2000/svg" xmlns:xlink="http://www.w3.org/1999/xlink" x="0px" y="0px"
	 width="96px" height="96px" viewBox="0 0 96 96" style="enable-background:new 0 0 96 96;" xml:space="preserve">
<g id="icon-l-document">
	<rect id="icon-l-document_1_" style="opacity:0;fill:#FFFFFF;" width="96" height="96"/>
	<path style="opacity:0.5;fill:#FFFFFF;" d="M75.75,77.25c0,3.313-2.687,6-6,6h-45c-3.313,0-6-2.687-6-6v-60c0-3.314,2.687-6,6-6h45
		c3.313,0,6,2.686,6,6V77.25z"/>
	<path style="fill:#FFFFFF;" d="M65.65,29.15c0,1.65-1.35,3-3,3h-30c-1.65,0-3-1.35-3-3l0,0c0-1.65,1.35-3,3-3h30
		C64.3,26.15,65.65,27.5,65.65,29.15L65.65,29.15z"/>
	<path style="fill:#FFFFFF;" d="M65.65,41.15c0,1.65-1.35,3-3,3h-30c-1.65,0-3-1.35-3-3l0,0c0-1.65,1.35-3,3-3h30
		C64.3,38.15,65.65,39.5,65.65,41.15L65.65,41.15z"/>
	<path style="fill:#FFFFFF;" d="M65.65,53.15c0,1.65-1.35,3-3,3h-30c-1.65,0-3-1.35-3-3l0,0c0-1.65,1.35-3,3-3h30
		C64.3,50.15,65.65,51.5,65.65,53.15L65.65,53.15z"/>
	<path style="fill:#FFFFFF;" d="M54.635,65.15c0,1.65-1.35,3-3,3H32.65c-1.65,0-3-1.35-3-3l0,0c0-1.65,1.35-3,3-3h18.984
		C53.285,62.15,54.635,63.5,54.635,65.15L54.635,65.15z"/>
</g>
</svg>
