<?xml version="1.0" encoding="iso-8859-1"?>
<!-- Generator: Adobe Illustrator 17.0.1, SVG Export Plug-In . SVG Version: 6.00 Build 0)  -->
<!DOCTYPE svg PUBLIC "-//W3C//DTD SVG 1.1//EN" "http://www.w3.org/Graphics/SVG/1.1/DTD/svg11.dtd">
<svg version="1.1" id="Layer_1" xmlns="http://www.w3.org/2000/svg" xmlns:xlink="http://www.w3.org/1999/xlink" x="0px" y="0px"
	 width="64px" height="64px" viewBox="0 0 64 64" style="enable-background:new 0 0 64 64;" xml:space="preserve">
<g id="icon-m-notifications">
	<rect id="icon-m-notifications_1_" style="opacity:0;fill:#FFFFFF;" width="64" height="64"/>
	<g>
		<g>
			<path style="opacity:0.6;fill:#FFFFFF;" d="M56,56.523h-1c-4.121,0-7.658-2.783-8.235-6.272l-21.032,0.006
				C13.546,50.257,4,41.83,4,31.073c0-10.882,9.414-19.407,21.432-19.407c0.085,0,8.684,0.003,8.851,0.005
				C46.26,11.904,56,20.607,56,31.073V56.523z M48.683,48.251v1c0,2.526,2.388,4.773,5.317,5.2V31.073
				c0-9.384-8.86-17.19-19.752-17.401c-0.229-0.002-8.663-0.005-8.816-0.005C14.536,13.667,6,21.313,6,31.073
				c0,9.636,8.667,17.184,19.732,17.184L48.683,48.251z"/>
		</g>
	</g>
	<g style="opacity:0.6;">
		<path style="fill:#FFFFFF;" d="M25.188,35.554l2.862-4.558l-4.664-1.802l0.424-1.272l4.876,1.378l0.318-5.3h1.378l0.318,5.194
			l4.876-1.272L36,29.194l-4.664,1.802l2.862,4.558l-1.166,0.848l-3.286-4.346l-3.393,4.346L25.188,35.554z"/>
	</g>
</g>
</svg>
