<?xml version="1.0" encoding="iso-8859-1"?>
<!-- Generator: Adobe Illustrator 17.0.1, SVG Export Plug-In . SVG Version: 6.00 Build 0)  -->
<!DOCTYPE svg PUBLIC "-//W3C//DTD SVG 1.1//EN" "http://www.w3.org/Graphics/SVG/1.1/DTD/svg11.dtd">
<svg version="1.1" id="Layer_1" xmlns="http://www.w3.org/2000/svg" xmlns:xlink="http://www.w3.org/1999/xlink" x="0px" y="0px"
	 width="64px" height="64px" viewBox="0 0 64 64" style="enable-background:new 0 0 64 64;" xml:space="preserve">
<g id="icon-m-gps">
	<rect id="icon-m-gps_1_" style="opacity:0;fill:#FFFFFF;" width="64" height="64"/>
	<g>
		<g>
			<g style="opacity:0.6;">
				<path style="fill:#FFFFFF;" d="M18.421,55.764c-1.339,0-2.594-0.519-3.535-1.46l-5.333-5.335c-1.949-1.949-1.949-5.121,0-7.071
					L20.3,31.15l1.414,1.414L10.968,43.312c-1.169,1.17-1.169,3.073,0,4.243L16.3,52.89c1.126,1.126,3.115,1.127,4.242,0
					l10.75-10.75l1.414,1.414l-10.75,10.75C21.015,55.245,19.76,55.764,18.421,55.764z"/>
			</g>
		</g>
		<g>
			<g style="opacity:0.6;">
				<path style="fill:#FFFFFF;" d="M43.694,32.564L42.28,31.15l10.751-10.751c0.564-0.563,0.875-1.317,0.875-2.121
					c0-0.805-0.311-1.558-0.874-2.122l-5.337-5.336c-1.125-1.126-3.113-1.126-4.242,0l-10.747,10.75l-1.414-1.414l10.747-10.75
					c0.941-0.941,2.196-1.46,3.535-1.46c1.339,0,2.594,0.518,3.535,1.459l5.337,5.336c0.941,0.941,1.46,2.197,1.46,3.536
					c-0.001,1.339-0.52,2.595-1.461,3.536L43.694,32.564z"/>
			</g>
		</g>
		<path style="fill:#FFFFFF;" d="M19.656,26.851c-0.256,0-0.512-0.098-0.707-0.292l-3.569-3.567
			c-0.565-0.565-0.876-1.318-0.877-2.122c0-0.803,0.311-1.556,0.876-2.121l3.394-3.394c0.565-0.565,1.295-0.909,2.122-0.876
			c0.803,0,1.556,0.312,2.121,0.876l3.567,3.568c0.391,0.391,0.391,1.024,0,1.414c-0.391,0.391-1.023,0.391-1.414,0l-3.567-3.568
			c-0.188-0.188-0.438-0.291-0.707-0.291c0,0,0,0,0,0c-0.269,0-0.519,0.103-0.707,0.29l-3.394,3.394
			c-0.187,0.188-0.291,0.438-0.291,0.707s0.104,0.52,0.291,0.707l3.569,3.567c0.391,0.391,0.391,1.024,0,1.415
			C20.168,26.753,19.912,26.851,19.656,26.851z"/>
		<path style="fill:#FFFFFF;" d="M40.956,54.359c-0.523,0-0.963-0.406-0.997-0.936l-0.299-4.637
			c-0.091-1.395,0.587-3.192,1.576-4.182l3.395-3.394c0.988-0.988,2.807-1.659,4.181-1.577l4.638,0.299
			c0.551,0.035,0.969,0.511,0.934,1.063c-0.036,0.551-0.491,0.953-1.063,0.934l-4.637-0.299c-0.786-0.055-2.065,0.422-2.639,0.995
			L42.65,46.02c-0.573,0.573-1.047,1.83-0.994,2.639l0.299,4.637c0.035,0.552-0.383,1.027-0.934,1.063
			C40.999,54.358,40.978,54.359,40.956,54.359z"/>
		<path style="fill:#FFFFFF;" d="M34.882,46.791c-0.803,0-1.556-0.312-2.121-0.875L18.253,31.407
			c-0.565-0.565-0.877-1.318-0.877-2.121c0-0.803,0.311-1.557,0.876-2.122l8.937-8.937c1.13-1.13,3.112-1.13,4.242,0l14.508,14.509
			c1.17,1.171,1.169,3.075-0.001,4.244l-8.935,8.933C36.438,46.479,35.686,46.791,34.882,46.791z M29.31,19.352
			c-0.269,0-0.52,0.103-0.707,0.29l-8.937,8.937c-0.187,0.188-0.29,0.438-0.29,0.707s0.104,0.52,0.291,0.707l14.509,14.51
			c0.372,0.373,1.041,0.373,1.414-0.002l8.935-8.934c0.391-0.391,0.391-1.024,0-1.415L30.017,19.642
			C29.83,19.455,29.578,19.352,29.31,19.352z"/>
	</g>
</g>
</svg>
