<?xml version="1.0" encoding="iso-8859-1"?>
<!-- Generator: Adobe Illustrator 17.0.1, SVG Export Plug-In . SVG Version: 6.00 Build 0)  -->
<!DOCTYPE svg PUBLIC "-//W3C//DTD SVG 1.1//EN" "http://www.w3.org/Graphics/SVG/1.1/DTD/svg11.dtd">
<svg version="1.1" id="Layer_1" xmlns="http://www.w3.org/2000/svg" xmlns:xlink="http://www.w3.org/1999/xlink" x="0px" y="0px"
	 width="64px" height="64px" viewBox="0 0 64 64" style="enable-background:new 0 0 64 64;" xml:space="preserve">
<g id="icon-m-jolla_2_">
	<rect id="icon-m-jolla_3_" style="opacity:0;fill:#FFFFFF;" width="64" height="64"/>
	<path style="fill:#FFFFFF;" d="M58.47,29.51c-0.052-0.105-0.13-0.228-0.27-0.231c-0.125-0.013-0.26,0.075-0.411,0.26
		c0,0-3,5.161-5.601,4.27c-0.572-0.198-0.778-0.515-0.777-0.599c0.004-0.4,0.185-1.086,0.409-1.481
		c0.042-0.076,0.967-1.701,1.299-2.946c0.276-1.032,0.404-2.675-0.37-2.985c-0.155-0.068-0.27-0.096-0.352-0.1
		c-0.021-0.001-0.1-0.004-0.166,0.067c-0.184,0.198-0.47,0.406-0.678,0.312c-0.285-0.125-0.876-0.195-1.523-0.107
		c-1.907,0.254-4.272,2.083-5.751,5.629c-0.057,0.075-1.896,1.952-2.67,1.924c-0.079-0.135-0.188-0.54-0.111-1.404
		c0.058-0.738,0.265-2.021,0.901-3.93l0.003-0.001c6.442-6.907,9.604-11.884,9.143-14.4c-0.11-0.614-0.447-1.077-0.963-1.332
		c-0.166-0.08-0.384-0.1-0.544-0.1c-0.479,0-2.215,0.183-4.344,2.521c-2.24,2.456-4.132,6.413-5.63,11.757
		c-0.228,0.837-0.441,1.639-0.629,2.392c-0.416,0.388-0.826,0.788-1.227,1.171c-1.591,1.547-3.241,3.148-4.062,3.148
		c-0.088,0-0.166-0.029-0.229-0.074c-0.062-0.072-0.218-0.549-0.088-1.802c0.131-1.179,0.47-2.637,0.968-4.113
		c6.417-6.885,9.462-11.553,9.038-13.882c-0.116-0.608-0.454-1.065-1-1.331c-0.166-0.079-0.385-0.1-0.542-0.1
		c-0.478,0-2.214,0.184-4.344,2.522c-2.236,2.45-4.124,6.392-5.616,11.71c-0.182,0.229-1.025,0.99-1.524,1.3
		c-0.109-0.86-0.832-1.519-1.57-1.696c-0.172-0.035-0.35-0.061-0.526-0.061c-0.966,0-1.86,0.601-2.61,1.185
		c-0.899,0.697-1.934,1.628-2.807,3.191c-1.176,2.122-2.143,5.55-0.612,6.545c0.347,0.229,0.732,0.343,1.144,0.343
		c0.004,0,0,0,0.004,0c2.08,0,4.28-2.903,4.95-4.022c0.722-1.182,1.435-2.731,1.81-3.724c0.35-0.11,0.742-0.297,1.103-0.494
		c-0.885,3.742-0.933,6.064-0.141,7.072c0.3,0.393,0.713,0.594,1.231,0.594c0.806,0,1.67-0.491,2.251-0.855
		c0.572-0.361,1.914-1.57,3.729-3.363c-0.211,1.634-0.061,2.739,0.458,3.363c0.306,0.366,0.724,0.553,1.245,0.553
		c0.582,0,1.206-0.242,1.734-0.52c0.713-0.346,1.302-0.735,1.338-0.77c0.141-0.117,0.3-0.178,0.441-0.172
		c0.15,0.004,0.275,0.077,0.339,0.212c0.025,0.054,0.872,1.421,1.83,1.421c1.6,0,2.676-1.203,2.744-1.257
		c0.119-0.101,0.255-0.153,0.375-0.151c0.151,0.007,0.265,0.146,0.369,0.279c0.184,0.23,1.082,1,2.117,1.046
		c1.596,0.062,3.135-0.676,4.53-2.168c0.441-0.478,2.338-3.34,2.34-3.733C58.621,30.165,58.574,29.729,58.47,29.51z M48.28,14.905
		c0.814,2.864-2.976,7.685-4.944,10.06C44.542,21.066,47.333,16.428,48.28,14.905z M40.532,14.567
		c0.843,2.808-2.869,7.154-4.845,9.431C36.876,20.188,39.596,15.96,40.532,14.567z M26.83,32.662
		c-0.492,0.519-0.97,0.831-1.294,0.831c-0.04,0-0.078-0.002-0.114-0.021c-0.322-0.105-0.521-0.344-0.604-0.741
		c-0.196-0.918,0.262-2.26,0.63-3.016c0.157,0.261,0.422,0.512,0.858,0.661c0.244,0.077,0.5,0.122,0.76,0.122
		c0.421,0,0.801-0.106,1.116-0.23C28.029,30.995,27.509,31.938,26.83,32.662z M50.4,29.326c-0.004,0.011-0.988,2.787-1.241,3.143
		c-0.21,0.3-0.931,1.002-1.726,0.903c-0.44-0.05-1.332-0.794-0.974-1.887c0.66-2.036,2.157-3.317,3.218-3.321
		C50.489,28.159,50.543,28.937,50.4,29.326z M21.903,22.366c-0.293,0.329-0.725,0.526-1.161,0.526l0,0
		c-0.571,0-1.034-0.318-1.269-0.88c-0.388-0.908-0.601-1.958,0.74-2.885c0.15-0.104,0.31-0.156,0.474-0.156
		c0.686,0,1.207,0.9,1.398,1.284C22.515,21.124,22.463,21.738,21.903,22.366z M20.581,34.312c0.25-0.715,0.479-1.361,0.686-1.933
		c0.801-2.213,1.243-3.44,1.212-4.482c-0.03-1.009-0.521-1.861-1.228-2.114c-0.133-0.038-0.269-0.068-0.409-0.068
		c-0.532,0-0.967,0.321-1.182,0.602c-0.274,0.352-0.196,0.831-0.119,1.291c0.033,0.198,0.068,0.409,0.078,0.612
		c0.032,1.164-0.696,4.146-1.101,5.168c-0.338,0.844-3.645,3.447-4.253,3.889c-2.284,1.671-6.375,5.034-8.139,8.845
		c-1.445,3.126-0.374,4.737-0.248,4.909l0.009,0.009c0.551,0.759,1.264,0.917,1.763,0.917l0,0c0.561,0,1.182-0.194,1.851-0.574
		c2.709-1.549,7.352-8.25,9.261-12.649c0.114-0.271,0.67-1.427,0.822-1.602c0.052-0.068,0.223-0.171,0.395-0.265
		c0.233-0.141,0.5-0.297,0.624-0.451c0.224-0.271,0.432-0.848,0.031-1.248c-0.295-0.292-0.211-0.48-0.113-0.712
		C20.54,34.408,20.562,34.36,20.581,34.312z M8.024,47.094c-0.196-0.905,1.238-2.99,2.315-4.187l0.04-0.041
		c1.155-1.279,1.852-2.043,3.443-3.274c1.456-1.121,2.114-1.406,2.406-1.458c-0.157,0.427-0.384,0.961-0.903,1.82
		c-2.216,3.646-5.267,7.581-6.725,7.581c-0.093,0-0.181-0.02-0.258-0.052C8.17,47.406,8.066,47.281,8.024,47.094z"/>
</g>
</svg>
