<?xml version="1.0" encoding="iso-8859-1"?>
<!-- Generator: Adobe Illustrator 17.0.1, SVG Export Plug-In . SVG Version: 6.00 Build 0)  -->
<!DOCTYPE svg PUBLIC "-//W3C//DTD SVG 1.1//EN" "http://www.w3.org/Graphics/SVG/1.1/DTD/svg11.dtd">
<svg version="1.1" id="Layer_1" xmlns="http://www.w3.org/2000/svg" xmlns:xlink="http://www.w3.org/1999/xlink" x="0px" y="0px"
	 width="64px" height="64px" viewBox="0 0 64 64" style="enable-background:new 0 0 64 64;" xml:space="preserve">
<g id="icon-m-night">
	<rect id="icon-m-night_1_" style="opacity:0;fill:#FFFFFF;" width="64" height="64"/>
	<g>
		<path style="fill:#FFFFFF;" d="M32,51.5c-6.536,0-12.605-3.255-16.237-8.707l-1.011-1.519l1.824-0.036
			c9.459-0.185,17.154-8.026,17.154-17.481c0-3.459-1.013-6.808-2.928-9.684l-1.011-1.518l1.939-0.043
			C31.82,12.505,31.909,12.5,32,12.5c10.752,0,19.5,8.748,19.5,19.5C51.5,42.752,42.752,51.5,32,51.5z M18.485,43.111
			C21.796,47.141,26.729,49.5,32,49.5c9.649,0,17.5-7.851,17.5-17.5c0-9.171-7.091-16.716-16.077-17.443
			c1.515,2.822,2.308,5.968,2.308,9.2C35.73,33.662,28.151,41.979,18.485,43.111z"/>
		<path style="opacity:0.6;fill:#FFFFFF;" d="M16.067,43.249l-0.304-0.456C13.628,39.588,12.5,35.856,12.5,32
			c0-10.536,8.575-19.275,19.115-19.481l0.548-0.011l0.304,0.457c2.134,3.206,3.263,6.938,3.263,10.792
			c0,10.536-8.575,19.275-19.115,19.481L16.067,43.249z M31.102,14.538C21.897,15.01,14.5,22.73,14.5,32
			c0,3.275,0.907,6.45,2.628,9.219c9.205-0.472,16.602-8.192,16.602-17.462C33.73,20.482,32.823,17.307,31.102,14.538z"/>
	</g>
</g>
</svg>
