<?xml version="1.0" encoding="iso-8859-1"?>
<!-- Generator: Adobe Illustrator 17.0.1, SVG Export Plug-In . SVG Version: 6.00 Build 0)  -->
<!DOCTYPE svg PUBLIC "-//W3C//DTD SVG 1.1//EN" "http://www.w3.org/Graphics/SVG/1.1/DTD/svg11.dtd">
<svg version="1.1" id="Layer_1" xmlns="http://www.w3.org/2000/svg" xmlns:xlink="http://www.w3.org/1999/xlink" x="0px" y="0px"
	 width="64px" height="64px" viewBox="0 0 64 64" style="enable-background:new 0 0 64 64;" xml:space="preserve">
<g id="icon-m-remote-security">
	<rect id="icon-m-remote-security_1_" style="opacity:0;fill:#FFFFFF;" width="64" height="64"/>
	<path style="fill:#FFFFFF;" d="M44,58H20c-1.654,0-3-1.346-3-3V41c0-1.654,1.346-3,3-3h24c1.654,0,3,1.346,3,3v14
		C47,56.654,45.654,58,44,58z M20,40c-0.551,0-1,0.448-1,1v14c0,0.552,0.449,1,1,1h24c0.552,0,1-0.448,1-1V41c0-0.552-0.448-1-1-1
		H20z"/>
	<path style="fill:#FFFFFF;" d="M43.132,38.264h-2v-1.868c0-5.043-3.953-8.994-9-8.994s-9,3.951-9,8.994v1.868h-2v-1.868
		c0-6.165,4.832-10.994,11-10.994c6.168,0,11,4.829,11,10.994V38.264z"/>
	<g style="opacity:0.6;">
		<path style="fill:#FFFFFF;" d="M32.132,51.668c-0.552,0-1-0.447-1-1v-3.85c0-0.553,0.448-1,1-1s1,0.447,1,1v3.85
			C33.132,51.221,32.684,51.668,32.132,51.668z"/>
		<circle style="fill:#FFFFFF;" cx="32.132" cy="45.225" r="2.5"/>
	</g>
	<path style="opacity:0.2;fill:none;stroke:#FFFFFF;stroke-miterlimit:10;" d="M32,31.193"/>
	<path style="opacity:0.4;fill:none;stroke:#FFFFFF;stroke-miterlimit:10;" d="M32,31.193"/>
	<path style="opacity:0.7;fill:none;stroke:#FFFFFF;stroke-miterlimit:10;" d="M32,31.193"/>
	<path style="opacity:0.3;fill:#FFFFFF;" d="M50.342,14.891c-0.248,0-0.496-0.092-0.689-0.276C44.86,10.048,38.591,7.533,32,7.533
		s-12.859,2.515-17.651,7.082c-0.399,0.379-1.032,0.366-1.414-0.034c-0.381-0.4-0.366-1.033,0.034-1.414
		C18.135,8.244,24.893,5.533,32,5.533c7.107,0,13.866,2.711,19.031,7.633c0.4,0.381,0.415,1.014,0.034,1.414
		C50.869,14.787,50.605,14.891,50.342,14.891z"/>
	<path style="opacity:0.6;fill:#FFFFFF;" d="M44.949,20.283c-0.245,0-0.49-0.089-0.683-0.27c-3.357-3.137-7.714-4.865-12.267-4.865
		c-4.552,0-8.908,1.728-12.266,4.865c-0.403,0.378-1.036,0.357-1.413-0.048c-0.377-0.403-0.356-1.036,0.048-1.413
		c3.729-3.485,8.57-5.404,13.631-5.404c5.062,0,9.902,1.919,13.632,5.404c0.403,0.377,0.425,1.01,0.048,1.413
		C45.483,20.177,45.216,20.283,44.949,20.283z"/>
	<path style="opacity:0.7;fill:#FFFFFF;" d="M23.215,24.446c-0.272,0-0.544-0.11-0.741-0.328c-0.371-0.409-0.34-1.042,0.069-1.413
		c2.607-2.364,5.966-3.667,9.457-3.667c3.49,0,6.85,1.302,9.458,3.667c0.409,0.371,0.44,1.003,0.069,1.412
		c-0.372,0.409-1.005,0.44-1.413,0.069c-2.239-2.03-5.121-3.148-8.114-3.148c-2.994,0-5.875,1.118-8.113,3.148
		C23.695,24.361,23.455,24.446,23.215,24.446z"/>
</g>
</svg>
