<?xml version="1.0" encoding="iso-8859-1"?>
<!-- Generator: Adobe Illustrator 17.0.1, SVG Export Plug-In . SVG Version: 6.00 Build 0)  -->
<!DOCTYPE svg PUBLIC "-//W3C//DTD SVG 1.1//EN" "http://www.w3.org/Graphics/SVG/1.1/DTD/svg11.dtd">
<svg version="1.1" id="Layer_1" xmlns="http://www.w3.org/2000/svg" xmlns:xlink="http://www.w3.org/1999/xlink" x="0px" y="0px"
	 width="96px" height="96px" viewBox="0 0 96 96" style="enable-background:new 0 0 96 96;" xml:space="preserve">
<g id="icon-l-dismiss">
	<rect id="icon-l-dismiss_1_" style="opacity:0;fill:#FFFFFF;" width="96" height="96"/>
	<g>
		<path style="fill:#FFFFFF;" d="M11.488,85.5c-0.256,0-0.512-0.098-0.707-0.293c-0.391-0.391-0.391-1.023,0-1.414L40.21,54.364
			c1.692-1.692,2.624-3.952,2.624-6.364c0-2.412-0.932-4.672-2.624-6.364l-29.425-29.43c-0.391-0.391-0.391-1.024,0-1.414
			c0.391-0.391,1.023-0.391,1.414,0l29.425,29.43c2.07,2.07,3.21,4.832,3.209,7.778c0,2.946-1.14,5.708-3.21,7.778L12.195,85.207
			C12,85.402,11.744,85.5,11.488,85.5z"/>
		<g style="opacity:0.6;">
			<path style="fill:#FFFFFF;" d="M84.488,85.5c-0.256,0-0.512-0.098-0.707-0.293L54.353,55.778c-2.07-2.069-3.21-4.832-3.21-7.778
				s1.14-5.708,3.21-7.778l29.429-29.427c0.391-0.391,1.023-0.391,1.414,0s0.391,1.023,0,1.414L55.767,41.637
				c-1.692,1.692-2.624,3.952-2.624,6.364s0.932,4.671,2.624,6.364l29.429,29.429c0.391,0.391,0.391,1.023,0,1.414
				C85,85.402,84.744,85.5,84.488,85.5z"/>
		</g>
	</g>
</g>
</svg>
