<?xml version="1.0" encoding="iso-8859-1"?>
<!-- Generator: Adobe Illustrator 17.0.1, SVG Export Plug-In . SVG Version: 6.00 Build 0)  -->
<!DOCTYPE svg PUBLIC "-//W3C//DTD SVG 1.1//EN" "http://www.w3.org/Graphics/SVG/1.1/DTD/svg11.dtd">
<svg version="1.1" id="Layer_1" xmlns="http://www.w3.org/2000/svg" xmlns:xlink="http://www.w3.org/1999/xlink" x="0px" y="0px"
	 width="64px" height="64px" viewBox="0 0 64 64" style="enable-background:new 0 0 64 64;" xml:space="preserve">
<g id="icon-m-computer">
	<rect id="icon-m-computer_1_" style="opacity:0;fill:#FFFFFF;" width="64" height="64"/>
	<path style="fill:#FFFFFF;" d="M54.398,43.999h-2V19.573c0-1.654-1.346-3-3-3H14.544c-1.654,0-3,1.346-3,3v24.426h-2V19.573
		c0-2.757,2.243-5,5-5h34.854c2.757,0,5,2.243,5,5V43.999z"/>
	<path style="fill:#FFFFFF;" d="M56.068,51.534h-48c-1.654,0-3-1.346-3-3v-1.644c0-1.654,1.346-3,3-3h48c1.654,0,3,1.346,3,3v1.644
		C59.068,50.188,57.723,51.534,56.068,51.534z M8.068,45.891c-0.551,0-1,0.448-1,1v1.644c0,0.552,0.449,1,1,1h48
		c0.552,0,1-0.448,1-1v-1.644c0-0.552-0.448-1-1-1H8.068z"/>
	<g style="opacity:0.6;">
		<path style="fill:#FFFFFF;" d="M47.989,41.003H15.952c-1.093,0-1.981-0.889-1.981-1.981V21.984c0-1.093,0.889-1.981,1.981-1.981
			h32.037c1.093,0,1.981,0.889,1.981,1.981v17.037C49.971,40.114,49.082,41.003,47.989,41.003z M47.971,21.984l-32.019,0.019
			l0.019,17.019l32-0.019V21.984z"/>
	</g>
</g>
</svg>
