<?xml version="1.0" encoding="iso-8859-1"?>
<!-- Generator: Adobe Illustrator 17.0.1, SVG Export Plug-In . SVG Version: 6.00 Build 0)  -->
<!DOCTYPE svg PUBLIC "-//W3C//DTD SVG 1.1//EN" "http://www.w3.org/Graphics/SVG/1.1/DTD/svg11.dtd">
<svg version="1.1" id="Layer_1" xmlns="http://www.w3.org/2000/svg" xmlns:xlink="http://www.w3.org/1999/xlink" x="0px" y="0px"
	 width="32px" height="32px" viewBox="0 0 32 32" style="enable-background:new 0 0 32 32;" xml:space="preserve">
<g id="icon-s-update">
	<rect id="icon-s-update_1_" style="opacity:0;fill:#FFFFFF;" width="32" height="32"/>
	<path style="fill:#FFFFFF;" d="M16,4.426C9.608,4.426,4.426,9.607,4.426,16c0,6.393,5.182,11.574,11.574,11.574
		S27.574,22.393,27.574,16C27.574,9.607,22.392,4.426,16,4.426z M21.946,16.037L16.63,23.81c-0.347,0.512-0.913,0.488-1.259-0.021
		l-5.316-7.74c-0.347-0.512-0.125-0.846,0.49-0.846H14.5V8.788c0-0.637,0.673-1.353,1.5-1.353c0.829,0,1.5,0.717,1.5,1.353v6.415
		h3.955C22.07,15.203,22.292,15.528,21.946,16.037z"/>
	<path style="opacity:0.2;fill:#FFFFFF;" d="M14.5,15.203V8.788c0-0.637,0.673-1.353,1.5-1.353c0.829,0,1.5,0.717,1.5,1.353v6.415
		H14.5z"/>
</g>
</svg>
