<?xml version="1.0" encoding="iso-8859-1"?>
<!-- Generator: Adobe Illustrator 17.0.1, SVG Export Plug-In . SVG Version: 6.00 Build 0)  -->
<!DOCTYPE svg PUBLIC "-//W3C//DTD SVG 1.1//EN" "http://www.w3.org/Graphics/SVG/1.1/DTD/svg11.dtd">
<svg version="1.1" id="Layer_1" xmlns="http://www.w3.org/2000/svg" xmlns:xlink="http://www.w3.org/1999/xlink" x="0px" y="0px"
	 width="64px" height="64px" viewBox="0 0 64 64" style="enable-background:new 0 0 64 64;" xml:space="preserve">
<g id="icon-m-keyboard_2_">
	<rect id="icon-m-keyboard_3_" style="opacity:0;fill:#FFFFFF;" width="64" height="64"/>
	<path style="fill:#FFFFFF;" d="M51.872,49.032H12.129c-2.846,0-5.161-2.314-5.161-5.16V20.128c0-2.846,2.315-5.161,5.161-5.161
		h39.743c2.846,0,5.161,2.315,5.161,5.161v23.744C57.033,46.718,54.718,49.032,51.872,49.032z M12.129,17.032
		c-1.708,0-3.096,1.389-3.096,3.096v23.744c0,1.707,1.389,3.096,3.096,3.096h39.743c1.708,0,3.097-1.389,3.097-3.096V20.128
		c0-1.708-1.389-3.096-3.097-3.096H12.129z"/>
	<g style="opacity:0.6;">
		<g>
			<path style="fill:#FFFFFF;" d="M47.826,42.134c-0.55,0-1-0.45-1-1V39.08c0-0.55,0.45-1,1-1H50.2c0.55,0,1,0.45,1,1v2.054
				c0,0.55-0.45,1-1,1H47.826z"/>
			<path style="fill:#FFFFFF;" d="M47.826,25.92c-0.55,0-1-0.45-1-1v-2.053c0-0.55,0.45-1,1-1H50.2c0.55,0,1,0.45,1,1v2.053
				c0,0.55-0.45,1-1,1H47.826z"/>
			<path style="fill:#FFFFFF;" d="M47.826,34.027c-0.55,0-1-0.45-1-1v-2.053c0-0.55,0.45-1,1-1H50.2c0.55,0,1,0.45,1,1v2.053
				c0,0.55-0.45,1-1,1H47.826z"/>
		</g>
		<g>
			<path style="fill:#FFFFFF;" d="M22.306,42.134c-0.55,0-1-0.45-1-1V39.08c0-0.55,0.45-1,1-1h19.389c0.55,0,1,0.45,1,1v2.054
				c0,0.55-0.45,1-1,1H22.306z"/>
			<path style="fill:#FFFFFF;" d="M39.32,25.92c-0.55,0-1-0.45-1-1v-2.053c0-0.55,0.45-1,1-1h2.374c0.55,0,1,0.45,1,1v2.053
				c0,0.55-0.45,1-1,1H39.32z"/>
			<path style="fill:#FFFFFF;" d="M39.32,34.027c-0.55,0-1-0.45-1-1v-2.053c0-0.55,0.45-1,1-1h2.374c0.55,0,1,0.45,1,1v2.053
				c0,0.55-0.45,1-1,1H39.32z"/>
		</g>
		<g>
			<path style="fill:#FFFFFF;" d="M30.813,25.92c-0.55,0-1-0.45-1-1v-2.053c0-0.55,0.45-1,1-1h2.375c0.55,0,1,0.45,1,1v2.053
				c0,0.55-0.45,1-1,1H30.813z"/>
			<path style="fill:#FFFFFF;" d="M30.813,34.027c-0.55,0-1-0.45-1-1v-2.053c0-0.55,0.45-1,1-1h2.375c0.55,0,1,0.45,1,1v2.053
				c0,0.55-0.45,1-1,1H30.813z"/>
		</g>
		<g>
			<path style="fill:#FFFFFF;" d="M22.306,25.92c-0.55,0-1-0.45-1-1v-2.053c0-0.55,0.45-1,1-1h2.375c0.55,0,1,0.45,1,1v2.053
				c0,0.55-0.45,1-1,1H22.306z"/>
			<path style="fill:#FFFFFF;" d="M22.306,34.027c-0.55,0-1-0.45-1-1v-2.053c0-0.55,0.45-1,1-1h2.375c0.55,0,1,0.45,1,1v2.053
				c0,0.55-0.45,1-1,1H22.306z"/>
		</g>
		<g>
			<path style="fill:#FFFFFF;" d="M13.801,42.134c-0.55,0-1-0.45-1-1V39.08c0-0.55,0.45-1,1-1h2.374c0.55,0,1,0.45,1,1v2.054
				c0,0.55-0.45,1-1,1H13.801z"/>
			<path style="fill:#FFFFFF;" d="M13.801,25.92c-0.55,0-1-0.45-1-1v-2.053c0-0.55,0.45-1,1-1h2.374c0.55,0,1,0.45,1,1v2.053
				c0,0.55-0.45,1-1,1H13.801z"/>
			<path style="fill:#FFFFFF;" d="M13.801,34.027c-0.55,0-1-0.45-1-1v-2.053c0-0.55,0.45-1,1-1h2.374c0.55,0,1,0.45,1,1v2.053
				c0,0.55-0.45,1-1,1H13.801z"/>
		</g>
	</g>
</g>
</svg>
