<?xml version="1.0" encoding="iso-8859-1"?>
<!-- Generator: Adobe Illustrator 17.0.1, SVG Export Plug-In . SVG Version: 6.00 Build 0)  -->
<!DOCTYPE svg PUBLIC "-//W3C//DTD SVG 1.1//EN" "http://www.w3.org/Graphics/SVG/1.1/DTD/svg11.dtd">
<svg version="1.1" id="Layer_1" xmlns="http://www.w3.org/2000/svg" xmlns:xlink="http://www.w3.org/1999/xlink" x="0px" y="0px"
	 width="64px" height="64px" viewBox="0 0 64 64" style="enable-background:new 0 0 64 64;" xml:space="preserve">
<g id="icon-m-up_2_">
	<g>
		<circle style="opacity:0.2;fill:#FFFFFF;" cx="32" cy="32" r="24"/>
		<path style="fill:#FFFFFF;" d="M44,36.097c-0.256,0-0.512-0.098-0.707-0.293l-9.172-9.173c-0.563-0.563-1.317-0.874-2.122-0.874
			l0,0c-0.804,0-1.558,0.31-2.121,0.874l-9.171,9.172c-0.391,0.391-1.023,0.391-1.414,0s-0.391-1.023,0-1.414l9.171-9.172
			c0.941-0.941,2.197-1.459,3.535-1.459c0,0,0,0,0,0c1.339,0,2.594,0.519,3.535,1.46l9.172,9.173c0.391,0.391,0.391,1.023,0,1.414
			C44.512,35.999,44.256,36.097,44,36.097z"/>
	</g>
	<rect id="icon-m-up_3_" style="opacity:0;fill:#FFFFFF;" width="64" height="64"/>
</g>
</svg>
