<?xml version="1.0" encoding="iso-8859-1"?>
<!-- Generator: Adobe Illustrator 19.0.0, SVG Export Plug-In . SVG Version: 6.00 Build 0)  -->
<svg version="1.1" id="Layer_1" xmlns="http://www.w3.org/2000/svg" xmlns:xlink="http://www.w3.org/1999/xlink" x="0px" y="0px"
	 viewBox="0 0 32 32" style="enable-background:new 0 0 32 32;" xml:space="preserve">
<g id="icon-cover-dialer_2_">
	<rect id="icon-cover-dialer_3_" style="opacity:0;fill:#FFFFFF;" width="32" height="32"/>
	<path style="opacity:0.4;fill:#FFFFFF;" d="M29.75,0.82H2.25c-0.79,0-1.43,0.637-1.43,1.423v14.063
		c0,0.005,0.006,0.009,0.008,0.013C0.999,24.555,7.724,31.18,16,31.18c8.276,0,15.001-6.625,15.172-14.86
		c0.002-0.004,0.008-0.009,0.008-0.013V2.243C31.18,1.457,30.54,0.82,29.75,0.82z"/>
	<g>
		<path style="fill:#FFFFFF;" d="M10.786,7.402c0,0.759-0.621,1.38-1.38,1.38H6.033c-0.759,0-1.38-0.621-1.38-1.38V6.658
			c0-0.759,0.621-1.38,1.38-1.38h3.373c0.759,0,1.38,0.621,1.38,1.38V7.402z"/>
	</g>
	<g>
		<path style="fill:#FFFFFF;" d="M19.067,7.402c0,0.759-0.621,1.38-1.38,1.38h-3.374c-0.759,0-1.38-0.621-1.38-1.38V6.658
			c0-0.759,0.621-1.38,1.38-1.38h3.374c0.759,0,1.38,0.621,1.38,1.38V7.402z"/>
	</g>
	<g>
		<path style="fill:#FFFFFF;" d="M27.347,7.402c0,0.759-0.621,1.38-1.38,1.38h-3.373c-0.759,0-1.38-0.621-1.38-1.38V6.658
			c0-0.759,0.621-1.38,1.38-1.38h3.373c0.759,0,1.38,0.621,1.38,1.38V7.402z"/>
	</g>
	<g>
		<path style="fill:#FFFFFF;" d="M10.786,13.382c0,0.759-0.621,1.38-1.38,1.38H6.033c-0.759,0-1.38-0.621-1.38-1.38v-0.745
			c0-0.759,0.621-1.38,1.38-1.38h3.373c0.759,0,1.38,0.621,1.38,1.38V13.382z"/>
	</g>
	<g>
		<path style="fill:#FFFFFF;" d="M19.067,13.382c0,0.759-0.621,1.38-1.38,1.38h-3.374c-0.759,0-1.38-0.621-1.38-1.38v-0.745
			c0-0.759,0.621-1.38,1.38-1.38h3.374c0.759,0,1.38,0.621,1.38,1.38V13.382z"/>
	</g>
	<g>
		<path style="fill:#FFFFFF;" d="M27.347,13.382c0,0.759-0.621,1.38-1.38,1.38h-3.373c-0.759,0-1.38-0.621-1.38-1.38v-0.745
			c0-0.759,0.621-1.38,1.38-1.38h3.373c0.759,0,1.38,0.621,1.38,1.38V13.382z"/>
	</g>
	<g>
		<path style="fill:#FFFFFF;" d="M10.786,19.362c0,0.759-0.621,1.38-1.38,1.38H6.033c-0.759,0-1.38-0.621-1.38-1.38v-0.745
			c0-0.759,0.621-1.38,1.38-1.38h3.373c0.759,0,1.38,0.621,1.38,1.38V19.362z"/>
	</g>
	<g>
		<path style="fill:#FFFFFF;" d="M19.067,19.362c0,0.759-0.621,1.38-1.38,1.38h-3.374c-0.759,0-1.38-0.621-1.38-1.38v-0.745
			c0-0.759,0.621-1.38,1.38-1.38h3.374c0.759,0,1.38,0.621,1.38,1.38V19.362z"/>
	</g>
	<g>
		<path style="fill:#FFFFFF;" d="M27.347,19.362c0,0.759-0.621,1.38-1.38,1.38h-3.373c-0.759,0-1.38-0.621-1.38-1.38v-0.745
			c0-0.759,0.621-1.38,1.38-1.38h3.373c0.759,0,1.38,0.621,1.38,1.38V19.362z"/>
	</g>
	<path style="fill:#FFFFFF;" d="M19.067,25.342c0,0.759-0.621,1.38-1.38,1.38h-3.374c-0.759,0-1.38-0.621-1.38-1.38v-0.745
		c0-0.759,0.621-1.38,1.38-1.38h3.374c0.759,0,1.38,0.621,1.38,1.38V25.342z"/>
</g>
</svg>
