<?xml version="1.0" encoding="iso-8859-1"?>
<!-- Generator: Adobe Illustrator 19.0.0, SVG Export Plug-In . SVG Version: 6.00 Build 0)  -->
<svg version="1.1" id="Layer_1" xmlns="http://www.w3.org/2000/svg" xmlns:xlink="http://www.w3.org/1999/xlink" x="0px" y="0px"
	 viewBox="0 0 32 32" style="enable-background:new 0 0 32 32;" xml:space="preserve">
<g id="icon-cover-next_2_">
	<rect id="icon-cover-next_3_" style="opacity:0;fill:#FFFFFF;" width="32" height="32"/>
	<path style="fill:#FFFFFF;" d="M16.092,30.95c8.257,0,14.95-6.693,14.95-14.95c0-8.257-6.693-14.95-14.95-14.95
		C7.836,1.05,1.143,7.744,1.143,16C1.143,24.257,7.836,30.95,16.092,30.95z M16.93,15.152l-5.296-5.296
		c-0.537-0.536-0.537-1.415,0-1.952l1.301-1.301c0.537-0.537,1.415-0.537,1.951,0l8.549,8.548c0.537,0.537,0.537,1.415,0,1.952
		l-8.549,8.549c-0.536,0.537-1.415,0.537-1.951,0l-1.301-1.301c-0.537-0.537-0.537-1.415,0-1.951l5.296-5.296
		c0.268-0.268,0.863-0.976,0.863-0.976S17.198,15.42,16.93,15.152z"/>
</g>
</svg>
