<?xml version="1.0" encoding="iso-8859-1"?>
<!-- Generator: Adobe Illustrator 17.0.1, SVG Export Plug-In . SVG Version: 6.00 Build 0)  -->
<!DOCTYPE svg PUBLIC "-//W3C//DTD SVG 1.1//EN" "http://www.w3.org/Graphics/SVG/1.1/DTD/svg11.dtd">
<svg version="1.1" id="Layer_1" xmlns="http://www.w3.org/2000/svg" xmlns:xlink="http://www.w3.org/1999/xlink" x="0px" y="0px"
	 width="64px" height="64px" viewBox="0 0 64 64" style="enable-background:new 0 0 64 64;" xml:space="preserve">
<g id="icon-m-shortcut_2_">
	<rect id="icon-m-shortcut_3_" style="opacity:0;fill:#FFFFFF;" width="64" height="64"/>
	<path style="fill:#FFFFFF;" d="M35.232,38.285c-0.707,0-1.424-0.544-1.424-1.584V11.299c0-1.04,0.717-1.584,1.424-1.584
		c0.324,0,0.658,0.11,0.965,0.319l18.505,12.577c0.495,0.336,0.778,0.843,0.778,1.389s-0.283,1.053-0.779,1.389L36.198,37.966
		C35.891,38.175,35.557,38.285,35.232,38.285z M35.809,12.188v23.624L53.188,24L35.809,12.188z"/>
	<g style="opacity:0.6;">
		<path style="fill:#FFFFFF;" d="M13,57c-0.552,0-1-0.447-1-1V38.084C12,29.344,18.344,23,27.083,23H35c0.553,0,1,0.448,1,1
			s-0.447,1-1,1h-7.917C19.38,25,14,30.38,14,38.084V56C14,56.553,13.552,57,13,57z"/>
	</g>
</g>
</svg>
