<?xml version="1.0" encoding="iso-8859-1"?>
<!-- Generator: Adobe Illustrator 17.0.1, SVG Export Plug-In . SVG Version: 6.00 Build 0)  -->
<!DOCTYPE svg PUBLIC "-//W3C//DTD SVG 1.1//EN" "http://www.w3.org/Graphics/SVG/1.1/DTD/svg11.dtd">
<svg version="1.1" id="Layer_1" xmlns="http://www.w3.org/2000/svg" xmlns:xlink="http://www.w3.org/1999/xlink" x="0px" y="0px"
	 width="64px" height="64px" viewBox="0 0 64 64" style="enable-background:new 0 0 64 64;" xml:space="preserve">
<g id="icon-m-wlan-hotspot">
	<rect id="icon-m-wlan-hotspot_1_" style="opacity:0;fill:#FFFFFF;" width="64" height="64"/>
	<path style="fill:#FFFFFF;" d="M40.221,42.432l-0.53-0.537c-2.074-2.101-4.84-3.257-7.788-3.257c-2.826,0-5.513,1.082-7.565,3.047
		l-0.53,0.507L6.88,25.263c-1.915-1.915-2.003-5.012-0.2-7.051c7.098-6.277,16.114-9.698,25.454-9.698
		c9.337,0,18.351,3.417,25.381,9.623c1.873,2.096,1.794,5.193-0.116,7.115L40.221,42.432z M31.903,37.138
		c3.099,0,6.021,1.124,8.308,3.182l16.125-16.127c1.351-1.359,1.405-3.553,0.122-4.995c-6.691-5.899-15.354-9.184-24.324-9.184
		c-8.974,0-17.638,3.288-24.396,9.257c-1.214,1.381-1.153,3.575,0.202,4.931l15.905,15.906C26.1,38.188,28.933,37.138,31.903,37.138
		z"/>
	<g>
		<path style="opacity:0.6;fill:#FFFFFF;" d="M51.765,29.244c-5.101-5.594-12.34-8.803-19.861-8.803S17.146,23.65,12.05,29.244
			l-1.479-1.347c5.475-6.009,13.25-9.456,21.333-9.456s15.86,3.446,21.339,9.455L51.765,29.244z"/>
		<path style="opacity:0.6;fill:#FFFFFF;" d="M45.681,35.393c-3.679-3.681-8.57-5.708-13.775-5.708
			c-5.203,0-10.095,2.026-13.775,5.706l-1.414-1.414c4.058-4.057,9.453-6.292,15.189-6.292c5.739,0,11.133,2.235,15.189,6.293
			L45.681,35.393z"/>
	</g>
	<path style="fill:#FFFFFF;" d="M31.906,55.6c-3.476,0-6.303-2.828-6.303-6.304s2.828-6.303,6.303-6.303
		c3.476,0,6.303,2.827,6.303,6.303S35.382,55.6,31.906,55.6z M31.906,44.493c-2.648,0-4.803,2.154-4.803,4.803
		s2.155,4.804,4.803,4.804c2.649,0,4.803-2.155,4.803-4.804S34.555,44.493,31.906,44.493z"/>
</g>
</svg>
