<?xml version="1.0" encoding="iso-8859-1"?>
<!-- Generator: Adobe Illustrator 17.0.1, SVG Export Plug-In . SVG Version: 6.00 Build 0)  -->
<!DOCTYPE svg PUBLIC "-//W3C//DTD SVG 1.1//EN" "http://www.w3.org/Graphics/SVG/1.1/DTD/svg11.dtd">
<svg version="1.1" id="Layer_1" xmlns="http://www.w3.org/2000/svg" xmlns:xlink="http://www.w3.org/1999/xlink" x="0px" y="0px"
	 width="64px" height="64px" viewBox="0 0 64 64" style="enable-background:new 0 0 64 64;" xml:space="preserve">
<g id="icon-m-watch">
	<rect id="icon-m-watch_1_" style="opacity:0;fill:#FFFFFF;" width="64.001" height="64"/>
	<path style="fill:#FFFFFF;" d="M44.704,46H19.296C16.927,46,15,44.073,15,41.704V16.296C15,13.927,16.927,12,19.296,12h25.408
		c2.369,0,4.297,1.927,4.297,4.296v25.408C49.001,44.073,47.073,46,44.704,46z M19.296,14C18.03,14,17,15.03,17,16.296v25.408
		C17,42.97,18.03,44,19.296,44h25.408c1.267,0,2.297-1.03,2.297-2.296V16.296c0-1.266-1.03-2.296-2.297-2.296H19.296z"/>
	<g style="opacity:0.6;">
		<path style="fill:#FFFFFF;" d="M41.999,59h-20c-1.654,0-3-1.346-3-3V45h2v11c0,0.552,0.449,1,1,1h20c0.552,0,1-0.448,1-1V45h2v11
			C44.999,57.654,43.653,59,41.999,59z"/>
	</g>
	<g style="opacity:0.6;">
		<path style="fill:#FFFFFF;" d="M44.999,13h-2v-3c0-0.551-0.448-1-1-1h-20c-0.551,0-1,0.449-1,1v3h-2v-3c0-1.654,1.346-3,3-3h20
			c1.654,0,3,1.346,3,3V13z"/>
	</g>
	<path style="fill:#FFFFFF;" d="M48.001,24.774c2.026,0,3.668,1.642,3.668,3.668c0,2.026-1.642,3.668-3.668,3.668V24.774z"/>
	<path style="fill:#FFFFFF;" d="M31.999,32c-0.249,0-0.498-0.092-0.691-0.277l-8.715-8.333c-0.399-0.381-0.414-1.015-0.032-1.414
		s1.016-0.414,1.414-0.032l8.009,7.657L42.07,19.523c0.391-0.39,1.023-0.39,1.414,0c0.391,0.391,0.391,1.024,0,1.415l-10.779,10.77
		C32.51,31.902,32.254,32,31.999,32z"/>
</g>
</svg>
