<?xml version="1.0" encoding="iso-8859-1"?>
<!-- Generator: Adobe Illustrator 17.0.1, SVG Export Plug-In . SVG Version: 6.00 Build 0)  -->
<!DOCTYPE svg PUBLIC "-//W3C//DTD SVG 1.1//EN" "http://www.w3.org/Graphics/SVG/1.1/DTD/svg11.dtd">
<svg version="1.1" id="Layer_1" xmlns="http://www.w3.org/2000/svg" xmlns:xlink="http://www.w3.org/1999/xlink" x="0px" y="0px"
	 width="96px" height="96px" viewBox="0 0 96 96" style="enable-background:new 0 0 96 96;" xml:space="preserve">
<g id="icon-l-bluetooth">
	<rect id="icon-l-bluetooth_1_" style="opacity:0;fill:#FFFFFF;" width="96" height="96"/>
	<path style="fill:#FFFFFF;" d="M21.123,68.749c-0.301,0-0.599-0.136-0.796-0.394c-0.335-0.438-0.251-1.066,0.188-1.401L46,47.506
		V12.163c0-1.854,0.884-2.568,1.411-2.829c0.527-0.261,1.631-0.53,3.105,0.594l20.06,15.308c1.013,0.773,1.594,1.872,1.594,3.015
		s-0.581,2.242-1.594,3.015L47.663,48.752c-0.037,0.033-0.077,0.063-0.119,0.09L21.728,68.544
		C21.547,68.683,21.334,68.749,21.123,68.749z M48.407,11.106c-0.047,0-0.084,0.007-0.109,0.02C48.178,11.186,48,11.511,48,12.163
		v33.816l21.363-16.303c0.521-0.397,0.807-0.903,0.807-1.425s-0.286-1.028-0.807-1.425l-20.06-15.308
		C48.895,11.207,48.581,11.106,48.407,11.106z"/>
	<g style="opacity:0.6;">
		<path style="fill:#FFFFFF;" d="M48.416,86.901c-0.434,0-0.775-0.115-1.005-0.229C46.884,86.411,46,85.697,46,83.843V48.494
			L20.515,29.041c-0.439-0.335-0.523-0.963-0.188-1.402c0.336-0.439,0.965-0.521,1.402-0.188l48.847,37.286
			c1.013,0.772,1.594,1.871,1.594,3.015c0,1.145-0.581,2.243-1.594,3.016l-20.06,15.31C49.687,86.71,48.974,86.901,48.416,86.901z
			 M48,50.021v33.822c0,0.652,0.178,0.978,0.298,1.037c0.12,0.053,0.486,0.004,1.005-0.393l20.06-15.31
			c0.521-0.397,0.807-0.903,0.807-1.426c0-0.521-0.286-1.027-0.807-1.425L48,50.021z"/>
	</g>
</g>
</svg>
