<?xml version="1.0" encoding="iso-8859-1"?>
<!-- Generator: Adobe Illustrator 17.0.1, SVG Export Plug-In . SVG Version: 6.00 Build 0)  -->
<!DOCTYPE svg PUBLIC "-//W3C//DTD SVG 1.1//EN" "http://www.w3.org/Graphics/SVG/1.1/DTD/svg11.dtd">
<svg version="1.1" id="Layer_1" xmlns="http://www.w3.org/2000/svg" xmlns:xlink="http://www.w3.org/1999/xlink" x="0px" y="0px"
	 width="64px" height="64px" viewBox="0 0 64 64" style="enable-background:new 0 0 64 64;" xml:space="preserve">
<g id="icon-m-lan">
	<rect id="icon-m-lan_1_" style="opacity:0;fill:#FFFFFF;" width="64" height="64"/>
	<g>
		<path style="fill:#FFFFFF;" d="M34.635,48.825h-5.12c-2.206,0-4-1.794-4-4v-1.913c0-1.103-0.897-2-2-2h-4.7c-2.206,0-4-1.794-4-4
			V19.175c0-2.206,1.794-4,4-4h26.37c2.206,0,4,1.794,4,4v17.737c0,2.206-1.794,4-4,4h-4.55c-1.103,0-2,0.897-2,2v1.913
			C38.635,47.031,36.841,48.825,34.635,48.825z M18.815,17.175c-1.103,0-2,0.897-2,2v17.737c0,1.103,0.897,2,2,2h4.7
			c2.206,0,4,1.794,4,4v1.913c0,1.103,0.897,2,2,2h5.12c1.103,0,2-0.897,2-2v-1.913c0-2.206,1.794-4,4-4h4.55c1.103,0,2-0.897,2-2
			V19.175c0-1.103-0.897-2-2-2H18.815z"/>
		<g>
			<path style="fill:#FFFFFF;" d="M22.815,45.438c0,1.1-0.9,2-2,2h-3c-1.1,0-2-0.9-2-2l0,0c0-1.1,0.9-2,2-2h3
				C21.915,43.438,22.815,44.338,22.815,45.438L22.815,45.438z"/>
			<path style="fill:#FFFFFF;" d="M20.815,48.438h-3c-1.654,0-3-1.346-3-3s1.346-3,3-3h3c1.654,0,3,1.346,3,3
				S22.469,48.438,20.815,48.438z M17.815,44.438c-0.551,0-1,0.448-1,1s0.449,1,1,1h3c0.551,0,1-0.448,1-1s-0.449-1-1-1H17.815z"/>
		</g>
		<path style="fill:#FFFFFF;" d="M46.185,48.438h-3c-1.654,0-3-1.346-3-3s1.346-3,3-3h3c1.654,0,3,1.346,3,3
			S47.839,48.438,46.185,48.438z M43.185,44.438c-0.552,0-1,0.448-1,1s0.448,1,1,1h3c0.552,0,1-0.448,1-1s-0.448-1-1-1H43.185z"/>
		<path style="fill:#FFFFFF;" d="M49.481,53.748H14.665c-2.206,0-4-1.794-4-4V14.693c0-2.206,1.794-4,4-4h34.816
			c2.206,0,4,1.794,4,4v35.055C53.481,51.954,51.688,53.748,49.481,53.748z M14.665,12.693c-1.103,0-2,0.897-2,2v35.055
			c0,1.103,0.897,2,2,2h34.816c1.103,0,2-0.897,2-2V14.693c0-1.103-0.897-2-2-2H14.665z"/>
		<rect x="19.019" y="19.57" style="fill:#FFFFFF;" width="2" height="9.309"/>
		<rect x="23.019" y="19.57" style="fill:#FFFFFF;" width="2" height="9.309"/>
		<rect x="27.019" y="19.57" style="fill:#FFFFFF;" width="2" height="9.309"/>
		<rect x="31.019" y="19.57" style="fill:#FFFFFF;" width="2" height="9.309"/>
		<rect x="35.02" y="19.57" style="fill:#FFFFFF;" width="2" height="9.309"/>
		<rect x="39.02" y="19.57" style="fill:#FFFFFF;" width="2" height="9.309"/>
		<rect x="43.02" y="19.57" style="fill:#FFFFFF;" width="2" height="9.309"/>
	</g>
</g>
</svg>
