<?xml version="1.0" encoding="iso-8859-1"?>
<!-- Generator: Adobe Illustrator 17.0.1, SVG Export Plug-In . SVG Version: 6.00 Build 0)  -->
<!DOCTYPE svg PUBLIC "-//W3C//DTD SVG 1.1//EN" "http://www.w3.org/Graphics/SVG/1.1/DTD/svg11.dtd">
<svg version="1.1" id="Layer_1" xmlns="http://www.w3.org/2000/svg" xmlns:xlink="http://www.w3.org/1999/xlink" x="0px" y="0px"
	 width="64px" height="64px" viewBox="0 0 64 64" style="enable-background:new 0 0 64 64;" xml:space="preserve">
<g id="icon-m-levels">
	<rect id="icon-m-levels_1_" style="opacity:0;fill:#FFFFFF;" width="64" height="64"/>
	<g>
		<g style="opacity:0.5;">
			<path style="fill:#FFFFFF;" d="M32,54.635c-1.59,0-3.179-0.352-4.418-1.056l-16.459-9.341c-1.35-0.768-2.124-1.896-2.124-3.099
				c0-1.201,0.774-2.33,2.124-3.097l4.044-2.295c0.481-0.272,1.09-0.104,1.363,0.377c0.272,0.48,0.104,1.091-0.376,1.363
				l-4.043,2.294c-0.706,0.4-1.111,0.896-1.111,1.357c0,0.463,0.405,0.958,1.112,1.359L28.57,51.84
				c1.86,1.056,5.002,1.055,6.861,0.001l16.455-9.342c0.707-0.401,1.112-0.896,1.112-1.358s-0.405-0.957-1.112-1.359l-4.041-2.292
				c-0.48-0.272-0.649-0.883-0.377-1.363c0.273-0.481,0.884-0.648,1.363-0.377l4.042,2.293c1.351,0.768,2.125,1.896,2.125,3.099
				s-0.774,2.331-2.124,3.098L36.419,53.58C35.18,54.283,33.59,54.635,32,54.635z"/>
			<path style="fill:#FFFFFF;" d="M32,45.123c-1.59,0-3.179-0.352-4.418-1.056l-16.459-9.341c-1.35-0.768-2.124-1.896-2.124-3.098
				c0-1.202,0.774-2.331,2.124-3.098l4.044-2.294c0.481-0.274,1.09-0.104,1.363,0.376c0.272,0.48,0.104,1.091-0.376,1.363
				l-4.043,2.294c-0.707,0.401-1.112,0.896-1.111,1.358c0,0.462,0.405,0.957,1.111,1.358l16.459,9.341
				c1.86,1.057,5.002,1.055,6.861,0.001l16.455-9.341c0.707-0.401,1.112-0.896,1.112-1.358s-0.405-0.957-1.112-1.358l-4.041-2.294
				c-0.48-0.272-0.649-0.883-0.377-1.363c0.273-0.479,0.884-0.648,1.363-0.376l4.042,2.294c1.351,0.767,2.125,1.896,2.125,3.098
				s-0.774,2.331-2.124,3.097l-16.455,9.342C35.18,44.771,33.59,45.123,32,45.123z"/>
		</g>
		<path style="fill:#FFFFFF;" d="M32,35.606c-1.657,0-3.227-0.373-4.418-1.051l-16.459-9.341c-1.35-0.767-2.124-1.896-2.124-3.098
			c0-1.202,0.774-2.331,2.124-3.098L27.58,9.678c1.193-0.677,2.762-1.049,4.419-1.049c1.657,0,3.227,0.373,4.419,1.049l16.456,9.342
			c1.35,0.767,2.124,1.896,2.124,3.098s-0.774,2.331-2.124,3.098l-16.455,9.341C35.227,35.233,33.657,35.606,32,35.606z
			 M31.999,10.629c-1.297,0-2.548,0.287-3.432,0.789L12.11,20.758c-0.706,0.401-1.112,0.897-1.111,1.359
			c0,0.462,0.405,0.957,1.112,1.358l16.459,9.341c1.766,1.003,5.095,1.003,6.861,0l16.455-9.341
			c0.707-0.401,1.112-0.896,1.112-1.358s-0.405-0.957-1.112-1.358l-16.455-9.342C34.548,10.916,33.297,10.629,31.999,10.629z"/>
	</g>
</g>
</svg>
