<?xml version="1.0" encoding="iso-8859-1"?>
<!-- Generator: Adobe Illustrator 17.0.1, SVG Export Plug-In . SVG Version: 6.00 Build 0)  -->
<!DOCTYPE svg PUBLIC "-//W3C//DTD SVG 1.1//EN" "http://www.w3.org/Graphics/SVG/1.1/DTD/svg11.dtd">
<svg version="1.1" id="Layer_1" xmlns="http://www.w3.org/2000/svg" xmlns:xlink="http://www.w3.org/1999/xlink" x="0px" y="0px"
	 width="32px" height="32px" viewBox="0 0 32 32" style="enable-background:new 0 0 32 32;" xml:space="preserve">
<g id="icon-s-high-importance">
	<rect id="icon-s-high-importance_1_" style="opacity:0;fill:#FFFFFF;" width="32" height="32"/>
	<path style="fill:#FFFFFF;" d="M16,4.426C9.608,4.426,4.426,9.607,4.426,16c0,6.393,5.182,11.574,11.574,11.574
		S27.574,22.393,27.574,16C27.574,9.607,22.392,4.426,16,4.426z M14.889,6.798h2.223c0.626,0,1.117,0.512,1.091,1.138l-0.057,1.352
		c-0.026,0.626-0.087,1.649-0.135,2.274l-0.464,6.073c-0.048,0.625-0.6,1.136-1.226,1.136h-0.643c-0.626,0-1.178-0.511-1.226-1.136
		l-0.464-6.073c-0.048-0.625-0.108-1.648-0.135-2.274l-0.057-1.352C13.772,7.31,14.263,6.798,14.889,6.798z M17.606,24.077
		c-0.43,0.447-0.966,0.67-1.606,0.67c-0.641,0-1.176-0.223-1.605-0.67c-0.43-0.446-0.645-0.998-0.645-1.655
		c0-0.675,0.215-1.235,0.645-1.682c0.43-0.447,0.965-0.67,1.605-0.67c0.64,0,1.176,0.223,1.606,0.67
		c0.43,0.446,0.644,1.007,0.644,1.682C18.25,23.079,18.036,23.631,17.606,24.077z"/>
	<path style="opacity:0.3;fill:#FFFFFF;" d="M13.99,11.561c-0.048-0.625-0.108-1.648-0.135-2.274l-0.057-1.352
		c-0.026-0.626,0.465-1.138,1.091-1.138h2.223c0.626,0,1.117,0.512,1.091,1.138l-0.057,1.352c-0.026,0.626-0.087,1.649-0.135,2.274
		l-0.464,6.073c-0.048,0.625-0.6,1.136-1.226,1.136h-0.643c-0.626,0-1.178-0.511-1.226-1.136L13.99,11.561z"/>
</g>
</svg>
