<?xml version="1.0" encoding="iso-8859-1"?>
<!-- Generator: Adobe Illustrator 17.0.1, SVG Export Plug-In . SVG Version: 6.00 Build 0)  -->
<!DOCTYPE svg PUBLIC "-//W3C//DTD SVG 1.1//EN" "http://www.w3.org/Graphics/SVG/1.1/DTD/svg11.dtd">
<svg version="1.1" id="Layer_1" xmlns="http://www.w3.org/2000/svg" xmlns:xlink="http://www.w3.org/1999/xlink" x="0px" y="0px"
	 width="64px" height="64px" viewBox="0 0 64 64" style="enable-background:new 0 0 64 64;" xml:space="preserve">
<g id="icon-m-about">
	<rect id="icon-m-about_1_" style="opacity:0;fill:#FFFFFF;" width="64" height="64"/>
	<g style="opacity:0.6;">
		<path style="fill:#FFFFFF;" d="M44.839,57.031H19.161c-2.863,0-5.192-2.329-5.192-5.192V12.161c0-2.863,2.329-5.192,5.192-5.192
			h25.678c2.863,0,5.192,2.329,5.192,5.192v39.678C50.031,54.702,47.702,57.031,44.839,57.031z M19.161,9.031
			c-1.726,0-3.13,1.404-3.13,3.13v39.678c0,1.727,1.404,3.13,3.13,3.13h25.678c1.727,0,3.13-1.403,3.13-3.13V12.161
			c0-1.726-1.403-3.13-3.13-3.13H19.161z"/>
	</g>
	<circle style="fill:#FFFFFF;" cx="32" cy="21.369" r="2.5"/>
	<g>
		<path style="fill:#FFFFFF;" d="M33.197,43.66c-0.551,0-0.999-0.446-1-0.998l-0.021-11.05c-0.001-0.833-0.679-1.509-1.511-1.509
			h-2.508c-0.552,0-1-0.448-1-1s0.448-1,1-1h2.508c1.934,0,3.508,1.573,3.511,3.506l0.021,11.05
			c0.001,0.553-0.446,1.001-0.998,1.002C33.198,43.66,33.198,43.66,33.197,43.66z"/>
		<path style="fill:#FFFFFF;" d="M37.842,44.329h-9.661c-0.552,0-1-0.447-1-1s0.448-1,1-1h9.661c0.553,0,1,0.447,1,1
			S38.395,44.329,37.842,44.329z"/>
	</g>
</g>
</svg>
