<?xml version="1.0" encoding="iso-8859-1"?>
<!-- Generator: Adobe Illustrator 17.0.1, SVG Export Plug-In . SVG Version: 6.00 Build 0)  -->
<!DOCTYPE svg PUBLIC "-//W3C//DTD SVG 1.1//EN" "http://www.w3.org/Graphics/SVG/1.1/DTD/svg11.dtd">
<svg version="1.1" id="Layer_1" xmlns="http://www.w3.org/2000/svg" xmlns:xlink="http://www.w3.org/1999/xlink" x="0px" y="0px"
	 width="64px" height="64px" viewBox="0 0 64 64" style="enable-background:new 0 0 64 64;" xml:space="preserve">
<g id="icon-m-mwlan-2">
	<rect id="icon-m-mwlan-2_3_" style="opacity:0;fill:#FFFFFF;" width="64" height="64"/>
	<g style="opacity:0.6;">
		<path style="fill:#FFFFFF;" d="M32.134,52.327L32.134,52.327c-1.41,0-2.732-0.546-3.723-1.537L7.48,29.859
			c-1.957-1.957-2.047-5.121-0.205-7.204l0.087-0.087c6.862-6.061,15.66-9.399,24.771-9.399c9.109,0,17.904,3.334,24.765,9.389
			l0.085,0.085c1.848,2.076,1.766,5.24-0.186,7.204l-20.94,20.943C34.866,51.781,33.544,52.327,32.134,52.327z M8.735,24.025
			c-1.104,1.292-1.038,3.223,0.159,4.42l20.931,20.931c1.225,1.226,3.392,1.226,4.618,0.001l20.938-20.941
			c1.192-1.2,1.253-3.131,0.145-4.419c-6.487-5.705-14.792-8.846-23.393-8.846C23.532,15.17,15.225,18.314,8.735,24.025z"/>
		<g>
			<path style="fill:#FFFFFF;" d="M52.327,33.908c-0.271,0-0.542-0.109-0.739-0.326c-4.996-5.481-12.089-8.624-19.457-8.624
				s-14.458,3.143-19.45,8.624c-0.371,0.406-1.005,0.438-1.413,0.065c-0.408-0.372-0.438-1.004-0.066-1.413
				c5.371-5.896,12.999-9.277,20.929-9.277s15.561,3.381,20.936,9.276c0.372,0.408,0.343,1.041-0.065,1.413
				C52.81,33.822,52.568,33.908,52.327,33.908z"/>
			<path style="fill:#FFFFFF;" d="M46.331,39.904c-0.256,0-0.512-0.098-0.707-0.293c-3.602-3.605-8.393-5.591-13.491-5.591
				c-5.097,0-9.888,1.984-13.491,5.589c-0.391,0.391-1.023,0.391-1.414,0s-0.391-1.023,0-1.414c3.98-3.981,9.274-6.175,14.905-6.175
				c5.633,0,10.927,2.193,14.905,6.177c0.391,0.391,0.391,1.024,0,1.414C46.843,39.807,46.587,39.904,46.331,39.904z"/>
			<path style="fill:#FFFFFF;" d="M40.033,46.199c-0.256,0-0.512-0.098-0.707-0.293c-1.922-1.921-4.477-2.979-7.193-2.979
				c-2.715,0-5.269,1.059-7.193,2.979c-0.39,0.391-1.023,0.391-1.414,0c-0.39-0.391-0.39-1.024,0.001-1.414
				c2.301-2.3,5.357-3.565,8.606-3.565c3.252,0,6.309,1.267,8.607,3.565c0.391,0.391,0.391,1.023,0,1.414
				C40.545,46.102,40.289,46.199,40.033,46.199z"/>
		</g>
	</g>
	<g>
		<path style="fill:#FFFFFF;" d="M32.134,52.329c-1.349,0-2.697-0.513-3.723-1.539L17.119,39.498l1.414-1.414l11.292,11.292
			c1.273,1.273,3.345,1.272,4.618,0.001l11.179-11.18l1.414,1.414l-11.179,11.18C34.831,51.816,33.482,52.329,32.134,52.329z"/>
		<g>
			<path style="fill:#FFFFFF;" d="M46.331,39.904c-0.256,0-0.512-0.098-0.707-0.293c-3.602-3.605-8.393-5.591-13.491-5.591
				c-5.097,0-9.888,1.984-13.491,5.589c-0.391,0.391-1.023,0.391-1.414,0s-0.391-1.023,0-1.414c3.98-3.981,9.274-6.175,14.905-6.175
				c5.633,0,10.927,2.193,14.905,6.177c0.391,0.391,0.391,1.024,0,1.414C46.843,39.807,46.587,39.904,46.331,39.904z"/>
			<path style="fill:#FFFFFF;" d="M40.033,46.199c-0.256,0-0.512-0.098-0.707-0.293c-1.922-1.921-4.477-2.979-7.193-2.979
				c-2.715,0-5.269,1.059-7.193,2.979c-0.39,0.391-1.023,0.391-1.414,0c-0.39-0.391-0.39-1.024,0.001-1.414
				c2.301-2.3,5.357-3.565,8.606-3.565c3.252,0,6.309,1.267,8.607,3.565c0.391,0.391,0.391,1.023,0,1.414
				C40.545,46.102,40.289,46.199,40.033,46.199z"/>
		</g>
	</g>
</g>
</svg>
