<?xml version="1.0" encoding="iso-8859-1"?>
<!-- Generator: Adobe Illustrator 17.0.1, SVG Export Plug-In . SVG Version: 6.00 Build 0)  -->
<!DOCTYPE svg PUBLIC "-//W3C//DTD SVG 1.1//EN" "http://www.w3.org/Graphics/SVG/1.1/DTD/svg11.dtd">
<svg version="1.1" id="Layer_1" xmlns="http://www.w3.org/2000/svg" xmlns:xlink="http://www.w3.org/1999/xlink" x="0px" y="0px"
	 width="64px" height="64px" viewBox="0 0 64 64" style="enable-background:new 0 0 64 64;" xml:space="preserve">
<g id="icon-m-display">
	<rect id="icon-m-display_1_" style="opacity:0;fill:#FFFFFF;" width="64" height="64"/>
	<g style="opacity:0.6;">
		<path style="fill:#FFFFFF;" d="M44.839,57.031H19.161c-2.863,0-5.192-2.329-5.192-5.192V12.161c0-2.863,2.329-5.192,5.192-5.192
			h25.678c2.863,0,5.192,2.329,5.192,5.192v39.678C50.031,54.702,47.702,57.031,44.839,57.031z M19.161,9.031
			c-1.726,0-3.13,1.404-3.13,3.13v39.678c0,1.727,1.404,3.13,3.13,3.13h25.678c1.727,0,3.13-1.403,3.13-3.13V12.161
			c0-1.726-1.403-3.13-3.13-3.13H19.161z"/>
	</g>
	<path style="fill:#FFFFFF;" d="M42.917,49.975H21.081c-1.722,0-3.123-1.401-3.123-3.123V17.015c0-1.722,1.401-3.123,3.123-3.123
		h21.836c1.722,0,3.123,1.401,3.123,3.123v29.836C46.04,48.573,44.639,49.975,42.917,49.975z M21.081,15.975
		c-0.574,0-1.041,0.467-1.041,1.041v29.836c0,0.574,0.467,1.041,1.041,1.041h21.836c0.574,0,1.041-0.467,1.041-1.041V17.015
		c0-0.574-0.467-1.041-1.041-1.041H21.081z"/>
</g>
</svg>
