<?xml version="1.0" encoding="iso-8859-1"?>
<!-- Generator: Adobe Illustrator 17.0.1, SVG Export Plug-In . SVG Version: 6.00 Build 0)  -->
<!DOCTYPE svg PUBLIC "-//W3C//DTD SVG 1.1//EN" "http://www.w3.org/Graphics/SVG/1.1/DTD/svg11.dtd">
<svg version="1.1" id="Layer_1" xmlns="http://www.w3.org/2000/svg" xmlns:xlink="http://www.w3.org/1999/xlink" x="0px" y="0px"
	 width="32px" height="32px" viewBox="0 0 32 32" style="enable-background:new 0 0 32 32;" xml:space="preserve">
<g id="icon-s-bluetooth">
	<rect id="icon-s-bluetooth_1_" style="opacity:0;fill:#FFFFFF;" width="32" height="32"/>
	<g>
		<path style="fill:#FFFFFF;" d="M6.524,23.869c-0.301,0-0.599-0.136-0.796-0.394c-0.335-0.438-0.251-1.066,0.188-1.401l8.608-6.569
			V3.478c0-0.714,0.307-1.275,0.841-1.54c0.535-0.265,1.167-0.167,1.734,0.266l7.064,5.392c0.504,0.384,0.794,0.944,0.794,1.534
			s-0.29,1.15-0.794,1.534l-7.998,6.104c-0.024,0.02-0.048,0.039-0.074,0.056l-8.964,6.84C6.948,23.803,6.735,23.869,6.524,23.869z
			 M16.527,4.283l-0.002,9.695l6.351-4.847L16.527,4.283z"/>
		<g>
			<g style="opacity:0.6;">
				<path style="fill:#FFFFFF;" d="M15.992,30.21c-0.217,0-0.428-0.049-0.626-0.146c-0.534-0.265-0.841-0.826-0.841-1.54V16.497
					L5.916,9.923C5.477,9.588,5.393,8.96,5.728,8.521C6.064,8.082,6.692,7.999,7.13,8.333l17.035,13.005
					c0.504,0.384,0.794,0.943,0.794,1.534s-0.29,1.15-0.794,1.535l-7.064,5.391C16.743,30.07,16.36,30.21,15.992,30.21z
					 M16.525,18.023v9.694l6.351-4.844L16.525,18.023z"/>
			</g>
		</g>
	</g>
</g>
</svg>
