<?xml version="1.0" encoding="iso-8859-1"?>
<!-- Generator: Adobe Illustrator 17.0.1, SVG Export Plug-In . SVG Version: 6.00 Build 0)  -->
<!DOCTYPE svg PUBLIC "-//W3C//DTD SVG 1.1//EN" "http://www.w3.org/Graphics/SVG/1.1/DTD/svg11.dtd">
<svg version="1.1" id="Layer_1" xmlns="http://www.w3.org/2000/svg" xmlns:xlink="http://www.w3.org/1999/xlink" x="0px" y="0px"
	 width="64px" height="64px" viewBox="0 0 64 64" style="enable-background:new 0 0 64 64;" xml:space="preserve">
<g id="icon-m-timer">
	<rect id="icon-m-timer_1_" style="opacity:0;fill:#FFFFFF;" width="64" height="64"/>
	<g>
		<path style="opacity:0.6;fill:#FFFFFF;" d="M32,55.291C19.158,55.291,8.71,44.843,8.71,32c0-11.406,8.489-21.304,19.747-23.023
			l1.066-0.163l0.082,1.075c0.096,1.254,1.148,2.237,2.396,2.237c1.247,0,2.3-0.982,2.396-2.237l0.082-1.075l1.066,0.163
			C46.801,10.695,55.29,20.593,55.29,32C55.29,44.843,44.842,55.291,32,55.291z M27.83,11.117C18.006,13.075,10.71,21.889,10.71,32
			c0,11.74,9.551,21.291,21.29,21.291S53.29,43.74,53.29,32c0-10.111-7.296-18.925-17.12-20.883
			c-0.594,1.752-2.256,3.009-4.17,3.009C30.086,14.126,28.424,12.87,27.83,11.117z"/>
		<path style="fill:#FFFFFF;" d="M28.109,10.005c-0.019-0.146-0.027-0.22-0.027-0.296c0-2.16,1.758-3.917,3.918-3.917
			s3.918,1.757,3.918,3.917c0,0.076-0.009,0.15-0.019,0.224l-1.005-0.007L34.908,9.8c0.01-1.7-1.299-3.008-2.908-3.008
			c-1.609,0-2.918,1.309-2.918,2.917l0.024,0.217L28.109,10.005z"/>
	</g>
	<g>
		<g>
			<path style="fill:#FFFFFF;" d="M32,14.126c-2.287,0-4.215-1.794-4.39-4.084l1.994-0.152c0.096,1.254,1.148,2.237,2.396,2.237
				c1.247,0,2.3-0.982,2.396-2.237l1.994,0.152C36.215,12.332,34.287,14.126,32,14.126z"/>
			<path style="fill:#FFFFFF;" d="M27.61,10.044c-0.019-0.141-0.028-0.237-0.028-0.335c0-2.436,1.982-4.417,4.418-4.417
				c2.437,0,4.418,1.981,4.418,4.417c0,0.099-0.01,0.195-0.022,0.291l-2-0.113l0.018-0.153c0.005-1.357-1.08-2.442-2.413-2.442
				c-1.333,0-2.418,1.084-2.418,2.417l0.022,0.177L27.61,10.044z"/>
		</g>
		<path style="fill:#FFFFFF;" d="M32,33c-0.256,0-0.512-0.098-0.707-0.293L13.565,14.98c-0.391-0.391-0.391-1.023,0-1.414
			s1.023-0.391,1.414,0l17.728,17.727c0.391,0.391,0.391,1.023,0,1.414C32.512,32.902,32.256,33,32,33z"/>
	</g>
</g>
</svg>
