<?xml version="1.0" encoding="iso-8859-1"?>
<!-- Generator: Adobe Illustrator 17.0.1, SVG Export Plug-In . SVG Version: 6.00 Build 0)  -->
<!DOCTYPE svg PUBLIC "-//W3C//DTD SVG 1.1//EN" "http://www.w3.org/Graphics/SVG/1.1/DTD/svg11.dtd">
<svg version="1.1" id="Layer_1" xmlns="http://www.w3.org/2000/svg" xmlns:xlink="http://www.w3.org/1999/xlink" x="0px" y="0px"
	 width="64px" height="64px" viewBox="0 0 64 64" style="enable-background:new 0 0 64 64;" xml:space="preserve">
<g id="icon-m-gesture">
	<rect id="icon-m-gesture_1_" style="opacity:0;fill:#FFFFFF;" width="64" height="64"/>
	<g>
		<g>
			<rect x="33.272" y="17.319" style="fill:#FFFFFF;" width="14.063" height="2"/>
			<g>
				<polygon style="fill:#FFFFFF;" points="41.836,25.108 40.703,23.892 46.699,18.32 40.703,12.747 41.836,11.531 49.136,18.32 
									"/>
			</g>
		</g>
		<path style="opacity:0.6;fill:#FFFFFF;" d="M35.606,55c-3.287,0-6.035-0.822-7.947-2.524c-1.38-1.229-3.128-3.079-4.818-4.905
			c-1.838-1.985-3.738-4.019-5.145-5.209c-1.399-1.183-1.87-3.121-1.199-4.953c0.599-1.638,1.954-2.69,3.45-2.69
			c0.764,0,1.518,0.265,2.24,0.784l1.434,1.03l-0.947-4.373c-0.099-0.409-2.542-10.574-2.892-13.263
			c-0.153-1.177,0.158-2.277,0.876-3.095c0.697-0.793,1.707-1.248,2.771-1.248c1.436,0,2.702,0.825,3.387,2.208
			c1.242,2.508,4.051,10.132,4.958,12.619c1.432-0.218,4.488-0.621,7.55-0.621c1.468,0,2.769,0.095,3.865,0.282
			c3.634,0.62,5.889,4.226,6.119,6.59l0.043,0.441c0.223,2.272,0.744,7.593,1.013,11.358c0.066,0.922-0.344,1.787-1.218,2.725
			C46.896,52.576,41.216,55,35.608,55C35.608,55,35.607,55,35.606,55z M19.948,36.724c-0.787,0-1.338,0.744-1.572,1.382
			c-0.302,0.824-0.299,1.979,0.612,2.749c1.5,1.269,3.443,3.367,5.321,5.397c1.658,1.792,3.373,3.566,4.68,4.73
			C30.935,52.714,33.662,53,35.606,53c0.001,0,0.001,0,0.002,0c4.995,0,10.158-2.146,12.076-4.207
			c0.46-0.495,0.711-0.928,0.688-1.26c-0.268-3.739-0.787-9.021-1.009-11.286l-0.043-0.432c-0.145-1.479-1.76-4.348-4.465-4.809
			c-0.986-0.168-2.174-0.251-3.529-0.251c-3.934,0-7.99,0.719-8.03,0.726l-0.83,0.149l-0.287-0.793
			c-0.037-0.103-3.742-10.343-5.153-13.191c-0.473-0.954-1.202-1.096-1.595-1.096c-0.482,0-0.956,0.212-1.269,0.568
			c-0.338,0.386-0.475,0.91-0.396,1.518c0.336,2.584,2.833,12.972,2.858,13.077l2.051,9.469l-5.653-4.054
			C20.646,36.86,20.285,36.724,19.948,36.724z"/>
		<path style="fill:#FFFFFF;" d="M21.535,28.444c-4.768-0.975-8.09-5.216-7.9-10.086c0.213-5.455,4.819-9.733,10.28-9.508
			c5.456,0.213,9.721,4.825,9.508,10.28c-0.095,2.416-1.065,4.708-2.734,6.453l-1.445-1.382c1.332-1.393,2.106-3.221,2.181-5.149
			c0.17-4.354-3.234-8.033-7.587-8.204c-4.336-0.151-8.033,3.234-8.204,7.588c-0.151,3.886,2.5,7.271,6.303,8.048L21.535,28.444z"/>
	</g>
</g>
</svg>
