<?xml version="1.0" encoding="iso-8859-1"?>
<!-- Generator: Adobe Illustrator 17.0.1, SVG Export Plug-In . SVG Version: 6.00 Build 0)  -->
<!DOCTYPE svg PUBLIC "-//W3C//DTD SVG 1.1//EN" "http://www.w3.org/Graphics/SVG/1.1/DTD/svg11.dtd">
<svg version="1.1" id="Layer_1" xmlns="http://www.w3.org/2000/svg" xmlns:xlink="http://www.w3.org/1999/xlink" x="0px" y="0px"
	 width="64px" height="64px" viewBox="0 0 64 64" style="enable-background:new 0 0 64 64;" xml:space="preserve">
<g id="icon-m-chat">
	<rect id="icon-m-chat_1_" style="opacity:0;fill:#FFFFFF;" width="64" height="64"/>
	<path style="fill:#FFFFFF;" d="M43.549,24.118c-0.1-0.002-8.695-0.003-8.796-0.003c-7.518,0-13.612,5.699-13.612,12.728
		c0,7.03,6.094,12.795,13.612,12.795l15.138-0.045c0.073,3.54,3.162,6.293,6.968,6.293v-6.314v-0.208v-12.52
		C56.859,29.908,50.927,24.268,43.549,24.118z"/>
	<path style="opacity:0.5;fill:#FFFFFF;" d="M20.451,12.118c0.1-0.002,8.695-0.003,8.796-0.003c7.518,0,13.612,5.699,13.612,12.728
		c0,7.03-6.094,12.795-13.612,12.795l-15.138-0.045c-0.073,3.54-3.162,6.293-6.968,6.293v-6.314v-0.208v-12.52
		C7.141,17.908,13.073,12.268,20.451,12.118z"/>
</g>
</svg>
