<?xml version="1.0" encoding="iso-8859-1"?>
<!-- Generator: Adobe Illustrator 17.0.1, SVG Export Plug-In . SVG Version: 6.00 Build 0)  -->
<!DOCTYPE svg PUBLIC "-//W3C//DTD SVG 1.1//EN" "http://www.w3.org/Graphics/SVG/1.1/DTD/svg11.dtd">
<svg version="1.1" id="Layer_1" xmlns="http://www.w3.org/2000/svg" xmlns:xlink="http://www.w3.org/1999/xlink" x="0px" y="0px"
	 width="32px" height="32px" viewBox="0 0 32 32" style="enable-background:new 0 0 32 32;" xml:space="preserve">
<g id="icon-lock-friend-request_2_">
	<rect id="icon-lock-friend-request_3_" style="opacity:0;fill:#FFFFFF;" width="32" height="32"/>
	<g id="icon-lock-invitation_2_">
		<g>
			<path style="fill:#EDFBFF;" d="M23.54,16.819c1.958-1.227,3.265-3.398,3.265-5.881C26.805,7.107,23.702,4,19.873,4
				c-3.829,0-6.932,3.107-6.932,6.938c0,2.482,1.307,4.654,3.265,5.881c-4.343,1.517-7.46,5.65-7.46,10.515H31
				C31,22.469,27.883,18.336,23.54,16.819z"/>
			<path style="fill:#48CDF5;" d="M14.667,18.508c0-0.614-0.162-0.795-0.792-0.795h-3.517c-0.63,0-0.441-0.182-0.441-0.795v-3.136
				C9.917,13.169,9.735,13,9.105,13H7.522c-0.63,0-0.772,0.169-0.772,0.782v3.136c0,0.614-0.162,0.795-0.792,0.795H2.633
				C2.004,17.713,2,17.895,2,18.508v1.591c0,0.613,0.162,0.795,0.792,0.795h3.167c0.63,0,0.772,0.871,0.772,0.855l0.02,3.122
				c0,0.795,0.162,0.795,0.792,0.795h1.583c0.63,0,0.792-0.181,0.792-0.795l-0.02-3.122c0-0.614,0.182-0.855,0.811-0.855h3.167
				c0.629,0,0.792-0.182,0.792-0.795V18.508z"/>
		</g>
	</g>
</g>
</svg>
