<?xml version="1.0" encoding="iso-8859-1"?>
<!-- Generator: Adobe Illustrator 19.0.0, SVG Export Plug-In . SVG Version: 6.00 Build 0)  -->
<svg version="1.1" id="Layer_1" xmlns="http://www.w3.org/2000/svg" xmlns:xlink="http://www.w3.org/1999/xlink" x="0px" y="0px"
	 viewBox="0 0 32 32" style="enable-background:new 0 0 32 32;" xml:space="preserve">
<g id="icon-cover-pause_2_">
	<rect id="icon-cover-pause_3_" style="opacity:0;fill:#FFFFFF;" width="32" height="32"/>
	<g>
		<g>
			<path style="fill:#FFFFFF;" d="M5.65,25.719c0,1.65,1.35,3,3,3h1.435c1.65,0,3-1.35,3-3V6.281c0-1.65-1.35-3-3-3H8.65
				c-1.65,0-3,1.35-3,3V25.719z"/>
		</g>
		<g>
			<path style="fill:#FFFFFF;" d="M21.915,3.281c-1.65,0-3,1.35-3,3v19.439c0,1.65,1.35,3,3,3h1.435c1.65,0,3-1.35,3-3V6.281
				c0-1.65-1.35-3-3-3H21.915z"/>
		</g>
	</g>
</g>
</svg>
