<?xml version="1.0" encoding="iso-8859-1"?>
<!-- Generator: Adobe Illustrator 17.0.1, SVG Export Plug-In . SVG Version: 6.00 Build 0)  -->
<!DOCTYPE svg PUBLIC "-//W3C//DTD SVG 1.1//EN" "http://www.w3.org/Graphics/SVG/1.1/DTD/svg11.dtd">
<svg version="1.1" id="Layer_1" xmlns="http://www.w3.org/2000/svg" xmlns:xlink="http://www.w3.org/1999/xlink" x="0px" y="0px"
	 width="32px" height="32px" viewBox="0 0 32 32" style="enable-background:new 0 0 32 32;" xml:space="preserve">
<g id="icon-lock-alarm">
	<rect id="icon-lock-alarm_1_" style="opacity:0;fill:#FFFFFF;" width="32" height="32"/>
	<g>
		<path style="fill:#E6C571;" d="M31.56,11.505c-2.437-0.378-5.666-1.499-7.383-3.379l-4.994-4.411
			C14.651-0.817,7.774-1.293,3.239,3.24c-4.534,4.536-4.06,11.411,0.474,15.945l5.131,5.716c1.706,1.864,2.266,4.191,2.649,6.612
			c0.055,0.349,0.604,0.569,0.877,0.296c0.274-0.274,19.096-19.094,19.406-19.404C32.088,12.094,31.893,11.557,31.56,11.505z"/>
		<path style="fill:#FFFFFF;" d="M18.754,25.417c1.848,1.85,4.845,1.85,6.697,0c1.85-1.848,1.85-4.848,0-6.694L18.754,25.417z"/>
	</g>
</g>
</svg>
