<?xml version="1.0" encoding="UTF-8" standalone="no"?>
<!-- Generator: Adobe Illustrator 17.0.1, SVG Export Plug-In . SVG Version: 6.00 Build 0)  -->

<svg
   xmlns:dc="http://purl.org/dc/elements/1.1/"
   xmlns:cc="http://creativecommons.org/ns#"
   xmlns:rdf="http://www.w3.org/1999/02/22-rdf-syntax-ns#"
   xmlns:svg="http://www.w3.org/2000/svg"
   xmlns="http://www.w3.org/2000/svg"
   xmlns:sodipodi="http://sodipodi.sourceforge.net/DTD/sodipodi-0.dtd"
   xmlns:inkscape="http://www.inkscape.org/namespaces/inkscape"
   version="1.1"
   id="Layer_1"
   x="0px"
   y="0px"
   width="40"
   height="40"
   viewBox="0 0 40 40"
   xml:space="preserve"
   inkscape:version="0.91 r13725"
   sodipodi:docname="icon-m-bluetooth-device.svg"
   inkscape:export-filename="/Users/cgfrost/Dropbox/JollaGraphics/sailfish-generated-icons/icon-m-bluetooth-connected.png"
   inkscape:export-xdpi="45"
   inkscape:export-ydpi="45"><metadata
     id="metadata15"><rdf:RDF><cc:Work
         rdf:about=""><dc:format>image/svg+xml</dc:format><dc:type
           rdf:resource="http://purl.org/dc/dcmitype/StillImage" /><dc:title /></cc:Work></rdf:RDF></metadata><defs
     id="defs13" /><sodipodi:namedview
     pagecolor="#ffffff"
     bordercolor="#666666"
     borderopacity="1"
     objecttolerance="10"
     gridtolerance="10"
     guidetolerance="10"
     inkscape:pageopacity="0"
     inkscape:pageshadow="2"
     inkscape:window-width="1680"
     inkscape:window-height="984"
     id="namedview11"
     showgrid="false"
     fit-margin-top="0"
     fit-margin-left="0"
     fit-margin-right="0"
     fit-margin-bottom="0"
     inkscape:zoom="10.429825"
     inkscape:cx="-20.560134"
     inkscape:cy="9.6367714"
     inkscape:window-x="-1"
     inkscape:window-y="23"
     inkscape:window-maximized="0"
     inkscape:current-layer="Layer_1" /><g
     id="g5"
     style="opacity:1;fill:#ffffff;fill-opacity:1"
     transform="matrix(0.88886914,0,0,0.88886914,-8.5633653,-8.443368)"><path
       inkscape:connector-curvature="0"
       id="path7"
       d="m 50.134899,54.5 -36.000799,0 -4.5001,-4.5001 0,-36.0008 4.5001,-4.5001 36.000799,0 4.500101,4.5001 0,36.0008 z"
       style="fill:#ffffff;fill-opacity:1"
       sodipodi:nodetypes="ccccccccc" /></g><path
     inkscape:connector-curvature="0"
     id="path9"
     d="m 21.614472,35 c -0.275065,0 -0.54057,-0.06054 -0.78696,-0.182667 C 20.136134,34.476423 19.74,33.720263 19.74,32.744264 l 0,-10.598985 -8.03421,6.131057 c -0.467291,0.356839 -1.133179,0.265505 -1.487896,-0.199661 -0.3557785,-0.465165 -0.2665685,-1.132116 0.19966,-1.487893 l 8.634255,-6.58985 -8.634255,-6.590913 c -0.4662285,-0.355777 -0.5554385,-1.022728 -0.19966,-1.488955 0.354717,-0.466228 1.021667,-0.5565 1.488958,-0.19966 l 8.03421,6.132118 0,-10.595799 c 0,-0.9759987 0.396134,-1.7321587 1.08645,-2.0741299 0.691378,-0.3409093 1.531439,-0.1975363 2.307779,0.3940103 l 6.363646,4.8555666 c 0.70837,0.54057 1.114064,1.317971 1.114064,2.132541 0,0.814572 -0.405694,1.591972 -1.113002,2.132542 l -6.946697,5.300555 6.945635,5.302678 c 0.70837,0.54057 1.114064,1.316908 1.114064,2.132542 0,0.816695 -0.405694,1.593033 -1.114064,2.133603 L 23.135291,34.42226 C 22.635077,34.803526 22.109374,35 21.614472,35 Z m 0.249576,-12.854721 0,10.576683 6.346655,-4.843885 c 0.179481,-0.137 0.278249,-0.29418 0.278249,-0.444987 0,-0.149746 -0.09876,-0.306925 -0.278249,-0.443926 l -6.346655,-4.843885 z m 0,-14.8672535 0,10.5745585 6.346655,-4.842822 c 0.179481,-0.137002 0.278249,-0.295243 0.278249,-0.443927 0,-0.148682 -0.09876,-0.307986 -0.279311,-0.443925 L 21.864048,7.2780255 Z"
     style="fill:#0064ff;fill-opacity:1" /></svg>