<?xml version="1.0" encoding="UTF-8" standalone="no"?>
<!-- Generator: Adobe Illustrator 17.0.1, SVG Export Plug-In . SVG Version: 6.00 Build 0)  -->

<svg
   xmlns:dc="http://purl.org/dc/elements/1.1/"
   xmlns:cc="http://creativecommons.org/ns#"
   xmlns:rdf="http://www.w3.org/1999/02/22-rdf-syntax-ns#"
   xmlns:svg="http://www.w3.org/2000/svg"
   xmlns="http://www.w3.org/2000/svg"
   xmlns:sodipodi="http://sodipodi.sourceforge.net/DTD/sodipodi-0.dtd"
   xmlns:inkscape="http://www.inkscape.org/namespaces/inkscape"
   version="1.1"
   id="Layer_1"
   x="0px"
   y="0px"
   width="80"
   height="40"
   viewBox="0 0 80 40"
   xml:space="preserve"
   inkscape:version="0.91 r13725"
   sodipodi:docname="icon-m-battery-charging.svg"
   inkscape:export-filename="/Users/cgfrost/Dropbox/JollaGraphics/sailfish-generated-icons/icon-m-battery-charging.png"
   inkscape:export-xdpi="45"
   inkscape:export-ydpi="45"><metadata
     id="metadata15"><rdf:RDF><cc:Work
         rdf:about=""><dc:format>image/svg+xml</dc:format><dc:type
           rdf:resource="http://purl.org/dc/dcmitype/StillImage" /><dc:title /></cc:Work></rdf:RDF></metadata><defs
     id="defs13" /><sodipodi:namedview
     pagecolor="#ffffff"
     bordercolor="#666666"
     borderopacity="1"
     objecttolerance="10"
     gridtolerance="10"
     guidetolerance="10"
     inkscape:pageopacity="0"
     inkscape:pageshadow="2"
     inkscape:window-width="1554"
     inkscape:window-height="1006"
     id="namedview11"
     showgrid="false"
     inkscape:zoom="10.429825"
     inkscape:cx="32.984192"
     inkscape:cy="20.494534"
     inkscape:window-x="51"
     inkscape:window-y="46"
     inkscape:window-maximized="0"
     inkscape:current-layer="Layer_1"
     fit-margin-top="0"
     fit-margin-left="0"
     fit-margin-right="0"
     fit-margin-bottom="0" /><g
     id="g7"
     style="opacity:1;fill:#ffffff;fill-opacity:1;stroke:none"
     inkscape:export-xdpi="40.909092"
     inkscape:export-ydpi="40.909092"
     transform="matrix(0.90909091,0,0,0.90909091,30.909091,-9.0909091)"><path
       inkscape:connector-curvature="0"
       id="path9"
       d="M 49.6,54 14.4,54 10,49.6 9.9999999,14.4 14.4,10 l 35.2,0 4.4,4.4 0,35.2 z"
       style="fill:#ffffff;fill-opacity:1;stroke:none"
       sodipodi:nodetypes="ccccccccc" /></g><path
     inkscape:connector-curvature="0"
     id="path5"
     d="m 55.630909,35.475455 0,0 c -0.351818,0 -0.673636,-0.16091 -0.882727,-0.44 -0.314546,-0.42091 -0.336364,-1.012728 -0.07,-1.92 l 2.760909,-9.503637 c 0.155454,-0.3 0.197273,-0.577273 0.109091,-0.721818 -0.08909,-0.145455 -0.354546,-0.236364 -0.694546,-0.236364 l -6.986363,0 c -1.488182,0 -1.942728,-0.675454 -2.081818,-1.078181 -0.136364,-0.398182 -0.194546,-1.193637 0.931818,-2.096364 L 63.010909,5.3781818 C 63.554545,4.7509091 64.04,4.4490909 64.536364,4.4490909 64.889091,4.4490909 65.21,4.61 65.42,4.89 c 0.315455,0.42 0.335455,1.0127273 0.06818,1.920909 l -2.759091,9.502727 c -0.155455,0.300909 -0.197273,0.577273 -0.109091,0.721819 0.08909,0.145454 0.355455,0.235454 0.695455,0.235454 l 6.985454,0 c 1.487273,0 1.941818,0.675455 2.080909,1.078182 0.136364,0.398182 0.195455,1.194545 -0.932727,2.098182 L 57.154545,34.546364 c -0.541818,0.626363 -1.026363,0.929091 -1.523636,0.929091 z"
     style="fill:#0064ff;fill-opacity:1"
     sodipodi:nodetypes="ccccccsscccsccccsscccc"
     inkscape:export-xdpi="40.909092"
     inkscape:export-ydpi="40.909092" /><g
     inkscape:export-ydpi="40.909092"
     inkscape:export-xdpi="40.909092"
     style="opacity:1;fill:#ffffff;fill-opacity:1;stroke:none"
     id="g4135"
     transform="matrix(0.27272727,0,0,0.27272727,27.272727,11.272727)"><path
       sodipodi:nodetypes="sccccssss"
       style="fill:#ffffff;fill-opacity:1;stroke:none"
       d="m 49.729,54 -32.395665,2e-6 -7.333334,-7.333334 0,-29.333333 7.333334,-7.333334 L 49.729,10 c 2.355,-10e-8 4.271,1.917 4.271,4.272 l 0,35.455 C 54,52.083 52.084,54 49.729,54 Z"
       id="path4137"
       inkscape:connector-curvature="0" /></g><rect
     style="opacity:1;fill:#ffffff;fill-opacity:1;fill-rule:nonzero;stroke:none;stroke-width:75;stroke-linecap:round;stroke-linejoin:round;stroke-miterlimit:4;stroke-dasharray:none;stroke-opacity:1"
     id="rect4139"
     width="40"
     height="4"
     x="0"
     y="18"
     inkscape:export-xdpi="40.909092"
     inkscape:export-ydpi="40.909092" /></svg>